<?xml version="1.0" encoding="UTF-8"?> <svg xmlns="http://www.w3.org/2000/svg" viewBox="0 0 500 134.98"><defs><style>.a{fill:#1d2d5a;}.b{fill:#1b7abd;}.c{fill:#177abd;}.d{fill:none;}</style></defs><title>logo-vector</title><path class="a" d="M137.52,125c-10.67,0-18.46-7.44-18.46-19.35s7.64-19.35,18.46-19.35c11,0,17.77,7.85,17.77,17.42a33,33,0,0,1-.14,3.79h-31.2c.41,8.81,6.54,13.43,13.57,13.43,5.87,0,10-2.83,11.71-7.18a2,2,0,0,1,1.85-1.22h3.65C153,119.59,146.95,125,137.52,125Zm-13.57-21.42h26.44c.21-8.75-6.13-13.15-13.08-13.15S124.5,94.8,123.95,103.54Z" transform="translate(0 -40.01)"></path><path class="a" d="M183.58,86.26c9.43,0,15.56,5,17.29,12.81h-3.7a2,2,0,0,1-1.84-1.29c-1.63-4.6-5.93-7.38-11.75-7.38-7.37,0-13.36,5-13.36,15.22s6,15.29,13.36,15.29c5.82,0,10.08-2.74,11.74-7.46a2,2,0,0,1,1.84-1.29h3.7C199.15,119.66,193,125,183.58,125c-10.6,0-18.25-7.44-18.25-19.35S173,86.26,183.58,86.26Z" transform="translate(0 -40.01)"></path><path class="a" d="M213.19,73.45h2.86a2,2,0,0,1,2,2v17.8c2.41-4.61,7.37-7.09,13.08-7.09,8.33,0,15,5.23,15,16.25v22h-2.79a2,2,0,0,1-2-2V102.93c0-8.33-4.54-12.6-11.43-12.6S218,94.73,218,103.89v18.56a2,2,0,0,1-2,2h-2.86Z" transform="translate(0 -40.01)"></path><path class="a" d="M276.68,125c-10.61,0-18.66-7.44-18.66-19.35s8.26-19.35,18.8-19.35,18.8,7.37,18.8,19.35S287.29,125,276.68,125Zm0-4.2c7.09,0,14-4.82,14-15.15s-6.75-15.15-13.91-15.15-13.84,4.82-13.84,15.15S269.52,120.76,276.68,120.76Z" transform="translate(0 -40.01)"></path><path class="a" d="M336,102.93c0-8.33-4.54-12.6-11.43-12.6s-11.91,4.41-11.91,13.57v18.56a2,2,0,0,1-2,2h-2.86V86.81h2.86a2,2,0,0,1,2,2v4.44c2.41-4.68,7.23-7.09,12.81-7.09,8.54,0,15.29,5.23,15.29,16.25v22H338a2,2,0,0,1-2-2Z" transform="translate(0 -40.01)"></path><path class="b" d="M354.91,73.45h2.86a2,2,0,0,1,2,2v49h-2.86a2,2,0,0,1-2-2Z" transform="translate(0 -40.01)"></path><path class="b" d="M389.89,86.26c7.57,0,12.74,4.06,14.87,8.81V86.81h2.86a2,2,0,0,1,2,2v35.64h-2.86a2,2,0,0,1-2-2v-6.37c-2.2,4.82-7.44,8.88-14.94,8.88-10.26,0-17.9-7.64-17.9-19.42S379.56,86.26,389.89,86.26Zm.9,4.2c-7.92,0-14,5.51-14,15.08s6.06,15.22,14,15.22c7.71,0,14-5.78,14-15.15S398.5,90.46,390.79,90.46Z" transform="translate(0 -40.01)"></path><path class="b" d="M443.74,86.26c10.33,0,17.9,7.51,17.9,19.28S454,125,443.74,125c-7.51,0-12.67-3.93-14.94-8.81v8.26H426a2,2,0,0,1-2-2v-49h2.79a2,2,0,0,1,2,2V95.14C431.14,90.18,436.37,86.26,443.74,86.26Zm-1,4.2c-7.64,0-14,5.78-14,15.15s6.34,15.15,14,15.15c7.92,0,14-5.72,14-15.22S450.7,90.46,442.78,90.46Z" transform="translate(0 -40.01)"></path><path class="b" d="M486.92,125c-8.54,0-14.53-4.27-15.15-11.16h3.36a2,2,0,0,1,1.89,1.44c1,3.36,4.45,5.65,9.84,5.65s8.4-2.89,8.4-6.47c0-9.3-22.59-3.86-22.59-18,0-5.58,5.3-10.19,13.22-10.19s13.36,4.27,13.77,11.5h-3.17a2,2,0,0,1-1.89-1.52c-.86-3.42-3.85-5.85-8.85-5.85s-8.2,2.69-8.2,6c0,10.19,22.24,4.75,22.45,18C500,120.49,494.7,125,486.92,125Z" transform="translate(0 -40.01)"></path><path class="c" d="M127.94,143.36a3.09,3.09,0,0,1-3.17-3.32,3.05,3.05,0,0,1,3.17-3.3A2.94,2.94,0,0,1,131,139.8a5.67,5.67,0,0,1,0,.64h-5.13a2,2,0,0,0,2.08,2,1.76,1.76,0,0,0,1.8-1.18h1.15A2.88,2.88,0,0,1,127.94,143.36Zm-2.07-3.78h4.05a1.88,1.88,0,0,0-2-1.94A2,2,0,0,0,125.87,139.57Z" transform="translate(0 -40.01)"></path><path class="c" d="M147.45,139.62c0-1.31-.71-2-1.79-2s-1.84.68-1.84,2.06v3.55h-1.07v-6.42h1.07v.91a2.37,2.37,0,0,1,2.06-1,2.49,2.49,0,0,1,2.62,2.75v3.78h-1.05Z" transform="translate(0 -40.01)"></path><path class="c" d="M163.22,136.73a2.64,2.64,0,0,1,2.39,1.28v-1.17h1.08v6.56a2.88,2.88,0,0,1-3.07,3c-1.69,0-2.89-.85-3.1-2.22h1.05a2,2,0,0,0,2,1.3,1.9,1.9,0,0,0,2-2.1V142a2.68,2.68,0,0,1-2.39,1.31,3.09,3.09,0,0,1-3-3.34A3,3,0,0,1,163.22,136.73Zm.21.93a2.17,2.17,0,0,0-2.17,2.36,2.18,2.18,0,1,0,2.17-2.36Z" transform="translate(0 -40.01)"></path><path class="c" d="M178.64,135.07a.71.71,0,1,1,.73.73A.72.72,0,0,1,178.64,135.07Zm.18,1.77h1.07v6.42h-1.07Z" transform="translate(0 -40.01)"></path><path class="c" d="M196.71,139.62c0-1.31-.71-2-1.79-2s-1.84.68-1.84,2.06v3.55H192v-6.42h1.07v.91a2.37,2.37,0,0,1,2.06-1,2.49,2.49,0,0,1,2.62,2.75v3.78h-1.05Z" transform="translate(0 -40.01)"></path><path class="c" d="M212.61,143.36a3.09,3.09,0,0,1-3.17-3.32,3.05,3.05,0,0,1,3.17-3.3,2.94,2.94,0,0,1,3.08,3.07,5.67,5.67,0,0,1,0,.64h-5.13a2,2,0,0,0,2.08,2,1.76,1.76,0,0,0,1.8-1.18h1.15A2.88,2.88,0,0,1,212.61,143.36Zm-2.07-3.78h4.05a1.88,1.88,0,0,0-2-1.94A2,2,0,0,0,210.54,139.57Z" transform="translate(0 -40.01)"></path><path class="c" d="M230.2,143.36A3.09,3.09,0,0,1,227,140a3.05,3.05,0,0,1,3.17-3.3,2.94,2.94,0,0,1,3.08,3.07,5.67,5.67,0,0,1,0,.64h-5.13a2,2,0,0,0,2.08,2,1.76,1.76,0,0,0,1.8-1.18h1.15A2.88,2.88,0,0,1,230.2,143.36Zm-2.07-3.78h4.05a1.88,1.88,0,0,0-2-1.94A2,2,0,0,0,228.13,139.57Z" transform="translate(0 -40.01)"></path><path class="c" d="M246.08,143.25H245v-6.42h1.07v1a2.16,2.16,0,0,1,2.07-1.16v1.1h-.28c-1,0-1.79.46-1.79,1.94Z" transform="translate(0 -40.01)"></path><path class="c" d="M259.53,135.07a.71.71,0,1,1,.73.73A.72.72,0,0,1,259.53,135.07Zm.18,1.77h1.07v6.42H259.7Z" transform="translate(0 -40.01)"></path><path class="c" d="M277.61,139.62c0-1.31-.71-2-1.79-2s-1.84.68-1.84,2.06v3.55h-1.07v-6.42H274v.91a2.37,2.37,0,0,1,2.06-1,2.49,2.49,0,0,1,2.62,2.75v3.78h-1.05Z" transform="translate(0 -40.01)"></path><path class="c" d="M293.38,136.73a2.64,2.64,0,0,1,2.39,1.28v-1.17h1.08v6.56a2.88,2.88,0,0,1-3.07,3c-1.69,0-2.89-.85-3.1-2.22h1.05a2,2,0,0,0,2,1.3,1.9,1.9,0,0,0,2-2.1V142a2.68,2.68,0,0,1-2.39,1.31,3.09,3.09,0,0,1-3-3.34A3,3,0,0,1,293.38,136.73Zm.21.93a2.17,2.17,0,0,0-2.17,2.36,2.18,2.18,0,1,0,2.17-2.36Z" transform="translate(0 -40.01)"></path><path class="a" d="M322.25,135.07a.71.71,0,1,1,.73.73A.72.72,0,0,1,322.25,135.07Zm.18,1.77h1.07v6.42h-1.07Z" transform="translate(0 -40.01)"></path><path class="a" d="M344.89,139.62c0-1.31-.7-2-1.76-2s-1.81.69-1.81,2.07v3.54h-1.05v-3.63c0-1.31-.7-2-1.76-2s-1.81.69-1.81,2.07v3.54h-1.07v-6.42h1.07v.93a2.32,2.32,0,0,1,2-1,2.41,2.41,0,0,1,2.35,1.43,2.38,2.38,0,0,1,2.27-1.43,2.48,2.48,0,0,1,2.6,2.75v3.78h-1.05Z" transform="translate(0 -40.01)"></path><path class="a" d="M360.66,136.73a2.66,2.66,0,0,1,2.39,1.28v-1.17h1.08v6.42h-1.08v-1.19a2.68,2.68,0,0,1-2.4,1.3,3.09,3.09,0,0,1-3-3.34A3,3,0,0,1,360.66,136.73Zm.21.93a2.17,2.17,0,0,0-2.17,2.36,2.18,2.18,0,1,0,2.17-2.36Z" transform="translate(0 -40.01)"></path><path class="a" d="M378.91,136.73a2.64,2.64,0,0,1,2.39,1.28v-1.17h1.08v6.56a2.88,2.88,0,0,1-3.07,3c-1.69,0-2.89-.85-3.1-2.22h1.05a2,2,0,0,0,2,1.3,1.9,1.9,0,0,0,2-2.1V142a2.68,2.68,0,0,1-2.39,1.31,3.09,3.09,0,0,1-3-3.34A3,3,0,0,1,378.91,136.73Zm.21.93A2.17,2.17,0,0,0,377,140a2.18,2.18,0,1,0,2.17-2.36Z" transform="translate(0 -40.01)"></path><path class="a" d="M394.33,135.07a.71.71,0,1,1,.73.73A.72.72,0,0,1,394.33,135.07Zm.18,1.77h1.07v6.42H394.5Z" transform="translate(0 -40.01)"></path><path class="a" d="M412.4,139.62c0-1.31-.71-2-1.79-2s-1.84.68-1.84,2.06v3.55h-1.07v-6.42h1.07v.91a2.37,2.37,0,0,1,2.06-1,2.49,2.49,0,0,1,2.62,2.75v3.78H412.4Z" transform="translate(0 -40.01)"></path><path class="a" d="M428.17,136.73a2.66,2.66,0,0,1,2.39,1.28v-1.17h1.08v6.42h-1.08v-1.19a2.68,2.68,0,0,1-2.4,1.3,3.09,3.09,0,0,1-3-3.34A3,3,0,0,1,428.17,136.73Zm.21.93a2.17,2.17,0,0,0-2.17,2.36,2.18,2.18,0,1,0,2.17-2.36Z" transform="translate(0 -40.01)"></path><path class="a" d="M444,137.71h-.83v-.88H444v-1.62h1.07v1.62h1.67v.88h-1.67v3.78c0,.63.23.85.89.85h.78v.9h-1c-1.14,0-1.78-.47-1.78-1.76Z" transform="translate(0 -40.01)"></path><path class="a" d="M458.18,135.07a.71.71,0,1,1,.73.73A.72.72,0,0,1,458.18,135.07Zm.18,1.77h1.07v6.42h-1.07Z" transform="translate(0 -40.01)"></path><path class="a" d="M474.36,143.36a3.31,3.31,0,1,1,3.29-3.32A3.18,3.18,0,0,1,474.36,143.36Zm0-.94a2.18,2.18,0,0,0,2.2-2.39,2.15,2.15,0,0,0-2.17-2.38,2.4,2.4,0,0,0,0,4.76Z" transform="translate(0 -40.01)"></path><path class="a" d="M494.08,139.62c0-1.31-.71-2-1.79-2s-1.84.68-1.84,2.06v3.55h-1.07v-6.42h1.07v.91a2.37,2.37,0,0,1,2.06-1,2.49,2.49,0,0,1,2.62,2.75v3.78h-1.05Z" transform="translate(0 -40.01)"></path><path class="a" d="M13.81,136.89A38.17,38.17,0,0,1,38.76,69.34c20.94.32,37.57,17.8,37.57,38.74v6.66H37.85v-8.18a6.29,6.29,0,0,1,6.29-6.29H60.73a23.7,23.7,0,1,0-41.12,22,6.23,6.23,0,0,1-.15,7.84Z" transform="translate(0 -40.01)"></path><path class="c" d="M38.17,175v-8.52a6.3,6.3,0,0,1,5.66-6.26,53,53,0,0,0,0-105.44,6.3,6.3,0,0,1-5.66-6.26V40a67.49,67.49,0,0,1,0,135Z" transform="translate(0 -40.01)"></path><path class="d" d="M90.47,142.5" transform="translate(0 -40.01)"></path></svg> 