<svg xmlns="http://www.w3.org/2000/svg" xmlns:xlink="http://www.w3.org/1999/xlink" id="Слой_1" data-name="Слой 1" viewBox="0 0 3423.56 2137.45"><defs><style>.cls-1{fill:none}.cls-2{fill:#e7f3fe}.cls-3{fill:#cce2ff}.cls-28,.cls-4{fill:#9ec8ff}.cls-26,.cls-4{opacity:.5}.cls-26,.cls-5{fill:#fff}.cls-6{fill:#303c60}.cls-7{fill:#4476bd}.cls-8{fill:#3e6bab}.cls-9{fill:#f09959}.cls-10{fill:#a2dff2}.cls-11{fill:#96cfe0}.cls-12{fill:#e38540}.cls-13{fill:#f5dc95}.cls-14{fill:#a8ceff}.cls-15{fill:#93bbf0}.cls-16{fill:#75a1de}.cls-17{fill:#2e5b9a}.cls-18{fill:#6791c9}.cls-19{fill:#f37168}.cls-20{fill:#d54a41}.cls-21{fill:#f2e5de}.cls-22{fill:#a86b48}.cls-23{fill:#7a4e34}.cls-24{fill:#74b570}.cls-25{fill:#9cd499}.cls-27{fill:#94bdf2}.cls-29{fill:#f39892}.cls-30{clip-path:url(#clip-path)}.cls-31{fill:#ffb8b3}.cls-32{fill:#fae8b6}</style><clipPath id="clip-path" transform="translate(-288.22 -362.55)"><path d="M462.56,544.46A142.24,142.24,0,1,0,604.8,686.7,142.23,142.23,0,0,0,462.56,544.46Zm0,217.59a75.35,75.35,0,1,1,75.35-75.35A75.36,75.36,0,0,1,462.56,762.05Z" class="cls-1"/></clipPath></defs><path d="M674.23,527.25c515.63-191.42,1039.7-22.18,1395.13,346.42s1101.36-254.42,1497,113.58c270,251.14,146.31,896.84-223.87,1176.5C2839.27,2543.88,964.74,2555.3,653.72,2424.86c-531.49-222.91-3.4-635.68-251.49-1031.37C109.55,926.67,446.37,611.85,674.23,527.25Z" class="cls-2" transform="translate(-288.22 -362.55)"/><path d="M3576.66,2315c-258.11-12.62-1136.14,8.76-1403.18,17.09s-577-11-738-39.42S343.73,2295.05,386,2371.47s414.67,34.19,837,64.91,1372.23-3.84,1586.5,0,410.74-7.68,686.86-23S3726.27,2322.27,3576.66,2315Z" class="cls-3" transform="translate(-288.22 -362.55)"/><path d="M3016.88,632.79a249.73,249.73,0,0,0,1.56-27.78c0-5-.16-9.87-.45-14.76l-45.91-14.85a201.53,201.53,0,0,0-16.25-55l30.44-37.46a248,248,0,0,0-24.11-35.05l-45.91,15a204.22,204.22,0,0,0-45.45-34.93l2.61-48.24a245.85,245.85,0,0,0-40.08-14.2L2805,404.62a204.32,204.32,0,0,0-57.31-1.5l-26.25-40.57a245.33,245.33,0,0,0-40.78,12.05l.06,48.31a203.54,203.54,0,0,0-47.23,32.49l-45-17.38a247.76,247.76,0,0,0-25.93,33.72l28.42,39a201.37,201.37,0,0,0-19.16,54.06l-46.62,12.4a249.87,249.87,0,0,0-1.56,27.78c0,5,.16,9.88.45,14.76l45.9,14.85a202.2,202.2,0,0,0,16.25,55l-30.43,37.45a247.47,247.47,0,0,0,24.11,35l45.91-15a204.1,204.1,0,0,0,45.45,34.94l-2.61,48.23a245,245,0,0,0,40.08,14.21L2737,805.41a204.45,204.45,0,0,0,34,2.84,206.64,206.64,0,0,0,23.34-1.34l26.25,40.57a245.89,245.89,0,0,0,40.77-12.05l-.06-48.31a203.69,203.69,0,0,0,47.24-32.49l45,17.38a248.73,248.73,0,0,0,25.94-33.73l-28.42-39a202.18,202.18,0,0,0,19.16-54.06ZM2771,702.06a97,97,0,1,1,97.05-97A97,97,0,0,1,2771,702.06Z" class="cls-4" transform="translate(-288.22 -362.55)"/><path d="M2903.37,717.07a5,5,0,0,1-3.84-8.2,162.82,162.82,0,0,0,28.68-156.81,5,5,0,0,1,9.46-3.26,172.87,172.87,0,0,1-30.45,166.47A5,5,0,0,1,2903.37,717.07Z" class="cls-5" transform="translate(-288.22 -362.55)"/><path d="M2889.32,488a5,5,0,0,1-3.43-1.36,161.73,161.73,0,0,0-55.95-34.48,5,5,0,1,1,3.41-9.4,171.58,171.58,0,0,1,59.4,36.6,5,5,0,0,1-3.43,8.64Z" class="cls-5" transform="translate(-288.22 -362.55)"/><path d="M2733.36,447.56a5,5,0,0,1-1.22-9.85,173.47,173.47,0,0,1,42.35-5.24,5,5,0,0,1,0,10,163,163,0,0,0-39.91,4.94A5.15,5.15,0,0,1,2733.36,447.56Z" class="cls-5" transform="translate(-288.22 -362.55)"/><rect width="1546.45" height="928.88" x="786.67" y=".71" class="cls-4"/><rect width="1454.92" height="852.73" x="862.01" y="23.37" class="cls-5"/><path d="M2390.87,826.62c69.34-66,187.84-64.5,185.34,36s5.8,109.94,34.33,162.67c99,182.93-118,172.16-208.5,178.16s-83-164.5-67-259S2370.58,845.93,2390.87,826.62Z" class="cls-6" transform="translate(-288.22 -362.55)"/><path d="M2423.19,1402.85c-22.23,186.67-62.62,324.67-67.12,413.16s-22.5,436.94-22.5,436.94,49.5-3.46,54-11,93-204,88.5-325.48,88.39-306.23,88.39-306.23L2542.06,1429Z" class="cls-7" transform="translate(-288.22 -362.55)"/><path d="M2444.54,1484.12l-34.76,14.54c-9.45,59.2-19.94,112.42-29.14,159.62,55.32,35.77,83.89,154.92,96.14,227.77,6.24-81.51,44.7-180,68.56-234.48Z" class="cls-8" transform="translate(-288.22 -362.55)"/><path d="M2605.06,1384s74.92,95.57,72.57,204c-3.57,165-21.57,212.17,9.75,385.24,12.23,67.59-27,288.69-27,288.69s-33.51,2.63-51.51-6.33c1.5-16.25-21.66-280.52-66.76-402-21.85-58.83-52.54-223.59-69-318.08s-19.5-114-13.5-114S2605.06,1384,2605.06,1384Z" class="cls-7" transform="translate(-288.22 -362.55)"/><path d="M2178.21,1118.62s3.33-49.45-2-64.73-51.34-28.6-51.34-28.6-2,70.66,2.67,79.33,32,33.33,32,33.33Z" class="cls-9" transform="translate(-288.22 -362.55)"/><path d="M2436.86,1082.59c-105.32,113.36-139.7,161.07-147.7,161.07-25-44.13-108-137.47-108-137.47l-35.4,22.76s81.82,213.78,133.82,216,157.69-73.72,159-82.44S2436.86,1082.59,2436.86,1082.59Z" class="cls-10" transform="translate(-288.22 -362.55)"/><path d="M2327,1333.85c51.53-21,110.56-64.85,111.56-71.36,1.34-8.72-1.71-179.9-1.71-179.9-23,24.71-43,46.63-60.4,65.8C2357.59,1218.66,2358.83,1295.17,2327,1333.85Z" class="cls-11" transform="translate(-288.22 -362.55)"/><path d="M2543.87,1008s100.79,50.52,122.79,140-43.1,199.91-51.1,258.87-192,69.33-192,6.22c0-60.5-46.1-188.94-43.5-221.65,6.11-76.76,118.31-170.79,118.31-170.79Z" class="cls-10" transform="translate(-288.22 -362.55)"/><path d="M2514.58,892.1l43.27,133.43s-46.2,35.65-125.27,121.42c3.07-57.07,50.89-119.29,50.89-119.29l-32.73-126Z" class="cls-9" transform="translate(-288.22 -362.55)"/><path d="M2534.76,954.34l-20.18-62.24-63.84,9.56,32.73,126s-3.2,5.09-7.91,13.1C2506.39,1017.87,2525.31,989.39,2534.76,954.34Z" class="cls-12" transform="translate(-288.22 -362.55)"/><path d="M2490.74,922.22c-11.67,42.46-56.86,65.83-89,57s-39-46.52-27.31-89,47.17-69.72,79.28-60.9S2502.41,879.75,2490.74,922.22Z" class="cls-9" transform="translate(-288.22 -362.55)"/><path d="M2415.53,1353.17c14,88.78-38,278.73-38,278.73s31,7,124-2,134-101.82,148-104.41,21.19,86.38,28.09,93.41,8-112.35-10.09-159.28c-32-83.2-25.74-118.49-13.78-168.89C2675,1201.15,2415.53,1353.17,2415.53,1353.17Z" class="cls-10" transform="translate(-288.22 -362.55)"/><path d="M2335.83,2209.25c8.38,34-8.16,61-30.29,80.7-18,16-73.33,22.8-70.67,30.8s68,10.54,90,7.2,28-14,55.38-14c18,0,21.29-14.6,13.29-32.64s-10.8-28-3.57-44.2S2335.83,2209.25,2335.83,2209.25Z" class="cls-7" transform="translate(-288.22 -362.55)"/><path d="M2662.31,2209.25c-1.34,35.33-5.44,61.66,3.23,78,33.47,28,61.29,59.8,50.67,62-50.67,10.46-70-19.91-98.67-28.54-35.18-10.59,3.33-54.8-10.45-111.5-7.67-31.52,53.12-24,53.12-24Z" class="cls-7" transform="translate(-288.22 -362.55)"/><path d="M2675.1,1488.63c-2-11.08-4.52-21.05-7.56-29-32-83.2-25.74-118.49-13.78-168.89a39,39,0,0,0,1.21-10.52c2.7-9,5.22-18.1,7.43-27.26l-10.86-98-78.31-93c-58.69,86-19.08,193-27.89,252s-107.14,134.23-107.14,134.23l3.2,20.93a53.15,53.15,0,0,0,59.78,44.67c40.53-5.62,93.7-16.93,117.36-38.88C2641.43,1453.65,2661.71,1470.09,2675.1,1488.63Z" class="cls-11" transform="translate(-288.22 -362.55)"/><path d="M2461.19,1444.8s-43.41,12.15-48.6,14.87-8.06,17.06-8.06,17.06-24.85,21.58-15.33,29.22,26.52,27,49,18c13.79-5.53,24.49-56.22,33.53-56.62S2461.19,1444.8,2461.19,1444.8Z" class="cls-9" transform="translate(-288.22 -362.55)"/><path d="M2584.14,1050.62c46.46,1.31,88.59,85,103.27,157.6S2717.54,1384,2717.54,1384s-77,60.77-153.08,78.53c-66.38,15.5-100.26,21.56-100.26,21.56l-13.46-37.89,158.8-93.28s-58.39-110-64.2-193S2548.83,1049.62,2584.14,1050.62Z" class="cls-10" transform="translate(-288.22 -362.55)"/><rect width="118.13" height="75.02" x="2027.59" y="1019.53" class="cls-13" transform="translate(-455.39 68.61) rotate(-11.35)"/><path d="M2150.35,1112.62c1.59-30.42-13.48-71.92-22.14-71.86s2.66,27.19-2,45.19C2123.68,1095.71,2150.35,1112.62,2150.35,1112.62Z" class="cls-9" transform="translate(-288.22 -362.55)"/><path d="M2383,842.62c2.58,83.33,99.91,76.94,126.58,71.8s-32.47,175.81,18.33,186.25c37.3,7.67,28.9-50.68,70.34-46.78,18.33,1.73,36.75,30.07,36.75,30.07s-2.75-17.46-16.75-30.07S2567.5,964,2557.85,908.62s-75-91.12-94.31-92.23-66.67,20.9-66.67,20.9Z" class="cls-6" transform="translate(-288.22 -362.55)"/><path d="M2527,1119.54a19.13,19.13,0,0,1-4-.43c-16.26-3.47-24.14-20.55-24.81-53.78-.58-28.47,4.13-65,9.11-103.72,2-15.63,4.1-31.8,5.82-47.45a2.43,2.43,0,1,1,4.84.53c-1.72,15.7-3.81,31.89-5.82,47.55-9.65,74.86-18.76,145.58,11.87,152.1a13.8,13.8,0,0,0,2.85.3c17.59,0,33.43-34.28,42.66-67.67a2.44,2.44,0,1,1,4.7,1.3C2568.12,1070.31,2551.73,1119.53,2527,1119.54Z" class="cls-6" transform="translate(-288.22 -362.55)"/><path d="M2520.5,1138.9a19.21,19.21,0,0,1-14.4-6.4c-33.18-35.07-.37-211,1-218.53a2.44,2.44,0,0,1,4.79.91c-.34,1.8-33.77,181-2.29,214.27a14.54,14.54,0,0,0,13.25,4.72c17.23-2.28,27.17-25.65,36-46.28,8.51-20,16.52-38.9,30.78-38.41a2.44,2.44,0,0,1,2.35,2.52,2.4,2.4,0,0,1-2.52,2.35h-.35c-10.69,0-18,17.22-25.78,35.45-9.28,21.82-19.81,46.56-39.8,49.2A22.2,22.2,0,0,1,2520.5,1138.9Z" class="cls-6" transform="translate(-288.22 -362.55)"/><path d="M2513.15,930.43c-6.86,8.84-17.61,12-24,7s-6-16.16.84-25,17.6-12,24-7S2520,921.59,2513.15,930.43Z" class="cls-9" transform="translate(-288.22 -362.55)"/><path d="M1756.88,1239c23.76,47.52,4.09,102.23-42.65,121.57-47,19.46-98.48,8.4-122.24-39.11s-6.12-104.5,39.42-127.27S1733.11,1191.5,1756.88,1239Z" class="cls-6" transform="translate(-288.22 -362.55)"/><path d="M1628.78,1366.29c-5.24,0-15.58-1.85-28.72-13.51-10.79-9.57-18.53-24.24-21.8-41.31-4.14-21.54-1.44-46.31,8-73.61a2.43,2.43,0,1,1,4.6,1.59c-9.16,26.49-11.79,50.41-7.82,71.11,3.08,16,10.27,29.71,20.25,38.57,16.67,14.79,27.84,12.1,28,12.07a2.46,2.46,0,0,1,3,1.71,2.42,2.42,0,0,1-1.68,3A14.48,14.48,0,0,1,1628.78,1366.29Z" class="cls-6" transform="translate(-288.22 -362.55)"/><path d="M1701.45,1423.92c27,6.06,61.19,81.22,77.91,129.36,16.86,48.56,45.45,108.8,64.17,127.52s141.71,62.11,141.71,62.11-303.89.58-297.67,0S1701.45,1423.92,1701.45,1423.92Z" class="cls-14" transform="translate(-288.22 -362.55)"/><path d="M1862.78,1718.76c-16.63-2.37-76.65,5.35-51.1-5.34s22-24.37,22-24.37-36.25,30.31-42.78,3.81c-5.64-22.85-7.8-103.52-29.19-184.38-17.67-40.09-40.8-80.2-60.25-84.56,0,0-.68,28.47-1.81,68.39,7.46,88.34,20.13,218.12,23.34,250.83,40.28.06,107.69,0,164.09-.08l37.51-1.78S1879.42,1721.14,1862.78,1718.76Z" class="cls-15" transform="translate(-288.22 -362.55)"/><path d="M1602,1407.27s-86,48.07-106.08,58.29,56.18,310.27,73.14,323.13,166.22,2.21,183.21-14-13-65.92,1.67-165.47-44.86-185.5-52.51-185.31-57.59-16.65-57.59-16.65Z" class="cls-14" transform="translate(-288.22 -362.55)"/><path d="M1569.08,1788.69c17,12.86,123.76,13.15,169.23-1,5.13-1.6,28.43-10.88,29-19.61-5.48-1-27.27,1.59-36.11-.44-30.75-7.07-47.69-45.16-47.69-45.16s-16.93-6.09-54.81-22.14-22.28-64.61-23.17-86-37.44-91.35-106.07-144.39l-6.29,2.82C1488.24,1521.53,1553.39,1776.8,1569.08,1788.69Z" class="cls-15" transform="translate(-288.22 -362.55)"/><path d="M2160.11,1553.28H1953l-94.35,200.77H2086.8l85.4-181.74A13.35,13.35,0,0,0,2160.11,1553.28Z" class="cls-16" transform="translate(-288.22 -362.55)"/><path d="M1871,1756.89H1746.32a14,14,0,0,1,0-28H1862l78.23-168.37a14,14,0,1,1,25.39,11.8l-82,176.47A14,14,0,0,1,1871,1756.89Z" class="cls-8" transform="translate(-288.22 -362.55)"/><path d="M1654.81,1714c54.08,10.1,67.37,22.52,96.85,27.27,33.41,5.38,29.44,12.77,4.62,12.77s-87.18,1-108.58-3.79S1654.81,1714,1654.81,1714Z" class="cls-9" transform="translate(-288.22 -362.55)"/><path d="M1489.18,1471.19c-41.44,132.5-100.19,282.86-90.83,282.86s247.32,9.62,256.68,1.6,6.68-38.76,5.35-42.77-135.29-27.78-135.29-27.78,17.64-34.37,24.32-101.56S1497,1446.06,1489.18,1471.19Z" class="cls-14" transform="translate(-288.22 -362.55)"/><path d="M1633.53,1292.13l-33.38,122s56.4,88.05,71.91,80.23-8.67-71.57-8.67-80.23,24.18-98,24.18-98Z" class="cls-9" transform="translate(-288.22 -362.55)"/><path d="M1664.55,1420.34a32.5,32.5,0,0,1-1.16-6.22c0-8.66,24.18-98,24.18-98l-54-24-11,40.37C1632.13,1374.2,1649.54,1402,1664.55,1420.34Z" class="cls-12" transform="translate(-288.22 -362.55)"/><path d="M1758.44,1290.11c6.36,35.38,2.17,82.36-29.24,94.31s-69.25-10.91-84.52-51.05-2.17-82.36,29.25-94.3S1750.84,1247.85,1758.44,1290.11Z" class="cls-9" transform="translate(-288.22 -362.55)"/><path d="M1652.13,1310c4.4,12.37.58,25-8.54,28.27s-20.09-4.15-24.49-16.51-.58-25,8.54-28.27S1647.73,1297.65,1652.13,1310Z" class="cls-9" transform="translate(-288.22 -362.55)"/><path d="M1758.81,1245.67c-10.7,83-111.55,72.32-111.55,72.32s-20.8-27.35-30.16-13,13-84.15,70.85-87.26C1707,1216.7,1758.81,1245.67,1758.81,1245.67Z" class="cls-6" transform="translate(-288.22 -362.55)"/><ellipse cx="1313.46" cy="848.03" class="cls-6" rx="54.62" ry="51.25"/><polygon points="1204.65 1994.66 1217.15 1994.66 1297.8 1620.96 1270.32 1620.96 1204.65 1994.66" class="cls-17"/><polygon points="1593 1994.66 1580.51 1994.66 1486.64 1607.75 1514.12 1607.75 1593 1994.66" class="cls-17"/><path d="M1635.39,1997.51c-50,0-81.74-9-102-28.7-25.07-24.43-30.26-62.27-30.34-111.57-.06-38.8-1-64.07-3.08-84.5a14,14,0,1,1,27.85-2.86c2.2,21.41,3.17,47.52,3.23,87.32.08,50,6.42,76.49,21.88,91.56,15.87,15.45,44.55,21.83,93,20.61,46.77-1.15,79-7.7,104.83-12.95,34-6.92,58.61-11.92,87.76,2a14,14,0,1,1-12.07,25.27c-20.69-9.89-38.25-6.32-70.11.15-26.95,5.48-60.48,12.3-109.72,13.51Q1640.87,1997.51,1635.39,1997.51Z" class="cls-17" transform="translate(-288.22 -362.55)"/><path d="M1521.71,1755.65l76.6,3.19-20.4,211.47s-57.09-36.45-56.2-75.66S1521.71,1755.65,1521.71,1755.65Z" class="cls-17" transform="translate(-288.22 -362.55)"/><path d="M1899.81,1775.35c64.76-9.82,86.77-6.73,126.41,67S2118.61,2049,2149,2066.12c45.69,25.83,60.83,89.17,79.59,86.32s30.83,5.45,10.42,22.41-53.38,31.42-64.65,28.4-20-51.71-49.46-67.53-20.59-28.81-18.66-42.79-85.94-78.4-152.19-158.5c-40.47-48.94-61.32-81.25-64.41-110.53S1899.81,1775.35,1899.81,1775.35Z" class="cls-9" transform="translate(-288.22 -362.55)"/><path d="M2060.36,2042.83c-15-38.16-30.13-101.14-44.31-158.88-20.17-82.11-41.31-101.61-54.7-110.37-16.19-4-35.37-2.2-61.54,1.77,0,0-13.31,19.27-10.22,48.55s23.94,61.59,64.41,110.53c34.88,42.18,75.75,80,106.36,108.4Z" class="cls-12" transform="translate(-288.22 -362.55)"/><path d="M1919.53,1840.28s-17.23,130-33.28,143.23c-11.47,9.45-19.6,10.08-27.63-28.7s12.48-183.5,12.48-183.5Z" class="cls-17" transform="translate(-288.22 -362.55)"/><polygon points="1617.58 1548.08 1458.1 1574.88 1548.14 1445.78 1616.66 1431.83 1657.75 1441.28 1617.58 1548.08" class="cls-9"/><path d="M2106.19,2092.93c-5.17,20.83-4.55,36.23,4.44,44s42.92,65.07,42.92,65.07l10.58-1.6-24.49-52.48Z" class="cls-17" transform="translate(-288.22 -362.55)"/><path d="M2174.31,2203.25c11.27,3,44.24-11.43,64.65-28.4s8.34-25.25-10.42-22.41a8.11,8.11,0,0,1-3.14-.15c-9.37,20.93-40.19,36.63-50.13,14.52-9.86-21.91-52.08-65.52-69.09-74.86a4,4,0,0,1,0,1c-1.93,14-10.78,27,18.66,42.79S2163,2200.24,2174.31,2203.25Z" class="cls-17" transform="translate(-288.22 -362.55)"/><path d="M1574.3,1780.56c-56.58,101.54-17.93,166.08,50.84,172.65s177.33-6,240.61-58.56,115.23-108.19,108-116.49S1574.3,1780.56,1574.3,1780.56Z" class="cls-12" transform="translate(-288.22 -362.55)"/><path d="M1895.17,1856.32c11.58-34.76,24.94-61.43,50.8-61.91,27.19-.51,43.92,13.64,45.08,58.12,1.38,53,3.25,228.39.8,306.39-1.85,59,15.36,77.95,13.9,139.5-1.09,46.35,48.33,22.94,29.24,47-13.13,16.53-52.21,11.13-76.21,8.07-21.39-2.72,11.07-66.82-18.53-83.95-25.4-14.71-25.9-38.59-9.86-56.66s1.78-71.55-8.91-109-27.29-77.93-38.18-166.44C1880.19,1912.2,1888.09,1877.55,1895.17,1856.32Z" class="cls-9" transform="translate(-288.22 -362.55)"/><path d="M2018.08,2326.48c-8.19,2.5-18.29,5.25-27.08,5.54-17.83.6-23.18-19-24.36-45.65-1-23.26-17.93-59.88-35.26-74.74-.32.43-.64.84-1,1.23-16,18.07-15.54,41.95,9.86,56.66,29.6,17.13-2.86,81.23,18.53,83.95,24,3.06,63.08,8.46,76.21-8.07C2047.4,2329.78,2032,2328.53,2018.08,2326.48Z" class="cls-17" transform="translate(-288.22 -362.55)"/><path d="M1934.4,2206.24s-26,27.15-23.62,38.44,10.39,39.81,11.73,61.79,2.53,47.22,2.53,47.22,9.36,0,10.1-2.65,5.95-89.36,5.95-89.36Z" class="cls-17" transform="translate(-288.22 -362.55)"/><path d="M1547.05,1771.31s-33.56,142.43,8.84,181.9,218.48,4,259.95,1.6c28.08-1.6,55.26,32.67,55.26,32.67s-19.61-79.46-6.24-143.64,35-68.49,35-68.49l-28.71-4Z" class="cls-16" transform="translate(-288.22 -362.55)"/><path d="M1539.45,1734.07c14.35,30.45-15.45,83-5,98.19s70.24,2.12,109.42-29.42,113.33-38.47,113.33-38.47Z" class="cls-14" transform="translate(-288.22 -362.55)"/><path d="M1600.15,1993.58c118.54,4.46,243.32,2.35,243.32-15.31s-5.35-30.15-97.15-23-154.19,16.94-181.82,10.7S1600.15,1993.58,1600.15,1993.58Z" class="cls-17" transform="translate(-288.22 -362.55)"/><rect width="1696.03" height="32.27" x="892.95" y="1391.5" class="cls-17" rx="12.91"/><path d="M3086.22,1321.55c11.48,40.48-16.57,82.21-47.47,91s-52.94-18.75-64.43-59.23,4.26-80.42,35.15-89.18S3074.73,1281.06,3086.22,1321.55Z" class="cls-9" transform="translate(-288.22 -362.55)"/><path d="M2913,2106.1s79.19,123,89.88,128.34,37.44,6.68,27.41,26.73-14,98.93-23.4,102.94-89.57,13.37-77.54,0,19.44-6.68,25.51-30.74,14.6-69.52,3.24-78.88-80.88-93.58-80.88-93.58Z" class="cls-9" transform="translate(-288.22 -362.55)"/><path d="M2514.42,2158.92s-96.26,158.65-114.09,172.91-76.65,35.65-28.52,39.21,71.31-16,101.61-24.95,67.74-14.26,53.48-37.44-8.34-73.76,22.4-105.85S2514.42,2158.92,2514.42,2158.92Z" class="cls-9" transform="translate(-288.22 -362.55)"/><path d="M3005.65,1791s-238.29-6.23-332.77,71.31c-55.26,83.78-189,331-199.34,358.22,7.13,7.13,47.24,20,65.07,18.22,52.59-62.71,122.09-116.91,149.74-166.1,34.06-60.6,44.56-90.91,99.82-96.26s180-23.17,217.48-23.17S3005.65,1791,3005.65,1791Z" class="cls-18" transform="translate(-288.22 -362.55)"/><polygon points="2925.23 2008.92 2912.74 2008.92 2823.17 1635.22 2850.65 1635.22 2925.23 2008.92" class="cls-17"/><polygon points="2551.05 2008.92 2563.55 2008.92 2666.33 1622.01 2638.85 1622.01 2551.05 2008.92" class="cls-17"/><path d="M3141.4,1774.7l-138.54,23.91s-184.1,1.7-268.25,17.37c-76.57,14.26-87.85,101.25,0,221,49.9,68.05,92.09,122.33,178.37,183.53,21.95-16.11,30.34-22.21,36.41-61-6.25-8.56-22.41-62.15-27.43-72.64-47.72-99.75-111.42-136-112.3-145.85,10.69-17.38,283.3,90.59,337.5,27.08C3198.91,1907.52,3141.4,1774.7,3141.4,1774.7Z" class="cls-16" transform="translate(-288.22 -362.55)"/><path d="M3147.16,1461.06c-36.49-5.12-73.65,1.81-108.41,27-30.37,31-64.73,82-62.62,166.23,2.67,107-16.55,113.81,3.5,143.23,83.64,34.53,226.68,182.93,193,23.84-24.4-115.19,53.49-201.06-9.34-328.84C3158.17,1482.1,3151.78,1472,3147.16,1461.06Z" class="cls-19" transform="translate(-288.22 -362.55)"/><path d="M2976.1,1694.5c-1.62,55.76-9.5,72.19-3.48,89.67,34.1,3.48,96.47,17.12,112.06,38.94,17.82,25,35.65,28.52,27.33,10.1s-30.3-44.56,3.57-134.29,49.91-150.33,16.63-212.72Z" class="cls-20" transform="translate(-288.22 -362.55)"/><path d="M3147.16,1461.06c-22.47-53.19-28-113-28-113l-58.82,17.38s33.42,74.86,1.34,101.6a309.69,309.69,0,0,0-22.94,20.94C3073.51,1462.87,3110.67,1455.94,3147.16,1461.06Z" class="cls-9" transform="translate(-288.22 -362.55)"/><path d="M3120.94,1362.27c-3.48-3.1-7.84-7-12.42-11l-48,14.17c0,.09-.07.18-.1.26,1.16,2.66,13.38,31.17,15,58.6,14.3-8.67,30-22.82,47.85-47.52C3122.31,1371.29,3121.54,1366.4,3120.94,1362.27Z" class="cls-12" transform="translate(-288.22 -362.55)"/><path d="M3105.8,1477.79c-60.58,21.19-53.86,85-109.62,179.14-28.86,48.71-55.66,48-55.66,48a1291.15,1291.15,0,0,1-149.53-9.47c-51.26-6.27-54.51,9-18.86,21.74,71.9,25.7,146.51,53.37,206.67,46.69s163-160.18,168.36-200.14C3154.5,1508.48,3136.31,1467.12,3105.8,1477.79Z" class="cls-9" transform="translate(-288.22 -362.55)"/><path d="M3074.62,2011.77q-5.64,0-11.56-.15c-49.24-1.21-82.77-8-109.72-13.5-31.86-6.48-49.42-10-70.11-.16a14,14,0,0,1-12.07-25.26c29.15-13.93,53.74-8.94,87.76-2,25.87,5.25,58.06,11.8,104.83,13,52.67,1.31,84.89-6.59,101.35-24.84,14.7-16.31,19-43.48,13.62-85.52-1.83-14.25-3.66-26.08-5.27-36.53-4.54-29.31-7.53-48.67-3.83-78.52,3.44-27.83,12.68-65,34.06-137a14,14,0,0,1,26.85,8c-40,134.72-38,147.88-29.41,203.25,1.64,10.61,3.5,22.64,5.37,37.24,6.53,50.75,0,85-20.6,107.84C3164.68,2001.06,3130.1,2011.77,3074.62,2011.77Z" class="cls-17" transform="translate(-288.22 -362.55)"/><path d="M2521,2292.63c-63.87,31.24-98.24,49.14-118.72,47.43-4.83-.4-8.84-.89-12.2-1.42-22.78,13.47-59.14,29.37-18.23,32.4,48.13,3.57,71.31-16,101.61-24.95s67.74-14.26,53.48-37.44A48.84,48.84,0,0,1,2521,2292.63Z" class="cls-20" transform="translate(-288.22 -362.55)"/><path d="M3009.83,2237.05c-1.57,50.57-8.52,100.68-39.45,110.14a52,52,0,0,1-22.28,2c-4.86,6-10.8,6.08-18.77,14.93-12,13.37,68.19,4,77.54,0s13.37-82.88,23.4-102.94C3038.51,2244.7,3021.93,2240.86,3009.83,2237.05Z" class="cls-20" transform="translate(-288.22 -362.55)"/><path d="M2763.8,1756.89H2560.89a14,14,0,0,1-12.69-8.1l-82-176.47a14,14,0,1,1,25.39-11.8l78.23,168.37h194a14,14,0,0,1,0,28Z" class="cls-16" transform="translate(-288.22 -362.55)"/><path d="M2806.25,1697.22c-41-.6-81.66-25-101.86-21.47s-86.16,49.32-77.84,51.1,60.61-25.32,62.39-25.73,13.07,18.77,41,25.82.2-20.93,86.77,5.21C2873,1749.15,2806.25,1697.22,2806.25,1697.22Z" class="cls-9" transform="translate(-288.22 -362.55)"/><path d="M3141.12,1412.52l6,48.54s-53.06,3.16-79.46,18-65.36,57.78-65.36,57.78l31.83-54.81,4.58-35.06Z" class="cls-21" transform="translate(-288.22 -362.55)"/><path d="M3118.55,1471.94c-39.41-7.38-57.64,27.93-83.19,85.57s-69.17,127.63-77.84,136.66-146.17,0-146.17,0-4.16,39.81,0,44.56,27.92,4.16,27.92,4.16,9.51,7.6,18.42,13.6,84.38,17.3,119.44,15.52,67.14-4.75,71.89-10.1,100.42-152.71,106.37-205.59S3138.66,1475.71,3118.55,1471.94Z" class="cls-21" transform="translate(-288.22 -362.55)"/><path d="M3002.34,1229.51c-74.53,3.56-62.84,115.68-62.84,115.68s19.36,6,59.91-.7c-3.12-12-1.78-42.79-1.78-42.79s4.71,25,10.69,40.11c8.58,3.93,18.27.45,34.76-3.54,8.47,35.63,32.4,50.68,48.78,55.83,18.1,5.69,37.26,12.48,58.65,1.78s9.63-120-1.73-142c-17.05-33-45.39-62.54-94.41-46.94C3029.79,1214.75,3002.34,1229.51,3002.34,1229.51Z" class="cls-6" transform="translate(-288.22 -362.55)"/><path d="M3132,1362.67l30.47,44.5s-33.77,84.38,64.44,122.61c76.92,29.94,67.86,82.69,33.1,135.74s20.8,99.37,20.8,99.37,8.47-58.76,83.21-69.86c101.9-15.12,130.76-151.94,54.65-220.35-63-56.61-82.15-9.73-124.79-60.53s-123.11-16.48-123.11-16.48l-29.5-43Z" class="cls-6" transform="translate(-288.22 -362.55)"/><path d="M3453.67,1612.23a2.4,2.4,0,0,1-1.17-.3,2.43,2.43,0,0,1-1-3.31c25.68-46.93,4.72-103.8-5.82-119.21-1.11-1.63-2.17-3.27-3.29-5-10.36-16.17-23.25-36.3-92-48.67-16.47-3-29.82-12.77-44-23.15-29.32-21.53-62.56-45.92-134.76-12.69a2.44,2.44,0,0,1-2-4.43c74.81-34.43,109.27-9.13,139.67,13.19,13.67,10,26.59,19.52,41.94,22.28,70.82,12.75,84.35,33.87,95.23,50.84,1.09,1.72,2.13,3.33,3.2,4.9,6.35,9.28,14.2,28.51,17.41,50.54,2.79,19.11,3.08,47.41-11.34,73.76A2.44,2.44,0,0,1,3453.67,1612.23Z" class="cls-6" transform="translate(-288.22 -362.55)"/><path d="M3115.67,1408a108,108,0,0,1-15.78-1.27c-26-3.9-60.83-18.67-63.57-101.68a2.44,2.44,0,0,1,4.87-.16c1.13,34.36,8,59.79,20.28,75.59,9.38,12,21.82,18.83,39.14,21.43,24.25,3.63,40.34-.87,47.81-13.38a2.44,2.44,0,0,1,4.18,2.5C3145.86,1402.32,3133.47,1408,3115.67,1408Z" class="cls-6" transform="translate(-288.22 -362.55)"/><path d="M789.67,1466.9c-86.5,49.46-206.82,255.08-181.42,288.63S770,1700.85,770,1700.85Z" class="cls-11" transform="translate(-288.22 -362.55)"/><path d="M951.28,1228.45c-33-.9-20.77-25.45-58.76-15.64-20,5.15-5.22,13.36-31.17,10.69s-38.71-5.35-42,11.59-4.85,22.28-17.33,25-18.11,25,0,40.11,9.31,21.39,5.3,33.87,9.66,13.37,17.09,25-6.84,13.78,3.86,23.82S854,1392,854,1392l45-86.33Z" class="cls-6" transform="translate(-288.22 -362.55)"/><path d="M1624.26,2264.66s48.13,1.34,85.56-13.37,62.83-37.43,56.15-10.69-37.43,72.61-64.17,77.08-36.1,33.88-50.8,33.88-36.1-33.88-73.53-50.82C1543.35,2285.31,1624.26,2264.66,1624.26,2264.66Z" class="cls-17" transform="translate(-288.22 -362.55)"/><path d="M1245,2260.15s20.25,27.91,55.47,47.33c36.38,20.05,78.36,29.71,52.33,38.78s-64.08,16.12-101.19,5.34c-26-7.56-56.56-9.15-64.62-21.45s9.49-43.18,2.19-89.35C1183.31,2203.82,1245,2260.15,1245,2260.15Z" class="cls-17" transform="translate(-288.22 -362.55)"/><path d="M1019.62,1811.5s278.79,104.39,301.26,133.57,315.51,295,315.51,314.63-49.91,55.26-49.91,55.26-251.34-154.19-313.73-232.63-214.67-116.25-295.62-123.51S1019.62,1811.5,1019.62,1811.5Z" class="cls-8" transform="translate(-288.22 -362.55)"/><path d="M1030.31,1811.5s190.74-7.13,231.74,0,130.93,7,72.11,173.06c-46.11,130.12-61.32,294.86-61.32,294.86l-91.68,22.52s3.64-296.23,47.38-375.11c-31.85,5.25-90.32,15.5-171.36,38.67-150.33,43-232.75,21.46-232.75,21.46L802,1908.53Z" class="cls-7" transform="translate(-288.22 -362.55)"/><polygon points="582.81 956.49 536.21 1094.19 595.09 1132.96 628.45 1013.97 582.81 956.49" class="cls-22"/><path d="M888.57,1476.73l28.1-100.21L871,1319l-17,50.36C859.87,1414.89,874.08,1452.52,888.57,1476.73Z" class="cls-23" transform="translate(-288.22 -362.55)"/><path d="M989.91,1342.34c1.51,41.88-19.06,78.13-51.76,81.35s-62.53-28-66.65-69.67,19.06-78.13,51.76-81.35S987.52,1276.26,989.91,1342.34Z" class="cls-22" transform="translate(-288.22 -362.55)"/><path d="M802,1452.72c-143,96.62-54.08,252.74-22.66,366.82,26.75,97.18,25.88,155.9,29.89,155.9s102.4-14.7,158.55-65.5,94.11-100,94.11-100-71.94-12.81-95.45-105.87c-11.94-47.25-6.51-72.9-33.72-147.76S802,1452.72,802,1452.72Z" class="cls-10" transform="translate(-288.22 -362.55)"/><path d="M802,1452.72l15.33-37.49s48.57,32.09,68,47.24,31.34,18.72,31.34,18.72,7,53.74,2.46,48.86C861.79,1468.61,802,1452.72,802,1452.72Z" class="cls-10" transform="translate(-288.22 -362.55)"/><polygon points="450.42 2008.92 462.91 2008.92 552.49 1635.22 525 1635.22 450.42 2008.92" class="cls-17"/><polygon points="824.6 2008.92 812.11 2008.92 709.32 1622.01 736.8 1622.01 824.6 2008.92" class="cls-17"/><path d="M877.79,2011.77c-50,0-81.74-9-102-28.7-25.08-24.43-30.26-62.27-30.34-111.57-.16-103.64-5.89-125.07-35.07-188.37a14,14,0,0,1,25.43-11.72c30.84,66.9,37.48,91.49,37.64,200,.08,50,6.42,76.49,21.88,91.56,15.86,15.45,44.54,21.82,93,20.61,46.77-1.15,79-7.7,104.83-13,34-6.92,58.61-11.91,87.76,2a14,14,0,0,1-12.07,25.26c-20.69-9.89-38.25-6.32-70.11.16-27,5.47-60.48,12.29-109.72,13.5C885.19,2011.72,881.43,2011.77,877.79,2011.77Z" class="cls-17" transform="translate(-288.22 -362.55)"/><path d="M1495.92,1755.28H1293a14,14,0,0,1,0-28h194l78.24-168.38a14,14,0,1,1,25.39,11.8l-82,176.48A14,14,0,0,1,1495.92,1755.28Z" class="cls-8" transform="translate(-288.22 -362.55)"/><path d="M807.34,1593.39s35.65,108.74,79.77,153.75,132.91,60.13,160.71,58.36c-22.16-8.91-64.37-34.26-81.34-101.44-11.94-47.25-6.51-72.9-33.72-147.76-20.2-55.58-82.43-85.71-113.16-97.55,38.36,27.55,86.32,72.93,101.06,107.45C937,1604.53,807.34,1593.39,807.34,1593.39Z" class="cls-11" transform="translate(-288.22 -362.55)"/><path d="M1299.42,1688.82s61.49-28.08,68.18-25.4,74.86,43.84,74.86,50.66-60.16-25.42-60.16-25.42,6.69,17.82,2.68,26.37-50.26,8.55-92,5.87S1299.42,1688.82,1299.42,1688.82Z" class="cls-22" transform="translate(-288.22 -362.55)"/><path d="M809.31,1509.38c-56.69,116.18,137.77,234,253.13,244.44s252.43-27.28,252.43-27.28l-15.45-37.72s-231.13-30.17-237-34.39S830.07,1466.82,809.31,1509.38Z" class="cls-10" transform="translate(-288.22 -362.55)"/><path d="M883,1323c5.26,13.81,1.4,28.1-8.6,31.9s-22.38-4.31-27.64-18.13-1.4-28.1,8.61-31.9S877.76,1309.14,883,1323Z" class="cls-22" transform="translate(-288.22 -362.55)"/><path d="M990,1234.49c15.66-6.53,33.3-13.54,27.84,13.08-2.37,11.58,0,8.31,4.16,19s-10.48,19.09-15.23,25,6.92,12.39-2.59,19.52-22-2.64-30.9,0c-26.44,7.9-23.17-12.9-38-17.23s-22.13-3.66-25,5.85,10.39,40.8-.9,37.83-13.83,22.28-16.87,36.54-10.78-9.84-10.28-26.16c.77-25-5.44-35.53-14.66-42.53s-13.14-70.65,31.43-73,44.85-6.67,63.86-10.69S982.85,1237.47,990,1234.49Z" class="cls-6" transform="translate(-288.22 -362.55)"/><path d="M3488.49,1961.37c28.41,26,16.06,51.89-4.95,100.07s-24.71,226.09-24.71,226.09l17.3-2.47s-2.47-182.85,21-232.26,33.36-74.13,54.36-58.07S3488.49,1961.37,3488.49,1961.37Z" class="cls-24" transform="translate(-288.22 -362.55)"/><path d="M3472.87,1927.78c3.46-15.37,24-32,51.35-46.12-4.07,22.68-17.13,59.75-3.61,67.36,18.23,10.26,1.77-41.51,8.81-70a338.78,338.78,0,0,1,85.2-27.94,2.85,2.85,0,0,0-.12.31c-16.06,40.77-37.06,56.83-28.41,63,6.5,4.64,27.69-42.45,55.68-66.59,21-1.12,38.77,1.73,49.28,10.05,16.25,12.86,27.16,24.28,10.82,63.45a73.41,73.41,0,0,1-35.48,12.85c-37.06,3.71-54.36,5-28.42,17.3,12.71,6,34-.34,51.27-4.23-5.6,10.32-12.49,22-20.85,35.3a131.2,131.2,0,0,1-17.37,22.1c-11.94,2.29-22.36,2.32-27.87-.05-17.3-7.41-61.77-30.88-72.89-21-10.89,9.68,82.37,15.8,75.9,40.38-45.2,26-96.92,13.65-106.06-10.26C3507.82,1981.62,3462.49,1974.06,3472.87,1927.78Z" class="cls-25" transform="translate(-288.22 -362.55)"/><path d="M3566.32,2103.45c-49.42-37.06-100.07-2.47-126,37.06s-7.41,128.49-7.41,128.49,9.88,0,9.88-3.71-27.18-105,37.07-150.72c40.19-28.6,69.18-14.83,72.89-1.24s-16.06,38.3-16.06,38.3Z" class="cls-24" transform="translate(-288.22 -362.55)"/><path d="M3452.66,2027.26c49.42,0,65.48,76.6,51.89,121.08s-32.13,127.25-32.13,127.25l-12.35-12.36s46.95-116.13,35.83-168-38.3-60.53-43.24-60.53S3452.66,2027.26,3452.66,2027.26Z" class="cls-25" transform="translate(-288.22 -362.55)"/><path d="M3494.11,2148.68a35.72,35.72,0,0,1,13-10.93,97.59,97.59,0,0,1-2.56,10.59c-6.2,20.26-13.41,48.47-19.44,73.19-.54-3.17-1.39-8-2.69-15.57-.31-1.78-.55-3.71-.72-5.75A478.68,478.68,0,0,0,3494.11,2148.68Z" class="cls-24" transform="translate(-288.22 -362.55)"/><path d="M3507.62,2149.05c93.89-39.53,44.42-93.78,127.2-58,5.83,2.52,12.93,8.88,20,17.66a61.65,61.65,0,0,1-26.23,2.1c-24.71-3.7-16.06,16.06,24.71,21a92.45,92.45,0,0,1,19.1,4c19.42,37.31,28.18,86.4-12.92,103.46-8.1,3.36-18.11,5.28-29.26,6-12.68-10.08,3.1-68.41-16.46-60.36-18.77,7.73,5.89,50,2.51,60.66-18.53-.34-39.05-3.37-58.65-8.22-7.76-4.35-13.69-10.18-15.51-17.85-6.18-25.94,34.59-42,35.83-64.24,1.13-20.45-14.95,45-57.54,54.6C3481.93,2192,3463.73,2167.53,3507.62,2149.05Z" class="cls-25" transform="translate(-288.22 -362.55)"/><path d="M3440.71,2079.15c9.89-21-16.06-25.94-14.82-9.88,1.09,14.23,1.22,48.82-13.38,58.24-25.17-2.72-59.42-12.87-85.31-28.33a10.46,10.46,0,0,1,1.09-6.44c11.12-22.24,82.77-40.77,60.54-48.18-17.71-5.9-48.75,28.94-73.76,46.49-15-11.39-25.08-25-25.08-40.14,0-20.52,24.94-43.76,57.19-54.86,14.52,1.46,28,9.4,49.06,21.33,31.11,17.63,23.91-10.87-5.5-27.79,25.39,1.31,50.71,12.16,69.38,38.08,0,0-1.76,11.08,10,28.22,32,46.75-4.93,74-49.06,72.27C3423.52,2115.84,3433.89,2093.66,3440.71,2079.15Z" class="cls-25" transform="translate(-288.22 -362.55)"/><path d="M3563.35,2101.35c24.16,18.67,51,40.5,83.94,55.33s26.36,63.15,26.36,63.15,4.94-41.74-22.52-56-45.57-31.3-66.44-34.6-32.4-6.59-32.4-6.59,6.59-13.18,2.75-18.12S3563.35,2101.35,3563.35,2101.35Z" class="cls-24" transform="translate(-288.22 -362.55)"/><path d="M3682.43,1882.12c-88.4,23.61-153.2,80.17-165.28,93.9s-12.08,17.57-12.08,17.57l9.34,17.57,4.39-2.19s-7.14-14.83,11.53-34c32.2-33.14,71.38-59.3,98.29-70.83S3682.43,1882.12,3682.43,1882.12Z" class="cls-24" transform="translate(-288.22 -362.55)"/><path d="M3438.4,2250.38h33.77a43.49,43.49,0,0,1,43.49,43.49v77.6a0,0,0,0,1,0,0H3394.91a0,0,0,0,1,0,0v-77.6A43.49,43.49,0,0,1,3438.4,2250.38Z" class="cls-16" transform="translate(6622.36 4259.31) rotate(-180)"/><rect width="120.75" height="8.5" x="3106.7" y="1901.71" class="cls-5"/><rect width="120.75" height="5" x="3106.7" y="1917.21" class="cls-5"/><path d="M2005.9,629.84a167,167,0,0,0-164.84-167c-91.66-1.17-167.72,72.64-169.18,164.29A166.43,166.43,0,0,0,1716.07,743a75.78,75.78,0,0,1,20.07,51.36v74.87a88.32,88.32,0,0,0,88.06,88.07h29.36a88.32,88.32,0,0,0,88.06-88.07V794.39a76.57,76.57,0,0,1,20.38-51.7A166.4,166.4,0,0,0,2005.9,629.84Z" class="cls-13" transform="translate(-288.22 -362.55)"/><path d="M1982.57,641a143.68,143.68,0,0,0-141.81-143.67c-78.86-1-144.3,62.49-145.55,141.34a143.18,143.18,0,0,0,38,99.71,65.18,65.18,0,0,1,17.26,44.18V847a76,76,0,0,0,75.76,75.77h25.26A76,76,0,0,0,1927.27,847v-64.4a65.88,65.88,0,0,1,17.53-44.48A143.16,143.16,0,0,0,1982.57,641Z" class="cls-26" transform="translate(-288.22 -362.55)"/><path d="M1863.57,824.41h-55a5,5,0,0,1-5-4.55c-.1-1.06-10.37-107.24-57.84-137a5,5,0,1,1,5.3-8.48c46.32,29,59.48,118.47,62,140h45.22a163.65,163.65,0,0,1,4.5-40.1c5.69-24.66,19.64-61.86,53.79-99a5,5,0,0,1,7.37,6.76c-62.43,68-55.48,136.13-55.41,136.81a5,5,0,0,1-5,5.57Z" class="cls-27" transform="translate(-288.22 -362.55)"/><path d="M1904.74,689.73c-18.57,0-43.89-13.19-70.55-27.49-34.44,18.34-66.6,34.78-84.6,23.87-8.46-5.13-12.51-15.17-12.37-30.69.13-14.61,4.32-24.46,12.46-29.28,18-10.68,50.26,6.36,84.53,24.75,34.94-18.63,67.85-36,85.82-25,8.07,4.91,12.06,14.9,11.87,29.68-.19,15.38-4.62,25.73-13.14,30.75A27.11,27.11,0,0,1,1904.74,689.73Zm-59.92-33.15c27.45,14.59,56.18,28.56,68.86,21.09,5.31-3.13,8.07-10.62,8.22-22.27.15-11-2.23-18.07-7.07-21C1902.57,626.93,1872.8,641.73,1844.82,656.58Zm-81.63-23.78a16.32,16.32,0,0,0-8.42,2c-4.91,2.91-7.45,9.89-7.55,20.76-.1,11.53,2.44,19,7.55,22,12.34,7.48,41.16-6.42,68.81-21C1801.23,644.62,1777.77,632.8,1763.19,632.8Z" class="cls-27" transform="translate(-288.22 -362.55)"/><rect width="73" height="44" x="1515.85" y="574.53" class="cls-27" rx="20.5"/><path d="M1731.28,815.41v53c0,50.72,41.5,92.22,92.23,92.22h30.74c50.73,0,92.23-41.5,92.23-92.22v-53Z" class="cls-27" transform="translate(-288.22 -362.55)"/><rect width="234.67" height="25.33" x="1434.68" y="444.19" class="cls-28" rx="12"/><path d="M1946.32,851.07l-209.07,25.82a12,12,0,0,1-13.38-10.44l-.17-1.32a12,12,0,0,1,10.44-13.38l209.08-25.83a12,12,0,0,1,13.38,10.44l.16,1.33A12,12,0,0,1,1946.32,851.07Z" class="cls-28" transform="translate(-288.22 -362.55)"/><path d="M1946.32,887.66l-209.07,25.82a12,12,0,0,1-13.38-10.43l-.17-1.33a12,12,0,0,1,10.44-13.38l209.08-25.82A12,12,0,0,1,1956.6,873l.16,1.33A12,12,0,0,1,1946.32,887.66Z" class="cls-28" transform="translate(-288.22 -362.55)"/><path d="M1933.42,926.82l-174.13,21.51a11,11,0,0,1-12.28-9.58l-.41-3.29a11.05,11.05,0,0,1,9.58-12.28l174.14-21.51a11.05,11.05,0,0,1,12.28,9.58l.4,3.29A11.05,11.05,0,0,1,1933.42,926.82Z" class="cls-28" transform="translate(-288.22 -362.55)"/><path d="M3441.06,974.29H3553.3c0,61.57-50.67,112.24-112.24,112.24s-112.23-50.67-112.23-112.24,50.66-112.24,112.23-112.24Z" class="cls-28" transform="translate(-288.22 -362.55)"/><path d="M3572.1,958.57a112.24,112.24,0,0,0-112.24-112.23V958.57Z" class="cls-29" transform="translate(-288.22 -362.55)"/><path d="M3347.62,958.57a112.24,112.24,0,0,0,112.24,112.24C3398.29,1070.81,3347.62,1020.14,3347.62,958.57Z" class="cls-29" transform="translate(-288.22 -362.55)"/><path d="M3459.86,846.34a112.24,112.24,0,0,0-112.24,112.23C3347.62,897,3398.29,846.34,3459.86,846.34Z" class="cls-29" transform="translate(-288.22 -362.55)"/><path d="M3459.86,1070.81A112.24,112.24,0,0,0,3572.1,958.57C3572.1,1020.14,3521.43,1070.81,3459.86,1070.81Z" class="cls-29" transform="translate(-288.22 -362.55)"/><rect width="24.51" height="70.93" x="956.23" y="537.5" class="cls-28"/><rect width="24.51" height="47.85" x="1270.42" y="560.58" class="cls-28"/><rect width="24.51" height="165.95" x="1060.11" y="442.48" class="cls-28"/><rect width="24.51" height="74.59" x="1112.06" y="533.84" class="cls-28"/><rect width="24.51" height="95.71" x="1164" y="512.72" class="cls-28"/><rect width="24.51" height="117.76" x="1008.17" y="490.67" class="cls-28"/><rect width="24.51" height="145.04" x="1216.12" y="463.39" class="cls-28"/><g class="cls-30"><path d="M591.12,765.31,462.56,686.7,439.31,835.58A150.86,150.86,0,0,0,591.12,765.31Z" class="cls-10" transform="translate(-288.22 -362.55)"/><path d="M591.25,765.13c.35-.56.8-1.34.78-1.32a150.66,150.66,0,0,0,3.34-148.33c-45.49,23.83-18.4,9.35-132.81,71.22C591.33,765.44,571.33,753.3,591.25,765.13Z" class="cls-25" transform="translate(-288.22 -362.55)"/><path d="M321.25,634.63,462.56,686.7,595.13,615C533.12,500.34,366.21,514.09,321.25,634.63Z" class="cls-28" transform="translate(-288.22 -362.55)"/><path d="M439.31,835.58,462.56,686.7,321.25,634.63C287.64,724.72,347.29,821.07,439.31,835.58Z" class="cls-29" transform="translate(-288.22 -362.55)"/><path d="M312,659.27a14.53,14.53,0,0,1,7.14,1.85,143.49,143.49,0,0,1,5.13-20L401,669.34s0,0,0-.07a13.64,13.64,0,0,1,3.33-9.36l-7.68-2.83L327.76,631.7A147.82,147.82,0,0,1,350,594.37a14.9,14.9,0,0,1-7.66-6.43,157.93,157.93,0,0,0-23.91,40.3l-.09,0-1.74,4.67-1.75,4.7.08,0a154.68,154.68,0,0,0-5.62,21.95A13.91,13.91,0,0,1,312,659.27Z" class="cls-5" transform="translate(-288.22 -362.55)"/><path d="M601.82,617.08l.09,0-2.38-4.4-.15-.27-2-3.62-.07,0c-15-26.06-36.39-46.84-62.11-60.25a158.08,158.08,0,0,0-172.68,18.85,15.4,15.4,0,0,1,6.35,7.74,146,146,0,0,1,84.18-33.59C508.88,537.66,560.21,565,588.28,613l-39.15,21.18c-8.08,4.34-19.38,10.46-38.3,20.69l-46.91,25.38-1.2.65-3.94-2.41-.21,1.38L431,669.74a13.8,13.8,0,0,1-3.68,9.3L457,690,435.16,829.78a146.62,146.62,0,0,1-118.3-141.39,14.4,14.4,0,0,1-4.86.88,14.7,14.7,0,0,1-5.14-.93A156.61,156.61,0,0,0,433.61,839.66v.08l4.93.78,5,.78v-.09A155.81,155.81,0,0,0,592.85,771.9l.1.06,1-1.61s1.59-2.61,1.59-2.61c.25-.4.54-.9.71-1.19l.1-.17.08-.14,1.58-2.59-.07,0A156.29,156.29,0,0,0,601.82,617.08ZM445,831.34l21.32-136.47,55.46,33.93C544.18,742.48,557,750.3,565,755.21l19.15,11.71A145.11,145.11,0,0,1,445,831.34Zm144.45-73.08-1-.56c-5.26-3.11-7.54-4.46-18-10.84L472.58,687l81.31-44c11.94-6.42,16.83-9,29-15.32l10.38-5.44A146.26,146.26,0,0,1,589.48,758.26Z" class="cls-2" transform="translate(-288.22 -362.55)"/></g><rect width="430.9" height="194.73" x="575.98" y="156.97" class="cls-28" rx="8.17"/><rect width="407.34" height="134.43" x="587.76" y="208.13" class="cls-5" rx="6.6"/><rect width="16.88" height="15.19" x="593.74" y="171.3" class="cls-5" rx="3.66"/><rect width="16.88" height="15.19" x="624.43" y="171.3" class="cls-5" rx="3.66"/><rect width="16.88" height="15.19" x="655.13" y="171.3" class="cls-5" rx="3.66"/><path d="M1266.74,600.14H1051.28a6.45,6.45,0,0,1,0-12.89h215.46a6.45,6.45,0,1,1,0,12.89Z" class="cls-28" transform="translate(-288.22 -362.55)"/><path d="M1104.69,699.59H889.23a6.45,6.45,0,1,1,0-12.89h215.46a6.45,6.45,0,0,1,0,12.89Z" class="cls-28" transform="translate(-288.22 -362.55)"/><rect width="26.7" height="12.89" x="831.66" y="324.15" class="cls-28" rx="2.2"/><rect width="26.7" height="12.89" x="865.27" y="324.15" class="cls-28" rx="2.2"/><path d="M1268.82,628.23H912a4.38,4.38,0,0,1,0-8.75h356.81a4.38,4.38,0,0,1,0,8.75Z" class="cls-28" transform="translate(-288.22 -362.55)"/><path d="M1268.82,647.1H912a4.37,4.37,0,0,1,0-8.74h356.81a4.37,4.37,0,1,1,0,8.74Z" class="cls-28" transform="translate(-288.22 -362.55)"/><path d="M2345.23,590.25h-184V483h138.38l45.62,45.62Z" class="cls-31" transform="translate(-288.22 -362.55)"/><polygon points="2008.01 120.46 2008.01 177.71 2057.01 177.71 2057.01 166.71 2011.08 120.77 2008.01 120.46" class="cls-29"/><polygon points="2011.39 120.46 2011.39 166.71 2057.01 166.71 2011.39 120.46" class="cls-31"/><path d="M2264,523.25h-82a3.25,3.25,0,0,1,0-6.5h82a3.25,3.25,0,0,1,0,6.5Z" class="cls-5" transform="translate(-288.22 -362.55)"/><path d="M2264,539.88h-82a3.25,3.25,0,0,1,0-6.5h82a3.25,3.25,0,0,1,0,6.5Z" class="cls-5" transform="translate(-288.22 -362.55)"/><path d="M2264,557.38h-82a3.25,3.25,0,0,1,0-6.5h82a3.25,3.25,0,0,1,0,6.5Z" class="cls-5" transform="translate(-288.22 -362.55)"/><circle cx="1959.51" cy="128.71" r="5.5" class="cls-8"/><rect width="116.94" height="141" x="1424.79" y="475.88" class="cls-32" transform="translate(-157.64 -634) rotate(10.94)"/><path d="M1529.75,548.1l-60.87-11.76a3,3,0,1,1,1.14-5.89l60.87,11.76a3,3,0,1,1-1.14,5.89Z" class="cls-28" transform="translate(-288.22 -362.55)"/><path d="M1526.81,563.32l-60.87-11.76a3,3,0,1,1,1.13-5.89L1528,557.43a3,3,0,1,1-1.14,5.89Z" class="cls-28" transform="translate(-288.22 -362.55)"/><path d="M1523.79,579l-60.88-11.76a3,3,0,0,1,1.14-5.89l60.88,11.76a3,3,0,0,1-1.14,5.89Z" class="cls-28" transform="translate(-288.22 -362.55)"/><path d="M1488.54,484.63a5,5,0,1,1-4-5.85A5,5,0,0,1,1488.54,484.63Z" class="cls-8" transform="translate(-288.22 -362.55)"/><path d="M2430.15,740.31l-177.69-18.72,11.73-111.39L2405.08,625,2438,665.73Z" class="cls-28" transform="translate(-288.22 -362.55)"/><polygon points="2114.34 270.44 1982.08 256.51 1972.18 350.49 2136.61 367.81 2142.41 312.78 2110.24 309.39 2114.34 270.44" class="cls-5"/><path d="M2384.63,667.13l-85.68-9a3.59,3.59,0,0,1,.75-7.14l85.68,9a3.59,3.59,0,1,1-.75,7.14Z" class="cls-28" transform="translate(-288.22 -362.55)"/><path d="M2382.64,686,2297,677a3.59,3.59,0,0,1,.75-7.14l85.69,9a3.59,3.59,0,0,1-.76,7.14Z" class="cls-28" transform="translate(-288.22 -362.55)"/><path d="M2380.57,705.73l-85.68-9a3.59,3.59,0,1,1,.75-7.14l85.68,9a3.59,3.59,0,0,1-.75,7.14Z" class="cls-28" transform="translate(-288.22 -362.55)"/><circle cx="2042.46" cy="273.37" r="5.5" class="cls-8"/><path d="M3313.06,549a61.35,61.35,0,1,1-61.35-61.35A61.35,61.35,0,0,1,3313.06,549Z" class="cls-25" transform="translate(-288.22 -362.55)"/><path d="M3245.62,570h-.11a3,3,0,0,1-2.14-1l-16.67-18.93a3,3,0,1,1,4.51-4l14.57,16.56,33.34-32.63a3,3,0,0,1,4.2,4.29l-35.6,34.84A3,3,0,0,1,3245.62,570Z" class="cls-5" transform="translate(-288.22 -362.55)"/><rect width="386.67" height="159.34" x="471.04" y="959.21" class="cls-28" rx="16.48" transform="translate(1040.52 1715.2) rotate(180)"/><path d="M811,1094.5v87.91l-101.3-101.3S808.94,1094.5,811,1094.5Z" class="cls-28" transform="translate(-288.22 -362.55)"/><rect width="346.67" height="127.74" x="491.04" y="975" class="cls-5" rx="13.97" transform="translate(1040.52 1715.2) rotate(180)"/><path d="M648.92,1006.59H805.51a6.87,6.87,0,1,0,0-13.73H648.92a6.87,6.87,0,1,0,0,13.73Z" class="cls-28" transform="translate(-288.22 -362.55)"/><rect width="298.07" height="7.72" x="514.31" y="1025.14" class="cls-28" rx="3.82" transform="translate(1038.46 1695.44) rotate(180)"/><rect width="298.07" height="7.72" x="514.31" y="1040.09" class="cls-28" rx="3.82" transform="translate(1038.46 1725.34) rotate(180)"/><rect width="32.71" height="29.44" x="3096.41" y="977.77" class="cls-28" rx="7.09" transform="translate(5937.31 1622.44) rotate(180)"/><rect width="32.71" height="29.44" x="3036.93" y="977.77" class="cls-28" rx="7.09" transform="translate(5818.35 1622.44) rotate(180)"/><rect width="32.71" height="29.44" x="2977.45" y="977.77" class="cls-28" rx="7.09" transform="translate(5699.39 1622.44) rotate(180)"/></svg>