<svg xmlns="http://www.w3.org/2000/svg" viewBox="0 0 1323.92 1098.03"><defs><style>.cls-1{isolation:isolate}.cls-2{fill:#ebedf5}.cls-3,.cls-4{fill:none;stroke:#c3c7ec;stroke-linejoin:round}.cls-4{stroke-linecap:round}.cls-5{fill:#d8e1ed}.cls-19,.cls-30,.cls-5,.cls-66{opacity:.5}.cls-6{fill:#7b89b0}.cls-7{fill:#eaf0ff}.cls-8{fill:#7d8fc2}.cls-9{fill:#e6ebfa}.cls-10,.cls-23{fill:#5c81e6}.cls-11{fill:#ff66a7}.cls-12{fill:#8aaaff}.cls-13{fill:#c7d6ff}.cls-14{fill:#1a2e66;opacity:.15}.cls-15{fill:#1d2866}.cls-16,.cls-17{fill:#233d85}.cls-17,.cls-39,.cls-55,.cls-59{opacity:.35}.cls-17,.cls-19,.cls-23,.cls-30,.cls-39,.cls-44,.cls-46,.cls-47,.cls-55,.cls-57,.cls-59,.cls-66{mix-blend-mode:multiply}.cls-18,.cls-19{fill:#fecdbf}.cls-20,.cls-30{fill:#3b486b}.cls-21{fill:#e1eaff}.cls-22{fill:#6e94fa}.cls-23,.cls-46,.cls-57{opacity:.25}.cls-24{fill:#445ea8}.cls-25{fill:#486cd4}.cls-26{fill:#fff}.cls-27{fill:#664c46}.cls-28{fill:#8cacff}.cls-29{fill:#cfdcff}.cls-31{fill:#d3d7f2}.cls-32{fill:#21377a}.cls-33{fill:#bbc8f0}.cls-34{fill:#7283b5}.cls-35{fill:#6a83c4}.cls-36{fill:#54699c}.cls-37{fill:#213b80}.cls-38,.cls-39{fill:#25408c}.cls-40{fill:#93a5de}.cls-41{fill:#4365c7}.cls-42,.cls-44{fill:#752f4d}.cls-43{fill:#fcc7b8}.cls-44,.cls-61{opacity:.3}.cls-45{fill:#c44f80}.cls-46,.cls-47{fill:#9c3e66}.cls-47{opacity:.2}.cls-48{fill:#473631}.cls-49{fill:#db588f}.cls-50{fill:#5e397a}.cls-51,.cls-57{fill:#868ec6}.cls-52{fill:#613485}.cls-53{fill:#5c3180}.cls-54,.cls-55{fill:#66378c}.cls-56,.cls-59{fill:#6570b4}.cls-58{fill:#3d2d2a}.cls-60{fill:#ededed}.cls-62{fill:#7f95d4}.cls-63,.cls-66{fill:#ced6e9}.cls-64{fill:#b8c7e9}.cls-65{fill:#e2eaff}.cls-67{fill:#ff8abc}</style></defs><title>Asset 4</title><g class="cls-1"><g id="Layer_2" data-name="Layer 2"><g id="Layer_1-2" data-name="Layer 1"><path d="M286.2,965.69a92.74,92.74,0,0,0,33.43,27.37l10.19-17a72.66,72.66,0,0,0,18.68,5.62l-.91,19.79a93.3,93.3,0,0,0,43-4.3L385.79,978a72.48,72.48,0,0,0,17.2-9.21l13.34,14.62A92.88,92.88,0,0,0,443.7,950l-17-10.19a72.7,72.7,0,0,0,5.62-18.67l19.79.9a93.44,93.44,0,0,0-4.29-43l-19.22,4.8a72.81,72.81,0,0,0-9.2-17.2l14.61-13.34a92.66,92.66,0,0,0-33.44-27.37l-10.18,17a72.89,72.89,0,0,0-18.68-5.62l.9-19.79a93.32,93.32,0,0,0-43,4.3l4.8,19.21a72.67,72.67,0,0,0-17.2,9.21l-13.33-14.62A92.66,92.66,0,0,0,276.55,869l17,10.18a72.52,72.52,0,0,0-5.63,18.68L268.1,897a93.17,93.17,0,0,0,4.29,43l19.21-4.8a72.48,72.48,0,0,0,9.21,17.2Zm39.29-84.56a44.75,44.75,0,1,1,6.29,63A44.76,44.76,0,0,1,325.49,881.13Zm11.84,9.7a29.45,29.45,0,1,1,4.14,41.44A29.46,29.46,0,0,1,337.33,890.83Z" class="cls-2"/><path d="M633.35,192.07a116.8,116.8,0,0,0,20.71,50.34l21.43-12.72a91.31,91.31,0,0,0,17.34,17.4L680,268.49a117.61,117.61,0,0,0,50.24,20.95l6.17-24.18a91.44,91.44,0,0,0,24.57.08l6,24.17a116.8,116.8,0,0,0,50.34-20.71l-12.72-21.43A91.36,91.36,0,0,0,822.05,230l21.4,12.84a117.66,117.66,0,0,0,20.95-50.24l-24.18-6.17a91.51,91.51,0,0,0,.08-24.58l24.17-6a116.66,116.66,0,0,0-20.71-50.34l-21.43,12.72A91.07,91.07,0,0,0,805,100.81l12.84-21.4a117.66,117.66,0,0,0-50.24-20.95l-6.17,24.18a91.11,91.11,0,0,0-24.58-.08l-6-24.18A117,117,0,0,0,680.45,79.1l12.72,21.43a91.31,91.31,0,0,0-17.4,17.34L654.37,105a117.56,117.56,0,0,0-21,50.24l24.18,6.17a91.44,91.44,0,0,0-.08,24.57Zm94.11-70.25a56.37,56.37,0,1,1-30.68,73.58A56.37,56.37,0,0,1,727.46,121.82Zm7.33,17.83a37.09,37.09,0,1,1-20.18,48.41A37.09,37.09,0,0,1,734.79,139.65Z" class="cls-2"/><path d="M798.05,612.73a73,73,0,0,0,26.31,21.54l8-13.35a57.47,57.47,0,0,0,14.7,4.43l-.71,15.57a73.65,73.65,0,0,0,33.84-3.38l-3.78-15.12A56.84,56.84,0,0,0,890,615.17l10.5,11.5A72.85,72.85,0,0,0,922,600.36l-13.34-8a57,57,0,0,0,4.42-14.7l15.57.71a73.46,73.46,0,0,0-3.37-33.83l-15.12,3.77a57.2,57.2,0,0,0-7.25-13.53l11.5-10.5a72.85,72.85,0,0,0-26.31-21.53l-8,13.34a57.44,57.44,0,0,0-14.7-4.42l.71-15.57a73.38,73.38,0,0,0-33.84,3.38L836,514.59a57.42,57.42,0,0,0-13.54,7.24L812,510.33a72.85,72.85,0,0,0-21.53,26.31l13.34,8a57,57,0,0,0-4.42,14.69l-15.57-.71a73.51,73.51,0,0,0,3.37,33.84l15.12-3.78a57.46,57.46,0,0,0,7.25,13.54ZM829,546.2a35.21,35.21,0,1,1,4.94,49.55A35.22,35.22,0,0,1,829,546.2Zm9.32,7.62a23.17,23.17,0,1,1,3.25,32.61A23.17,23.17,0,0,1,838.29,553.82Z" class="cls-2"/><path d="M242.05,894a48.16,48.16,0,0,0,4.45-22l-10.28-.55a37.75,37.75,0,0,0-1.95-10l9.31-4.4a48.37,48.37,0,0,0-12.43-18.72l-7.67,6.88a37.62,37.62,0,0,0-8.41-5.67l3.47-9.69a48.08,48.08,0,0,0-22-4.45L196,835.71a38.18,38.18,0,0,0-9.95,2l-4.4-9.32a48.62,48.62,0,0,0-18.73,12.44l6.88,7.67a38,38,0,0,0-5.67,8.41l-9.68-3.47a48.08,48.08,0,0,0-4.45,22l10.27.56a37.77,37.77,0,0,0,2,10l-9.32,4.4a48.7,48.7,0,0,0,12.43,18.73l7.67-6.88a37.8,37.8,0,0,0,8.42,5.67l-3.48,9.68a48.15,48.15,0,0,0,22,4.45l.56-10.27a37.76,37.76,0,0,0,10-2l4.4,9.32a48.59,48.59,0,0,0,18.72-12.43L226.69,899a37.46,37.46,0,0,0,5.67-8.42Zm-48.44,2.49A23.28,23.28,0,1,1,221,878.33,23.28,23.28,0,0,1,193.61,896.53Z" class="cls-2"/><path d="M1033.83,522.61a43.94,43.94,0,0,0,5.67-8.49,43.48,43.48,0,0,0,3.54-9.58l-8.8-3a34,34,0,0,0,.72-9.13l9.16-1.56a43.86,43.86,0,0,0-6.26-19.29l-8.33,4.11a34.73,34.73,0,0,0-5.94-7l5.37-7.58a43.58,43.58,0,0,0-18.07-9.21l-3,8.79a34.35,34.35,0,0,0-9.13-.71l-1.56-9.16a43.69,43.69,0,0,0-19.29,6.26l4.12,8.33a34.19,34.19,0,0,0-7,5.94L967.51,466a43.44,43.44,0,0,0-9.22,18.07l8.8,3a34.31,34.31,0,0,0-.72,9.12l-9.16,1.56a43.94,43.94,0,0,0,6.26,19.3l8.34-4.12a33.88,33.88,0,0,0,5.94,7l-5.37,7.57a43.46,43.46,0,0,0,18.06,9.21l3-8.79a33.94,33.94,0,0,0,9.13.71l1.56,9.17a43.79,43.79,0,0,0,19.29-6.27l-4.12-8.33a34.19,34.19,0,0,0,7-5.94ZM991.12,513a21,21,0,1,1,28.26-9.17A21,21,0,0,1,991.12,513Z" class="cls-2"/><rect width="11.3" height="11.3" y="733.49" class="cls-2" rx="1.09"/><rect width="11.3" height="11.3" x="1133.39" y="764" class="cls-2" rx="1.09"/><rect width="11.3" height="11.3" x="653.31" y="291.87" class="cls-2" rx="1.09"/><rect width="11.3" height="11.3" x="1093.4" y="576.98" class="cls-2" rx="1.09"/><rect width="11.3" height="11.3" x="440.83" y="385.83" class="cls-2" rx="1.09"/><path d="M325.14,475.32a9.37,9.37,0,1,1-9.37-9.37A9.36,9.36,0,0,1,325.14,475.32Z" class="cls-3"/><path d="M200.05,257.75a9.37,9.37,0,1,1-9.37-9.36A9.37,9.37,0,0,1,200.05,257.75Z" class="cls-3"/><path d="M608.14,790.65a9.37,9.37,0,1,1-9.37-9.37A9.37,9.37,0,0,1,608.14,790.65Z" class="cls-3"/><path d="M261.34,247.85a4.86,4.86,0,1,1-4.86-4.85A4.87,4.87,0,0,1,261.34,247.85Z" class="cls-3"/><circle cx="19.85" cy="483.35" r="4.86" class="cls-3"/><path d="M472.74,230a4.86,4.86,0,1,1-4.85-4.85A4.85,4.85,0,0,1,472.74,230Z" class="cls-3"/><circle cx="1163.49" cy="298.81" r="4.85" class="cls-3"/><circle cx="1064.06" cy="611.98" r="4.85" class="cls-3"/><line x1="107.74" x2="132.78" y1="338.58" y2="338.58" class="cls-3"/><line x1="72.42" x2="120.26" y1="326.22" y2="326.22" class="cls-3"/><line x1="512.15" x2="547.36" y1="929.16" y2="929.16" class="cls-3"/><line x1="490.39" x2="515.43" y1="945.7" y2="945.7" class="cls-3"/><line x1="1255.41" x2="1287.11" y1="449.57" y2="449.57" class="cls-3"/><line x1="1296.8" x2="1312.3" y1="449.57" y2="449.57" class="cls-3"/><line x1="521.33" x2="546.37" y1="276.03" y2="276.03" class="cls-3"/><line x1="118.18" x2="118.18" y1="407.53" y2="417.61" class="cls-4"/><line x1="123.23" x2="113.14" y1="412.57" y2="412.57" class="cls-4"/><line x1="954.41" x2="954.41" y1="247.67" y2="257.75" class="cls-4"/><line x1="959.45" x2="949.37" y1="252.71" y2="252.71" class="cls-4"/><line x1="612.85" x2="612.85" y1="239.16" y2="249.24" class="cls-4"/><line x1="617.89" x2="607.81" y1="244.2" y2="244.2" class="cls-4"/><line x1="1163.49" x2="1163.49" y1="718.39" y2="728.48" class="cls-4"/><line x1="1168.53" x2="1158.45" y1="723.44" y2="723.44" class="cls-4"/><g id="_1" data-name="1"><polygon points="270.39 742.21 620.58 543.64 657.18 564.78 310.06 765.11 270.39 742.21" class="cls-5"/><polygon points="760.53 1039.06 1202.08 781.56 1266.15 820.5 814.89 1082.57 767.58 1061.72 760.53 1039.06" class="cls-5"/><path d="M390.42,844.57l177.63,100.8a5.43,5.43,0,0,0,5.34,0l33.77-18.84a5.45,5.45,0,0,0,.08-9.48l-177-102.66a5.46,5.46,0,0,0-5.55,0L390.3,835.16A5.45,5.45,0,0,0,390.42,844.57Z" class="cls-5"/><path d="M349.05,806.61c-6.84,3.95-17.93,3.95-24.77,0L214.39,743.17c-6.84-3.95-8-14.3-1.12-18.24s19,0,25.89,3.94l109.89,58.76C357.34,791.69,355.89,802.67,349.05,806.61Z" class="cls-6"/><path d="M349.05,801.93c-6.84,4-17.93,4-24.77,0L214.39,738.48c-6.84-4-6.84-10.35,0-14.3s17.93-3.95,24.77,0l109.89,63.45C355.89,791.57,355.89,798,349.05,801.93Z" class="cls-7"/><path d="M288,761.58c0,4.71-14.57,4.71-14.57,0V635.46H288Z" class="cls-8"/><path d="M724.51,589.35c-6.84,3.95-17.93,3.95-24.77,0L589.85,525.9c-6.84-3.95-8-14.29-1.12-18.24s19,0,25.89,3.94l109.89,58.76C732.8,574.43,731.35,585.4,724.51,589.35Z" class="cls-6"/><path d="M724.51,584.66c-6.84,4-17.93,4-24.77,0L589.85,521.22c-6.84-4-6.84-10.36,0-14.31s17.93-3.94,24.77,0l109.89,63.45C731.35,574.31,731.35,580.72,724.51,584.66Z" class="cls-7"/><path d="M663.43,544.32c0,4.7-14.56,4.7-14.56,0V418.19h14.56Z" class="cls-8"/><path d="M232.27,678.3l462.8-280.52a10.89,10.89,0,0,0,4.93-8.53L711.72,8.92c0-4.1-13.93-10.24-16.65-8.67L222.5,273.08a10.88,10.88,0,0,0-4.92,8.53v388.5C217.58,673.25,229.55,679.87,232.27,678.3Z" class="cls-9"/><path d="M234.23,677.64,706.79,404.81a10.89,10.89,0,0,0,4.93-8.53V10.13c0-3.14-2.2-4.42-4.92-2.85L234.22,280.11a10.88,10.88,0,0,0-4.92,8.53V674.79C229.3,677.94,231.51,679.21,234.23,677.64Z" class="cls-8"/><path d="M244.73,668.08,703.82,403a10.57,10.57,0,0,0,4.79-8.29V19.6c0-3.05-2.14-4.29-4.78-2.76L244.72,281.89a10.59,10.59,0,0,0-4.78,8.29V665.32C239.94,668.37,242.09,669.61,244.73,668.08Z" class="cls-7"/><polygon points="525.4 348.25 501.9 361.81 501.9 353.33 525.4 339.77 525.4 348.25" class="cls-10"/><polygon points="560.23 328.14 536.73 341.71 536.73 333.23 560.23 319.66 560.23 328.14" class="cls-11"/><polygon points="595.05 308.03 571.55 321.6 571.55 313.12 595.05 299.55 595.05 308.03" class="cls-12"/><polygon points="629.88 287.93 606.38 301.5 606.38 293.02 629.88 279.45 629.88 287.93" class="cls-13"/><path d="M440.89,196.78a40.17,40.17,0,0,1,3.86-2.55c15-8.66,27.15-1.64,27.15,15.68s-12.15,38.37-27.15,47c-7.09,4.09-13.54,4.67-18.37,2.33,6.12-11,18.37-33.69,18.37-33.69S442.25,207,440.89,196.78Z" class="cls-10"/><path d="M421.94,219.94c4-8.75,10.22-16.83,17.34-22.11,1.3,9.77,3.69,27.54,3.69,27.54Z" class="cls-11"/><path d="M416.44,242.36a50,50,0,0,1,4.93-20.42l21,5.43s-11.72,21.69-17.58,32.22C419.67,257.09,416.44,251.1,416.44,242.36Z" class="cls-12"/><path d="M440.89,272.2a40.17,40.17,0,0,1,3.86-2.55c15-8.66,27.15-1.64,27.15,15.68s-12.15,38.37-27.15,47c-7.09,4.1-13.54,4.68-18.37,2.34,6.12-11,18.37-33.69,18.37-33.69S442.25,282.41,440.89,272.2Z" class="cls-12"/><path d="M421.94,295.36c4-8.75,10.22-16.83,17.34-22.11,1.3,9.77,3.69,27.54,3.69,27.54Z" class="cls-11"/><path d="M416.44,317.78a50,50,0,0,1,4.93-20.42l21,5.43S430.69,324.48,424.84,335C419.67,332.51,416.44,326.52,416.44,317.78Z" class="cls-10"/><path d="M677.62,383.48c-18.62,10.71-35.22,14.19-46.78,3.16-11.82-11.28-12-37.23-23.13-49.9-9.56-10.91-29.26-3.36-40.68,19-8.7,17.05-11,34-14,50.54-2.57,14.3-6.48,39.67-20.27,50-19.18,14.37-17.9-15.84-22.34-26.54-2.31-5.54-7.69-7.88-14.42-1.27-10.62,10.44-9.52,30.64-13.7,42.85-4.86,14.19-12.09,30.55-24,38.77Z" class="cls-10"/><polygon points="674.72 385.16 677.62 383.48 677.62 262.85 674.72 264.52 674.72 385.16" class="cls-10"/><polygon points="456.83 510.95 459.73 509.28 459.73 388.64 456.83 390.32 456.83 510.95" class="cls-10"/><path d="M501.62,171.21,676.81,70.07a7.45,7.45,0,0,0,3.37-5.84c0-2.14-1.51-3-3.37-1.94L501.62,163.43a7.46,7.46,0,0,0-3.37,5.84C498.25,171.42,499.76,172.29,501.62,171.21Z" class="cls-14"/><path d="M501.62,190.19,676.81,89.05a7.46,7.46,0,0,0,3.37-5.84c0-2.15-1.51-3-3.37-1.94L501.62,182.41a7.45,7.45,0,0,0-3.37,5.84C498.25,190.39,499.76,191.26,501.62,190.19Z" class="cls-14"/><path d="M501.62,209.17,676.81,108a7.43,7.43,0,0,0,3.37-5.83c0-2.15-1.51-3-3.37-2L501.62,201.39a7.43,7.43,0,0,0-3.37,5.83C498.25,209.37,499.76,210.24,501.62,209.17Z" class="cls-14"/><path d="M501.62,228.14,676.81,127a7.46,7.46,0,0,0,3.37-5.84c0-2.14-1.51-3-3.37-1.94L501.62,220.36a7.46,7.46,0,0,0-3.37,5.84C498.25,228.35,499.76,229.22,501.62,228.14Z" class="cls-14"/><path d="M501.62,247.12,676.81,146a7.44,7.44,0,0,0,3.37-5.84c0-2.15-1.5-3-3.37-1.95L501.62,239.34a7.45,7.45,0,0,0-3.37,5.83C498.25,247.32,499.76,248.19,501.62,247.12Z" class="cls-14"/><path d="M499.47,268,679,164.33a2.69,2.69,0,0,0,1.21-2.11c0-.77-.54-1.09-1.21-.7L499.47,265.15a2.7,2.7,0,0,0-1.22,2.11C498.25,268,498.8,268.35,499.47,268Z" class="cls-14"/><path d="M499.47,274.8,679,171.17a2.69,2.69,0,0,0,1.21-2.11c0-.77-.54-1.08-1.21-.7L499.47,272a2.7,2.7,0,0,0-1.22,2.11C498.25,274.87,498.8,275.19,499.47,274.8Z" class="cls-14"/><path d="M499.47,281.64,679,178a2.69,2.69,0,0,0,1.21-2.1c0-.78-.54-1.09-1.21-.71L499.47,278.84a2.68,2.68,0,0,0-1.22,2.1C498.25,281.71,498.8,282,499.47,281.64Z" class="cls-14"/><path d="M499.47,288.48,679,184.85a2.69,2.69,0,0,0,1.21-2.1c0-.78-.54-1.09-1.21-.7L499.47,285.68a2.7,2.7,0,0,0-1.22,2.1C498.25,288.56,498.8,288.87,499.47,288.48Z" class="cls-14"/><path d="M499.47,295.33,679,191.69a2.67,2.67,0,0,0,1.21-2.1c0-.77-.54-1.09-1.21-.7L499.47,292.52a2.7,2.7,0,0,0-1.22,2.1C498.25,295.4,498.8,295.71,499.47,295.33Z" class="cls-14"/><path d="M357.92,314.39c0-22.65-16-31.86-35.57-20.54-8.11,4.69-15.6,12.17-21.59,20.94l-16.36-10c10.26-15.92,23.51-29.6,38-37.94,32.52-18.78,59-3.5,59,34.05,0,37.31-26.14,82.79-58.38,101.78v-27C342.29,364.1,357.92,336.8,357.92,314.39Z" class="cls-10"/><path d="M286.85,357.86c1.1,20.88,16.6,29,35.5,18.13l.6-.36v27c-.2.11-.4.24-.6.36-31.8,18.36-57.8,4.14-58.92-31.64Z" class="cls-11"/><path d="M286.79,355.46q0,1.23.06,2.4l-23.42,13.52c0-.8-.05-1.59-.05-2.41,0-20.87,8.18-44.28,21-64.2l16.36,10C292.27,327.2,286.79,342.18,286.79,355.46Z" class="cls-12"/><path d="M370.58,251c.39.23,1-.14,1.43-.83l12.39-21.46c.39-.68.39-1.42,0-1.65s-1,.14-1.43.83l-12.39,21.46C370.18,250,370.18,250.73,370.58,251Z" class="cls-12"/><path d="M272.74,307.45c-.4.68-1,1.05-1.43.82l-12.39-7.15c-.4-.23-.4-1,0-1.65s1-1.06,1.43-.83l12.39,7.15C273.13,306,273.13,306.76,272.74,307.45Z" class="cls-12"/><path d="M370.58,358c.39-.68,1-1.05,1.43-.82l12.39,7.15c.4.23.4,1,0,1.65s-1,1.06-1.43.83l-12.39-7.15C370.18,359.41,370.18,358.67,370.58,358Z" class="cls-12"/><path d="M272.74,414.47c-.4-.23-1,.14-1.43.83l-12.39,21.46c-.4.68-.4,1.42,0,1.65s1-.14,1.43-.83l12.39-21.46C273.13,415.44,273.13,414.7,272.74,414.47Z" class="cls-12"/><path d="M265.86,580l153.6-88.68a5.47,5.47,0,0,0,2.48-4.29c0-1.58-1.11-2.22-2.48-1.43l-153.6,88.68a5.47,5.47,0,0,0-2.48,4.29C263.38,580.18,264.49,580.82,265.86,580Z" class="cls-14"/><path d="M265.86,593.32l153.6-88.68a5.47,5.47,0,0,0,2.48-4.29c0-1.58-1.11-2.22-2.48-1.43L265.86,587.6a5.47,5.47,0,0,0-2.48,4.29C263.38,593.47,264.49,594.11,265.86,593.32Z" class="cls-14"/><path d="M265.86,606.62l153.6-88.69a5.47,5.47,0,0,0,2.48-4.29c0-1.58-1.11-2.22-2.48-1.43l-153.6,88.68a5.49,5.49,0,0,0-2.48,4.3C263.38,606.76,264.49,607.41,265.86,606.62Z" class="cls-14"/><path d="M265.86,619.91l153.6-88.68a5.47,5.47,0,0,0,2.48-4.29c0-1.58-1.11-2.22-2.48-1.43l-153.6,88.68a5.47,5.47,0,0,0-2.48,4.29C263.38,620.06,264.49,620.7,265.86,619.91Z" class="cls-14"/><polygon points="388.62 490.01 420.41 471.66 420.41 441.45 388.62 459.8 388.62 490.01" class="cls-13"/><polygon points="347.69 513.65 379.48 495.29 379.48 456.25 347.69 474.6 347.69 513.65" class="cls-12"/><polygon points="306.76 537.28 338.55 518.92 338.55 472.09 306.76 490.44 306.76 537.28" class="cls-10"/><polygon points="265.83 560.91 297.62 542.56 297.62 484.65 265.83 503 265.83 560.91" class="cls-11"/><ellipse cx="798.19" cy="656.85" class="cls-5" rx="77.38" ry="44.68"/><path d="M832.91,649.15l.8-2.64c6.23,3.52,3.81,11-2.42,14.55l-16.49,10c-6.23,3.52-15.51,4.13-21.74.61s-6.53-11.55-.3-15.07l17.59-7.45C816.58,645.63,826.68,645.63,832.91,649.15Z" class="cls-15"/><path d="M832.91,646c6.23,3.52,3.6,9-2.63,12.49L813,668.28a20.13,20.13,0,0,1-19.93.26c-6.23-3.52-6.23-9.22,0-12.74L810.35,646C816.58,642.5,826.68,642.5,832.91,646Z" class="cls-10"/><path d="M794.63,628.3l.8-2.64c6.23,3.52,3.81,11-2.42,14.55l-16.49,10c-6.23,3.52-15.51,4.13-21.74.61s-6.53-11.55-.3-15.07l17.6-7.45C778.3,624.78,788.4,624.78,794.63,628.3Z" class="cls-15"/><path d="M794.63,625.18c6.23,3.52,3.6,9-2.63,12.49l-17.29,9.77a20.16,20.16,0,0,1-19.93.26c-6.23-3.52-6.23-9.23,0-12.75l17.3-9.77C778.3,621.66,788.4,621.66,794.63,625.18Z" class="cls-10"/><path d="M837.59,451.08V644.65c0,4.05-2.55,6.77-6.19,8.29-8.9,3.84-24.33,2.9-24.33-8.44,0-10.13-6.72-149.71-6.72-149.71L799,492.94,799.47,625c-.07,2.87-2,5-4.75,6.48-8.68,4.63-26.21,2.44-24.89-6.48.39-2.86-1-110.38-1.52-154.46,0-1.21,0-2.35,0-3.45-.11-9.4-.2-15.14-.2-15.14Z" class="cls-16"/><path d="M837.59,463.3v6.46a24.51,24.51,0,0,1-3.71,2.77c-10.59,6.35-21.64,10.86-34.19,10.75a36.81,36.81,0,0,1-4.53-.21c-1.15-.11-4.47-18.89-4.47-18.89s-2.43,18-3.25,17.85c-7.57-1.52-15.12-4.62-18.63-10.47a6.05,6.05,0,0,1-.5-1c0-1.21,0-2.35,0-3.45,1.25-3.08,5.88-5,9.27-5.58,10.48-1.85,20.87-1.14,31.46-1.14a156.87,156.87,0,0,1,20.29,1.82C830.61,462.36,834.78,462.49,837.59,463.3Z" class="cls-17"/><path d="M682.13,361.3a1.43,1.43,0,0,0,.2.05h.3l.45,0c.74,0,1.39.07,2,.07H686l1.39,0c1-.05,2-.14,3.06-.28l.51-.08a1.2,1.2,0,0,0,.2,0c.48-.09,1-.18,1.42-.29l.25-.06.84-.22a10.91,10.91,0,0,0,3.59-1.8l.33-.28a3,3,0,0,0,.66-1.46c.62-2.91-.18-8.44-.18-8.44s-8.29-1.73-12.12-1.79c-1.54,0-7.71,1.13-7.71,1.13-2.09,2.47,2.72,6.27,3.47,11.08C681.79,359.73,682,360.53,682.13,361.3Z" class="cls-18"/><path d="M681.67,358.92c.1.63.19,1.26.35,1.87s.43.53,1,.58a29.16,29.16,0,0,0,3.74.11c3.42-.12,7.7-.55,10.43-2.8,1-.74,1.16-2.18,1.19-3.46a18.6,18.6,0,0,0-.09-3.44c-.64,1.59-.44,3.8-2.24,4.47a2.18,2.18,0,0,1-2.6-1.27c-.25,1.11-.44,2.62-1.47,3.19a10.54,10.54,0,0,1-5.3,1.52,6.13,6.13,0,0,1-2.8-.65,14.69,14.69,0,0,1-2.19-1.76,5.25,5.25,0,0,1-1.06-1.2c.19.51.33,1,.52,1.54A6.64,6.64,0,0,1,681.67,358.92Z" class="cls-19"/><polygon points="694.38 369.91 692.33 371.42 641.92 287.67 642.87 287.14 694.38 369.91" class="cls-20"/><path d="M693.8,347.69s-4.95-3.36-7.13-4.06c-1.27-.4-2.37.07-3.63.06a39.07,39.07,0,0,1-4.57-.36c-.68-.08-1.88-.63-2.55-.29-.92.48-.08,1.83.49,2.37a3.72,3.72,0,0,0,1.57.86,20,20,0,0,1,2.63.61,6.14,6.14,0,0,1,1.94,1.89c1.76,2,3.61,2.52,6.15,3,1.77.3,4.42,1,5.22-1.17C694.65,348.56,693.8,347.69,693.8,347.69Z" class="cls-18"/><path d="M686,360.25a1.25,1.25,0,0,0-.18-1.17c0-.08-.88-.82-.94-.58.13-.48.35-.89.07-1.39a1.7,1.7,0,0,0-1.25-.88c.17,0,.18-.55.19-.65.07-1-.73-1.49-1.56-1.88a3.37,3.37,0,0,0,.19-.62,1.5,1.5,0,0,0-.59-1.14,2.26,2.26,0,0,0-1.61-.69c-2.23,0-2.18-3.19-2.18-3.19a23,23,0,0,0-3.59,1.26c-.79.47-1.77,1.4-1.55,2.42.13.66.58.66.35,1.33-.29.85-.66,1.43-.18,2.35.21.39.63.68.8,1.07s.08.14.07.53a2.1,2.1,0,0,0,1,2.23c.27.18.92.24,1.1.5.06.08,0,.19,0,.28a1.3,1.3,0,0,0,.16.31,3.65,3.65,0,0,0,1.37,1.44,5.9,5.9,0,0,0,2.61.66,7.27,7.27,0,0,0,2.91-.51,7.15,7.15,0,0,0,2.5-1.28A1,1,0,0,0,686,360.25Z" class="cls-18"/><path d="M697.81,348.3a43.54,43.54,0,0,1-6.26,13.33l3.82,1.68a32.58,32.58,0,0,0,6.33-13.49Z" class="cls-21"/><path d="M780.28,312.71l-6.17,40.37-3,4.07-19.6,26.5a5.17,5.17,0,0,1-5.74,1.18l-15.31-6.52-35.07-15a35.53,35.53,0,0,0,6.33-13.49L744,364.57C761.76,337.57,770.2,313.2,780.28,312.71Z" class="cls-22"/><path d="M771.1,357.15l-19.6,26.5a5.17,5.17,0,0,1-5.74,1.18l-15.31-6.52a35.59,35.59,0,0,0,8,1c2.13,0,5.36.13,7.23-1.15,1.23-.83,1.38-2.3,1.89-3.62.72,1.29.48,2.94,2.15,3.38,2.13.57,4.33-1.62,5.54-3,3.56-4,6-9.53,8.55-14.19,1.75-3.3,2-7.58,2.52-11.27.6-4,2.68-7,3.69-10.75-.61,2.22-.17,5.27.25,8,.17,1.12.33,2.17.41,3.1A69.72,69.72,0,0,1,771.1,357.15Z" class="cls-23"/><path d="M839.22,428.14c-.22,18.59-.66,33.8-.86,38.37-2.9,4.22-8,7.34-14,9.4-8.17,2.82-18.24,3.78-27.66,3.15l-5.87-17.52L783.62,477c-9.84-2.61-16.94-7.38-16.83-13.91,0,0,.24-65.72.07-79-.2-12.37.31-24.68.15-37-.09-7.27-.15-14.88,1.91-22a18.09,18.09,0,0,1,5.37-8.87,16.31,16.31,0,0,1,6-3.48c11.41-3.51,48.55,12.7,53.8,21.76,1,1.23,1.91,4.33,2.59,8.79C839.35,360.62,839.57,398.63,839.22,428.14Z" class="cls-10"/><path d="M839.22,428.14c-.08,6.33-9.81,8.11-14.7,9.44L778.75,450c-.23,0-.43,0-.66,0-.46-4.17,2.71-8.66,6-10.69,4.56-2.8,8.86-5.93,13.4-8.75,4.13-2.57,8.13-5.39,12.5-7.56,4-2,7.72-3.92,10.65-7.47,3.63-4.37,1.61-9.16.66-14.1a181.22,181.22,0,0,1-2.44-19c-1-12.77-.68-25.88,2.84-38.28a6.93,6.93,0,0,1,1.58-3.12c1-1,2.37-1.34,4.46-1.56a9,9,0,0,1,8.9,3.85C839.35,360.62,839.57,398.63,839.22,428.14Z" class="cls-23"/><path d="M810.85,330c0,.56-17.47,48.79-17.47,48.79l-2.22,3.58-7.87-36.15L782,323.35l7.26-1.34Z" class="cls-21"/><path d="M797.25,325.43a43.54,43.54,0,0,1,2.49,3.93l-3.3,4.66c-2.71-1.49-4.24-2.67-6.25-1.44l-1.28-6.32a4.11,4.11,0,0,1,2.85-1.72C793.31,325.22,795.24,325.12,797.25,325.43Z" class="cls-16"/><path d="M796.44,334l2.09,25.54c-1.62,4.83-5.18,18-7.37,22.76-1.28-4.25-2.73-19.92-3.55-27.16l2.58-22.58C792.32,331.23,793.72,332,796.44,334Z" class="cls-16"/><path d="M790.79,461.86a.32.32,0,0,1-.33-.31c0-3.5-.41-80.62,0-82.86a.32.32,0,0,1,.37-.26.33.33,0,0,1,.27.37c-.41,2.18,0,81.89,0,82.74a.32.32,0,0,1-.32.32Z" class="cls-24"/><path d="M786.9,384.56c0,1.09.39,2,.88,2s.87-.88.87-2-.39-2-.87-2S786.9,383.47,786.9,384.56Z" class="cls-16"/><path d="M786.9,408.85c0,1.09.39,2,.88,2s.87-.88.87-2-.39-2-.87-2S786.9,407.76,786.9,408.85Z" class="cls-16"/><path d="M786.9,434.93c0,1.09.39,2,.88,2s.87-.88.87-2-.39-2-.87-2S786.9,433.84,786.9,434.93Z" class="cls-16"/><path d="M807.45,322c0,4.85-17.26,4.85-17.26,0V306.39h17.26Z" class="cls-18"/><path d="M788.21,312.69a18,18,0,0,0-.48,2.41c-5.45,18.85,4.55,71.34,4.16,71.43l-13.42-42.42,3-3.32L778,337S776.59,313.48,788.21,312.69Z" class="cls-25"/><path d="M808.23,310.26c.45-2.11.67-3.87.21-3.87H790.19V322c0,3.05,6.33,3.84,8.67,3.63,4.23-.37,6.31-5,7.5-8.21C806.52,317,807.6,313.25,808.23,310.26Z" class="cls-19"/><path d="M792,324.46c-3.12.61-6.69,6.87-6.69,6.87-1-5.55-2.18-13.61,3.6-17.17a9.75,9.75,0,0,1,2.13-1c.56-.18,2.2-.5,2.2-.5s-2.4,5-2.5,7.24C790.72,321.22,790.53,323.85,792,324.46Z" class="cls-26"/><path d="M807.45,313.71c1.6,18.38-16.42,68.93-16.29,68.61l18.5-34.18-3.49-6.25,7.15-2.55S822.39,319.39,807.45,313.71Z" class="cls-25"/><path d="M807.45,315.1l-.26,6.51c-.65,1.67-1.81,2.33-3.46,3a16.49,16.49,0,0,1-6.48.79,13.22,13.22,0,0,1,3.5,9.13c4.56-2.49,10.37-6.44,10.37-12.55C811.12,316.63,807.45,315.1,807.45,315.1Z" class="cls-26"/><path d="M784.22,310.43a20.71,20.71,0,0,0,9.8,9,9.27,9.27,0,0,0,1,.42,13.89,13.89,0,0,0,9.68.47c6.6-2.3,8.62-11.54,10.67-17.67,2.68-8.21,3.44-17.09,3.29-25.56a1.19,1.19,0,0,0,0-.32,10.48,10.48,0,0,0-.61-3.39,13.53,13.53,0,0,0-2.77-4.78c-6.15-6.91-19.14-9.06-26.5-4.37-6.48,4.13-8.83,7.94-10,15.87C776.89,292.4,778.19,298.77,784.22,310.43Z" class="cls-18"/><path d="M774.12,281.82a29,29,0,0,0,1.48,8.51c.68,2,1.31,4,2.11,5.93.54,1.33,1.11,2.66,1.69,4a63.64,63.64,0,0,0,4.13,8,22,22,0,0,1-2.2-6.23c-.49-2.18-1.27-4.3-1.69-6.49-.3-1.62-.73-6,1.44-6.81,3.35-1.23,3.58,6.55,3.58,8.21a17.54,17.54,0,0,0,2,.41c.16-1.6-.23-3.05.33-4.65.37-1.07,1.29-1.48,1.77-2.34s.37-1.9.87-2.73c1-1.64,2.62-2.8,3.64-4.46.61-1,2-2.46,1.71-3.69a20,20,0,0,0,3.77,2.93,25.89,25.89,0,0,0,5.67,2.13c2.47.73,5.09.55,7.61,1.08,4.73,1,6.78,5.15,5.16,9.54a62,62,0,0,0,2.35-7.67c1.28-5.57,1.75-11.47-.83-16.75-4.54-9.28-17.17-14.44-27.11-10.82-1.13.42-3.22,1.39-3.22,1.39a26.74,26.74,0,0,0-4.1,1.08C776.8,265.6,773.93,273.93,774.12,281.82Z" class="cls-27"/><path d="M795.18,379.58l-16,4.52-.14-.47a2.05,2.05,0,0,1,1.44-2.55l11.91-3.37a2.11,2.11,0,0,1,2.61,1.41Z" class="cls-28"/><path d="M791.54,378l-10.38,2.94-.13-.46a2.06,2.06,0,0,1,1.44-2.56l6.32-1.79a2.12,2.12,0,0,1,2.62,1.41Z" class="cls-29"/><path d="M820,437.31,779.8,449.88a1.5,1.5,0,0,1-1.91-1.1l-1.82-9-1.26-6.11-9.25-45.31a1.45,1.45,0,0,1,1-1.67l39.92-11.6a1.49,1.49,0,0,1,1.89,1.1l8.81,41.57,1.72,8.07,2.06,9.75A1.45,1.45,0,0,1,820,437.31Z" class="cls-20"/><path d="M818.94,425.86l-30.28,10.46c-1.39,2.06-9.39,3.12-12.59,3.49l-1.26-6.11,42.41-15.91Z" class="cls-30"/><path d="M784.23,421.27a6.64,6.64,0,0,1-1.17.22,4,4,0,0,1-2-.43c-1.18-.67-1.9-2-2.79-3-1.72-1.89-3.17-.88-2.59,1.46.38,1.55,2.09,3.46.38,4.43-1.09.61-1.91.18-2.73-.57l-.8-3.76a15.05,15.05,0,0,0-2,3.83,5.33,5.33,0,0,0-.19,3.35,4.16,4.16,0,0,1,.41,1.47c0,.23-.21.48-.25.73a8,8,0,0,0,0,1,6.07,6.07,0,0,0,.45,1.9,4.69,4.69,0,0,1,.07,1.06,2.82,2.82,0,0,0,.42,1.33c.35.73.39,1.62,1.09,2.16.37.29.82.54,1.22.86a5,5,0,0,0,1.68.89l.42.09c2.93.5,9.07-2.6,11-4.48a8.46,8.46,0,0,0,2.48-3.81c.43-1.62-.57-3.34-1.37-4.69-.57-1-1.55-3.37-2.44-4A1.87,1.87,0,0,0,784.23,421.27Z" class="cls-18"/><path d="M786,418.24l-2.81,1.56a22.25,22.25,0,0,1,5.75,14.48l3.23-1C791.48,427.72,790.22,422.07,786,418.24Z" class="cls-21"/><path d="M839.35,413.38l-47.22,19.86c-.07-.57-.13-1.12-.22-1.69-.66-4.84-2.09-9.69-5.93-13.32l38.56-21.42-2.94-25.12s-6-45.33,10.48-39.75c12.76,4.33,11.31,47.55,11.82,67,.07,1.87.13,3.51.24,4.88C844.51,408.85,841.81,412.32,839.35,413.38Z" class="cls-22"/><path d="M839.35,413.38l-47.22,19.86c-.07-.57-.22-1.69-.22-1.69s37.62-18.39,42.65-21.91c2.11-1.47,2.4-1.78,1.67-4.22-.61-2-2.13-5.69-4.57-5.91a14.22,14.22,0,0,1,5.74,2.26c.79.49,2.74,2.88,3.51,2.82,1.14-.11,2.42-3.89,2.73-4.82.08-.28.19-.57.26-.85.07,1.87.13,3.51.24,4.88C844.51,408.85,841.81,412.32,839.35,413.38Z" class="cls-23"/><path d="M1121.85,798.14c-5.22,3-5.22,7.9,0,10.92l14.5,8.36c5.22,3,13.68,3,18.9,0s5.22-7.9,0-10.91l-14.49-8.37C1135.54,795.13,1127.07,795.13,1121.85,798.14Z" class="cls-16"/><path d="M1121.85,795.46c-5.22,3-5.22,7.91,0,10.92l14.5,8.37c5.22,3,13.68,3,18.9,0s5.22-7.9,0-10.92l-14.49-8.37C1135.54,792.45,1127.07,792.45,1121.85,795.46Z" class="cls-10"/><polygon points="1135.82 804.82 1143.93 800.13 1142.77 799.46 1134.66 804.15 1135.82 804.82" class="cls-31"/><polygon points="1132.62 803.18 1140.73 798.5 1139.57 797.84 1131.46 802.52 1132.62 803.18" class="cls-31"/><polygon points="1129.81 801.78 1137.92 797.1 1136.76 796.43 1128.65 801.11 1129.81 801.78" class="cls-31"/><path d="M1150,783.27c-5.22,3-5.22,7.9,0,10.92l14.5,8.36c5.22,3,13.68,3,18.9,0s5.23-7.9,0-10.91l-14.49-8.37C1163.71,780.26,1155.24,780.26,1150,783.27Z" class="cls-16"/><path d="M1150,780.59c-5.22,3-5.22,7.91,0,10.92l14.5,8.37c5.22,3,13.68,3,18.9,0s5.23-7.9,0-10.92l-14.49-8.37C1163.71,777.58,1155.24,777.58,1150,780.59Z" class="cls-10"/><polygon points="1163.99 789.95 1172.1 785.26 1170.94 784.59 1162.84 789.28 1163.99 789.95" class="cls-31"/><polygon points="1160.79 788.32 1168.9 783.63 1167.74 782.96 1159.63 787.65 1160.79 788.32" class="cls-31"/><polygon points="1157.98 786.91 1166.09 782.23 1164.93 781.56 1156.82 786.24 1157.98 786.91" class="cls-31"/><path d="M1132.85,740.44l1.23,65.62c1.05,9,25.68,6.14,24.63-2.86l1.5-77.66-22.86,5.6Z" class="cls-16"/><path d="M1162.09,727.17v65.61c1.05,9,25.67,6.13,24.63-2.87l1.49-77.66-22.86,5.61Z" class="cls-32"/><path d="M1206.17,876.4a3.6,3.6,0,0,1-1.81-.49l-60.7-35.65-.27-.17c-4.24-3-6-6.36-6-11.11V756.26a6.43,6.43,0,0,1,9.64-5.57l60.45,34.83a3.58,3.58,0,1,1-3.58,6.2l-59.35-34.2V829c0,2.07.44,3.38,2.92,5.19L1208,869.73a3.58,3.58,0,0,1-1.81,6.67Z" class="cls-33"/><path d="M1279.58,832.3a3.6,3.6,0,0,1-1.81-.49l-60.18-35.41c-5.56-3.35-6.31-7.58-6.31-11.29V711.48a6.43,6.43,0,0,1,9.64-5.57l60.45,34.83a3.58,3.58,0,1,1-3.57,6.2l-59.36-34.2v72.37c0,2.43.39,3.68,2.81,5.13l60.15,35.4a3.58,3.58,0,0,1-1.82,6.66Z" class="cls-33"/><path d="M1141.81,750.87l66.6,37.53,74-43.76a.9.9,0,0,0,0-1.56L1216.51,706a17.91,17.91,0,0,0-17.91.19l-56.91,33.66A6.39,6.39,0,0,0,1141.81,750.87Z" class="cls-34"/><path d="M1141.77,747.58l66.61,37.53,75.34-44.55-67.25-37.9a17.91,17.91,0,0,0-17.91.19l-56.9,33.66A6.39,6.39,0,0,0,1141.77,747.58Z" class="cls-33"/><path d="M1208.38,784.91s26.83-110.27,56.13-118.54c29.48-8.33,53.94-35.56,58.62-30.09,7.46,8.73-40.39,103.93-40.39,103.93Z" class="cls-35"/><path d="M1208.41,788.4s26.88-110.1,56.23-118.35c29.52-8.29,53.84-35.32,58.71-30s-40.47,103.77-40.47,103.77Z" class="cls-36"/><path d="M1256.39,714.45a19.76,19.76,0,0,0-9.57-8.76c-9.35-4.3-34.17-11.51-43.64-14.2-9.54-3.57-27.6-9.28-34.3-4.2-9,6.84-6.17,42.81-6.17,42.81L1179.24,720s29.23,37.88,37.61,40c12.57,3.18,27.58-6.6,35.4-17C1258.05,735.37,1261.19,723.6,1256.39,714.45Z" class="cls-37"/><path d="M1228,737.93c-1.6,6.62-6,14.22-12.63,22.59-5.58-.68-13.21-4.5-21.36-9.18l-32.54-19-6.64-3.66-2.33,1.36-2.52,1.34-17.12,9s-.77-40,7.8-45c17-10.13,63.39,16.83,63.39,16.83C1224.34,716.51,1231.06,725.52,1228,737.93Z" class="cls-38"/><path d="M1228,737.93c-1.6,6.62-6,14.22-12.63,22.59-5.58-.68-13.21-4.5-21.36-9.18l-32.54-19-6.64-3.66-2.33,1.36-2.52,1.34c-.58-4.31,1.14-11.82,2.7-14.68-1.23,2.24,4.24,6.9,5.56,8.06,15.86,14,39.86,20.84,59.74,12,2.55-1.14,7.12-3.5,9.1-1A5,5,0,0,1,1228,737.93Z" class="cls-39"/><path d="M1292,611.9c8.28,6.49,11.32,17.05,17.06,30.17l-25.31,31.43-.87-23.57Z" class="cls-25"/><path d="M1294.59,642.15c-3.92,15.38-12.49,29.68-16,45.2a266.22,266.22,0,0,0-5.07,29.18c-.6,5.45,1.54,13-2.07,17.86-6.7,9.12-21,9.12-30.7,7.56a52.84,52.84,0,0,1-19.79-7.71,42.94,42.94,0,0,1-5.63-4.28,16,16,0,0,1-5.41-14.88c1-6,4.62-11.08,6.07-16.85.5-2,1.1-4.27,1.76-6.66,4.79-17.52,12.57-42.94,12.57-42.94s8.37-23.67,9.88-25.36c5.15-4.85,11.94-6.81,18.57-8.66,8.15-2.26,22.33-4,30.7-3.4,2.92.2,4.92,2.26,6.2,4.7C1299.9,623.89,1296.76,633.6,1294.59,642.15Z" class="cls-10"/><path d="M1254,655.11a133.29,133.29,0,0,1-1.67,16.94c-2,10.44-6.66,21.76-10.37,32-3.34,9.25-6.64,18.48-14,25.4a28.6,28.6,0,0,1-7,4.79,42.94,42.94,0,0,1-5.63-4.28,16,16,0,0,1-5.41-14.88c1-6,4.62-11.08,6.07-16.85.5-2,1.1-4.27,1.76-6.66.3-.66.59-1.3.88-2,6.41-14.87,13.38-29.86,19.33-44.89,2.44-6.18,4.33-13,8-18.24,2.7,4.46,5.67,7.67,7.14,12.92S1254.31,649.75,1254,655.11Z" class="cls-23"/><path d="M1250.41,572.83c.16,2.61.43,5.17.35,7.8-.32,9.19.07,26.36,10.37,29.56l-.16,5.37c-.06,1.87,2.22,3.15,5.27,3.83,5.85,1.32,12.37.29,12.48-3.28l.07-5.71a4.73,4.73,0,0,0,3-2.27c4.59-6.47,12.74-19.82,12.88-27.25.2-9.22-2.12-18.35-11.29-23.09-7.79-4-21.75-3.48-28.89,2.77C1251.29,563.39,1250.19,568.81,1250.41,572.83Z" class="cls-18"/><path d="M1253.64,580.21a5.68,5.68,0,0,1,.8,2.38c.08,1.27-.24,2.85.21,4,.09-1.2,0-3.7,1.56-4.11,2.21-.59,2.76,4.41,3,5.75.34,1.8.59,3.63,1,5.42a41.22,41.22,0,0,0,3.52,9.31c1.44,2.67,3.56,6.3,6.41,7.64,2,.95,4.83.53,7.07.5,1.79,0,3.65-.24,4.77-1.69,8.81-11.35,16.77-26,13-40.77-3.29-13-16.67-20.47-29.51-19a33,33,0,0,0-13.16,4.47c1.14.2,3.37.14,4.11,1a12.12,12.12,0,0,0-6,3.31c-1.27,1.25-3.45,3.83-3.3,5.71.18,0,2.88.16,2.68.41a11.37,11.37,0,0,0-2.67,6.67,1.65,1.65,0,0,1,2.3-.74,5.68,5.68,0,0,1,3.36,4.12c.25,1.59-.25,3.47.42,5C1253.42,579.78,1253.53,580,1253.64,580.21Z" class="cls-27"/><path d="M1208.38,784.91s26.83-110.27,56.13-118.54c29.48-8.33,53.94-35.56,58.62-30.09,7.46,8.73-40.39,103.93-40.39,103.93Z" class="cls-33"/><path d="M1208.41,788.4s26.88-110.1,56.23-118.35c29.52-8.29,53.84-35.32,58.71-30s-40.47,103.77-40.47,103.77Z" class="cls-40"/><path d="M1167.91,694.9a1.59,1.59,0,0,0-.91-.72,10.64,10.64,0,0,1-2.39-.73,23.57,23.57,0,0,1-2.13-1.59,2.2,2.2,0,0,0-2-.25,22,22,0,0,1-3.13.33c-.07.86,1.37,1.48,1.87,1.63-.9.06-1.88-.35-2.82-.37a66.47,66.47,0,0,0-8-.07c-.41.07.07,3.25.15,3.64a9.77,9.77,0,0,0,2.72,5c3.12,3.07,8.45,4.06,12.68,4.14a8.73,8.73,0,0,0,3.06-.38,4.56,4.56,0,0,0,2.66-5.92A25.27,25.27,0,0,0,1167.91,694.9Z" class="cls-18"/><path d="M1254.44,642c0,18.06-16.57,42.74-23,51.29a10.49,10.49,0,0,1-6.76,4L1200.23,702l-30.3,5.69c-3.89,0-6.18-14.52,0-15.67l44.45-12.5s21.38-51.09,25.86-56.21C1250.68,626.35,1254.44,633.45,1254.44,642Z" class="cls-41"/><path d="M1254.44,642.08c0,18-16.57,42.7-23,51.25a10.49,10.49,0,0,1-6.76,4L1200.23,702c3.89-1.49,8-2.13,11.87-4,2.87-1.41,5.71-2.49,8.7-3.65,2.46-1,2.59-1.19,1.76-3.78,2.54,1.82,3.23,1.6,5.62-.31,4.57-3.6,7.6-8,10.86-12.81,4.87-7.12,8.24-14.5,11.58-22.46A57.55,57.55,0,0,0,1254.44,642.08Z" class="cls-23"/><path d="M1015.74,891.72a9.14,9.14,0,0,0,6.94-.5c3.84-2.23,5-7.85,3.15-11.66-2.85-5.92-12.66-9.82-18.16-12.63-3.46-1.77-14.32-7.53-17.79-3.77-7.79,8.45,14.39,22.37,19.75,25.82A22,22,0,0,0,1015.74,891.72Z" class="cls-42"/><path d="M1042,876.6a9.16,9.16,0,0,0,6.93-.5c3.85-2.23,5-7.86,3.16-11.66-2.85-5.92-12.66-9.82-18.17-12.64-3.45-1.76-14.32-7.52-17.78-3.76-7.79,8.45,14.38,22.37,19.75,25.82A22,22,0,0,0,1042,876.6Z" class="cls-42"/><path d="M1047.13,764.55c-8-1.53-15.67,5.63-15.64,13.78l5.38,85.37c-.29,6.8,12.69,7.26,13,.46l4.19-81.9,17,7,6.81-21.43Z" class="cls-43"/><path d="M1026.29,772.47a13,13,0,0,0-15.38,12.79l.5,93.57c-.28,6.8,12.82,7.27,13.11.47l4.18-77.51,17,2.62,6.32-30.92Z" class="cls-18"/><path d="M1083.11,949.53a3.6,3.6,0,0,1-1.81-.49l-60.7-35.65-.27-.17c-4.23-3-6-6.36-6-11.11V829.39a6.43,6.43,0,0,1,9.64-5.57l60.45,34.83a3.58,3.58,0,1,1-3.58,6.2l-59.35-34.2v71.46c0,2.07.44,3.39,2.92,5.2l60.55,35.55a3.58,3.58,0,0,1-1.81,6.67Z" class="cls-33"/><path d="M1156.52,905.43a3.62,3.62,0,0,1-1.81-.49l-60.18-35.41c-5.56-3.34-6.31-7.58-6.31-11.29V784.61a6.43,6.43,0,0,1,9.64-5.57l60.45,34.83a3.58,3.58,0,1,1-3.57,6.2l-59.36-34.2v72.37c0,2.43.39,3.68,2.81,5.13l60.15,35.4a3.58,3.58,0,0,1-1.82,6.66Z" class="cls-33"/><path d="M1018.75,824l66.61,37.53,74-43.76a.9.9,0,0,0,0-1.56l-65.88-37.12a17.91,17.91,0,0,0-17.91.18l-56.91,33.66A6.39,6.39,0,0,0,1018.75,824Z" class="cls-34"/><path d="M1018.71,820.71l66.61,37.53,75.34-44.55-67.25-37.89a17.91,17.91,0,0,0-17.91.18l-56.9,33.66A6.39,6.39,0,0,0,1018.71,820.71Z" class="cls-33"/><path d="M1085.32,858s26.83-110.26,56.13-118.54c29.48-8.32,53.94-35.56,58.62-30.08,7.46,8.73-40.39,103.92-40.39,103.92Z" class="cls-35"/><path d="M1085.36,861.53s26.87-110.1,56.22-118.34c29.52-8.3,53.84-35.33,58.71-30S1159.82,817,1159.82,817Z" class="cls-36"/><path d="M1128.51,816.18a53,53,0,0,1-24.15,16.11,29.54,29.54,0,0,1-15,.88,98,98,0,0,1-26.63-11c-11.91-6.92-31.23-15.67-29.45-31.33a19.64,19.64,0,0,1,.9-4.11c6.07-18.57,29.51-23.16,46.15-19.91,13.62,2.68,29.27,6.63,42.17,12a21.19,21.19,0,0,1,10.59,8.74C1138.39,796.73,1134.92,808.51,1128.51,816.18Z" class="cls-42"/><path d="M1108.29,816.73c-.55,4-2.13,7.8-3,11.74a38.77,38.77,0,0,1-.94,3.82,29.54,29.54,0,0,1-15,.88,98,98,0,0,1-26.63-11c-11.91-6.92-31.23-15.67-29.45-31.33,1.63,1.78,12.5,12.39,17.23,15,7.23,3.93,14,8.88,22.3,10.35,13.14,2.35,25.27-3.49,35.67-11.08A40.63,40.63,0,0,1,1108.29,816.73Z" class="cls-44"/><path d="M1131,671l14.73,52a24.47,24.47,0,0,1-.71,15.83L1128,760Z" class="cls-45"/><path d="M1113.67,802.65c-11.8.41-37.4-3.76-40.36-18.26-.35-1.7,1.36-4.55,2.11-6.07,1.6-3.27,4.17-6.57,4.7-10.26.44-3.21.11-6.66.35-10,.11-1.58.2-3.16.22-4.74a81.15,81.15,0,0,0-1.89-20.26c-1.71-7.54-4.94-15.49-4.55-23.58a21,21,0,0,1,.24-2.59c1.24-8.4,4.93-26.77,4.93-26.77s12.1-8.35,20.15-10.9c8.48-2.66,20.94-6.13,27.53,1.63,9.54,11.23,4.22,30.94,2.68,45a193.34,193.34,0,0,0-1.43,29.53c1,23.41,10.62,43.8,10.68,43.91C1144.11,800.05,1120,802.45,1113.67,802.65Z" class="cls-11"/><path d="M1131.46,703.94c-1.5,3.81-1.68,8.19-5.2,11.06s-8.26,4-12.34,4.73c-5.9,1-12-.59-17.25-3.8-3.91-2.39-5.22-3.42-3.09-7.73.63-1.26,1.12-4.2,2.14-5.06,2.31-2,7.83,3.79,10.76,4.49,6.2,1.46,12.43,2.13,18.52,0C1126.85,707,1129.86,706.22,1131.46,703.94Z" class="cls-46"/><path d="M1089.55,732.88c-.26,1.55-.55,3.09-.86,4.62-1.07,5.2-2,14-7.74,16.3a2.43,2.43,0,0,1-.26-.44,81.15,81.15,0,0,0-1.89-20.26c-1.71-7.54-4.94-15.49-4.55-23.58,2.62-5.1,4.77-10.22,8.29-14.79a27.12,27.12,0,0,0,4.77-8.46c-.34,1.06,1.63,4.88,1.94,6.09a60.29,60.29,0,0,1,1.43,7,93.21,93.21,0,0,1,.63,13.47A127.59,127.59,0,0,1,1089.55,732.88Z" class="cls-47"/><path d="M1086.13,627.05a25,25,0,0,0-.34,4.7c.07,2.75.49,5.42.49,8.21,0,5.86,0,11.67,1.55,17.36a21.16,21.16,0,0,0,2.84,6.27c.53.78,3.76,3.28,3.75,4l-.05,8.53c0,2.07,2.52,3.49,5.89,4.28,6.45,1.52,15.9.57,15.93-3.36l0-7.31a22.83,22.83,0,0,0,3.14-4c4.87-7.07,13.44-21.66,13.39-29.84,0-10.14-2.83-20.21-13-25.53a24.16,24.16,0,0,0-23.4.56C1090.85,614.23,1087.23,620.59,1086.13,627.05Z" class="cls-18"/><path d="M1082.32,624.32a19.83,19.83,0,0,0,1,4.95,6.8,6.8,0,0,1,1.69-4.44,40.61,40.61,0,0,0-.31,4.7c-.07-1.84,3.45-2.61,4.52-1.63s5.58,3.91,5.75,5.14c.48,3.37,4.12,71.29-3.71,73,8.26,7.11,32.92,14.4,45.13-4.76,3.4-5.33.59-60.87.27-65.57-.71-10.71-5-21.26-14.7-26.78a36.57,36.57,0,0,0-19.51-4.06c-6.08.68-11.13,2-15.82,6.06C1082.9,614.14,1082.05,619.83,1082.32,624.32Z" class="cls-48"/><path d="M1095,633.4c1.09-5.68-2.1-26.11,12.25-28.65,0,0-21.46-4.82-12.79,28.65Z" class="cls-49"/><path d="M1088.82,698.8c-2.17,8.74-9,16.19-14.59,12.59-5.78-3.74-34.76-8.07-43.33-9.3a6.23,6.23,0,0,1-3.91-2.17l-7-8.4-27.55-33.2,7.93-8.55,36.32,36,44.92-5.6C1089.31,683.59,1090.62,691.63,1088.82,698.8Z" class="cls-45"/><path d="M1088.82,698.8c-2.17,8.74-9,16.19-14.59,12.59-5.78-3.74-34.76-8.07-43.33-9.3a6.23,6.23,0,0,1-3.91-2.17l-7-8.4c.46.49,1,1,1.41,1.39,1.67,1.56,3.73,2.88,5.07,4.74a8.55,8.55,0,0,1,3.61-2.85c-.22,6.35,9.82,7.2,14.13,8,5.29,1,10.61,1.93,16,2.66,4.92.68,10,1.62,14.94.9S1085.2,702.4,1088.82,698.8Z" class="cls-47"/><path d="M1000.45,650.53c.31-1.46.15-3.49.38-5.12.25-1.79.69-4.91.28-6.83-.39-1.75-1.31-1.16-2.26.18a7.77,7.77,0,0,0-.93,5.13C998.16,645.77,998.75,649.78,1000.45,650.53Z" class="cls-18"/><path d="M985.49,625.12c-.11,2.88,4.16,7.63,5.2,10.07-.37-.81-3.42,1.8-3.73,2.08-2.4,2.16-2.66,5.45-2.33,8.46.78,5.95,4,8.08,7.24,11.87a3.67,3.67,0,0,0,1.24,1.15.67.67,0,0,0,.68-.12,11.31,11.31,0,0,0,1.33-1.15,44.24,44.24,0,0,0,3.45-4.05,8.68,8.68,0,0,0,2.09-3.1,3.58,3.58,0,0,0,0-.4c0-.09,0-.21,0-.3a20.54,20.54,0,0,0-.41-2.18,20.3,20.3,0,0,0-1.39-4.33,73.44,73.44,0,0,0-3.94-7.71c-1.93-3.32-4-7.18-6.5-9.93C987.31,624.19,985.57,622.47,985.49,625.12Z" class="cls-18"/><path d="M1085.32,858s26.83-110.26,56.13-118.54c29.48-8.32,53.94-35.56,58.62-30.08,7.46,8.73-40.39,103.92-40.39,103.92Z" class="cls-33"/><path d="M1085.36,861.53s26.87-110.1,56.22-118.34c29.52-8.3,53.84-35.33,58.71-30S1159.82,817,1159.82,817Z" class="cls-40"/><path d="M959.07,1021.84a3.62,3.62,0,0,1-1.81-.49l-60.69-35.64-.27-.18c-4.24-3-6-6.35-6-11.11V901.71a6.43,6.43,0,0,1,9.64-5.58L960.35,931a3.58,3.58,0,0,1-3.58,6.21L897.42,903v71.45c0,2.07.44,3.39,2.92,5.2l60.55,35.56a3.58,3.58,0,0,1-1.82,6.66Z" class="cls-33"/><path d="M1032.49,977.75a3.51,3.51,0,0,1-1.81-.5L970.5,941.84c-5.56-3.34-6.31-7.58-6.31-11.28V856.92a6.43,6.43,0,0,1,9.64-5.57l60.45,34.83a3.58,3.58,0,0,1-3.57,6.21l-59.36-34.21v72.38c0,2.43.39,3.67,2.81,5.13l60.15,35.39a3.58,3.58,0,0,1-1.82,6.67Z" class="cls-33"/><path d="M894.71,896.31l66.61,37.54,74-43.76a.91.91,0,0,0,0-1.57L969.42,851.4a17.91,17.91,0,0,0-17.91.19L894.6,885.24A6.39,6.39,0,0,0,894.71,896.31Z" class="cls-34"/><path d="M894.68,893l66.61,37.54L1036.63,886l-67.25-37.89a17.91,17.91,0,0,0-17.91.19L894.56,882A6.39,6.39,0,0,0,894.68,893Z" class="cls-33"/><path d="M961.29,930.36s26.83-110.27,56.13-118.55c29.48-8.32,53.94-35.56,58.62-30.08,7.46,8.73-40.39,103.93-40.39,103.93Z" class="cls-33"/><path d="M961.32,933.85s26.88-110.11,56.23-118.35c29.52-8.29,53.84-35.33,58.71-30s-40.47,103.78-40.47,103.78Z" class="cls-40"/><path d="M746,1019.77c-5.22,3-5.22,7.91,0,10.92l14.49,8.37c5.22,3,13.69,3,18.91,0s5.22-7.9,0-10.92l-14.5-8.37C759.72,1016.76,751.26,1016.76,746,1019.77Z" class="cls-50"/><path d="M746,1017.1c-5.22,3-5.22,7.9,0,10.91l14.49,8.37c5.22,3,13.69,3,18.91,0s5.22-7.9,0-10.91l-14.5-8.37C759.72,1014.08,751.26,1014.08,746,1017.1Z" class="cls-51"/><polygon points="760.01 1026.45 768.12 1021.77 766.96 1021.1 758.85 1025.78 760.01 1026.45" class="cls-31"/><polygon points="756.81 1024.82 764.92 1020.14 763.76 1019.47 755.65 1024.15 756.81 1024.82" class="cls-31"/><polygon points="754 1023.41 762.11 1018.73 760.95 1018.06 752.84 1022.75 754 1023.41" class="cls-31"/><path d="M774.21,1004.9c-5.22,3-5.22,7.91,0,10.92l14.5,8.37c5.22,3,13.68,3,18.9,0s5.22-7.9,0-10.92l-14.49-8.37C787.9,1001.89,779.43,1001.89,774.21,1004.9Z" class="cls-50"/><path d="M774.21,1002.23c-5.22,3-5.22,7.9,0,10.91l14.5,8.37c5.22,3,13.68,3,18.9,0s5.22-7.9,0-10.91l-14.49-8.37C787.9,999.21,779.43,999.21,774.21,1002.23Z" class="cls-51"/><polygon points="788.18 1011.58 796.29 1006.9 795.13 1006.23 787.02 1010.91 788.18 1011.58" class="cls-31"/><polygon points="784.98 1009.95 793.09 1005.27 791.93 1004.6 783.82 1009.28 784.98 1009.95" class="cls-31"/><polygon points="782.17 1008.54 790.28 1003.86 789.12 1003.19 781.01 1007.88 782.17 1008.54" class="cls-31"/><path d="M757,962.07l1.23,65.63c1.05,9,25.67,6.13,24.63-2.87l1.49-77.66-22.85,5.61Z" class="cls-52"/><path d="M786.28,948.8v65.61c1,9,25.67,6.14,24.62-2.86l1.5-77.66-22.86,5.6Z" class="cls-50"/><path d="M830.35,1098a3.62,3.62,0,0,1-1.81-.49l-60.69-35.64-.27-.18c-4.24-3-6-6.35-6-11.11V977.9a6.43,6.43,0,0,1,9.64-5.58l60.45,34.83a3.58,3.58,0,0,1-3.58,6.21l-59.36-34.2v71.45c0,2.07.45,3.39,2.93,5.2l60.55,35.56a3.58,3.58,0,0,1-1.82,6.66Z" class="cls-33"/><path d="M903.77,1053.94a3.51,3.51,0,0,1-1.81-.5L841.78,1018c-5.56-3.34-6.31-7.58-6.31-11.28V933.11a6.43,6.43,0,0,1,9.64-5.57l60.45,34.83a3.58,3.58,0,0,1-3.58,6.21l-59.35-34.21v72.38c0,2.42.39,3.67,2.81,5.13l60.15,35.39a3.58,3.58,0,0,1-1.82,6.67Z" class="cls-33"/><path d="M766,972.5,832.6,1010l74-43.75a.91.91,0,0,0,0-1.57L840.7,927.59a17.91,17.91,0,0,0-17.91.19l-56.91,33.65A6.39,6.39,0,0,0,766,972.5Z" class="cls-34"/><path d="M766,969.21l66.61,37.54,75.34-44.56L840.66,924.3a17.91,17.91,0,0,0-17.91.19l-56.91,33.65A6.39,6.39,0,0,0,766,969.21Z" class="cls-33"/><path d="M832.57,1006.55S859.4,896.28,888.7,888c29.47-8.32,53.94-35.56,58.62-30.08,7.45,8.73-40.39,103.93-40.39,103.93Z" class="cls-35"/><path d="M832.6,1010s26.88-110.1,56.22-118.34c29.53-8.29,53.85-35.33,58.72-30s-40.47,103.77-40.47,103.77Z" class="cls-36"/><path d="M880.57,936.08a19.79,19.79,0,0,0-9.56-8.76c-9.35-4.3-34.18-11.51-43.64-14.2-9.55-3.57-27.6-9.27-34.3-4.2-9,6.84-6.17,42.81-6.17,42.81l16.53-10.06s29.23,37.87,37.61,40c12.57,3.18,27.58-6.6,35.4-17C882.24,957,885.38,945.23,880.57,936.08Z" class="cls-53"/><path d="M850,965.71a80.83,80.83,0,0,1-10.46,16.44c-5.6-.68-13.21-4.5-21.38-9.18l-32.54-19L779,950.35l-2.33,1.39-3.69,2-16,8.38s-.75-39.93,7.8-45c17-10.13,63.41,16.86,63.41,16.86C851.77,938.84,857.06,950.14,850,965.71Z" class="cls-54"/><path d="M851.35,959c.24,2.07-.79,4.42-1.25,6.4l-.07.32a80.83,80.83,0,0,1-10.46,16.44c-5.6-.68-13.21-4.5-21.38-9.18l-32.54-19L779,950.35l-2.33,1.39-3.69,2c.15-3-.33-6.19-.18-9.22,3.19.35,7.32,4.61,10,6.3a128,128,0,0,0,12.22,7c9.77,4.85,21.35,10.24,32.45,9.51a35.37,35.37,0,0,0,12.83-3.34c2.51-1.14,5.08-2.13,7.5-3.49C848.87,959.8,850,958.77,851.35,959Z" class="cls-55"/><path d="M887.71,815.93c3,0,17.78,2.11,12.77,36.69-1.28,8.82-34.24,28.14-34.24,28.14L821.43,877c-1.1-3.14-2-8.21-.81-11.72l37.74.59Z" class="cls-56"/><path d="M895.89,941.74c-4.33,10.48-18.26,13.91-28,14.7a51.82,51.82,0,0,1-27.55-5.58,15.84,15.84,0,0,1-8.79-13.14,24.71,24.71,0,0,1,.11-4.79c.46-4.35,1.69-8.66,1.73-13,0-5.27.25-12.11.51-19.07.59-15.93,1.52-32.52,1.52-32.52s2.48-25,3.53-27c3.83-6,10-9.47,16-12.83,7.38-4.15,23.11-11.08,31.38-12.5,2.9-.51,5.31,1,7.14,3.07,6,6.75,5.25,16.94,5.18,25.73-.11,15.89-.7,31.93-.37,47.84a265.43,265.43,0,0,0,2.06,29.53C901,927.63,898.2,936.16,895.89,941.74Z" class="cls-51"/><path d="M854.12,872a100.9,100.9,0,0,1-3.78,27,124.11,124.11,0,0,1-4.37,13c-1.63,4-2.88,8.15-5.39,11.71-1.36,1.91-4.94,9.65-7.45,10a1.39,1.39,0,0,1-1.49-.72c.46-4.35,1.69-8.66,1.73-13,0-5.27.25-12.11.51-19.07.59-1.63,1.25-3.23,1.85-4.9,2.28-6.51,4.24-13.06,6.24-19.63,2.06-6.85,3.34-17.4,7.53-23.35,2.35-3.34,2.75.63,2.88,1.18-.06,2.22.9,4.29,1.3,6.46C854.32,864.35,854.12,868.17,854.12,872Z" class="cls-57"/><path d="M884.22,794a50.81,50.81,0,0,1-2.06,8.92c-1.1,3.34-2.25,6.68-3.23,10-.64,2.17-1.45,4.28-1.12,6.54a9.55,9.55,0,0,0,.57,2.77c1,3.52-5.87,6.48-12.26,7.12-2.42.24-4.53.05-5.7-.77a2.15,2.15,0,0,1-.9-1.23l-.13-2.9a12.32,12.32,0,0,1-8.59-3.36c-6.07-5.32-9.54-15.56-11.36-22-.77-2.59-1.85-5-2.84-7.47-1.49-3.84-2.08-9.47.31-13.29,5.32-8.44,19.43-13.56,28.66-12.2a21.24,21.24,0,0,1,15.18,10.22,32.21,32.21,0,0,1,3.67,8.55C885.19,788,884.64,791,884.22,794Z" class="cls-18"/><path d="M858.18,823.26a10,10,0,0,0,5.21-1.94,6.85,6.85,0,0,0-2.07,2.75,17.4,17.4,0,0,0-.9,4.57,2,2,0,0,1-.9-1.21l-.13-2.9a12.32,12.32,0,0,1-8.59-3.36,9.27,9.27,0,0,0,1.89.81C854.4,822.51,856.38,823.32,858.18,823.26Z" class="cls-19"/><path d="M880.94,772.94c-5.49-8.42-16.25-12.35-26.58-11.16-11.36,1.32-22.06,8.87-21.3,20.69a14,14,0,0,0,1.88,6.31c1.09,1.83,3.71.58,5.2,1.74a8.67,8.67,0,0,1,2.89,6c3.83-.29,5.6,4.85,6,7.64,0,.3,1.59-.84,1.68-1.1.21-.64-.26-1.31-.43-1.88-.66-2.18-1.52-5.83.87-7.53s4-.61,5.21,1.39,1.26,4.81,1.35,7.23a10.55,10.55,0,0,0,0,2.45c.35,1.21,1.75,2.1,2.58,3,1.74,1.85,3.61,3.58,5.47,5.32,1.59,1.48,3.07,3.51,5.12,4.43,3.35,1.5,7.75-.62,9.22-3.77s1.79-6.73,2.4-10.06C884.42,793.27,887.07,782.35,880.94,772.94Z" class="cls-58"/><path d="M832.57,1006.55S859.4,896.28,888.7,888c29.47-8.32,53.94-35.56,58.62-30.08,7.45,8.73-40.39,103.93-40.39,103.93Z" class="cls-33"/><path d="M832.6,1010s26.88-110.1,56.22-118.34c29.53-8.29,53.85-35.33,58.72-30s-40.47,103.77-40.47,103.77Z" class="cls-40"/><path d="M777.75,886.72c.64.8,1.36,1.57,2,2.28a49.94,49.94,0,0,0,3.93,4c2.18-1.66,4.71-3.06,6.56-5.12.84-1,1.42-1.29.94-2.22A9.39,9.39,0,0,0,790,884a10.37,10.37,0,0,1-1.13-2,5,5,0,0,0-3-2.53c-1.3-.38-2.79-.29-4-1a22.57,22.57,0,0,1-3.64-2.46c-.91-.84-1.54-1.9-2.49-2.66a14.52,14.52,0,0,0-.37,8.48,16.39,16.39,0,0,0,1.1,3A11.38,11.38,0,0,0,777.75,886.72Z" class="cls-18"/><path d="M851.48,883.07a135.7,135.7,0,0,1-9.18,24.33,13.4,13.4,0,0,1-17.56,6.35l-7.82-3.54-33.27-15.1c-3.87,0-.18-14,6-15.16l36.58,9.23s8.2-42.72,12.68-47.86C856,846.86,856.12,865.49,851.48,883.07Z" class="cls-56"/><path d="M848.82,890c.81-2.17,1.74-4.5,2.64-6.9a134.91,134.91,0,0,1-9.16,24.29,13.4,13.4,0,0,1-17.56,6.35l-7.82-3.54c2.15.33,4.43.46,5.77-.64,1.72-1.41.82-4.55,1.56-6.68-.46,8.18,6.16,11.27,12,5.6A50.93,50.93,0,0,0,848.82,890Z" class="cls-59"/><path d="M766.11,863.12l13.79,15.52a7.78,7.78,0,0,1,6,3.76,6.79,6.79,0,0,1,3.75-2.44l32.89,8.29-30.89-40Z" class="cls-60"/><g class="cls-61"><path d="M775.44,865.75a8.11,8.11,0,0,1,3.38-4.38c1.79-.77,3.69-.63,5.4-1.31a6,6,0,0,0,2.25-1.36,14.5,14.5,0,0,1,2-1.94,19.41,19.41,0,0,1,2.57-1.08,4.63,4.63,0,0,0,2-1.76,3.84,3.84,0,0,1-1.76,2.17c-.82.49-1.76.72-2.44,1.18s-1.27,1.21-2,1.84a5.79,5.79,0,0,1-2.54,1.26c-1.79.41-3.73.51-5.25,1.43s-2.51,2.48-3.57,4Z" class="cls-25"/><path d="M780,871.67a8.08,8.08,0,0,1,3.38-4.39c1.79-.77,3.69-.63,5.4-1.31a6,6,0,0,0,2.25-1.36,15.56,15.56,0,0,1,2-1.93,19.63,19.63,0,0,1,2.58-1.09,4.6,4.6,0,0,0,2-1.75,3.84,3.84,0,0,1-1.76,2.17c-.82.49-1.76.71-2.44,1.18s-1.27,1.21-2,1.84a5.9,5.9,0,0,1-2.54,1.26c-1.8.41-3.73.5-5.25,1.43s-2.51,2.47-3.57,4Z" class="cls-25"/><path d="M784.43,878.59c.7-1.66,1.62-3.46,3.38-4.38s3.69-.63,5.4-1.31a5.86,5.86,0,0,0,2.25-1.36,14.42,14.42,0,0,1,2-1.93,19.52,19.52,0,0,1,2.57-1.09,4.6,4.6,0,0,0,2-1.75,3.81,3.81,0,0,1-1.75,2.16c-.82.49-1.77.72-2.45,1.19s-1.27,1.21-2,1.83a5.69,5.69,0,0,1-2.54,1.26c-1.79.42-3.73.51-5.25,1.43s-2.51,2.48-3.57,4Z" class="cls-25"/><path d="M789.69,884c.7-1.66,1.62-3.46,3.38-4.38,1.79-.77,3.69-.63,5.4-1.31a6,6,0,0,0,2.26-1.36,13.81,13.81,0,0,1,2-1.93,19.52,19.52,0,0,1,2.57-1.09,4.6,4.6,0,0,0,2-1.75,3.81,3.81,0,0,1-1.75,2.16c-.82.49-1.76.72-2.45,1.19s-1.27,1.21-2,1.83a5.69,5.69,0,0,1-2.54,1.26c-1.79.42-3.72.51-5.25,1.43s-2.5,2.48-3.57,4Z" class="cls-25"/></g><path d="M820.67,875c0,.12-2.08.17-2.21.24a11.69,11.69,0,0,1-2.78.88,4.1,4.1,0,0,1-1.78-.25,11.1,11.1,0,0,1-3.55-.89c-1-.66-1.63-1.81-2.79-2.38,1.05-1.18,2.47-.52,3.75-.17,1.6.44,2.79-.76,4-1.62a6.52,6.52,0,0,0-1.54-1.31,1.69,1.69,0,0,0-.86-.41c-.77-.19-1.51-1-2.27-.84a3,3,0,0,0-1,.53c-.43.33-.34.15-.49.77-.36,1.56-1.39,2.78-3.12,2.3.06-.89.77-1.57.76-2.49s-.36-1.71,0-2.46,1.51-1.43,2.12-2,1.54-1.91,2.37-2.15a6.84,6.84,0,0,1,2.51.15,17.08,17.08,0,0,1,2.8.51,2.28,2.28,0,0,1,.94.84,10.66,10.66,0,0,0,2.71,2.29C819.59,868.66,820.08,872.1,820.67,875Z" class="cls-18"/><path d="M777.19,884.78c-.48-1.44-.56-3-1.11-4.44-.35-.9-.63-1.35-.31-2.23.6-1.64.68-3.44,1.52-5,.36-.66,1.14-2.67,2.15-2.48,1.57.3.95,3.86.63,4.86a3.35,3.35,0,0,0,.1,2.07,6.32,6.32,0,0,0,.49,1.82,4.85,4.85,0,0,0,2,1.7c.76.37,2.11.78,1.73,1.92-.3.88-2.31,4.07-2.45,5.25-.25,2.07-3.43-.92-4.27-2.42A6.32,6.32,0,0,1,777.19,884.78Z" class="cls-18"/><polygon points="806.84 872.04 806.21 873.75 807.84 872.95 806.84 872.04" class="cls-62"/><polygon points="820.35 859.2 819.35 858.29 806.84 872.04 807.84 872.95 820.35 859.2" class="cls-25"/><polygon points="819.13 861.57 818.62 861.1 820.1 859.48 820.61 859.94 819.13 861.57" class="cls-25"/><polygon points="815.68 865.61 815.43 865.38 820.48 859.83 820.74 860.06 815.68 865.61" class="cls-25"/><path d="M816.1,866a.48.48,0,0,1-.69,0,.49.49,0,0,1,0-.69.48.48,0,0,1,.69,0A.49.49,0,0,1,816.1,866Z" class="cls-25"/><path d="M807.72,872.24l-.2-.19a.76.76,0,0,1,0-1.07l4.27-4.69a.75.75,0,0,1,1.06,0l.2.19a.76.76,0,0,1,0,1.07l-4.26,4.69A.77.77,0,0,1,807.72,872.24Z" class="cls-62"/><path d="M463.18,681.56V843c0,1.34-.91,2.7-2.68,3.72l-23.26,13.43a13.33,13.33,0,0,1-6.44,1.54,14.42,14.42,0,0,1-2.56-.22,11.54,11.54,0,0,1-3.89-1.32l-23.28-13.43c-1.77-1-2.66-2.38-2.64-3.72,0,0,0-161.45,0-161.45Z" class="cls-63"/><path d="M428.24,681.56V861.48a11.54,11.54,0,0,1-3.89-1.32l-23.28-13.43c-1.77-1-2.66-2.38-2.64-3.72,0,0,0-161.45,0-161.45Z" class="cls-64"/><path d="M460.5,685.65l-23.26,13.44a14.3,14.3,0,0,1-12.9,0l-23.27-13.44c-3.56-2-3.56-5.39,0-7.44l23.27-13.44a14.3,14.3,0,0,1,12.9,0l23.26,13.44C464.07,680.26,464.07,683.6,460.5,685.65Z" class="cls-65"/><path d="M506.71,751.08V869.27c0,1.34-.91,2.7-2.68,3.72l-23.26,13.43a13.33,13.33,0,0,1-6.44,1.54,14.34,14.34,0,0,1-2.56-.22,11.61,11.61,0,0,1-3.89-1.32L444.6,873c-1.77-1-2.66-2.38-2.64-3.72,0,0,0-118.19,0-118.19Z" class="cls-11"/><path d="M471.77,751.08V887.74a11.61,11.61,0,0,1-3.89-1.32L444.6,873c-1.77-1-2.66-2.38-2.64-3.72,0,0,0-118.19,0-118.19Z" class="cls-66"/><path d="M504,755.17l-23.26,13.44a14.3,14.3,0,0,1-12.9,0L444.6,755.17c-3.56-2-3.56-5.39,0-7.44l23.27-13.44a14.3,14.3,0,0,1,12.9,0L504,747.73C507.59,749.78,507.59,753.12,504,755.17Z" class="cls-67"/><path d="M551.8,796.59v96.55c0,1.34-.91,2.7-2.68,3.72l-23.26,13.43a13.33,13.33,0,0,1-6.44,1.54,14.42,14.42,0,0,1-2.56-.22,11.77,11.77,0,0,1-3.89-1.32l-23.28-13.43c-1.77-1-2.66-2.38-2.64-3.72,0,0,0-96.55,0-96.55Z" class="cls-63"/><path d="M516.86,796.59v115a11.77,11.77,0,0,1-3.89-1.32l-23.28-13.43c-1.77-1-2.66-2.38-2.64-3.72,0,0,0-96.55,0-96.55Z" class="cls-64"/><path d="M549.12,800.68l-23.26,13.43a14.24,14.24,0,0,1-12.9,0l-23.27-13.43c-3.56-2.06-3.56-5.39,0-7.45L513,779.8a14.24,14.24,0,0,1,12.9,0l23.26,13.43C552.69,795.29,552.69,798.62,549.12,800.68Z" class="cls-65"/><path d="M593.59,769.78V917c0,1.34-.91,2.7-2.69,3.72l-23.25,13.43a13.37,13.37,0,0,1-6.45,1.54,14.31,14.31,0,0,1-2.55-.22,11.61,11.61,0,0,1-3.89-1.32l-23.28-13.43c-1.78-1-2.66-2.38-2.64-3.72,0,0,0-147.23,0-147.23Z" class="cls-11"/><path d="M558.65,769.78v165.7a11.61,11.61,0,0,1-3.89-1.32l-23.28-13.43c-1.78-1-2.66-2.38-2.64-3.72,0,0,0-147.23,0-147.23Z" class="cls-66"/><path d="M590.91,773.87l-23.27,13.44a14.28,14.28,0,0,1-12.89,0l-23.27-13.44c-3.56-2-3.56-5.39,0-7.44L554.75,753a14.28,14.28,0,0,1,12.89,0l23.27,13.44C594.47,768.48,594.47,771.82,590.91,773.87Z" class="cls-67"/></g></g></g></g></svg>