<svg xmlns="http://www.w3.org/2000/svg" viewBox="0 0 1437.17 1103.73"><defs><style>.cls-1{isolation:isolate}.cls-2{fill:#ebedf5}.cls-3,.cls-4{fill:none;stroke:#c3c7ec;stroke-linejoin:round}.cls-4{stroke-linecap:round}.cls-16,.cls-5{fill:#d8e1ed}.cls-12,.cls-39,.cls-43,.cls-5,.cls-51{opacity:.5}.cls-6{fill:#557bd4}.cls-7{fill:#638ff7}.cls-8{fill:#613737}.cls-10,.cls-9{fill:#60a35f}.cls-10,.cls-26,.cls-28,.cls-40,.cls-58{opacity:.25}.cls-10,.cls-16,.cls-28,.cls-32,.cls-40,.cls-43,.cls-51,.cls-58,.cls-64{mix-blend-mode:multiply}.cls-11,.cls-12{fill:#71bf6f}.cls-12,.cls-26{mix-blend-mode:screen}.cls-13{fill:#bccdf7}.cls-14{fill:#afc4f7}.cls-15{fill:#eaf0ff}.cls-16{opacity:.75}.cls-17{fill:#6b86c7}.cls-18{fill:#465882}.cls-19{fill:#6176a6}.cls-20{fill:#c7d6ff}.cls-21{fill:#cf3636}.cls-22{fill:#3648cf}.cls-23{fill:#94b2f7}.cls-24{fill:#799ff7}.cls-25,.cls-28{fill:#6a94f7}.cls-26,.cls-27{fill:#9cb7f7}.cls-29{fill:#1d2866}.cls-30,.cls-40{fill:#5c81e6}.cls-31,.cls-32{fill:#233d85}.cls-32,.cls-64{opacity:.35}.cls-33{fill:#e1eaff}.cls-34{fill:#6e94fa}.cls-35{fill:#f0e8c2}.cls-36,.cls-43{fill:#fecdbf}.cls-37{fill:#d9d1af}.cls-38{fill:#a6a086}.cls-39,.cls-44{fill:#fff}.cls-41{fill:#445ea8}.cls-42{fill:#486cd4}.cls-45{fill:#664c46}.cls-46{fill:#8a5b4d}.cls-47{fill:#6b473c}.cls-48{fill:#52362e}.cls-49{fill:#754d41}.cls-50,.cls-51{fill:#bababa}.cls-52{fill:#664339}.cls-53{fill:#14080d}.cls-54{fill:#ebebeb}.cls-55{fill:#ff66a7}.cls-56{fill:#c2a7b2}.cls-57,.cls-58{fill:#39417a}.cls-59{fill:#473631}.cls-60{fill:#54403a}.cls-61{fill:#424b8c}.cls-62{fill:#4e92de}.cls-63,.cls-64{fill:#569eeb}.cls-65{fill:#b8d9ff}.cls-66{fill:#d4e8ff}.cls-67{fill:#a7c8eb}.cls-68{fill:#2e2e2e}.cls-69{fill:#bbc8f0}.cls-70{fill:#7283b5}.cls-71{fill:#6a83c4}.cls-72{fill:#54699c}</style></defs><title>Asset 8</title><g class="cls-1"><g id="Layer_2" data-name="Layer 2"><g id="Layer_1-2" data-name="Layer 1"><path d="M211.73,744.21a101.27,101.27,0,0,0,36.62,30l11.15-18.57A79.44,79.44,0,0,0,280,761.76l-1,21.67a102.22,102.22,0,0,0,47.1-4.7l-5.26-21a80,80,0,0,0,18.84-10.08l14.6,16a101.49,101.49,0,0,0,30-36.62l-18.57-11.15a79.81,79.81,0,0,0,6.16-20.46l21.67,1a102.19,102.19,0,0,0-4.7-47.09l-21,5.26a79.29,79.29,0,0,0-10.08-18.84l16-14.6a101.65,101.65,0,0,0-36.62-30L325.87,609.7a79,79,0,0,0-20.45-6.16l1-21.67a102.19,102.19,0,0,0-47.09,4.7l5.25,21a80.21,80.21,0,0,0-18.84,10.08l-14.6-16a101.49,101.49,0,0,0-30,36.62l18.57,11.15a79.93,79.93,0,0,0-6.16,20.46l-21.67-1A102.32,102.32,0,0,0,196.6,716l21.05-5.25a79.23,79.23,0,0,0,10.08,18.83Zm43-92.6a49,49,0,1,1,6.88,69A49,49,0,0,1,254.76,651.61Zm13,10.61a32.25,32.25,0,1,1,4.53,45.39A32.25,32.25,0,0,1,267.73,662.22Z" class="cls-2"/><path d="M693.61,202.37a127.75,127.75,0,0,0,22.68,55.12l23.47-13.92a100,100,0,0,0,19,19.05L744.7,286.06a128.9,128.9,0,0,0,55,22.94l6.76-26.48a100.17,100.17,0,0,0,26.91.09L840,309.08a127.73,127.73,0,0,0,55.13-22.68l-13.93-23.47a100,100,0,0,0,19.06-19L923.7,258a128.67,128.67,0,0,0,22.94-55l-26.47-6.75a100.58,100.58,0,0,0,.08-26.91l26.48-6.63A127.93,127.93,0,0,0,924,107.55l-23.46,13.93a100.59,100.59,0,0,0-19-19.06l14-23.43a128.78,128.78,0,0,0-55-22.94l-6.76,26.47a99.76,99.76,0,0,0-26.91-.08L800.32,56a128.19,128.19,0,0,0-55.13,22.68l13.93,23.47a100.59,100.59,0,0,0-19.06,19l-23.43-14a128.72,128.72,0,0,0-22.94,55l26.47,6.75a100.66,100.66,0,0,0-.08,26.92Zm103.06-76.94A61.74,61.74,0,1,1,763.08,206,61.75,61.75,0,0,1,796.67,125.43Zm8,19.52a40.62,40.62,0,1,1-22.11,53A40.62,40.62,0,0,1,804.71,145Z" class="cls-2"/><path d="M1144.22,723.81A79.77,79.77,0,0,0,1173,747.4l8.78-14.62a62.33,62.33,0,0,0,16.1,4.85l-.78,17a80.39,80.39,0,0,0,37-3.7l-4.13-16.56a62.9,62.9,0,0,0,14.82-7.93l11.49,12.59A79.77,79.77,0,0,0,1280,710.27l-14.62-8.78a62.77,62.77,0,0,0,4.85-16.09l17,.78a80.55,80.55,0,0,0-3.7-37.06L1267,653.25a62.9,62.9,0,0,0-7.93-14.82l12.59-11.49a79.8,79.8,0,0,0-28.82-23.58L1234,618a62.84,62.84,0,0,0-16.1-4.85l.78-17a80.51,80.51,0,0,0-37,3.7l4.13,16.56a62.7,62.7,0,0,0-14.82,7.93l-11.49-12.59a79.7,79.7,0,0,0-23.59,28.82l14.62,8.77a62.44,62.44,0,0,0-4.85,16.1l-17.05-.78a80.51,80.51,0,0,0,3.7,37l16.56-4.13a62.7,62.7,0,0,0,7.93,14.82ZM1178.08,651a38.57,38.57,0,1,1,5.42,54.27A38.57,38.57,0,0,1,1178.08,651Zm10.21,8.35a25.38,25.38,0,1,1,3.56,35.72A25.38,25.38,0,0,1,1188.29,659.3Z" class="cls-2"/><path d="M183,627.1A52.85,52.85,0,0,0,187.82,603l-11.25-.61a41.09,41.09,0,0,0-2.15-10.9l10.21-4.82A53.17,53.17,0,0,0,171,566.13l-8.4,7.54a41,41,0,0,0-9.21-6.21l3.8-10.61A52.23,52.23,0,0,0,145.43,553a53.07,53.07,0,0,0-12.35-1l-.61,11.26a41.48,41.48,0,0,0-10.91,2.14l-4.81-10.2a53.15,53.15,0,0,0-20.51,13.61l7.53,8.4a41.77,41.77,0,0,0-6.21,9.22L87,582.59a52.85,52.85,0,0,0-4.87,24.13l11.25.61a41.09,41.09,0,0,0,2.15,10.9l-10.21,4.82a53.17,53.17,0,0,0,13.62,20.51l8.4-7.54a41,41,0,0,0,9.21,6.21l-3.8,10.61a53,53,0,0,0,24.13,4.88l.61-11.26a41.48,41.48,0,0,0,10.9-2.14l4.81,10.2a53.07,53.07,0,0,0,20.51-13.61l-7.53-8.4a41.77,41.77,0,0,0,6.21-9.22Zm-54.11,3.21a25.5,25.5,0,1,1,30-19.94A25.5,25.5,0,0,1,128.84,630.31Z" class="cls-2"/><path d="M1398.31,612.82a48.17,48.17,0,0,0,6.21-9.3,47.65,47.65,0,0,0,3.87-10.49l-9.63-3.26a37.13,37.13,0,0,0,.78-10l10-1.71a47.9,47.9,0,0,0-6.86-21.12l-9.12,4.51a37.45,37.45,0,0,0-6.51-7.63l5.88-8.3a47.81,47.81,0,0,0-19.79-10.09l-3.26,9.63a37.5,37.5,0,0,0-10-.78l-1.71-10a48,48,0,0,0-21.13,6.85l4.51,9.13a37.67,37.67,0,0,0-7.63,6.5l-8.29-5.88a47.49,47.49,0,0,0-10.09,19.79l9.63,3.26a37.13,37.13,0,0,0-.78,10l-10,1.71a47.9,47.9,0,0,0,6.86,21.12l9.12-4.51a37.78,37.78,0,0,0,6.51,7.64l-5.88,8.29a47.81,47.81,0,0,0,19.79,10.09l3.26-9.63a37.5,37.5,0,0,0,10,.78l1.71,10a48,48,0,0,0,21.13-6.86l-4.51-9.13a37.67,37.67,0,0,0,7.63-6.5Zm-46.77-10.49a23,23,0,1,1,30.94-10A23,23,0,0,1,1351.54,602.33Z" class="cls-2"/><rect width="12.37" height="12.37" y="795.3" class="cls-2" rx="1.09"/><rect width="12.37" height="12.37" x="1241.23" y="828.71" class="cls-2" rx="1.09"/><rect width="12.37" height="12.37" x="715.47" y="311.67" class="cls-2" rx="1.09"/><rect width="12.37" height="12.37" x="1273.33" y="462.84" class="cls-2" rx="1.09"/><rect width="12.37" height="12.37" x="482.77" y="414.56" class="cls-2" rx="1.09"/><path d="M356.07,512.56a10.26,10.26,0,1,1-10.25-10.25A10.25,10.25,0,0,1,356.07,512.56Z" class="cls-3"/><path d="M219.08,274.3A10.26,10.26,0,1,1,208.83,264,10.26,10.26,0,0,1,219.08,274.3Z" class="cls-3"/><path d="M666,857.89a10.26,10.26,0,1,1-10.26-10.25A10.26,10.26,0,0,1,666,857.89Z" class="cls-3"/><path d="M286.2,263.46a5.32,5.32,0,1,1-5.32-5.32A5.32,5.32,0,0,1,286.2,263.46Z" class="cls-3"/><circle cx="21.74" cy="521.36" r="5.32" class="cls-3"/><path d="M517.72,243.91a5.32,5.32,0,1,1-5.31-5.32A5.32,5.32,0,0,1,517.72,243.91Z" class="cls-3"/><circle cx="1274.19" cy="319.26" r="5.32" class="cls-3"/><circle cx="1147.02" cy="939.02" r="5.32" class="cls-3"/><line x1="117.99" x2="145.42" y1="362.82" y2="362.82" class="cls-3"/><line x1="79.31" x2="131.7" y1="349.28" y2="349.28" class="cls-3"/><line x1="560.88" x2="599.44" y1="1009.58" y2="1009.58" class="cls-3"/><line x1="537.05" x2="564.47" y1="1027.7" y2="1027.7" class="cls-3"/><line x1="1374.86" x2="1409.58" y1="484.37" y2="484.37" class="cls-3"/><line x1="1420.19" x2="1437.17" y1="484.37" y2="484.37" class="cls-3"/><line x1="570.93" x2="598.36" y1="294.32" y2="294.32" class="cls-3"/><line x1="129.43" x2="129.43" y1="438.32" y2="449.37" class="cls-4"/><line x1="134.95" x2="123.91" y1="443.84" y2="443.84" class="cls-4"/><line x1="1045.22" x2="1045.22" y1="263.25" y2="274.3" class="cls-4"/><line x1="1050.74" x2="1039.7" y1="268.77" y2="268.77" class="cls-4"/><line x1="671.16" x2="671.16" y1="253.94" y2="264.98" class="cls-4"/><line x1="676.68" x2="665.64" y1="259.46" y2="259.46" class="cls-4"/><line x1="1274.19" x2="1274.19" y1="778.77" y2="789.81" class="cls-4"/><line x1="1279.72" x2="1268.67" y1="784.29" y2="784.29" class="cls-4"/><g id="_3" data-name="3"><ellipse cx="753.56" cy="558.75" class="cls-5" rx="55.93" ry="32.29"/><path d="M815.78,470.23l-123.25-2,15.2,81.89c0,.36.12.72.2,1.07,1.25,5.81,5.68,11.43,13.3,15.89,18.25,10.67,47.85,10.67,66.1,0,9.12-5.34,13.68-12.33,13.69-19.32Z" class="cls-6"/><ellipse cx="754.28" cy="467.07" class="cls-7" rx="61.75" ry="36.1"/><ellipse cx="754.28" cy="467.07" class="cls-6" rx="54.53" ry="31.88"/><ellipse cx="754.28" cy="471.26" class="cls-8" rx="50.9" ry="27.14"/><path d="M770.17,467.93c0,11.12-27.12,14.73-32.61,3,1.16-15.19,9.58-71.09,7.75-113.11-.77-17.79-3.36-33.09-9.12-41.77-.5-.74-1-1.43-1.53-2.06l19-20.92s.13,5.86.42,15.47c.35,12,1,29.95,1.93,49.46C758.3,405.66,762.65,462.88,770.17,467.93Z" class="cls-9"/><path d="M756,358c-.94,2.66-2.48,5-5.8,3.85a10.18,10.18,0,0,1-4.86-4c-.77-17.79-3.36-33.09-9.12-41.77,1.56-3.12,5.39-5.4,8.49-6.37a24.84,24.84,0,0,1,9.36-1.14C754.39,320.62,755,338.53,756,358Z" class="cls-10"/><path d="M748.68,315.91c-1.22-5.7-2.3-11.72-3.49-17.11-3.89-17.49-9.39-33-9.31-52.35,0-4.66-.26-10,.81-14.59a43.64,43.64,0,0,1,4.94-11.47c.29-.5,4.49-.49,4.49-.49s-.47-6,1-8.29c4-6.32,15.18-19.48,15.18-19.48s1.92,3.78,2.67,5.58c2.7,6.38,5.51,12.47,7.66,18.77.31.89-2.48,3.83-2.48,3.83s4.05,1.22,4.35,2.42a61.36,61.36,0,0,1,1.42,7.43c1.63,13-.89,25.06-3.86,37.69-2,8.67-5.39,17-9,25.27-2.25,5.24-5.06,9.65-7.27,14.94-1.88,4.5-4.91,12-4.68,17.76C750.24,322.79,749.43,319.41,748.68,315.91Z" class="cls-11"/><path d="M754.87,266.17s.21-16.94,1.34-25.54c.83-6.33.73-12.76,1.74-19.09.81-5.09.89-11.07,2.27-15.95-.25,12.16-.71,24.93-2.32,37C756.82,250.6,754.87,266.17,754.87,266.17Z" class="cls-12"/><path d="M755.25,300.27c-1.32-20.79,6.31-38.16,18.72-51.88a151,151,0,0,1,12.95-13c1-.9,5.51.62,5.51.62s-.46-4.67.5-5.34c7.82-5.52,16.78-9.27,26.88-8.44,6.51.54,20.86,3.1,25.26,9.57-10.1-.67-15.07,4.68-20,11.69-.48.68-4.19,0-4.19,0s1.83,3.49,1.38,4.21c-4.52,7.18-8.67,15.56-16.1,19.77-13,7.37-26.94,14.06-40.46,20.81-5.13,2.56-14.68,6.88-11.59,13.91Z" class="cls-9"/><path d="M822.34,231c-21.53,4.2-41.17,23.58-50.36,41.09s-5.18,33.14-5.18,33.14,1.22-14.91,4.37-23.09c4.36-11.29,12-22.09,21.43-31.4C800.08,243.39,811.59,233.12,822.34,231Z" class="cls-12"/><path d="M748.36,319.28c6-24.43,16.45-47.59,41.39-57.36,19.86-7.78,44.77-4.39,60.78,10.14,13.92,12.62,20,32.8,19.56,51.21-3.65-9.95-16.13-16.93-25.47-20.49A71.44,71.44,0,0,0,836,300.1l-1.47-.34c-1.19-.26-2.7-6.64-2.7-6.64s-3.3,5.56-4.51,5.41a103,103,0,0,0-36.79,2.54,126.31,126.31,0,0,0-25.4,9.36c-5.2,2.53-15.73,5.76-17.59,12C747.82,321.4,748.1,320.34,748.36,319.28Z" class="cls-11"/><path d="M776.09,286.83C788,272.39,810.78,269.15,828,273s27.67,17,27.67,17-12-8.56-19.58-11.27a68.94,68.94,0,0,0-32.83-3C794.55,277,782,279.62,776.09,286.83Z" class="cls-12"/><path d="M755.37,299.76a70,70,0,0,0-11-46.94c-9.08-13.67-28-25.61-43.81-30.06l-7.2,1.21a4.24,4.24,0,0,0-2.39-1.21,55.46,55.46,0,0,0-7.67,1.15,44.43,44.43,0,0,0-9.33,3.29,51.21,51.21,0,0,0-16.28,11.68l24.66,4c-.28,1.16-.57,2.33-.86,3.5,15.24,3.37,28.5,12.42,41.34,21.28S748.78,285.8,755.37,299.76Z" class="cls-9"/><path d="M695.18,231c21.53,4.2,41.17,23.58,50.35,41.09s5.18,33.14,5.18,33.14-1.22-14.91-4.37-23.09c-4.35-11.29-12-22.09-21.42-31.4C717.44,243.39,705.92,233.12,695.18,231Z" class="cls-12"/><path d="M751.83,293.26a68.9,68.9,0,0,0-12.59-24.15c-16.4-19.75-48-21-70.75-12.95a65.35,65.35,0,0,0-10.08,4.52c-1,.54-1.15,4.94-1.15,4.94s-3.78-1.9-4.76-1.2c-21.56,15.57-28,43-19.67,70.29-.24-6.17,4.23-11.21,8.78-15,10.77-8.9,25.17-17.37,40.21-21.69,1.75-.5,3.64-6,3.64-6s4.23,4.1,5.52,3.89c9.22-1.51,18.45-1.22,27,1.7,16.81,5.74,28.88,20.63,36.82,35.91A96.25,96.25,0,0,0,751.83,293.26Z" class="cls-11"/><path d="M646.61,290.56c7.74-17,29-26,46.58-26.7s31.13,9.33,31.13,9.33-13.8-5.17-21.82-5.84A69,69,0,0,0,670,272.9C661.91,276.33,650.47,282.08,646.61,290.56Z" class="cls-12"/><path d="M754.88,305.62a19.76,19.76,0,0,1,3-2.7,28.78,28.78,0,0,1,10.38-4.78c18.29-3.73,37.16,1.84,49.56,15.27,1.28,1.39.13,6.92.13,6.92s6.18,1.46,7.33,3.63c10.91,20.53,6.47,46.15-1.83,66.76.45-1.12,0-3.27-.09-4.46-1.35-14.62-12.95-24.11-25.16-31.11-1.59-.92-3.43-6.94-3.43-6.94s-5.06,2.41-6.85,1.53c-6.16-3-11.5-6.69-17.42-9.91a27.06,27.06,0,0,1-8.86-7.56,52.65,52.65,0,0,1-6.54-12.36c-1.46-3.66-4.64-6-6.73-1.15C750.22,313.67,751.56,309.26,754.88,305.62Z" class="cls-9"/><path d="M823.93,357.06c1.19-17.88-13.51-34.58-29-42.6s-32.34-5.1-32.34-5.1,14.83,1.38,22.33,4.18A66.61,66.61,0,0,1,811.42,332C817,338.37,824.52,348.14,823.93,357.06Z" class="cls-12"/><path d="M700,376c.3.45.61.89.92,1.34,1.27,1.83,7.61,7.77,7.63,9.5,0-2.81-1.3-5.29-1.76-8-1.94-11.45,1.3-23.76,7.41-33.91.88-1.46-1.55-7.93-1.55-7.93s5.35,2.36,5.87,1.71c5.23-6.58,11.71-11.69,18.53-14.17a14,14,0,0,1,8.74-.62c3.49,1.11,4.45,3.9,6.15,6.78a41,41,0,0,1,2.6,6.85s.58-3.87.59-4.87a75.37,75.37,0,0,1,.64-10.3c1.08-7.38-3.57-16.55-7.93-22.19a24.32,24.32,0,0,0-19-9.63c-11.71-.18-22.21,4.6-30.63,12.45-.85.8-.22,5.9-.22,5.9s-4.45-.95-5.37.36c-7.7,10.86-8.39,25.09-5.48,37.93a81.53,81.53,0,0,0,8,20.94A88.91,88.91,0,0,0,700,376Z" class="cls-9"/><path d="M695.11,340.48C691.4,324,701.24,310.1,713,304.16s26.46-1.77,26.46-1.77-12.28-.07-18.17,1.82a37.93,37.93,0,0,0-19.48,14.51C698.1,324,693.26,332.27,695.11,340.48Z" class="cls-12"/><polygon points="718.58 638.72 569.21 724.97 419.83 636.67 569.21 552.48 718.58 638.72" class="cls-5"/><polygon points="569.21 713.1 436.34 634.56 436.34 287.52 569.21 366.06 569.21 713.1" class="cls-13"/><polygon points="569.21 713.1 702.08 636.39 702.08 289.35 569.21 366.06 569.21 713.1" class="cls-14"/><polygon points="702.08 289.34 569.21 366.05 436.34 287.51 569.21 212.62 702.08 289.34" class="cls-15"/><ellipse cx="573.32" cy="289.34" class="cls-16" rx="75.85" ry="27.13"/><ellipse cx="573.32" cy="289.34" class="cls-17" rx="54.89" ry="19.64"/><path d="M598.41,289.34c0,5-11.23,9-25.09,9s-25.09-4-25.09-9,11.23-9,25.09-9S598.41,284.38,598.41,289.34Z" class="cls-18"/><polygon points="687.1 461 589.64 517.26 589.64 404.73 687.1 348.47 687.1 461" class="cls-19"/><polygon points="651.19 369.27 651.19 440.34 589.65 475.88 589.65 404.81 605.51 395.65 633.66 379.4 651.19 369.27" class="cls-7"/><polygon points="651.19 437.12 687.1 461 589.64 517.26 589.64 472.18 651.19 437.12" class="cls-20"/><ellipse cx="612.7" cy="478.21" class="cls-7" rx="17.22" ry="9.94"/><path d="M665.93,449.53c6.72,3.88,6.72,10.18,0,14.06s-17.63,3.89-24.36,0-6.72-10.18,0-14.06S659.2,445.65,665.93,449.53Z" class="cls-7"/><path d="M623,405.77v24c0,6.6-17.63,6.6-17.63,0V416Z" class="cls-21"/><path d="M662.57,383.39v24c0,6.6-17.64,6.6-17.64,0V393.57Z" class="cls-22"/><path d="M628.21,382.52v31c0,10.53-28.15,10.53-28.15,0v-14.7Z" class="cls-20"/><path d="M667.83,359.44v30.95c0,10.53-28.16,10.53-28.16,0v-14.7Z" class="cls-20"/><path d="M662.34,241.35V51.66h-179V241.35c0,13.22,8.74,26.44,26.21,36.53,34.94,20.17,91.59,20.17,126.53,0C653.6,267.79,662.34,254.57,662.34,241.35Z" class="cls-23"/><path d="M572.86,285.73c-22.54,0-43.69-5-59.53-14.19-15.23-8.79-23.62-20.27-23.62-32.33l-.33-101.84L656,135.26v104c0,12.06-8.39,23.54-23.62,32.33C616.55,280.69,595.41,285.73,572.86,285.73Z" class="cls-24"/><path d="M632,110.34C664.59,126,664.4,159.91,632,167c-4.62,1-11.11,0-15.95.16q-6.74.16-13.45.55c-6.47.38-12.93.94-19.35,1.78-12.44,1.62-24,3.92-36.8,3.19-16-.92-34.66-4.55-46.17-14.43-10.95-9.4-14.93-24-6.08-35.26,4.7-6,12.52-9.07,19.89-12.61C546.68,94.71,599.47,94.71,632,110.34Z" class="cls-25"/><path d="M621.33,140.53c21,7,20.87,22.29,0,25.46-3,.45-7.17,0-10.29.07-2.89.05-5.79.13-8.67.25-4.18.17-8.35.42-12.49.8-8,.73-15.5,1.76-23.73,1.43-10.32-.41-22.35-2-29.78-6.49-7.06-4.22-9.63-10.78-3.92-15.85,3-2.69,8.07-4.07,12.83-5.67C566.28,133.5,600.33,133.5,621.33,140.53Z" class="cls-26"/><path d="M580.87,225.8c3,2.84,3,9,0,10.29a4.46,4.46,0,0,1-1.46,0c-.4,0-.81,0-1.22.1a13.27,13.27,0,0,0-1.76.32,9,9,0,0,1-3.36.58,5.37,5.37,0,0,1-4.21-2.62,7.91,7.91,0,0,1-.55-6.41,6.15,6.15,0,0,1,1.81-2.29A7.83,7.83,0,0,1,580.87,225.8Z" class="cls-26"/><path d="M606,195.8c4.18,4,4.16,12.69,0,14.5a6.33,6.33,0,0,1-2,0c-.58,0-1.16.07-1.73.14a19.27,19.27,0,0,0-2.48.45,12.75,12.75,0,0,1-4.73.82,7.58,7.58,0,0,1-5.92-3.69,11.09,11.09,0,0,1-.78-9,8.77,8.77,0,0,1,2.55-3.23A11,11,0,0,1,606,195.8Z" class="cls-26"/><path d="M571.55,184.53c2,1.94,2,6.16,0,7-.28.13-.69,0-1,0s-.56,0-.84.06a10.1,10.1,0,0,0-1.2.22,6.13,6.13,0,0,1-2.3.4,3.66,3.66,0,0,1-2.87-1.79,5.43,5.43,0,0,1-.38-4.39,4.19,4.19,0,0,1,1.24-1.56A5.34,5.34,0,0,1,571.55,184.53Z" class="cls-26"/><ellipse cx="572.86" cy="51.66" class="cls-27" rx="89.47" ry="51.66"/><ellipse cx="572.86" cy="49.21" class="cls-26" rx="75.72" ry="41.27"/><ellipse cx="573.17" cy="41.3" class="cls-27" rx="48.31" ry="26.33"/><ellipse cx="573.17" cy="259.66" class="cls-28" rx="54.89" ry="19.64"/><path d="M592.75,270.34c0,3.93-8.9,7.11-19.89,7.11S553,274.27,553,270.34s8.9-7.12,19.88-7.12S592.75,266.41,592.75,270.34Z" class="cls-28"/><path d="M497.14,86.42V244.79s6.12,20,26,23l-1.66-161.86S501,94,497.14,86.42Z" class="cls-26"/><path d="M652.3,86.42V244.79s-6.11,20-26,23L628,105.88S648.45,94,652.3,86.42Z" class="cls-26"/><ellipse cx="410.54" cy="736.6" class="cls-5" rx="55.93" ry="32.29"/><path d="M472.77,648.08l-123.25-2,15.19,81.89c.05.36.12.71.2,1.07,1.25,5.81,5.68,11.43,13.31,15.89,18.25,10.67,47.84,10.67,66.09,0,9.13-5.34,13.69-12.33,13.69-19.32Z" class="cls-6"/><ellipse cx="411.26" cy="644.92" class="cls-7" rx="61.75" ry="36.1"/><ellipse cx="411.26" cy="644.92" class="cls-6" rx="54.53" ry="31.88"/><ellipse cx="411.26" cy="649.11" class="cls-8" rx="50.9" ry="27.14"/><path d="M427.15,645.78c0,11.12-27.12,14.73-32.61,3,1.16-15.18,9.58-71.08,7.76-113.1-.77-17.79-3.37-33.09-9.12-41.77-.51-.74-1-1.43-1.54-2.06l19-20.92s.13,5.86.42,15.47c.35,12,1,29.95,1.93,49.46C415.28,583.51,419.63,640.73,427.15,645.78Z" class="cls-9"/><path d="M413,535.89c-.94,2.66-2.48,5-5.8,3.85a10.11,10.11,0,0,1-4.85-4c-.77-17.79-3.37-33.09-9.12-41.77,1.56-3.12,5.38-5.4,8.48-6.37a24.89,24.89,0,0,1,9.36-1.14C411.37,498.47,412,516.38,413,535.89Z" class="cls-10"/><path d="M405.66,493.76c-1.22-5.7-2.29-11.72-3.49-17.11-3.88-17.49-9.38-33-9.3-52.35,0-4.66-.27-10,.8-14.59a43.5,43.5,0,0,1,4.94-11.47c.3-.5,4.5-.49,4.5-.49s-.48-6,1-8.29c4-6.32,15.18-19.48,15.18-19.48s1.92,3.78,2.68,5.57c2.69,6.39,5.5,12.48,7.66,18.78.3.89-2.48,3.83-2.48,3.83s4,1.22,4.35,2.42a61.35,61.35,0,0,1,1.41,7.43c1.63,13-.88,25.06-3.86,37.69-2,8.67-5.39,17-8.94,25.27-2.26,5.24-5.07,9.65-7.28,14.94-1.88,4.5-4.9,12-4.68,17.76C407.22,500.64,406.42,497.26,405.66,493.76Z" class="cls-11"/><path d="M411.86,444s.2-16.94,1.33-25.54c.83-6.33.74-12.76,1.74-19.09.81-5.09.9-11.07,2.28-15.95-.26,12.16-.71,24.93-2.33,37C413.81,428.45,411.86,444,411.86,444Z" class="cls-12"/><path d="M412.23,478.12c-1.31-20.79,6.32-38.16,18.72-51.88a152.5,152.5,0,0,1,12.95-13c1-.9,5.52.62,5.52.62s-.46-4.67.49-5.34c7.82-5.52,16.78-9.27,26.88-8.44,6.51.54,20.86,3.1,25.27,9.57-10.1-.67-15.08,4.68-20,11.69-.47.68-4.18,0-4.18,0s1.83,3.49,1.37,4.21c-4.52,7.18-8.66,15.56-16.1,19.77-13,7.37-26.94,14.06-40.45,20.81-5.13,2.56-14.69,6.88-11.59,13.91Z" class="cls-9"/><path d="M479.32,408.88c-21.53,4.2-41.17,23.58-50.35,41.09s-5.18,33.14-5.18,33.14S425,468.2,428.16,460c4.35-11.29,12-22.09,21.42-31.4C457.06,421.24,468.58,411,479.32,408.88Z" class="cls-12"/><path d="M405.35,497.13c6-24.43,16.45-47.59,41.38-57.36,19.87-7.78,44.77-4.39,60.79,10.14,13.91,12.62,20,32.8,19.55,51.21-3.65-9.95-16.13-16.93-25.46-20.49A71,71,0,0,0,493,478l-1.47-.34c-1.19-.26-2.69-6.64-2.69-6.64s-3.31,5.56-4.52,5.41a103.06,103.06,0,0,0-36.79,2.54,126.31,126.31,0,0,0-25.4,9.36c-5.19,2.53-15.73,5.76-17.59,12C404.81,499.25,405.08,498.19,405.35,497.13Z" class="cls-11"/><path d="M433.07,464.68C444.94,450.24,467.76,447,485,450.89s27.67,17.05,27.67,17.05-12-8.56-19.58-11.27a68.79,68.79,0,0,0-32.83-3C451.53,454.87,439,457.47,433.07,464.68Z" class="cls-12"/><path d="M412.35,477.61a70,70,0,0,0-11-46.94c-9.07-13.67-28-25.61-43.81-30.06l-7.2,1.21a4.24,4.24,0,0,0-2.38-1.21,55.83,55.83,0,0,0-7.68,1.15,44.14,44.14,0,0,0-9.32,3.29,51,51,0,0,0-16.28,11.68l24.66,3.95c-.29,1.17-.58,2.34-.86,3.51,15.23,3.37,28.5,12.42,41.34,21.28S405.76,463.64,412.35,477.61Z" class="cls-9"/><path d="M352.16,408.88c21.53,4.2,41.17,23.58,50.35,41.09s5.18,33.14,5.18,33.14-1.21-14.91-4.36-23.09c-4.36-11.29-12-22.09-21.43-31.4C374.42,421.24,362.9,411,352.16,408.88Z" class="cls-12"/><path d="M408.82,471.11A69.09,69.09,0,0,0,396.22,447c-16.39-19.75-48-21-70.75-12.95a66.22,66.22,0,0,0-10.08,4.52c-1,.54-1.15,4.94-1.15,4.94s-3.78-1.9-4.76-1.2c-21.56,15.57-28,43-19.67,70.29-.23-6.17,4.23-11.21,8.78-15,10.77-8.9,25.17-17.37,40.22-21.69,1.75-.5,3.64-6,3.64-6s4.22,4.1,5.51,3.89c9.22-1.51,18.45-1.22,27,1.7,16.81,5.74,28.89,20.63,36.83,35.91A96.42,96.42,0,0,0,408.82,471.11Z" class="cls-11"/><path d="M303.59,468.41c7.74-17,29-26,46.58-26.7S381.3,451,381.3,451s-13.8-5.17-21.82-5.84a68.94,68.94,0,0,0-32.5,5.55C318.9,454.18,307.45,459.93,303.59,468.41Z" class="cls-12"/><path d="M411.86,483.47a19.76,19.76,0,0,1,3.05-2.7A28.69,28.69,0,0,1,425.29,476c18.29-3.73,37.16,1.84,49.56,15.27,1.28,1.39.13,6.92.13,6.92s6.18,1.46,7.33,3.63c10.91,20.53,6.47,46.15-1.83,66.76.45-1.12,0-3.27-.08-4.46-1.35-14.62-13-24.11-25.17-31.11-1.59-.92-3.42-6.94-3.42-6.94s-5.07,2.41-6.86,1.53c-6.15-3-11.49-6.69-17.42-9.92a26.91,26.91,0,0,1-8.86-7.55,52.65,52.65,0,0,1-6.54-12.36c-1.46-3.66-4.64-5.95-6.73-1.15C407.21,491.52,408.54,487.11,411.86,483.47Z" class="cls-9"/><path d="M480.91,534.91c1.19-17.88-13.51-34.58-29-42.6s-32.34-5.1-32.34-5.1,14.84,1.38,22.34,4.18a66.58,66.58,0,0,1,26.46,18.47C474,516.22,481.5,526,480.91,534.91Z" class="cls-12"/><path d="M356.94,553.89l.93,1.34c1.27,1.83,7.6,7.77,7.62,9.5,0-2.81-1.3-5.29-1.76-8-1.94-11.45,1.31-23.76,7.42-33.92.87-1.45-1.55-7.92-1.55-7.92s5.34,2.36,5.86,1.71c5.23-6.58,11.71-11.69,18.54-14.17a14,14,0,0,1,8.74-.62c3.49,1.11,4.45,3.9,6.14,6.78a41,41,0,0,1,2.6,6.85s.59-3.87.6-4.88a75.31,75.31,0,0,1,.63-10.29c1.09-7.38-3.56-16.55-7.92-22.19a24.35,24.35,0,0,0-19.05-9.63c-11.72-.18-22.21,4.6-30.63,12.45-.86.8-.23,5.9-.23,5.9s-4.44-.95-5.37.36c-7.7,10.86-8.38,25.08-5.48,37.93A82.27,82.27,0,0,0,352,546,91.3,91.3,0,0,0,356.94,553.89Z" class="cls-9"/><path d="M352.1,518.33C348.38,501.89,358.22,488,370,482s26.45-1.77,26.45-1.77-12.28-.07-18.17,1.82a37.93,37.93,0,0,0-19.48,14.51C355.08,501.88,350.24,510.12,352.1,518.33Z" class="cls-12"/><ellipse cx="889.23" cy="961.08" class="cls-5" rx="91.2" ry="52.66"/><path d="M848.31,952l-.94-3.11c-7.34,4.15-4.49,13,2.85,17.15l19.44,11.78c7.34,4.15,18.27,4.87,25.62.72s7.69-13.61.35-17.75L874.89,952C867.55,947.84,855.65,947.84,848.31,952Z" class="cls-29"/><path d="M848.31,948.31c-7.34,4.15-4.24,10.57,3.1,14.72l20.38,11.52a23.75,23.75,0,0,0,23.49.3c7.34-4.15,7.34-10.87,0-15l-20.39-11.52C867.55,944.16,855.65,944.16,848.31,948.31Z" class="cls-30"/><path d="M893.42,927.42l-.93-3.11c-7.35,4.15-4.5,13,2.84,17.15l19.44,11.78c7.34,4.15,18.28,4.87,25.62.72s7.69-13.61.35-17.75L920,927.42C912.67,923.28,900.76,923.28,893.42,927.42Z" class="cls-29"/><path d="M893.42,923.74c-7.34,4.15-4.24,10.57,3.1,14.72L916.91,950a23.7,23.7,0,0,0,23.48.3c7.34-4.15,7.34-10.87,0-15L920,923.74C912.67,919.59,900.76,919.59,893.42,923.74Z" class="cls-30"/><path d="M842.79,718.57V946.7c0,4.76,3,8,7.31,9.76,10.48,4.53,28.66,3.42,28.66-10,0-11.93,7.93-176.43,7.93-176.43l1.58-2.18-.55,155.62c.08,3.39,2.33,5.93,5.6,7.64,10.23,5.46,30.89,2.87,29.34-7.64-.47-3.37,1.11-130.08,1.79-182,0-1.43,0-2.77,0-4.07.13-11.08.23-17.84.23-17.84Z" class="cls-31"/><path d="M842.79,733v7.61a29.47,29.47,0,0,0,4.38,3.26c12.48,7.49,25.51,12.8,40.3,12.67a42.68,42.68,0,0,0,5.34-.24c1.35-.14,5.25-22.27,5.25-22.27s2.87,21.23,3.84,21c8.92-1.79,17.81-5.45,22-12.33a8.06,8.06,0,0,0,.6-1.22c0-1.43,0-2.77,0-4.07-1.48-3.62-6.94-5.88-10.93-6.58-12.35-2.17-24.6-1.34-37.09-1.34-8.08,0-15.9,1.09-23.9,2.15C851,731.85,846.11,732,842.79,733Z" class="cls-32"/><path d="M978.16,678.08c-3.39,3-4.53,7.39-4.18,12.81,0,.7.09,1.42.18,2.16l-3.46-1.26c-2.07-6.64.28-13,4.49-17.49l4.57,2.62A12.85,12.85,0,0,0,978.16,678.08Z" class="cls-33"/><path d="M975.18,674.3,936.5,645.74C924.7,561.13,915.64,562,915.64,562l-.37,57.29,11,51.38,44.47,21.1C968.64,685.15,971,678.75,975.18,674.3Z" class="cls-34"/><path d="M1001.2,671.77l-23.44-.27,3,29.86c0,1.28.85,2.56,2.54,3.54a13.56,13.56,0,0,0,12.28,0c1.69-1,2.54-2.26,2.54-3.54Z" class="cls-35"/><path d="M984.25,695.93c-2.14.58-5.63,0-7.11-1.51-.93-.95-1.7-1.93-2.56-2.93-.21-.23-.42-.42-.6-.6-.35-5.42.79-9.85,4.18-12.81a1.62,1.62,0,0,1,.32,0c.1,1.14.19,2.26.28,3.39,0,.7.35,3.65.42,4.12a5.94,5.94,0,0,0,.77,2.67,8.49,8.49,0,0,0,3.93,3.37C985.67,692.54,987.15,695.12,984.25,695.93Z" class="cls-36"/><path d="M997.77,666.36c4.57,2.64,4.57,6.93,0,9.57s-12,2.64-16.58,0-4.58-6.93,0-9.57S993.19,663.72,997.77,666.36Z" class="cls-37"/><path d="M997.18,666.7c4.25,2.46,4.25,6.44,0,8.89a17,17,0,0,1-15.4,0c-4.26-2.45-4.26-6.43,0-8.89A17,17,0,0,1,997.18,666.7Z" class="cls-38"/><path d="M996,669.56c3.61,1.77,3.61,4.65,0,6.42a16.82,16.82,0,0,1-13.1,0c-3.62-1.77-3.62-4.65,0-6.42A16.82,16.82,0,0,1,996,669.56Z"/><path d="M993.07,669c2.06.68,2.06,1.78,0,2.47a13.86,13.86,0,0,1-7.45,0c-2.06-.69-2.06-1.79,0-2.47A13.67,13.67,0,0,1,993.07,669Z" class="cls-39"/><path d="M983.91,670.84c.22.07.22.18,0,.25a1.44,1.44,0,0,1-.77,0c-.21-.07-.21-.18,0-.25A1.44,1.44,0,0,1,983.91,670.84Z" class="cls-39"/><path d="M985.21,671.86c.32.1.32.28,0,.39a2.36,2.36,0,0,1-1.18,0c-.33-.11-.33-.29,0-.39A2.15,2.15,0,0,1,985.21,671.86Z" class="cls-39"/><ellipse cx="986.69" cy="672.05" class="cls-39" rx=".37" ry=".12"/><path d="M988.25,672c.14,0,.14.13,0,.18a.92.92,0,0,1-.52,0c-.15,0-.15-.13,0-.18A1.14,1.14,0,0,1,988.25,672Z" class="cls-39"/><ellipse cx="983.78" cy="670.12" class="cls-39" rx=".37" ry=".12"/><path d="M984.88,671.29c.14.05.14.13,0,.18a1.14,1.14,0,0,1-.52,0c-.15-.05-.15-.13,0-.18A.92.92,0,0,1,984.88,671.29Z" class="cls-39"/><path d="M1000.26,685.34c-.28,3.11-3.5,2.37-4.69,4.73a2.18,2.18,0,0,0-.07,2c.48.83,2,.52,2.81.43,2.53-.26,4.06-2,3.86-5.43-.06-1-.43-4.36-1.68-4C1000.41,683.83,1000.35,684.9,1000.26,685.34Z" class="cls-36"/><path d="M1000,694.2c-.24,2.63-3,2-4,4a1.89,1.89,0,0,0-.06,1.66c.41.71,1.71.44,2.38.37,2.15-.22,3.44-1.65,3.27-4.6,0-.89-.36-3.69-1.42-3.42C1000.15,692.92,1000.1,693.82,1000,694.2Z" class="cls-36"/><path d="M1000.26,689.49c-.28,3.1-3.5,2.37-4.69,4.72a2.18,2.18,0,0,0-.07,2c.48.84,2,.52,2.81.44,2.53-.27,4.06-2,3.86-5.43-.06-1.06-.43-4.37-1.68-4C1000.41,688,1000.35,689,1000.26,689.49Z" class="cls-36"/><path d="M1000.26,681c-.28,3.11-3.5,2.37-4.69,4.72a2.2,2.2,0,0,0-.07,2c.48.83,2,.51,2.81.43,2.53-.26,4.06-2,3.86-5.43-.06-1.05-.43-4.36-1.68-4C1000.41,679.49,1000.35,680.55,1000.26,681Z" class="cls-36"/><path d="M840.88,691.54c.25,21.91.77,39.83,1,45.2a22.89,22.89,0,0,0,4.74,5,26.2,26.2,0,0,0,2.83,1.95,42,42,0,0,0,9,4.16c9.65,3.33,21.5,4.46,32.61,3.72L898,730.91l8.44,18.19c11.62-3.09,20-8.69,19.84-16.38,0,0-.27-77.48-.07-93.17.24-14.57-.37-29.07-.18-43.57.09-8.57-1.58-15.13-4-23.51A21.26,21.26,0,0,0,915.64,562a19.19,19.19,0,0,0-7.07-4.09c-13.43-4.14-55.44,12.55-61.63,23.21-1.23,1.42-2.2,5-3,10a2.21,2.21,0,0,1,0,.35c-2.3,14.92-3.07,42.83-3.14,70.36C840.69,672,840.76,682.15,840.88,691.54Z" class="cls-30"/><path d="M840.53,659.75a12.07,12.07,0,0,0,.21,2.11c.49,3.35,2,6.21,3.14,9.37a28.51,28.51,0,0,1,.93,2.88c1.41,5.28.65,11.43.6,16.87-.09,10.81-.49,21.71-.79,32.49a65.56,65.56,0,0,0,2,18.24,26.2,26.2,0,0,0,2.83,1.95c1.51-24,1.07-48,5.81-71.87,1.33-6.7,2.86-13.34,4.44-20,4.67-19.66,7.74-39.9,1.79-59.65a7.52,7.52,0,0,0-1.86-3.46c-1.16-1.12-2.81-1.49-5.25-1.72-4.83-.49-8.18,1.23-10.46,4.18-.46,2.65-.79,5.23-1,7.83-1.44,13.94-1.77,28-2,42C840.79,647.25,840.44,653.5,840.53,659.75Z" class="cls-40"/><path d="M874.31,575.81c0,.66,21.24,58.62,21.24,58.62l2,4.59,9.28-44.1L908.28,568l-8.56-1.58Z" class="cls-33"/><path d="M890.34,570.48a53.87,53.87,0,0,0-2.94,4.63l3.89,5.49c3.2-1.75,5-3.14,7.37-1.69l1.51-7.45a4.87,4.87,0,0,0-3.36-2C895,570.24,892.71,570.11,890.34,570.48Z" class="cls-31"/><path d="M891.29,580.6l-.95,41.71q3.28,8.28,7.17,16.71c1.51-5,2.85-12.54,4.13-20.94l-3-39.17C896.14,577.32,894.49,578.26,891.29,580.6Z" class="cls-31"/><path d="M898,731.27a.37.37,0,0,0,.38-.36c0-4,.48-88.12,0-90.7a.38.38,0,0,0-.75.13c.47,2.51,0,89.58,0,90.56a.37.37,0,0,0,.38.37Z" class="cls-41"/><path d="M902.53,651.37c0,1.25-.46,2.27-1,2.27s-1-1-1-2.27.46-2.27,1-2.27S902.53,650.11,902.53,651.37Z" class="cls-31"/><path d="M902.53,679.33c0,1.25-.46,2.27-1,2.27s-1-1-1-2.27.46-2.27,1-2.27S902.53,678.07,902.53,679.33Z" class="cls-31"/><path d="M902.53,709.36c0,1.26-.46,2.27-1,2.27s-1-1-1-2.27.46-2.27,1-2.27S902.53,708.11,902.53,709.36Z" class="cls-31"/><path d="M878.31,566.4c0,5.71,20.35,5.71,20.35,0V548.05H878.31Z" class="cls-36"/><path d="M901,555.46a22.8,22.8,0,0,1,.57,2.85c6.43,22.21-5.36,85.57-4.91,85.68l15.82-51.49-3.57-3.92,4.19-4.5S914.69,556.4,901,555.46Z" class="cls-42"/><path d="M877.4,552.6c-.53-2.49-.8-4.55-.24-4.55h21.5V566.4c0,3.59-7.47,4.52-10.21,4.28-5-.44-7.44-5.95-8.84-9.68C879.41,560.49,878.15,556.13,877.4,552.6Z" class="cls-43"/><path d="M896.48,569.34c3.67.72,7.89,8.09,7.89,8.09,1.12-6.53,2.56-16-4.25-20.23a11.86,11.86,0,0,0-2.51-1.14c-.67-.22-2.59-.6-2.59-.6s2.83,5.95,3,8.54C898,565.52,898.26,568.62,896.48,569.34Z" class="cls-44"/><path d="M878.31,556.67c-1.88,21.66,19.36,82.73,19.2,82.35l-21.8-41.77,4.12-7.37-8.43-3S860.72,563.36,878.31,556.67Z" class="cls-42"/><path d="M878.31,558.31l.32,7.68c.75,2,2.13,2.74,4.08,3.56,3.07,1.31,7.63.93,7.63.93a15.58,15.58,0,0,0-4.13,10.77c-5.37-3-12.22-7.59-12.22-14.8C874,560.11,878.31,558.31,878.31,558.31Z" class="cls-44"/><path d="M874.71,552.8a24.43,24.43,0,0,0,11.55,10.57,11.65,11.65,0,0,0,1.13.49,16.35,16.35,0,0,0,11.41.55c7.78-2.71,10.16-13.59,12.58-20.83,3.16-9.66,4-20.13,3.87-30.11a1.23,1.23,0,0,0,0-.38,12.56,12.56,0,0,0-.71-4,15.88,15.88,0,0,0-3.27-5.63c-7.24-8.14-22.56-10.68-31.23-5.15-7.64,4.87-10.41,9.35-11.79,18.71C866.08,531.55,867.6,539.06,874.71,552.8Z" class="cls-36"/><path d="M862.81,519.09a33.81,33.81,0,0,0,1.74,10c.8,2.34,1.54,4.69,2.49,7,.63,1.56,1.31,3.13,2,4.76a77.78,77.78,0,0,0,4.87,9.43A26.28,26.28,0,0,1,871.3,543c-.57-2.58-1.49-5.08-2-7.65-.36-1.91-.85-7.09,1.7-8,4-1.46,4.22,7.72,4.22,9.67a19.63,19.63,0,0,0,2.4.49c.2-1.89-.26-3.6.4-5.49.43-1.25,1.52-1.73,2.08-2.75s.44-2.24,1-3.21c1.17-1.94,3.08-3.31,4.29-5.27.71-1.16,2.39-2.9,2-4.35a23.4,23.4,0,0,0,4.45,3.46,30.45,30.45,0,0,0,6.68,2.51c2.92.86,6,.64,9,1.27,5.57,1.18,8,6.07,6.08,11.25a75.47,75.47,0,0,0,2.78-9.05c1.5-6.56,2.06-13.52-1-19.74-5.35-10.93-20.23-17-31.94-12.74-1.33.48-3.8,1.63-3.8,1.63a32.6,32.6,0,0,0-4.83,1.27C866,500,862.58,509.79,862.81,519.09Z" class="cls-45"/><polygon points="810.42 802.31 875.04 853.08 885.1 850.05 885.1 785.32 804.9 739.17 794.83 742.04 810.42 802.31" class="cls-46"/><polygon points="794.83 806.77 875.04 853.08 875.04 788.36 794.83 742.04 794.83 806.77" class="cls-47"/><polygon points="875.04 821.67 875.04 824.24 794.83 778.01 794.83 775.33 875.04 821.67" class="cls-48"/><polygon points="794.83 775.33 875.04 821.67 875.05 788.39 794.83 742.04 794.83 775.33" class="cls-49"/><polygon points="845.8 769.1 850.76 771.96 855.72 769.1 850.76 766.23 845.8 769.1" class="cls-50"/><polygon points="819.24 754.38 824.2 757.24 829.16 754.38 824.2 751.51 819.24 754.38" class="cls-50"/><path d="M820.71,754.38l3.48,2,.12-.07,3.35-2s2.27-7.7,3.41-8.67a.41.41,0,0,1,.26-.09c2-.28,12.15,5.08,14.06,7.45a6.89,6.89,0,0,1,1,3.17c.61,4.48.82,12.87.82,12.87l3.2,1.95a3.85,3.85,0,0,0,.38.23l3.27-2.18s-1.56-14.36-1.95-17.66c-.37-3-16.22-10.76-20.4-10.64S820.71,754.38,820.71,754.38Z" class="cls-49"/><path d="M824.31,756.33l3.35-2s2.27-7.7,3.41-8.67a.41.41,0,0,1,.26-.09c-2.35-.66-4.14,2.74-4.91,4.5-.6,1.35-1,2.77-1.51,4.19C824.73,754.91,824.5,755.63,824.31,756.33Z" class="cls-51"/><path d="M840.85,746.79a20.82,20.82,0,0,1,4.27,3,7.31,7.31,0,0,1,1.7,2.25,3.9,3.9,0,0,1-.12,3c-.11.4-.25.82-.34,1.26.6,4.48.83,12.87.83,12.87l3.2,1.95c0-.33,0-.67-.06-.95-.19-3-.38-5.93-.59-8.88-.09-1.44-1.64-7.87-.69-8.64a11.28,11.28,0,0,1,2.28-1c-.74,0-1.6.4-2.37.19a6.43,6.43,0,0,1-1-.65,12.63,12.63,0,0,1-1.17-.79c-.92-.69-1.82-1.4-2.78-2A8.85,8.85,0,0,0,840.85,746.79Z" class="cls-51"/><polygon points="854.03 816.91 859.92 820.31 859.92 804.66 854.03 801.26 854.03 816.91" class="cls-50"/><polygon points="803.75 789.67 809.63 793.07 809.63 777.41 803.75 774.02 803.75 789.67" class="cls-50"/><polygon points="885.1 850.05 880.95 840.49 875.04 853.08 885.1 850.05" class="cls-52"/><path d="M884.57,785.89c-.31.11-9.52,2.47-9.52,2.47v33.31l1-32.5Z" class="cls-48"/><path d="M844.71,736.93a13.82,13.82,0,0,1,1.58,3.64,15.82,15.82,0,0,1,1,6.52c-.75-.44-1.54-.84-2.31-1.27-.17-.1-.33-.23-.49-.34-.43-.31-1.07-.87-1.64-.85s-.76,1-.85,1.54a11.79,11.79,0,0,0,.09,4.31c.62,3.14,1.87,1.07,3.5,2.69,2.12,2.11-1.23,3.65-2.93,3.73a4.5,4.5,0,0,1-2.54-.61c-.57-.36-1-1.3-1.64-1.47-.43-.1-1,.29-1.48.34-1.49.14-2.82,0-3.64-1.3-1.75,1.06-2.36-.49-3.88-.79-1-.2-2,.15-2.43-1.12-.66-2-.2-6,.31-7.91.68-2.54,1.33-4.91,2.75-6.65a10,10,0,0,1,3.18-2.33c1-.58,2.91,0,4.1,0,2.12.12,5.14,0,6.87,1.41A2.8,2.8,0,0,1,844.71,736.93Z" class="cls-36"/><path d="M846.89,732.8l-.17,3.29c0,2.5-16.58,2.5-16.58,0v-4.46A49.18,49.18,0,0,0,846.89,732.8Z" class="cls-33"/><path d="M849.35,580.6c9.51-.2,15.62,14.55,13.45,27.41-1.14,6.8-11.82,59.63-11.82,59.63l-4.09,65.16a49.18,49.18,0,0,1-16.74-1.17v-72S834,580.92,849.35,580.6Z" class="cls-34"/><polygon points="1241.07 538.2 1241.07 600.06 1276.86 619.89 1276.86 559.85 1241.07 538.2" class="cls-53"/><polygon points="1243.4 598.69 1243.4 542.32 1274.54 561.16 1274.54 615.95 1243.4 598.69" class="cls-54"/><path d="M1254.21,561.28c.24,6.06-1.43,11-3.73,11s-4.33-4.92-4.57-11,1.44-11,3.73-11S1254,555.22,1254.21,561.28Z" class="cls-55"/><path d="M1262,560.84c.11,2.95-.7,5.34-1.82,5.34s-2.11-2.39-2.22-5.34.7-5.35,1.81-5.35S1261.89,557.89,1262,560.84Z" class="cls-55"/><path d="M1271.27,565.19c.11,2.95-.7,5.35-1.82,5.35s-2.11-2.4-2.22-5.35.7-5.34,1.81-5.34S1271.16,562.24,1271.27,565.19Z" class="cls-55"/><polygon points="1245.8 575.63 1270.93 588.55 1270.93 591.78 1245.8 579.13 1245.8 575.63" class="cls-56"/><polygon points="1245.8 582.37 1270.93 595.29 1270.93 598.52 1245.8 585.88 1245.8 582.37" class="cls-56"/><polygon points="1245.8 589.11 1270.93 602.03 1270.93 605.26 1245.8 592.62 1245.8 589.11" class="cls-56"/><path d="M1341.73,594.27s12.15,20.73,7,44.84-9,16.93-9,16.93Z" class="cls-36"/><path d="M1276.84,599.07c-1.74,3.34-5.17.32-6.45,1.24-.63,2.62,2.63,4.16,4.77,4.54,4.2.74,8.32,1.89,12.75,2.36,2.57.28,6.89,1.82,9.37,1.24,1-.24,4.71-3.32,4.78-4.23.24-3.07-9-4-11.33-5-5.09-2.09-8.59-7.16-13.85-9.06C1276.88,590.2,1276.93,598.79,1276.84,599.07Z" class="cls-36"/><ellipse cx="1296.86" cy="966.61" class="cls-5" rx="92.63" ry="53.48"/><path d="M1291.16,982.4a11.19,11.19,0,0,0,8.21-1.43c4.51-3.12,5.75-9.94,3.49-14.24-3.51-6.68-15.23-10.12-21.82-12.79-4.14-1.69-15-5.28-19-.39-9,11,15.42,22.89,21.86,26.34A23.74,23.74,0,0,0,1291.16,982.4Z" class="cls-57"/><path d="M1323.53,967.8a12.3,12.3,0,0,0,8.6-1.59c4.72-3.2,6-10,3.65-14.3-3.68-6.62-15.94-9.84-22.83-12.39-4.33-1.6-14.86-5.28-19.08-.32-9.47,11.15,15.29,22.89,22,26.22A25.4,25.4,0,0,0,1323.53,967.8Z" class="cls-57"/><path d="M1277.75,842.28l5.8,123.65c-.19,7.68,14.7,8.59,14.88.91,4.06-53.25,7-95.29,6.88-131.3Z" class="cls-36"/><path d="M1310.85,832.49l6.06,120.4c-.18,7.67,14.82,11.4,15.1-.56,4.22-47.8,8-86.32,6.4-126.58Z" class="cls-36"/><path d="M1265.08,839.32c.89,0,1.78.06,2.68.07,1.34,0,3.43-.45,4.7,0s1.77,2.55,2.45,3.59a27.28,27.28,0,0,0,3.35,4.12,25.3,25.3,0,0,0,8.57,5.76,23.68,23.68,0,0,0,12.34,1.4c3.89-.62,7.3-2.74,10.92-4.28a11.64,11.64,0,0,1,9.42-.37c3,1.24,6,3.19,9.34,3.39,7.57.47,31.77-3.77,30.34-16.28,7.1-.73,18.89-8.07,21.3-15.8,1.57-5-34.32-81-39.4-119.19-3.76-28.14,5.14-55.12,4.28-83.13-.24-7.67.64-17.71-3.64-24.35-4.82-7.43-14.63-5.68-21.72-4.16-16.31,3.47-37.24,8-44.41,26.6-4.2,10.94-7.85,28.51-6.75,40.33,0,.26.05.5.1.77.78,6.69,4,12.72,5.63,19.2,2.05,8,2.27,16.22,2.27,24.45,0,.64,0,1.27,0,1.91,0,11.78-3.77,20.22-6.76,31.06-4.95,17.93-25.6,95.73-24.13,97.12a29.86,29.86,0,0,0,12.47,6.81A29.32,29.32,0,0,0,1265.08,839.32Z" class="cls-57"/><path d="M1269,652.36c.78,6.16,4,11.71,5.63,17.68,2.05,7.39,2.27,14.94,2.27,22.52a6.94,6.94,0,0,0,.56.54c2.89,2.3,4.28-2.69,5.6-6,6.09-15.46,9.08-33.92,9.08-50.47,0-5.24.46-13.82-2.55-18.25-2.22,7.41-3.52,11-7.07,15.21a87.73,87.73,0,0,0-7.4,10.25C1273.38,646.54,1270.71,649.47,1269,652.36Z" class="cls-58"/><path d="M1340.52,690c-7.83,11.59-54.47,15.24-64.09,3.39,0,0-1.26,17.19-1.15,17.67,9,6.36,45.57,13,66.85-2.65Z" class="cls-55"/><path d="M1289.55,543.73a26.26,26.26,0,0,0-.28,5.06c.13,3,.63,5.79.68,8.78.12,6.29.18,12.52,2,18.56.71,2.36,1.34,5,3.17,6.59s5.28,4.18,5.28,4.18l.11,9.16c0,2.21,2.77,3.63,6.4,4.32,6.95,1.34,15.9-.11,15.85-4.32l-.1-7.84a25.71,25.71,0,0,0,3.29-4.49c5.09-7.81,14-23.84,13.79-32.61-.23-10.88-3.43-21.56-14.46-26.81A26,26,0,0,0,1300.2,526C1294.36,529.76,1290.6,536.75,1289.55,543.73Z" class="cls-36"/><path d="M1322.66,518.88c-11.29-2.72-27.31-1.27-32.34,10.26-3.1,7.12-3,13.73-.64,21.05-.6-1.62-1.09-8.15,1.54-8.34,3-.21,2.63,6.16,2.77,7.86.18,2.2,1.3,4.17,1.48,6.37,0,.58.31,6.33.52,6.34,1.33.08,2.25,0,3.41.71,2.38,1.55,2.49,3.66,2.76,6.06.32,2.83,1.08,5.7,1.48,8.55.34,2.37-.05,7,1.64,8.85,3,3.34,9.23,2.94,13.89,2.06,4.18-.79,6.13-3.85,8.65-7.07,6.59-8.38,13.09-18.08,14.32-28.92.84-7.45.18-15.53-4.1-21.91-3.13-4.65-7.67-9.59-13.22-11.28C1324.13,519.26,1323.41,519.06,1322.66,518.88Z" class="cls-59"/><path d="M1322,540.64c2.57,5.69,8.8,8.45,13.9,6.14s7.15-8.78,4.58-14.48-8.8-8.45-13.9-6.15S1319.37,534.94,1322,540.64Z" class="cls-55"/><path d="M1338.94,542.84a13,13,0,0,1-7.49-.26c-4.54-1.61-5.09-6.91-4-11.11a13.8,13.8,0,0,1,.64-1.91c4.65-11,19.32-15.46,27.68-5.65,7.48,8.8,4.87,21.65,1.41,31.48a170.31,170.31,0,0,0-5.16,17c-1.27,5.3-2.55,10.49-2.55,16,0,1.72.27,5.35.27,5.35a62.64,62.64,0,0,1-3.31-12.12c-1.22-8.91-.88-14-.62-21.38.18-5,1.15-10.26,0-15.18C1344.84,540.68,1342.31,542,1338.94,542.84Z" class="cls-60"/><path d="M1278.46,612.28l-26.18,40L1238.62,627l-9.34,4.71s14.15,43.47,19.36,45.55,27.25-21.3,33.46-27.76C1292.11,639.11,1296.58,606.87,1278.46,612.28Z" class="cls-36"/><path d="M1238.83,627.6c.81-1.25,1.42-3.25,2.22-4.7s2.42-4.37,2.77-6.35c.32-1.82-.69-1.64-2-.75a8,8,0,0,0-2.71,4.48C1238.62,622.16,1237.64,626.2,1238.83,627.6Z" class="cls-36"/><path d="M1235.33,597.44c-1.16,2.68.77,8.92.76,11.66,0-.92-3.62.31-4,.45-2.86,1.07-4.31,4.08-5.14,7.07-1.53,6,.49,9.3,1.85,14.19a4.16,4.16,0,0,0,.64,1.6.6.6,0,0,0,.64.16,9.4,9.4,0,0,0,1.57-.55,40,40,0,0,0,4.48-2.43,8.29,8.29,0,0,0,2.95-2.09c.06-.12.11-.2.18-.36s.08-.21.13-.28c.22-.67.32-1.59.46-2.23a21.9,21.9,0,0,0,.4-4.67,84.41,84.41,0,0,0-.54-8.91c-.44-3.93-.82-8.44-1.93-12C1237.24,597.29,1236.38,595,1235.33,597.44Z" class="cls-36"/><ellipse cx="1082.67" cy="869.88" class="cls-5" rx="91.2" ry="52.66"/><path d="M1039.7,854.64c-3.55,4.13-2.24,13.17-2.24,13.17s23.19,19.88,38.19,17.18c13.49-2.42,11.43-8.57,5.89-14.55S1056,853.68,1056,853.68l-15.17,3.48Z" class="cls-61"/><path d="M1038.38,819.62c.86,11.67,1.56,23.14,1.32,35,.06,6.09,16.18,8.12,16.18,0l1.61-35C1051.12,819.81,1044.75,819.73,1038.38,819.62Z" class="cls-36"/><path d="M1052.87,866.52c3.92,2.22,13.14,6,15.3,3.28,3.72-4.7-8.07-14.62-12.22-16.12-2,3.56-15.17,3.48-15.17,3.48S1048.26,863.9,1052.87,866.52Z" class="cls-36"/><path d="M1084.32,833.2c-3.55,4.14-2.24,13.17-2.24,13.17s22.86,19,37.91,16.62c14.1-2.21,11.7-8,6.17-14s-25.6-16.75-25.6-16.75l-15.17,3.48Z" class="cls-61"/><path d="M1082.91,803.72a252.87,252.87,0,0,1,1.41,29.48c0,6.1,16.18,8.13,16.18,0l.9-31.12A117.66,117.66,0,0,1,1082.91,803.72Z" class="cls-36"/><path d="M1097.48,845.08c3.93,2.23,13.15,6,15.31,3.29,3.72-4.7-8.07-14.62-12.23-16.12-2,3.56-15.17,3.48-15.17,3.48S1092.88,842.47,1097.48,845.08Z" class="cls-36"/><path d="M1081.58,502.32c9.66-1.59,22,36.42,19.82,40s-9.25,0-9.25,0Z" class="cls-62"/><path d="M1094.58,568.75c-.4,6.53,0,13.54.28,20.13.6,14.06,2.84,23.93,1.63,38-2.75,12.28-28.7,15.73-47.6,9.76a38.49,38.49,0,0,1-8.59-3.83,31,31,0,0,1-4.72-3.32.67.67,0,0,1-.24-.24c-.42-.35-.82-.72-1.17-1.07a2.58,2.58,0,0,1,0-.44c.19-2.58,3-13.89,4.19-28,1-11.38.93-24.59-2.39-36.45-1.34-4.75-.29-6.9,2.83-10.2,4-4.22,4.24-7.95,4.51-13.6a49.9,49.9,0,0,0-.73-11,21.25,21.25,0,0,0-1.41-4.46c-.68-1.63-1.4-3.21-1.93-4.88-1-3.16-2-4.33-4.81-6.24-.2-.17,2.11-1.6,2.26-1.69,1.1-.64,2.2-1.25,3.3-1.8a74.37,74.37,0,0,1,15.64-5.78c5.8-1.52,20.79-2.73,25.89-1.3,4.75,3.5,8.55,11.76,10.83,16.28a69.86,69.86,0,0,1,3.52,8.82c1.45,4.33,3.07,9,3.4,13.64a30,30,0,0,1-.08,4.84C1098.49,553.63,1095.06,560.93,1094.58,568.75Z" class="cls-63"/><path d="M1093.7,603.91l-30.06,11c-1.85-4.42-1.5-14.11-6.68-16.37-3.36-1.5-10-1-13.41-.18-1.56.38-3.4,1.61-5.14,1.32,1-11.38.93-24.59-2.39-36.45-1.34-4.75-.29-6.9,2.83-10.2,4-4.22,4.24-7.95,4.51-13.6a49.9,49.9,0,0,0-.73-11,21.25,21.25,0,0,0-1.41-4.46c2.2,4.2,3.85,13.14,4.22,14.92.9,4.25.7,8.28,1.51,12.51a10,10,0,0,0,3.75,6.61c2.77,2.1,7.18,2.56,10.5,1.84,2.65-.58,4.83-2.51,7.45-2.93,1.42-.23,2.75.33,4.12.52a16,16,0,0,0,4-.31c-1.68,3.29-2.59,6.84-6,8.69-2.34,1.26-4.86,2.21-7.4,1.25a18.72,18.72,0,0,0-5.35-1.46,15.44,15.44,0,0,0-10.23,2.33c-4,2.65-4.51,7-3.18,11.54,1.87,6.35,13,7.89,18.26,7.67,2.09-.07,5.62-.62,7.62,0a5.33,5.33,0,0,1,2.25,1.18c.68.62.61,2.11,1.34,2.88.57.6,1.51.51,2.15.9,3.34,2.18,6.75,3,10.31,4.71C1089.19,598.17,1094.38,600.61,1093.7,603.91Z" class="cls-64"/><path d="M1063.37,543.4l34.08-8.59c-7.11,19.42-7.32,41.62.64,64.68l-32.89,10.43S1057.13,564.55,1063.37,543.4Z" class="cls-65"/><path d="M1066.78,545.12l34.39-7.3c-7.84,19.13-8.87,41.31-1.78,64.65l-33.26,9.2S1059.77,566,1066.78,545.12Z" class="cls-66"/><path d="M1098.35,627.35c7.82,21.44,6.19,108.7,6.19,108.7l-1.92,88.09c0,5.52-19.55,5.52-19.55,0,0,0-7.88-75.47-7.13-84.75-3.57-7.4-6.16-75.15-6.16-75.15L1065,742.12l-6.88,98.66c0,6-20.66,6-20.66,0,0,0-5.18-67.58-1.53-98.4,0,0-10.51-86-2-114.14C1057.87,636.93,1079.59,637.51,1098.35,627.35Z" class="cls-31"/><path d="M1035.56,620.12c3.56,3.77,7.91,6.08,13.63,8,18.84,6.32,44.92,3.6,47.65-9.4a36,36,0,0,1,2.16,10.69c-5.24,10.65-30.73,15-49.58,8.67-5.71-1.88-12.55-3.78-16.11-7.55A39.29,39.29,0,0,1,1035.56,620.12Z" class="cls-67"/><path d="M1054.29,502.9c0,6.62,18.44,6.62,18.44,0V481.66h-18.44Z" class="cls-36"/><path d="M1054.5,486.94c-.45-2.88-.68-5.28-.21-5.28h18.44V502.9c0,4.16-6.4,5.23-8.76,5-4.28-.51-6.37-6.88-7.57-11.2C1056.23,496.06,1055.14,491,1054.5,486.94Z" class="cls-43"/><path d="M1048.87,487.5c2.12,4,5.19,8.18,10,10.22.35.16.72.32,1.1.45a16.5,16.5,0,0,0,11,.51c7.49-2.49,9.78-12.49,12.11-19.13,3.05-8.88,3.9-18.49,3.73-27.66a1.42,1.42,0,0,0,0-.35,11.11,11.11,0,0,0-.69-3.67,14.63,14.63,0,0,0-3.15-5.18c-7-7.47-21.73-9.8-30.08-4.72-7.36,4.47-10,8.59-11.36,17.18C1039.45,468.5,1042,474.89,1048.87,487.5Z" class="cls-36"/><path d="M1080.67,461c4.36-1.09,5.15,10.75,4.14,13.61,2.17-6.53,3.93-15.78,2-22.65C1084,441.47,1082.21,458.4,1080.67,461Z" class="cls-68"/><path d="M1087,452c-.32,4.28-4.82,8.2-8.45,9.89a56.71,56.71,0,0,1-6.48,1.94c-4.42,1.33-10.36,3.35-12.08,8.06.56-1.53.47-3.22,1-4.74s1.23-3.3,1.89-4.89c-2.88,1.25-4,4.09-5.58,6.79-2.35,4.1-2.71,8.78-3.17,13.35a40,40,0,0,0,1.07,14.89,21.78,21.78,0,0,0,3.29,6.89c1.87,2.55,3.9,3.38,6.61,4.81-1.72.2-3.32.9-5.13,1a15.56,15.56,0,0,1-7-1.63c.58,2.15,2.12,5.94,4.14,7-2-1.37-4-2.25-5.92-3.8s-6-3.61-6.13-6.28c.09,1.42,1.26,3.35,1.11,4.55-1.15-.25-2.51-2.62-3.23-3.6a41.35,41.35,0,0,1-3-4.68,61.64,61.64,0,0,1-6.39-20.45c-1.37-9.51-1.36-19.66,1.68-28.86a35.94,35.94,0,0,1,3.53-7.66c5-8.08,13.81-12,23.08-12.12a34.85,34.85,0,0,1,15,3.42C1082.92,439,1087.49,445,1087,452Z" class="cls-68"/><path d="M1097.41,573.08c-.11-.52-2.36-6.34-2.59-6.13-.7.68-.81,1.68-1.3,2.52a11.35,11.35,0,0,1-3.36,3.57c-.67.45-2.83,1.56-3.5.58-.42-.62.31-2.09.42-2.76.2-1.19-.06-4.44-2.17-3.05-.77.51-1.06,3.2-1.46,4.1-.92,2.09-1.49,5.2-3.52,5.84a45.74,45.74,0,0,1,3.18,9.91l3.91-.41c4.27-.52,9-2.24,10.28-6.64A15.24,15.24,0,0,0,1097.41,573.08Z" class="cls-36"/><path d="M1083.11,587.65c-6.31.66-19.25,1.93-31.14,2.81-12.55.92-24,1.43-25.23.29-2.94-2.62-4.7-31-4.7-31,5.54,2,12.11,3.45,18.5,2.46a2.56,2.56,0,0,0,.27,0l.22,13.52c11.4.33,37,2.35,38.32,2.26a2.26,2.26,0,0,0,.57-.15A44.34,44.34,0,0,1,1083.11,587.65Z" class="cls-36"/><path d="M1054,590c-.66.13-1.32.28-2,.46-12.55.92-24,1.43-25.23.29-2.94-2.62-4.7-31-4.7-31,5.54,2,12.11,3.45,18.5,2.46-1.42,1.56-4.08,2.48-5.71,3-3.21,1-6.33,1.05-9.62,1.23-.49,6.54,1.47,13.62,2.76,20a6.67,6.67,0,0,1,3.26-3.47c-.35,1.51-1,3.89.55,4.92s4.39,1.25,6.21,1.54c2.62.39,5.21.37,7.83.5S1051.33,590.53,1054,590Z" class="cls-43"/><path d="M1036.29,513.21c-10.3-4.71-16,39.29-15,46.18,0,0,14,6.66,22.7,1.29C1044.94,557.89,1047.28,521,1036.29,513.21Z" class="cls-62"/><path d="M1062.51,599.7c-.17-.5-1.14-6.67-.84-6.6.95.24,1.54,1,2.39,1.53a11.6,11.6,0,0,0,4.7,1.4c.81.05,3.23-.07,3.31-1.26.06-.74-1.31-1.65-1.74-2.17-.77-.93-2.18-3.87.35-3.73.92,0,2.52,2.23,3.32,2.82,1.83,1.34,3.89,6.07,6,5.6a28.53,28.53,0,0,0,2.22,7.84l-3.58,1.62c-4,1.69-8.89,2.55-12.23-.59A15.27,15.27,0,0,1,1062.51,599.7Z" class="cls-36"/><path d="M1104.69,586.81c-3,8.63-13.43,11.29-22.49,18.31-1.12-3.27-1.89-4.34-2.24-7.83l7.14-6.25c1.18-1,2.37-2.07,3.55-3.12a.76.76,0,0,0,.14-.11L1094,585s1.37-1.21,1.37-1.21,2.37-2.26,2.42-7a14.73,14.73,0,0,0-.3-3.18c-.51-1.67-1.77-4.58-2.37-5.93-.21-.44-.33-.72-.33-.72s0-.32,0-.81c.19-1.35.77-4.18,1.49-7,.4-1.62.86-3.23,1.26-4.58,1.39-4.6,2-9,1.74-10.85,0,0,1.88-.53,2.09-1.39C1101.39,542.31,1107.39,579.07,1104.69,586.81Z" class="cls-36"/><path d="M1095.74,585.9c-1.74,2-5.46,4.65-8.64,5.14,1.18-1,2.37-2.07,3.55-3.12a.76.76,0,0,0,.14-.11A32.82,32.82,0,0,0,1094,585s1.37-1.21,1.37-1.21,2.37-2.26,2.42-7a14.73,14.73,0,0,0-.3-3.18c-.51-1.67-1.77-4.58-2.37-5.93-.21-.44-.33-.72-.33-.72s0-.32,0-.81c.19-1.35.77-4.18,1.49-7a24.57,24.57,0,0,0-.18,3.19,63.79,63.79,0,0,0,.62,7c.3,2,1.28,3.89,1.54,5.95C1098.74,578.91,1098.23,583.07,1095.74,585.9Z" class="cls-43"/><polygon points="330.39 957.67 571.6 1096.47 638.59 1049.77 404.88 913.13 330.39 957.67" class="cls-5"/><path d="M413.24,1018.34a4.65,4.65,0,0,0,2.32-.63l77.56-45.55.35-.23c5.41-3.87,7.72-8.12,7.72-14.2V864.81a8.22,8.22,0,0,0-12.32-7.12L411.62,902.2a4.58,4.58,0,1,0,4.57,7.93L492,866.42v91.31c0,2.65-.57,4.33-3.74,6.65l-77.38,45.44a4.58,4.58,0,0,0,2.32,8.52Z" class="cls-69"/><path d="M319.43,962a4.45,4.45,0,0,0,2.31-.63l76.9-45.25c7.11-4.27,8.07-9.69,8.07-14.42v-94.1a8.23,8.23,0,0,0-12.33-7.12L317.14,845a4.58,4.58,0,1,0,4.57,7.93l75.85-43.71v92.49c0,3.1-.5,4.7-3.59,6.56L317.1,953.47a4.57,4.57,0,0,0,2.33,8.51Z" class="cls-69"/><path d="M495.49,857.92l-85.12,48L315.82,850a1.15,1.15,0,0,1,0-2L400,800.52a22.91,22.91,0,0,1,22.89.24l72.72,43A8.17,8.17,0,0,1,495.49,857.92Z" class="cls-70"/><path d="M495.54,853.71l-85.13,48-96.27-56.94,85.93-48.42a22.89,22.89,0,0,1,22.89.24l72.72,43A8.16,8.16,0,0,1,495.54,853.71Z" class="cls-69"/><path d="M410.42,901.42s-34.3-140.91-71.74-151.48c-37.66-10.64-68.93-45.45-74.91-38.45-9.52,11.16,51.62,132.81,51.62,132.81Z" class="cls-71"/><path d="M410.37,905.88S376,765.18,338.52,754.65c-37.72-10.6-68.81-45.15-75-38.35s51.72,132.61,51.72,132.61Z" class="cls-72"/><path d="M561.14,1103.73a4.49,4.49,0,0,0,2.31-.63L641,1057.55l.34-.22c5.41-3.88,7.72-8.12,7.72-14.2V950.21a8.22,8.22,0,0,0-12.32-7.13L559.52,987.6a4.57,4.57,0,0,0,4.56,7.92l75.86-43.7v91.31c0,2.64-.57,4.33-3.74,6.64l-77.38,45.44a4.57,4.57,0,0,0,2.32,8.52Z" class="cls-69"/><path d="M467.32,1047.38a4.55,4.55,0,0,0,2.32-.63l76.9-45.25c7.11-4.28,8.06-9.69,8.06-14.43V893a8.21,8.21,0,0,0-12.32-7.12L465,930.37a4.58,4.58,0,0,0,4.57,7.93l75.85-43.71v92.48c0,3.11-.49,4.7-3.59,6.56L465,1038.86a4.58,4.58,0,0,0,2.32,8.52Z" class="cls-69"/><path d="M643.39,943.31l-85.12,48-94.56-55.92a1.16,1.16,0,0,1,0-2l84.19-47.44a22.86,22.86,0,0,1,22.89.24l72.73,43A8.16,8.16,0,0,1,643.39,943.31Z" class="cls-70"/><path d="M643.43,939.11l-85.12,48L462,930.14,548,881.71a22.91,22.91,0,0,1,22.89.24l72.72,43A8.17,8.17,0,0,1,643.43,939.11Z" class="cls-69"/><path d="M558.31,986.82S524,845.91,486.58,835.33c-37.67-10.64-68.93-45.44-74.91-38.44C402.14,808,463.29,929.7,463.29,929.7Z" class="cls-71"/><path d="M558.27,991.28S523.92,850.57,486.42,840c-37.73-10.6-68.81-45.14-75-38.35S463.1,934.31,463.1,934.31Z" class="cls-72"/></g></g></g></g></svg>