<svg xmlns="http://www.w3.org/2000/svg" xmlns:xlink="http://www.w3.org/1999/xlink" viewBox="0 0 600.83539 831.75715"><defs><style>.a{fill:#3dc8e8;}.b{fill:#26a8d1;}.c{clip-path:url(#a);}.d,.f{fill:none;stroke-miterlimit:10;stroke-width:5px;}.d{stroke:#26a8d1;}.e{clip-path:url(#b);}.f{stroke:#3dc8e8;}.g{fill:#0b2d4e;}.h{fill:#061f33;}.i{fill:#f8a17a;}.j{clip-path:url(#c);}.k{fill:#e4eaef;}.l{fill:#e5785c;}.m{fill:#8070f2;}.n{fill:#fff;}.o{fill:#9b87ff;}.p{fill:#efb126;}.q{fill:#ffc73c;}</style><clipPath id="a"><path class="a" d="M501.69569,514.31378c8.32718,5.72089,17.11942,10.25468,28.46026,6.07077,22.25982-8.21211,49.25363-10.708,57.045,18.80937,4.49357,17.024-17.18774,30.53253-14.16,46.39133,2.67786,14.02447,14.2747,20.08173,9.09685,36.66608-7.61691,24.39663-39.683,28.10981-58.09913,40.97731-15.45438,10.79817-7.266,24.70616-9.72964,39.78443-1.89927,11.62424-10.54308,19.47726-20.88848,24.65652-18.24246,9.13278-44.24171,8.616-53.37374,30.52153-7.62143,18.28209-14.28069,34.668-36.68331,36.95822-15.35646,1.56993-38.428-3.31336-47.7,12.915-3.281,5.74258-4.1329,16.18651-6.81575,22.2318H216.08179c-7.40727-4.94818-.99426-4.18368-.33508-31.18993.54214-22.21161.88476-55.01152,24.23689-66.58762,7.26264-3.60026,16.24944-3.79794,22.37214-9.11285,11.05461-9.59814,7.12218-28.362,9.76169-41.23337,4.14446-20.20936,21.62041-34.87185,41.515-38.366,9.41322-1.65332,19.68317-3.52788,25.9295-10.76186,6.82008-7.89872,7.00458-19.55932,10.04812-29.10412a147.7001,147.7001,0,0,1,11.19152-25.56391c3.12086-5.71514,6.68147-11.30688,11.54674-15.63469,9.25239-8.23043,21.97589-7.53315,33.44275-9.96323,27.29879-5.78534,32.71146-31.15225,53.06169-45.78988C477.12092,493.84858,488.85565,505.4925,501.69569,514.31378Z"/></clipPath><clipPath id="b"><path class="b" d="M315.20664,565.12653c-6.79667-3.07686-13.02079-6.90107-14.70934-15.66642-3.3145-17.20465-12.04988-35.21714-33.68033-28.864-12.475,3.66411-12.72888,22.52658-23.90767,26.67181-9.88585,3.66564-18.1442-1.34895-26.6468,8.25913-12.50758,14.134-2.60368,35.817-3.69961,52.37113-.91975,13.89188-12.83726,14.03059-21.42491,21.34795-6.62042,5.6412-8.2809,14.10394-7.6017,22.62053,1.1978,15.01744,11.45724,31.25048,1.10264,45.39028-8.64187,11.801-16.45285,22.26932-9.3415,37.30184,4.87467,10.3044,16.77492,23.019,10.06158,35.07843-2.37561,4.26733-7.13918,6.68435-9.93454,10.68938-4.42417,6.33841-2.94055,15.08738.15422,22.17058,7.04124,16.1157,12.54737,27.799,12.54737,27.799h82.3891s8.38571,2.76435,6.77987-16.41575c-.49938-5.9651-3.80783-11.71983-2.78812-17.61968,1.84229-10.653,15.20254-15.33632,22.32841-21.92183,11.18807-10.33988,13.77753-26.98566,8.38531-40.893-2.55138-6.58048-5.29036-13.78678-3.10508-20.49792,2.38606-7.32766,9.68464-11.899,14.55377-17.46887a109.07471,109.07471,0,0,0,11.87966-16.839c2.41941-4.15568,4.59282-8.54205,5.46916-13.27012,1.66652-8.99148-3.63511-16.76574-6.48013-24.94069-6.77318-19.462,7.1898-32.57374,8.66552-51.02638C337.52834,572.83816,325.6868,569.87078,315.20664,565.12653Z"/></clipPath><clipPath id="c"><path class="a" d="M104.19657,443.48167c3.2709-10.39088,7.8145-24.67826,9.81943-35.08577,4.65947-24.18636-3.5675-50.51544-5.8755-74.60978a559.86742,559.86742,0,0,1-2.37168-67.66729c.43034-16.84-.65653-39.70642,11.064-53.29438,7.26606-8.424,20.92453-12.50384,31.3674-15.03587,23.22364-5.63077,49.48125-4.84254,73.10578-2.3221,15.15824,1.61724,31.0295,7.02577,41.56568,18.55274,11.23858,12.29545,16.40261,27.89236,19.94539,43.86547a205.70715,205.70715,0,0,1,4.45955,52.43127c-.645,17.1631-6.09556,33.47338-9.80725,50.111a179.09211,179.09211,0,0,0-1.72362,69.9197c5.34572,30.22349,6.43353,58.06143,10.659,94.44256-66.281,4.45176-130.64061-1.37206-196.64846-8.8616C94.6181,490.59193,96.19882,468.88852,104.19657,443.48167Z"/></clipPath></defs><title>Asset 8</title><path class="a" d="M501.69569,514.31378c8.32718,5.72089,17.11942,10.25468,28.46026,6.07077,22.25982-8.21211,49.25363-10.708,57.045,18.80937,4.49357,17.024-17.18774,30.53253-14.16,46.39133,2.67786,14.02447,14.2747,20.08173,9.09685,36.66608-7.61691,24.39663-39.683,28.10981-58.09913,40.97731-15.45438,10.79817-7.266,24.70616-9.72964,39.78443-1.89927,11.62424-10.54308,19.47726-20.88848,24.65652-18.24246,9.13278-44.24171,8.616-53.37374,30.52153-7.62143,18.28209-14.28069,34.668-36.68331,36.95822-15.35646,1.56993-38.428-3.31336-47.7,12.915-3.281,5.74258-4.1329,16.18651-6.81575,22.2318H216.08179c-7.40727-4.94818-.99426-4.18368-.33508-31.18993.54214-22.21161.88476-55.01152,24.23689-66.58762,7.26264-3.60026,16.24944-3.79794,22.37214-9.11285,11.05461-9.59814,7.12218-28.362,9.76169-41.23337,4.14446-20.20936,21.62041-34.87185,41.515-38.366,9.41322-1.65332,19.68317-3.52788,25.9295-10.76186,6.82008-7.89872,7.00458-19.55932,10.04812-29.10412a147.7001,147.7001,0,0,1,11.19152-25.56391c3.12086-5.71514,6.68147-11.30688,11.54674-15.63469,9.25239-8.23043,21.97589-7.53315,33.44275-9.96323,27.29879-5.78534,32.71146-31.15225,53.06169-45.78988C477.12092,493.84858,488.85565,505.4925,501.69569,514.31378Z"/><g class="c"><path class="d" d="M599.68834,518.00323a693.88045,693.88045,0,0,0-66.34686,39.29993C468.57713,600.46891,409.36194,652.657,353.972,707.18648c-38.70914,38.10866-74.79252,79.061-106.58,123.10767h0"/><path class="d" d="M590.11892,644.1737A490.71645,490.71645,0,0,0,464.36159,626.636c-10.76816-.09326-15.89352-1.39569-26.4392.78179"/><path class="d" d="M372.59193,688.09429a335.254,335.254,0,0,1,132.36658,32.31113"/><path class="d" d="M300.21725,765.52852a286.58751,286.58751,0,0,1,139.03528,19.9624"/><path class="d" d="M441.083,626.35366A356.372,356.372,0,0,0,486.513,506.018"/><path class="d" d="M375.01874,685.46278a314.64937,314.64937,0,0,0-4.42739-127.7163"/><path class="d" d="M296.56011,766.61824a117.92222,117.92222,0,0,0,8.90091-35.55268c1.26723-14.213-.0577-28.5219-1.67993-42.69837q-1.75207-15.31427-3.96566-30.57059"/></g><path class="b" d="M315.20664,565.12653c-6.79667-3.07686-13.02079-6.90107-14.70934-15.66642-3.3145-17.20465-12.04988-35.21714-33.68033-28.864-12.475,3.66411-12.72888,22.52658-23.90767,26.67181-9.88585,3.66564-18.1442-1.34895-26.6468,8.25913-12.50758,14.134-2.60368,35.817-3.69961,52.37113-.91975,13.89188-12.83726,14.03059-21.42491,21.34795-6.62042,5.6412-8.2809,14.10394-7.6017,22.62053,1.1978,15.01744,11.45724,31.25048,1.10264,45.39028-8.64187,11.801-16.45285,22.26932-9.3415,37.30184,4.87467,10.3044,16.77492,23.019,10.06158,35.07843-2.37561,4.26733-7.13918,6.68435-9.93454,10.68938-4.42417,6.33841-2.94055,15.08738.15422,22.17058,7.04124,16.1157,12.54737,27.799,12.54737,27.799h82.3891s8.38571,2.76435,6.77987-16.41575c-.49938-5.9651-3.80783-11.71983-2.78812-17.61968,1.84229-10.653,15.20254-15.33632,22.32841-21.92183,11.18807-10.33988,13.77753-26.98566,8.38531-40.893-2.55138-6.58048-5.29036-13.78678-3.10508-20.49792,2.38606-7.32766,9.68464-11.899,14.55377-17.46887a109.07471,109.07471,0,0,0,11.87966-16.839c2.41941-4.15568,4.59282-8.54205,5.46916-13.27012,1.66652-8.99148-3.63511-16.76574-6.48013-24.94069-6.77318-19.462,7.1898-32.57374,8.66552-51.02638C337.52834,572.83816,325.6868,569.87078,315.20664,565.12653Z"/><g class="e"><path class="f" d="M275.43791,504.60891a512.37773,512.37773,0,0,1,.51134,56.94246c-2.53626,57.4194-12.89438,114.77889-26.19353,170.61527a733.60371,733.60371,0,0,1-30.53964,98.38685"/><path class="f" d="M199.3596,558.85847A362.376,362.376,0,0,1,258.487,631.63169c4.1728,6.76942,6.954,9.51081,9.60677,17.007"/><path class="f" d="M254.70762,713.10577A247.57231,247.57231,0,0,0,183.719,641.79984"/><path class="f" d="M233.42251,788.42644a211.6359,211.6359,0,0,0-65.73242-80.238"/><path class="f" d="M267.5588,646.23488A263.16667,263.16667,0,0,1,326.2497,571.552"/><path class="f" d="M255.44339,710.56676A232.35734,232.35734,0,0,1,337.84618,664.572"/><path class="f" d="M234.131,791.15392a87.081,87.081,0,0,1,19.06737-19.20754c8.49785-6.23082,18.04666-10.86008,27.62526-15.25079q10.34721-4.74351,20.83445-9.17312"/></g><path class="g" d="M147.66487,830.29618c5.90991-41.12805,13.16333-82.0481,20.20215-122.99317,5.91015-34.38177,11.6665-68.79962,16.31347-103.37957,4.37207-32.53431,16.44531-62.88837,16.75488-96.18506.12476-13.41223-1.55761-28.00684-10.85156-37.65967-10.50928-10.915-27.2749-12.13855-42.40991-12.42517-39.92749-.75611-51.44946,35.73083-57.91772,67.13568C82.024,562.33005,83.04768,604.46164,82.50544,642.79c-.54834,38.74573-3.39843,77.40412-5.72412,116.13757-1.49194,24.85193-2.11621,47.26758-2.84179,71.36866Z"/><path class="g" d="M188.12605,830.29618h74.35083c1.95-19.48535,3.76929-38.31385,5.21509-58.8761,3.2771-46.6084,11.001-104.73712,15.37817-151.24042,4.2522-45.17688,7.90454-72.53021-3.24121-116.9411-5.60962-22.3512-34.72241-45.399-57.49854-42.20313-38.40454,5.3888-41.81762,44.63617-41.8457,76.18531q-.06519,73.26123,2.647,146.48913C184.90559,732.5607,187.44563,781.414,188.12605,830.29618Z"/><path class="g" d="M71.66748,293.16083c19.16962,7.83842,43.33517,5.4681,60.264-6.59759,17.01264-12.12552,32.61384-21.04063,54.22979-21.68368,13.4252-.39944,26.011,5.22752,38.80307,8.44,11.24636,2.82438,19.83748,11.87541,31.95973,13.54035,15.93339,2.18808,32.29841-7.62909,39.46382-22.05585,7.16566-14.42666,5.60067-32.38327-2.416-46.353-5.85166-10.19732-11.23323-17.80892-4.6567-29.17806,1.43254-2.47663,3.23322-4.77068,4.21426-7.45907a20.84782,20.84782,0,0,0,.96039-7.99537c-.593-14.731-11.7288-25.77564-19.14951-37.94071-1.73459-2.8437-3.47764-5.7943-4.00147-9.08531-1.33258-8.37412,5.30924-15.61546,8.84971-23.31866,11.47117-24.96-8.10481-53.35039-27.15754-68.32765-11.24074-8.83633-24.71354-12.4022-36.83683-19.603-5.52058-3.279-10.55415-7.34124-16.14091-10.50568C190.31207-.48,179.69615-.71513,168.8797.80454,138.06818,5.134,103.03885,27.57618,95.89781,59.87609,91.05717,81.77073,98.98287,107.224,77.33658,122.552c-6.51959,4.61667-14.75493,7.36254-19.20143,14.00636C48.68582,150.67815,62.56947,171.5942,53.929,186.225c-1.927,3.26287-4.80669,5.827-7.42816,8.56129A70.6551,70.6551,0,0,0,27.472,249.75624,35.37578,35.37578,0,0,0,31.36128,263.766c3.28973,5.8394,8.86379,9.97058,14.3113,13.86525,8.15292,5.82884,16.47387,11.58055,25.72759,15.41964Q71.53366,293.10607,71.66748,293.16083Z"/><path class="h" d="M103.60441,196.63a40.31992,40.31992,0,0,0,3.20419,23.48418c9.43048,19.66334,32.78215,23.4965,52.47328,24.26576a117.02379,117.02379,0,0,0,21.83308-1.15888c6.42982-.9601,12.15957.02,18.65765-.12865a71.32543,71.32543,0,0,0,36.467-10.99807c5.27816-3.359,10.249-7.60113,12.95711-13.24826,3.72309-7.76353,2.6395-16.93671.66992-25.32105a51.19131,51.19131,0,0,0-5.04533-13.97753c-2.65462-4.60741-6.46325-8.52294-8.67535-13.35933-4.15776-9.09128-.74094-19.717-4.43743-28.63517-2.89464-6.98336-10.17253-14.86584-16.21117-19.23137-8.21761-5.94052-18.81884-7.81721-28.92839-7.12732-10.10938.69006-19.89313,3.74429-29.52482,6.89981-7.583,2.48434-14.10142.9464-19.66339,7.22281-4.409,4.97543-2.86967,13.09616-4.2788,19.125C128.36323,164.71551,106.79582,175.41485,103.60441,196.63Z"/><path class="b" d="M300.90551,239.68878c-12.53065-14.98633-26.90492-29.67617-46.649-34.04525-11.51945-2.54909-31.95316-1.83184-33.828,13.08092-1.047,8.32876,6.07136,15.25823,10.79709,22.33147,5.25422,7.8644,8.18584,17.19731,12.29537,25.64908,8.24124,16.9491,20.86753,30.86006,31.50367,46.37458,11.827,17.25157,20.43118,36.82325,32.65263,53.6366,9.4195,12.95729,22.03143,26.75242,37.10346,33.32794,12.48131,5.44533,28.31828,4.35427,34.73314-8.85209,5.69235-11.71923,3.81046-27.10649-.44-39.126-2.98984-8.45481-8.71873-15.35748-14.28346-22.29945-7.09819-8.855-12.84575-18.40323-18.9647-27.89395C332.00067,280.42958,317.31313,259.31191,300.90551,239.68878Z"/><path class="i" d="M41.11228,314.02052c-3.75247,6.04968-7.41129,12.15876-11.03287,18.28523C21.98981,345.98955,13.444,359.08717,6.8327,373.5876c-2.44788,5.36889-4.93135,10.86815-5.45881,16.747a26.72791,26.72791,0,0,0,12.196,24.52347,17.12924,17.12924,0,0,0,7.12471,2.6696,16.97205,16.97205,0,0,0,11.29258-3.37308c5.3846-3.75961,7.647-8.984,11.77071-13.70881,5.44613-6.24,10.61093-12.70814,15.64032-19.28851,10.06327-13.16645,19.64934-26.71779,30.4409-39.309,12.04259-14.04783,20.08069-31.94774,27.65484-48.65789,5.01223-11.05827,11.76189-26.96547,3.73857-38.32388a19.28121,19.28121,0,0,0-14.31941-8.00165A29.915,29.915,0,0,0,96.8569,248.2938a35.03669,35.03669,0,0,0-8.08579,3.26271c-6.24692,3.65348-10.06886,9.87587-14.40124,15.44968-5.099,6.56019-10.27023,13.03927-15.14422,19.77685C52.83151,295.62214,46.86175,304.7516,41.11228,314.02052Z"/><path class="a" d="M85.78576,233.3079c11.08756-11.89576,24.31128-22.20544,39.63393-27.86452,11.66832-4.30934,29.475-9.553,37.21784,4.32146,4.53661,8.12922,5.32939,19.13112,3.76785,28.11152-3.0238,17.38938-13.77943,32.49424-23.52533,46.6057-8.92583,12.92405-16.41,26.81268-25.54641,39.60609-8.16141,11.4281-18.155,20.96253-27.06864,31.76169a325.68442,325.68442,0,0,0-25.78124,36.84533c-5.12005,8.3182-10.17782,16.93489-17.63851,23.17261a31.734,31.734,0,0,1-16.56523,7.425c-7.40594.80952-11.3033-2.21207-16.97818-6.56176-4.12623-3.16253-8.29246-6.56028-10.75235-11.16544-4.96012-9.2858-1.74374-20.62811,1.91594-30.40919a426.84718,426.84718,0,0,1,39.80891-79.81176c6.92418-10.86114,11.89217-22.19393,19.21352-32.87422C70.38006,252.41607,77.475,242.22467,85.78576,233.3079Z"/><path class="i" d="M166.14714,187.478a47.90261,47.90261,0,0,0,1.12057-7.64961c.29133-3.719.25841-7.4537.17754-11.18033q-.02059-.949-.04423-1.89781c-.19519-8.07338-.25116-16.16787-.64141-24.22835a85.37338,85.37338,0,0,1,22.91-2.18558c7.0073.29,14.00689-.4435,21.0105-.03125a2.46864,2.46864,0,0,1,1.57406.46593,2.26734,2.26734,0,0,1,.52132,1.51447c.93922,10.90028.01633,21.94027.75243,32.86158.3074,4.56144.12137,10.05759,1.8463,14.35464,1.65648,4.15663,7.35124,6.27009,11.45058,6.69438a5.07279,5.07279,0,0,1,5.26875,4.27783c4.35164,11.21366,4.523,24.807-3.159,34.67565a36.13722,36.13722,0,0,1-17.67039,11.89281,52.16493,52.16493,0,0,1-21.38338,1.77865,47.59671,47.59671,0,0,1-32.84126-18.61222,45.04386,45.04386,0,0,1-8.63232-26.923c.02115-1.81965.22722-3.81035,1.50976-5.0987a7.714,7.714,0,0,1,3.71707-1.69117c2.32883-.58765,4.74636-.7369,7.06631-1.37432a7.584,7.584,0,0,0,2.90734-1.26671c1.41768-1.245,1.8317-3.69339,2.298-5.42724Q166.03358,187.952,166.14714,187.478Z"/><path class="a" d="M104.19657,443.48167c3.2709-10.39088,7.8145-24.67826,9.81943-35.08577,4.65947-24.18636-3.5675-50.51544-5.8755-74.60978a559.86742,559.86742,0,0,1-2.37168-67.66729c.43034-16.84-.65653-39.70642,11.064-53.29438,7.26606-8.424,20.92453-12.50384,31.3674-15.03587,23.22364-5.63077,49.48125-4.84254,73.10578-2.3221,15.15824,1.61724,31.0295,7.02577,41.56568,18.55274,11.23858,12.29545,16.40261,27.89236,19.94539,43.86547a205.70715,205.70715,0,0,1,4.45955,52.43127c-.645,17.1631-6.09556,33.47338-9.80725,50.111a179.09211,179.09211,0,0,0-1.72362,69.9197c5.34572,30.22349,6.43353,58.06143,10.659,94.44256-66.281,4.45176-130.64061-1.37206-196.64846-8.8616C94.6181,490.59193,96.19882,468.88852,104.19657,443.48167Z"/><g class="j"><path class="k" d="M242.99287,187.57888a21.66688,21.66688,0,0,1,1.98419,5.17645c4.54982,17.42627-4.96946,37.96434-15.73813,51.34055-9.60579,11.93177-22.374,18.63585-37.82833,16.50767-32.74948-4.51-59.597-37.24416-56.57358-70.41117a7.35951,7.35951,0,0,1,1.11107-3.79692c1.91084-2.566,11.67272-.76677,14.741-.76677h70.90906c3.26666,0,6.53367.01394,9.80042,0,2.83252-.0122,6.46773-1.82829,9.19874-.54306A5.94907,5.94907,0,0,1,242.99287,187.57888Z"/><polygon class="i" points="233.19 185.511 199.726 222.983 146.293 185.511 233.19 185.511"/></g><path class="l" d="M166.57385,185.853a122.45286,122.45286,0,0,0,.97465-19.19319c-.19493-8.07338-.25109-16.16787-.6416-24.22835a85.36824,85.36824,0,0,1,22.9102-2.18557c7.00739.2901,14.00674-.44342,21.01075-.03117a2.46883,2.46883,0,0,1,1.57381.46592,2.26714,2.26714,0,0,1,.52114,1.51422c.93948,10.90054-.131,22.03091.60513,32.95222.21089,3.12765.13849,6.95254.71578,10.03707a31.679,31.679,0,0,1-2.762,1.95591,35.8465,35.8465,0,0,1-30.65869,5.596A46.25664,46.25664,0,0,1,166.57385,185.853Z"/><path class="i" d="M140.22317,100.04462A97.7497,97.7497,0,0,1,144.908,70.945c12.32477-36.04957,57.54382-44.34968,84.3245-17.961,29.86444,29.42834,17.28532,98.58353-14.95678,122.47659a35.72957,35.72957,0,0,1-30.55818,5.57769C152.50232,172.1673,139.54911,133.33369,140.22317,100.04462Z"/><path class="l" d="M140.27363,68.76626c9.7059-36.84455,54.21192-48.38147,82.8173-23.99088,4.56357,3.89128,7.7275,8.53454,10.98181,13.49645,2.76176,4.21074,6.60435,7.3976,9.03944,12.02518a41.73482,41.73482,0,0,1,4.58059,15.36077c.50447,5.21029-1.19349,9.7655-1.32637,14.77217a18.28347,18.28347,0,0,0-6.02808-13.93788c-3.03278-2.69964-6.86355-4.283-10.39344-6.28629-3.52966-2.00334-6.98087-4.69536-8.30956-8.53592-11.38045,14.94748-29.03987,19.52528-46.41384,23.8386-14.57807,3.6192-30.57548,12.82752-30.905,29.88621a14.60654,14.60654,0,0,1-1.12022,5.58991,24.86682,24.86682,0,0,1-1.70644-7.18083c-.31421-2.781-1.11908-5.551-1.66269-8.33187a123.63881,123.63881,0,0,1-2.13746-17.34394A97.76833,97.76833,0,0,1,140.27363,68.76626Z"/><path class="g" d="M131.98671,132.01911a19.701,19.701,0,0,1-6.33548-8.83373c-3.88691-11.44619-3.46745-24.11676-2.99339-36.38166.26444-6.83964.544-13.77746,2.41168-20.296a51.54753,51.54753,0,0,1,10.46741-18.83894C148.72469,32.04352,168.40443,24.105,187.32455,25.726c7.60042.65093,13.1883,4.29956,19.8622,7.39587,6.51579,3.023,14.17054,4.683,21.02449,6.94777,7.90781,2.613,16.04622,5.35469,22.32035,10.84019A40.8019,40.8019,0,0,1,260.8434,65.821c2.86215,6.72658,3.13992,14.208,2.32217,21.38509-.67407,5.914-1.44991,12.22654-4.06782,17.74632-2.452,5.17-7.91023,8.54666-12.798,11.12268.72444-.38187.09694-8.91321.11636-10.22883.111-7.53507-.3-15.27324-2.65539-22.485-2.27431-7.05011-6.77774-11.36438-12.6364-15.66524a43.26567,43.26567,0,0,1-6.65473-5.66791c-.982-1.08595-5.25465-6.08665-4.55465-7.63368-3.32316,7.34479-8.52874,14.88575-15.03822,19.70093-12.37222,9.15171-26.143,15.61486-40.11251,21.06486-1.02931.40152-2.06521.80113-3.09722,1.21607a34.67077,34.67077,0,0,0-10.779,6.18171c-7.04463,6.42228-7.55523,16.29608-7.29328,25.19664a8.2891,8.2891,0,0,1-.26411,2.89936C141.85893,135.02174,134.81111,134.17473,131.98671,132.01911Z"/><path class="i" d="M473.82146,216.06723a67.16369,67.16369,0,0,1,15.29733-1.34584c3.54244.05394,8.10532.45468,9.84786,4.09967a1.7416,1.7416,0,0,1-.25341,2.01495,2.35266,2.35266,0,0,1-.824.42c-5.50875,1.88016-11.98566.7588-16.88773,3.901,1.4189-.90952,4.71848-.79724,6.38456-.97609q3.38075-.363,6.78612-.40715c3.67376-.0477,7.73839-.07176,11.15339,1.72407a3.83914,3.83914,0,0,1,2.01314,2.31344,3.90052,3.90052,0,0,1-1.97987,4.04011,11.37473,11.37473,0,0,1-4.60469,1.26377q-1.895.24072-3.7899.4812c2.39735-.08669,5.72242-.1321,7.87439,1.07982,1.83136,1.03028,3.01145,3.53127,1.89209,5.31214-1.0181,1.6201-2.94449,1.66319-4.58836,2.11215-2.54283.69459-5.28057.83263-7.75879,1.73416,1.5244-.50934,3.5453,1.09246,4.58353,2.32115a5.21361,5.21361,0,0,1,.96765,4.55126,3.40175,3.40175,0,0,1-.90535,1.70216,4.7544,4.7544,0,0,1-2.28736.95592q-8.05992,1.792-16.11983,3.5844c-8.32191,1.8328-16.66983,2.864-24.85472,5.42161a59.31172,59.31172,0,0,0-8.76789,3.11683c-4.52331,2.25951-10.79857,3.65772-14.34386,7.45473-3.00652,3.21985-9.86461,10.35929-14.163,11.30335-6.05175,1.32913-5.55168.13315-7.83835-4.53131-2.89688-5.90918,5.356-15.40362,8.44114-20.69252,2.03119-3.48224.75786-8.90013,1.906-12.76116a53.5199,53.5199,0,0,1,4.33246-10.39075,29.59574,29.59574,0,0,1,5.259-6.57077c1.80431-1.80717,3.80793-2.66094,5.7917-4.20338,3.81131-2.9629,6.255-7.31648,9.06587-11.15427,2.0172-2.75409,4.20494-5.89628,8.08139-5.38153a6.454,6.454,0,0,1,4.97594,3.76845c1.03252,2.39308-.18049,3.32018-1.53985,5.21635-.9541,1.3306-2.64478,4.98338-4.07475,5.68548A91.49751,91.49751,0,0,1,473.82146,216.06723Z"/><path class="l" d="M465.02808,229.12927c2.96834-.9502,5.89183-1.89729,8.8714-2.67643,2.97317-.80321,5.98021-1.43406,9.02769-2.08689a37.23713,37.23713,0,0,0-17.89909,4.76332Z"/><path class="l" d="M469.11042,236.56a73.29285,73.29285,0,0,1,7.46615-1.43289q3.75969-.49913,7.54875-.71525c2.52486-.16023,5.05758-.219,7.59419-.29261l3.80872-.08044c1.27106-.04788,2.54222-.06286,3.81485-.13074-1.268-.12836-2.53756-.19764-3.80742-.29359l-3.81485-.16115q-3.81865-.12491-7.64681.09486a58.79106,58.79106,0,0,0-7.60482.92483A40.436,40.436,0,0,0,469.11042,236.56Z"/><path class="l" d="M472.113,246.59057a48.5796,48.5796,0,0,1,5.71852-1.34452c1.92527-.316,3.86073-.55363,5.80829-.69716,1.94591-.16386,3.9015-.23486,5.86176-.32487l2.94492-.10742c.98328-.0576,1.967-.08237,2.952-.16016-.981-.11848-1.96354-.178-2.94648-.26419l-2.95434-.13415a54.92468,54.92468,0,0,0-5.92595.12829,37.54015,37.54015,0,0,0-5.8736.91039A25.675,25.675,0,0,0,472.113,246.59057Z"/><path class="m" d="M52.298,412.73693l10.15473,1.76822S198.65791,295.31,200.59052,292.9676c2.09625-2.54112-1.60732-13.10247-6.37643-14.08592-4.76893-.983-117.34777-24.194-117.34777-24.194Z"/><path class="n" d="M54.79488,413.48586l7.57561,7.5994,10.25582-2.2841S195.17707,291.89871,196.04717,291.4017c.98838-.56461.63709-8.29344-4.95407-9.47548-5.591-1.18248-111.19684-23.51336-111.19684-23.51336Z"/><polygon class="o" points="60.44 421.418 166.414 444.811 201.024 292.557 87.145 270.379 60.44 421.418"/><path class="p" d="M69.63767,431.89792l10.10584,2.02958S218.96488,318.28424,220.957,315.99244c2.161-2.48615-1.27031-13.13952-6.01244-14.24547-4.74233-1.10586-116.68772-27.21229-116.68772-27.21229Z"/><path class="n" d="M72.11458,432.71134l7.37775,7.7922,10.31122-2.01885S215.57277,314.78442,216.45531,314.3101c1.00264-.53908.8498-8.27439-4.70906-9.60023-5.55877-1.3261-110.556-26.37281-110.556-26.37281Z"/><polygon class="q" points="77.554 440.786 182.892 466.904 221.401 315.593 108.129 290.486 77.554 440.786"/><polygon class="n" points="124.943 346.759 181.195 359.581 186.4 343.514 128.639 329.334 124.943 346.759"/><path class="i" d="M100.36565,403.92086c-18.1753-6.65551-36.26938-13.49619-54.62585-19.51047C34.13073,380.86426,20.20105,377.037,8.944,381.932,2.9877,384.52094.0255,390.18547.2605,396.8286c.38775,10.96382,10.81826,19.11242,19.255,24.41006a122.408,122.408,0,0,0,16.63389,8.58588c5.42883,2.34392,11.1738,4.956,16.89224,6.06544,31.06639,6.027,42.61617,9.5476,73.92914,10.98935,1.94557.08961,23.86366-1.44271,25.55514-2.3208,4.18627-2.17346,3.83524-8.28893,2.582-12.43518a18.64513,18.64513,0,0,0-8.06369-11.03731c-5.65483-3.41922-12.77073-4.971-18.92572-7.16066q-11.058-3.93389-22.09512-7.941Q103.19281,404.95682,100.36565,403.92086Z"/><path class="i" d="M117.11963,444.4395c7.20833.9676,15.09128.09306,21.73727,3.62006,2.71121,1.4389,5.33621,3.45,8.30731,4.32441a142.90326,142.90326,0,0,0,22.87543,4.44742c3.90205.48134,7.81453.88286,11.72787,1.2597a12.45838,12.45838,0,0,0,8.45376-2.0307c1.87792-1.33121,3.58959-2.65783,4.00138-5.091a2.19079,2.19079,0,0,1,2.084-2.2273,7.03779,7.03779,0,0,0,3.91292-8.53324,1.6623,1.6623,0,0,1-.1531-.97419c.109-.38386.495-.60461.82354-.83039,2.87321-1.975,2.70508-6.32775.736-8.85659a4.69476,4.69476,0,0,1-.73394-1.07573,4.74764,4.74764,0,0,1,.17979-2.66432,6.09791,6.09791,0,0,0-1.51289-5.465c-1.64232-1.62486-4.48892-1.71731-6.65662-1.997-5.82669-.752-12.44028-1.622-18.00915-3.55288-1.18243-.40991-5.49959-1.52876-4.8873-3.154a5.466,5.466,0,0,1,2.56936-2.75409c2.64149-1.43925,6.001-1.19287,8.87459-2.20368a36.85005,36.85005,0,0,0,9.20351-4.785,3.19561,3.19561,0,0,0,1.13784-1.1772,2.42668,2.42668,0,0,0-.40382-2.33586,5.603,5.603,0,0,0-4.16771-2.1029,16.57488,16.57488,0,0,0-4.76917.55016L170.6377,399.3718a48.32507,48.32507,0,0,0-8.46775,2.38513c-2.63856,1.0985-4.49963,2.83053-6.72547,4.48456-4.71107,3.50086-9.26546,8.67167-15.25284,9.96617-6.84842,1.48054-16.09253-.94579-22.72141-2.71851"/><path class="i" d="M143.93305,110.71721c-11.34729-6.36454-15.01637,9.42908-13.13153,17.32585a25.15511,25.15511,0,0,0,4.0176,9.14435c2.67806,3.63218,10.38276,9.68992,14.89395,5.7904,2.04727-1.76951,2.28659-4.80773,2.37584-7.51542C152.3284,128.20253,151.62487,115.03158,143.93305,110.71721Z"/><polygon class="n" points="199.726 222.983 214.244 241.27 240.891 199.256 224.712 189.379 199.726 222.983"/><polygon class="n" points="199.726 222.983 182.686 243.244 139.915 200.022 156.106 189.379 199.726 222.983"/><path class="a" d="M41.66116,435.526c15.60009,5.71916,31.70756,8.713,48.33065,11.646,9.48991,1.67386,19.05827,3.25309,28.71916,3.31845,8.19664.05541,17.66487,3.51808,17.90566-7.58355q.28005-12.91387.13305-25.83234a4.58227,4.58227,0,0,0-3.31427-5.27782c-6.91643-3.23924-14.55078-4.77579-21.86159-7.16412-28.802-9.40917-57.40083-22.34049-87.81071-25.38927-4.94536-.49579-9.43868-.75092-14.14618,1.1598-7.4208,3.012-10.60487,11.8207-9.35047,19.311,2.48581,14.84412,15.63782,24.06664,28.21936,30.21527A138.54426,138.54426,0,0,0,41.66116,435.526Z"/><path class="b" d="M405.24339,370.60678c11.381-16.29912,19.65355-34.54539,27.06855-52.92966,3.81269-9.45306,7.43618-18.93123,10.52426-28.64773,2.20346-6.93063,5.90227-14.13717-1.7371-18.70822q-8.71114-5.21218-17.42226-10.42456c-2.41565-1.44539-4.97991-2.93485-7.79368-2.96775-7.49536-.08778-11.48793,9.47211-14.73748,14.79278-9.08972,14.8828-18.308,29.50348-28.24287,43.83509-4.84763,6.993-9.66226,14.01406-14.16017,21.23991-2.1772,3.49765-4.283,7.04084-6.27527,10.64774-1.44628,2.61835-5.56482,7.94231-5.56482,10.9336-5.39116,11.65215-11.60014,32.154,1.64371,40.88016,11.68319,7.69783,27.02233,1.55793,36.81842-6.34048C393.04986,386.72123,399.606,378.68024,405.24339,370.60678Z"/></svg>