<svg id="Layer_1" data-name="Layer 1" xmlns="http://www.w3.org/2000/svg" xmlns:xlink="http://www.w3.org/1999/xlink" viewBox="0 0 390.26 76.83">
  <defs>
    <linearGradient id="linear-gradient" x1="129.61" y1="243.6" x2="182.83" y2="190.38" gradientUnits="userSpaceOnUse">
      <stop offset="0" stop-color="#495aff"/>
      <stop offset="1" stop-color="#0acffe"/>
    </linearGradient>
  </defs>
  <title>logo-colored-strip</title>
  <g>
    <path d="M197,239.12c0-6.46,4.64-10.16,13.54-10.82l13-1V224c0-6.61-4-10.51-10.83-10.51-6.43,0-10.68,3.27-11.6,9h-2.64c.67-7,6.3-11.5,14.28-11.5,8.3,0,13.5,4.93,13.5,12.84v25.52H223.6v-8.16h-.07c-1.86,5.14-7.52,8.65-14,8.65C202.16,249.81,197,245.45,197,239.12Zm26.51-3.83v-5.66l-12.62,1c-7.24.53-11.14,3.48-11.14,8.54,0,4.82,4.25,8.27,10.16,8.27C217.48,247.39,223.53,242,223.53,235.29Z" transform="translate(-113.78 -174.48)" style="fill: #666;stroke: #333;stroke-linecap: round;stroke-linejoin: round;stroke-width: 3px"/>
    <path d="M263.79,249.32h-2.57v-8.26h-.11c-1.68,5.1-7,8.75-13.29,8.75-8.15,0-13.64-5.31-13.64-13.78V211.46h2.75v24.15c0,7.45,4.53,11.74,11.46,11.74,7.2,0,12.65-5.2,12.65-13.25V211.46h2.75Z" transform="translate(-113.78 -174.48)" style="fill: #666;stroke: #333;stroke-linecap: round;stroke-linejoin: round;stroke-width: 3px"/>
    <path d="M277,201.72v9.74h7.63v2.39H277v26.79c0,4.53,1.69,6.32,5.48,6.32.21,0,2.5,0,2.64-.07v2.43c-.21,0-2.57.07-3,.07-5.48,0-7.84-2.43-7.84-8.68V213.85h-5.55v-2.39h5.55v-9.74Z" transform="translate(-113.78 -174.48)" style="fill: #666;stroke: #333;stroke-linecap: round;stroke-linejoin: round;stroke-width: 3px"/>
    <path d="M288.08,230.41c0-11.92,6.78-19.45,16.84-19.45s16.87,7.53,16.87,19.45-6.78,19.4-16.87,19.4S288.08,242.29,288.08,230.41Zm30.94,0c0-10.48-5.59-16.95-14.1-16.95s-14.1,6.47-14.1,16.95,5.59,16.94,14.1,16.94S319,240.81,319,230.41Z" transform="translate(-113.78 -174.48)" style="fill: #666;stroke: #333;stroke-linecap: round;stroke-linejoin: round;stroke-width: 3px"/>
    <path d="M355.44,222.85c-1.09-5.42-5.84-9.39-12.41-9.39-8.51,0-13.92,6.61-13.92,16.95s5.41,16.94,13.95,16.94c6.47,0,11.22-3.66,12.34-9.1h2.74c-1.16,6.82-7.06,11.56-15.08,11.56-10.16,0-16.7-7.49-16.7-19.4S332.9,211,343,211c8.12,0,14,5.21,15.11,11.89Z" transform="translate(-113.78 -174.48)" style="fill: #666;stroke: #333;stroke-linecap: round;stroke-linejoin: round;stroke-width: 3px"/>
    <path d="M364.75,196.37h2.75v23.42h.1c1.76-5.31,6.68-8.83,13.08-8.83,8.3,0,13.82,5.52,13.82,14v24.4h-2.71V225.24c0-7.32-4.61-11.78-11.67-11.78-7.46,0-12.62,5.48-12.62,13.39v22.47h-2.75Z" transform="translate(-113.78 -174.48)" style="fill: #666;stroke: #333;stroke-linecap: round;stroke-linejoin: round;stroke-width: 3px"/>
    <path d="M401.49,239.12c0-6.46,4.64-10.16,13.54-10.82l13-1V224c0-6.61-4-10.51-10.83-10.51-6.43,0-10.69,3.27-11.6,9h-2.64c.67-7,6.3-11.5,14.28-11.5,8.29,0,13.5,4.93,13.5,12.84v25.52h-2.64v-8.16H428c-1.86,5.14-7.52,8.65-14,8.65C406.62,249.81,401.49,245.45,401.49,239.12ZM428,235.29v-5.66l-12.62,1c-7.24.53-11.15,3.48-11.15,8.54,0,4.82,4.26,8.27,10.16,8.27C422,247.39,428,242,428,235.29Z" transform="translate(-113.78 -174.48)" style="fill: #666;stroke: #333;stroke-linecap: round;stroke-linejoin: round;stroke-width: 3px"/>
    <path d="M443.68,201.72v9.74h7.63v2.39h-7.63v26.79c0,4.53,1.69,6.32,5.48,6.32.22,0,2.5,0,2.64-.07v2.43c-.21,0-2.57.07-3,.07-5.48,0-7.84-2.43-7.84-8.68V213.85h-5.55v-2.39H441v-9.74Z" transform="translate(-113.78 -174.48)" style="fill: #666;stroke: #333;stroke-linecap: round;stroke-linejoin: round;stroke-width: 3px"/>
    <path d="M457.78,200a2.2,2.2,0,1,1,2.18,2.14A2.17,2.17,0,0,1,457.78,200Zm.81,11.43h2.74v37.86h-2.74Z" transform="translate(-113.78 -174.48)" style="fill: #666;stroke: #333;stroke-linecap: round;stroke-linejoin: round;stroke-width: 3px"/>
    <path d="M497.22,222.85c-1.09-5.42-5.83-9.39-12.41-9.39-8.51,0-13.92,6.61-13.92,16.95s5.41,16.94,14,16.94c6.47,0,11.21-3.66,12.34-9.1h2.74c-1.16,6.82-7.07,11.56-15.08,11.56-10.16,0-16.7-7.49-16.7-19.4S474.69,211,484.81,211c8.12,0,14,5.21,15.12,11.89Z" transform="translate(-113.78 -174.48)" style="fill: #666;stroke: #333;stroke-linecap: round;stroke-linejoin: round;stroke-width: 3px"/>
  </g>
  <path d="M151.39,249.77a36.54,36.54,0,0,1-14.64-2.94,38.34,38.34,0,0,1-12-8.08,37.88,37.88,0,0,1-8.07-41.23,37.65,37.65,0,0,1,8.07-12,38.26,38.26,0,0,1,12-8.11,37.92,37.92,0,0,1,29.28,0A37.74,37.74,0,0,1,178,185.53a38.69,38.69,0,0,1,8.08,12A36.57,36.57,0,0,1,189,212.16V245a4.59,4.59,0,0,1-1.33,3.41,4.51,4.51,0,0,1-3.34,1.33Zm28.21-37.61a28,28,0,0,0-2.19-11,27.72,27.72,0,0,0-6-9,29,29,0,0,0-9-6,28.34,28.34,0,0,0-22,0,29,29,0,0,0-9,6,27.72,27.72,0,0,0-6,9,28.9,28.9,0,0,0,0,22.07,27.72,27.72,0,0,0,6,8.93,28.9,28.9,0,0,0,9,6,27.31,27.31,0,0,0,11,2.23H179.6Z" transform="translate(-113.78 -174.48)" style="fill: url(#linear-gradient)"/>
  <path d="M492.71,202.77V202A5.68,5.68,0,0,1,504,202v.79a5.67,5.67,0,0,1-11.33,0Zm10.25,0V202a4.6,4.6,0,0,0-9.16,0v.79a4.59,4.59,0,0,0,9.16,0Zm-6.57,2.37v-5.59h2.54a1.71,1.71,0,0,1,.61,3.31l1.27,2.28h-1.25L498.45,203h-1v2.17Zm1.06-2.95h.9c.56,0,1.22-.11,1.22-.93,0-.62-.46-.91-1.05-.91h-1.07Z" transform="translate(-113.78 -174.48)"/>
</svg>
