<?xml version="1.0" encoding="utf-8"?>
<!-- Generator: Adobe Illustrator 22.0.0, SVG Export Plug-In . SVG Version: 6.00 Build 0)  -->
<svg version="1.1" id="Layer_1" xmlns="http://www.w3.org/2000/svg" xmlns:xlink="http://www.w3.org/1999/xlink" x="0px" y="0px"
	 viewBox="0 0 1080 1080" style="enable-background:new 0 0 1080 1080;" xml:space="preserve">
<g>
	<path style="fill:#333333;stroke:#333333;stroke-width:8.347;stroke-linecap:round;stroke-linejoin:round;" d="M111.1,985.1
		c0-18,12.9-28.3,37.7-30.1l36.2-2.6V943c0-18.4-11.1-29.2-30.1-29.2c-17.9,0-29.7,9.1-32.3,25h-7.3c1.9-19.5,17.5-32,39.7-32
		c23.1,0,37.6,13.7,37.6,35.7v71h-7.4v-22.7h-0.2c-5.2,14.3-20.9,24.1-39,24.1C125.5,1014.9,111.1,1002.7,111.1,985.1z M184.9,974.5
		v-15.7l-35.1,2.6c-20.1,1.5-31,9.7-31,23.8c0,13.4,11.8,23,28.3,23C168.1,1008.1,184.9,993.1,184.9,974.5L184.9,974.5z"/>
	<path style="fill:#333333;stroke:#333333;stroke-width:8.347;stroke-linecap:round;stroke-linejoin:round;" d="M297,1013.5h-7.2
		v-23h-0.3c-4.7,14.2-19.5,24.3-37,24.3c-22.7,0-38-14.8-38-38.3v-68.4h7.7v67.2c0,20.7,12.6,32.7,31.9,32.7
		c20,0,35.2-14.5,35.2-36.9v-63h7.7V1013.5z"/>
	<path style="fill:#333333;stroke:#333333;stroke-width:8.347;stroke-linecap:round;stroke-linejoin:round;" d="M333.7,881.1v27.1
		h21.2v6.6h-21.2v74.5c0,12.6,4.7,17.6,15.2,17.6c0.6,0,7,0,7.3-0.2v6.8c-0.6,0-7.2,0.2-8.3,0.2c-15.2,0-21.8-6.8-21.8-24.2v-74.7
		h-15.4v-6.6h15.4v-27.1H333.7z"/>
	<path style="fill:#333333;stroke:#333333;stroke-width:8.347;stroke-linecap:round;stroke-linejoin:round;" d="M364.5,960.9
		c0-33.2,18.9-54.1,46.9-54.1c28,0,46.9,21,46.9,54.1s-18.9,54-46.9,54C383.3,1014.9,364.5,993.9,364.5,960.9z M450.6,960.9
		c0-29.2-15.6-47.3-39.2-47.3s-39.2,18-39.2,47.3s15.6,47.1,39.2,47.1S450.6,989.8,450.6,960.9L450.6,960.9z"/>
	<path style="fill:#333333;stroke:#333333;stroke-width:8.347;stroke-linecap:round;stroke-linejoin:round;" d="M552,939.8
		c-3-15.1-16.2-26.1-34.5-26.1c-23.7,0-38.7,18.4-38.7,47.3c0,28.9,15.1,47.1,38.8,47.1c18,0,31.2-10.2,34.3-25.3h7.6
		c-3.2,19-19.6,32.2-42,32.2c-28.3,0-46.5-20.8-46.5-54s18.2-54.1,46.3-54.1c22.6,0,39,14.5,42,33.1L552,939.8z"/>
	<path style="fill:#333333;stroke:#333333;stroke-width:8.347;stroke-linecap:round;stroke-linejoin:round;" d="M577.9,866.2h7.7
		v65.2h0.3c4.9-14.8,18.6-24.6,36.4-24.6c23.1,0,38.5,15.4,38.5,39v67.9h-7.5v-67.1c0-20.4-12.8-32.8-32.5-32.8
		c-20.8,0-35.1,15.2-35.1,37.3v62.5h-7.7V866.2z"/>
	<path style="fill:#333333;stroke:#333333;stroke-width:8.347;stroke-linecap:round;stroke-linejoin:round;" d="M680.1,985.1
		c0-18,12.9-28.3,37.7-30.1l36.2-2.6V943c0-18.4-11.1-29.2-30.1-29.2c-17.9,0-29.7,9.1-32.3,25h-7.3c1.9-19.5,17.5-32,39.7-32
		c23.1,0,37.6,13.7,37.6,35.7v71h-7.3v-22.7h-0.3c-5.2,14.3-20.9,24.1-39,24.1C694.4,1014.9,680.1,1002.7,680.1,985.1z M753.9,974.5
		v-15.7l-35.1,2.6c-20.1,1.5-31,9.7-31,23.8c0,13.4,11.9,23,28.3,23C737.2,1008.1,753.9,993.1,753.9,974.5z"/>
	<path style="fill:#333333;stroke:#333333;stroke-width:8.347;stroke-linecap:round;stroke-linejoin:round;" d="M797.5,881.1v27.1
		h21.2v6.6h-21.2v74.5c0,12.6,4.7,17.6,15.2,17.6c0.6,0,7,0,7.3-0.2v6.8c-0.6,0-7.2,0.2-8.3,0.2c-15.2,0-21.8-6.8-21.8-24.2v-74.7
		h-15.4v-6.6H790v-27.1H797.5z"/>
	<path style="fill:#333333;stroke:#333333;stroke-width:8.347;stroke-linecap:round;stroke-linejoin:round;" d="M836.7,876.3
		c-0.1-3.4,2.6-6.2,6-6.3s6.2,2.6,6.3,6c0.1,3.4-2.6,6.2-6,6.3c-0.1,0-0.1,0-0.2,0C839.5,882.2,836.8,879.6,836.7,876.3z M839,908.1
		h7.6v105.3H839V908.1z"/>
	<path style="fill:#333333;stroke:#333333;stroke-width:8.347;stroke-linecap:round;stroke-linejoin:round;" d="M946.4,939.8
		c-3-15.1-16.2-26.1-34.5-26.1c-23.7,0-38.7,18.4-38.7,47.3c0,28.9,15.1,47.1,39,47.1c18,0,31.2-10.2,34.3-25.3h7.6
		c-3.2,19-19.7,32.2-42,32.2c-28.3,0-46.5-20.8-46.5-54s18.1-54.1,46.2-54.1c22.6,0,39,14.5,42.1,33.1L946.4,939.8z"/>
</g>
<linearGradient id="SVGID_1_" gradientUnits="userSpaceOnUse" x1="487.2455" y1="274.6903" x2="1003.0243" y2="790.4691" gradientTransform="matrix(1 0 0 -1 -170.52 1012.52)">
	<stop  offset="0" style="stop-color:#495AFF"/>
	<stop  offset="1" style="stop-color:#0ACFFE"/>
</linearGradient>
<path style="fill:url(#SVGID_1_);" d="M527.9,797.6c-48.8,0.4-97.1-9.4-141.9-28.5c-43.4-18.5-82.8-45.1-116.2-78.3
	C165.5,585.6,134.6,428,191.5,291.2c18.3-43.4,44.9-82.8,78.2-116.1c33.4-33.4,72.8-60.1,116.2-78.6c90.8-38,193-38,283.8,0
	c43.3,18.5,82.7,45.2,115.9,78.6c33.2,33.4,59.7,72.9,78.3,116.2c19.2,44.8,28.9,93.1,28.5,141.9v318.6c0.5,12.3-4.2,24.3-12.9,33
	c-8.5,8.6-20.2,13.2-32.3,12.9L527.9,797.6z M801.2,433.1c0.3-36.8-7-73.2-21.2-107.1c-13.6-32.5-33.4-62.1-58.4-86.9
	c-25.1-24.8-54.6-44.6-86.9-58.4c-68.3-28.8-145.3-28.8-213.5,0c-32.4,13.9-61.9,33.7-86.9,58.4c-25,24.9-44.8,54.4-58.4,86.9
	c-43.6,102.7-20.5,221.6,58.4,300.5c25.1,24.7,54.6,44.6,86.9,58.4c33.7,14.5,70.1,21.9,106.8,21.6h273.3L801.2,433.1z"/>
<path d="M936.7,886.8v-2.1c1-8.7,8.8-14.9,17.5-14c7.3,0.8,13.1,6.6,14,14v2.2c-0.4,8.7-7.7,15.5-16.4,15.1
	c-8.2-0.3-14.8-6.9-15.1-15.1L936.7,886.8z M965.2,886.8v-2.1c-0.7-7-6.9-12.2-13.9-11.6c-6.1,0.6-11,5.4-11.6,11.6v2.2
	c0.5,7,6.5,12.4,13.6,11.9C959.7,898.3,964.8,893.2,965.2,886.8L965.2,886.8z M946.9,893.4v-15.6h7.1c2.6,0,4.8,2.1,4.8,4.7
	c0,2-1.2,3.8-3.1,4.5l3.5,6.3h-3.5l-3.1-6h-2.8v6L946.9,893.4z M949.9,885.1h2.5c1.6,0,3.4-0.3,3.4-2.6c0-1.7-1.3-2.5-2.9-2.5h-3
	V885.1z"/>
</svg>
