<svg xmlns="http://www.w3.org/2000/svg" xmlns:xlink="http://www.w3.org/1999/xlink" viewBox="0 0 4147.83 1980.614"><defs><style>.a{fill:#6a9dd8}.b{fill:#b7c6f7}.c{fill:none}.d{isolation:isolate}.e{fill:#0d2584}.f{fill:#3655b5}.g{fill:#f8b716}.h{fill:#dba11d}.i{fill:#1d1d4d}.j{clip-path:url(#a)}.k{fill:#fcb47f}.l{fill:#f49b5f}.m{fill:#11112d}.n{fill:#c68c17}.o{fill:#edaa10}.p{clip-path:url(#b)}.q{fill:#b26a2f}.r{fill:#9e5c2b}.s{clip-path:url(#c)}.t{fill:#f4be84}.u{fill:#432e36}.v{clip-path:url(#d)}.w{fill:#1a1a3b}.x{fill:#5e3838}.y{mix-blend-mode:multiply}.z{fill:#e3e3e3;opacity:.47}</style><clipPath id="a"><circle cx="856.777" cy="867.451" r="227.501" class="a" transform="translate(-362.4365 859.90319) rotate(-45)"/></clipPath><clipPath id="b"><circle cx="2620.462" cy="867.451" r="227.501" class="b" transform="translate(154.13494 2107.01696) rotate(-45)"/></clipPath><clipPath id="c"><circle cx="1699.234" cy="951.966" r="227.501" class="b" transform="translate(-175.44727 1480.36428) rotate(-45)"/></clipPath><clipPath id="d"><path d="M2970.225,1822.4747c13.9238-13.0843,25.5623-21.1931,34.135-26.1543-.3622-12.1481-1.073-38.2963-.7064-49.9157l-2.5573-13.1646c-8.3156-55.2129,23.7298-86.6412,23.7298-86.6412l6.5448-.5766,1.5744-.1414,10.0874-.901,1.3033-.1299,30.7055-2.7222,1.2789-.1288,2.933-.2598,10.771-4.6181,1.1753-.5207,8.4678-3.6296c12.148,15.7056,13.6705,34.5598,12.5731,48.336-.0888,1.167-.195,2.2874-.3327,3.3937-.3311,2.9028-.76,5.512-1.195,7.7326a56.60522,56.60522,0,0,0-.536,18.5735l3.8562,28.1388c5.4895,26.7023,3.8855,44.3457,1.2572,58.5285-.9027,4.8707-1.7778,9.7515-2.3123,14.6762a19.93028,19.93028,0,0,1-2.2728,7.3057,11.65718,11.65718,0,0,1-3.9268,5.1098,20.0634,20.0634,0,0,1-3.6683,2.7404,58.465,58.465,0,0,0-8.8947,8.4915c-4.8876,5.8283-11.9407,16.0538-19.7806,28.1301-23.7119,36.5238-54.6257,89.984-54.6257,89.984l-11.9846-5.4356c11.6842-49.4299,25.8308-83.8866,38.7467-107.537,9.1577-16.7692,17.6929-28.0986,24.2948-35.4825-2.5373-7.0288-6.8466-19.0429-10.5509-29.8514a133.716,133.716,0,0,1-11.2535,26.7614c-2.3742,4.3476-4.7257,8.7134-6.767,13.2269a19.92837,19.92837,0,0,1-4.4347,6.2348,11.65278,11.65278,0,0,1-5.3224,3.6331,20.05627,20.05627,0,0,1-4.3393,1.462,58.4717,58.4717,0,0,0-11.0964,5.3c-6.4593,4.0168-16.3457,11.538-27.5559,20.5728-33.9054,27.3255-79.9278,68.5029-79.9278,68.5029l-9.6965-8.897C2926.41573,1869.2672,2950.58743,1840.9281,2970.225,1822.4747Z" class="c"/></clipPath></defs><title>Asset 1</title><g class="d"><path d="M259.45443,546.4897q5.7036.1374,11.3045-.1794l686.1887-10.8921a91.17074,91.17074,0,1,0-36.23331-164.4559,155.16663,155.16663,0,0,0-290.40249-88.9886,151.17537,151.17537,0,0,0-253.1137,41.5644,140.81629,140.81629,0,1,0-117.7437,222.9516Zm388.2471-89.3798c.3052.3602.6192.7125.9276,1.0701l-1.5686.0249C647.27483,457.8401,647.49013,457.4762,647.70153,457.1099Z" class="b"/><path d="M3343.12513,963.2157q5.7036.1374,11.3045-.1794l686.1887-10.892a91.17079,91.17079,0,1,0-36.2333-164.4559,155.16669,155.16669,0,0,0-290.4026-88.9886,151.17533,151.17533,0,0,0-253.1136,41.5643,140.81632,140.81632,0,1,0-117.7437,222.9516Zm388.2471-89.3798c.3052.3603.6192.7126.9276,1.0701l-1.5686.0249C3730.94553,874.5662,3731.16083,874.2022,3731.37223,873.8359Z" class="b"/><path d="M582.56493,1680.3883a17.10887,17.10887,0,0,1-17.4908-7.4355L423.00193,1456.186c-66.1924-100.9985-81.859-229.3297-41.9067-343.2848a356.98474,356.98474,0,0,0-67.6484-352.0215l-27.935-32.0501a17.10483,17.10483,0,0,1,25.7875-22.479l27.9354,32.0502a391.2444,391.2444,0,0,1,74.1431,385.8179c-36.4507,103.9736-22.1578,221.0642,38.2372,313.2173l142.0722,216.7667a17.11467,17.11467,0,0,1-11.1223,26.1856Z" class="e"/><path d="M397.32233,880.1634a243.47325,243.47325,0,0,1-183.6039-38.361l-14.1454-9.6482a17.10489,17.10489,0,1,1,19.2767-28.2616l14.1452,9.6485a209.48848,209.48848,0,0,0,157.977,33.0064,17.10524,17.10524,0,0,1,6.3504,33.6159Z" class="e"/><path d="M412.78943,932.6137a17.10756,17.10756,0,0,1-18.9624-23.3602l71.5699-172.7586a17.10436,17.10436,0,1,1,31.6032,13.0948l-71.5664,172.7582A17.093,17.093,0,0,1,412.78943,932.6137Z" class="e"/><path d="M420.54723,1037.8173a17.10792,17.10792,0,0,1-13.3822-30.545l39.2718-29.1443a126.52084,126.52084,0,0,1,147.0716-2.6625,17.10654,17.10654,0,0,1-19.3836,28.1924,92.29553,92.29553,0,0,0-107.3008,1.9405l-39.2718,29.1445A17.02869,17.02869,0,0,1,420.54723,1037.8173Z" class="e"/><path d="M415.98443,1074.4081l-124.4008,23.5005a17.10506,17.10506,0,1,1-6.3506-33.6155l124.4012-23.5007a17.10512,17.10512,0,1,1,6.3502,33.6157Z" class="e"/><path d="M525.33363,1231.3617c-55.2162,10.431-112.8683-14.3242-142.673-63.4135l-8.2361-13.5654a17.10543,17.10543,0,1,1,29.2424-17.7557l8.2363,13.5654a103.17863,103.17863,0,0,0,121.70393,43.6369,17.10527,17.10527,0,0,1,11.30177,32.2898A135.36054,135.36054,0,0,1,525.33363,1231.3617Z" class="e"/><path d="M383.41713,1407.9133a154.3274,154.3274,0,0,1-136.2343-41.0727l-12.8812-12.5755a17.105,17.105,0,1,1,23.8967-24.4801l12.8808,12.5753a119.962,119.962,0,0,0,127.0697,25.9001,17.10407,17.10407,0,1,1,12.4098,31.8778A153.10627,153.10627,0,0,1,383.41713,1407.9133Z" class="e"/><path d="M600.77383,1454.1927a17.04146,17.04146,0,0,1-8.9411-.7165l-11.945-4.2885a111.15987,111.15987,0,0,0-118.0265,27.9662,17.10418,17.10418,0,1,1-24.7821-23.5809,145.39666,145.39666,0,0,1,154.3719-36.5827l11.9452,4.2889a17.10824,17.10824,0,0,1-2.6224,32.9135Z" class="e"/><path d="M121.18013,528.6061c-3.7548,3.4472-4.9755,8.9532-3.1083,14.3524,12.2134,35.3158,35.316,142.2583,69.131,177.0073,21.9272,22.5328,86.6553,37.3048,116.9183,7.9132,31.8661-27.6456,22.6698-93.3982,2.0892-117.1677-31.7376-36.6552-136.32-68.7962-170.465-83.9775C130.52493,524.4124,124.93483,525.1592,121.18013,528.6061Z" class="f"/><path d="M295.70593,722.7709a5.19967,5.19967,0,0,1-4.8042-1.5957L126.73153,542.3488a5.20374,5.20374,0,1,1,7.6675-7.0374l164.1702,178.827a5.2065,5.2065,0,0,1-2.8633,8.6325Z" class="b"/><path d="M450.98473,500.5613c-4.9125,1.7761-8.0595,7.4033-8.3555,14.5171,2.3024,51.6843-40.6066,161.2723-46.556,201.0022-.3663,27.6656,26.1101,87.071,67.059,105.9403,41.3576,21.8679,94.6652-31.3483,98.0265-77.7899,10.7982-72.1703-64.6852-203.2934-95.2578-236.9085C461.67763,501.3088,455.88653,498.7817,450.98473,500.5613Z" class="g"/><path d="M467.712,812.0336a5.20735,5.20735,0,0,1-6.0394-6.2563c20.5784-91.6526,16.9558-190.7139-10.4679-286.478a5.20449,5.20449,0,1,1,10.0073-2.8637c27.9046,97.4324,31.5745,198.2742,10.6152,291.6221A5.202,5.202,0,0,1,467.712,812.0336Z" class="h"/><path d="M781.97342,1224.0554c-1.0157-5.1236-6.1043-9.083-13.0921-10.4474-51.4408-5.5136-153.31049-64.4494-191.68939-76.3183-27.29479-4.5314-90.0121,12.6889-114.8368,50.326-27.8517,37.5893,16.7222,98.3087,62.1271,108.6308,69.7187,21.5524,210.72019-33.3067,248.55929-58.4641C779.62282,1234.5139,782.99363,1229.1699,781.97342,1224.0554Z" class="f"/><path d="M765.04692,1231.7239c-.1022.0192-.2055.0365-.3091.0501-100.52179,12.8992-200.76569,1.3308-289.89079-33.4588a5.20385,5.20385,0,0,1,3.7846-9.6952c87.5071,34.1559,185.9808,45.5087,284.78479,32.8294a5.20388,5.20388,0,0,1,1.6305,10.2745Z" class="b"/><path d="M770.45642,1400.1889c-.5314-5.0692-4.227-9.3296-9.6759-11.0462-35.64089-11.2281-135.29979-56.379-183.35389-49.9198-31.16093,4.189-81.5849,47.3791-76.006,89.1952,3.2225,42.0636,61.5131,73.8463,92.8644,71.4759,48.3486-3.6554,136.46469-68.509,168.99939-86.8906C768.25842,1410.1932,770.98863,1405.2586,770.45642,1400.1889Z" class="f"/><path d="M757.62663,1406.7502c-.13951.0262-.27991.0484-.42581.0632L515.765,1432.1469a5.20443,5.20443,0,0,1-1.0845-10.3522l241.43169-25.3324a5.20382,5.20382,0,0,1,1.51441,10.2879Z" class="b"/><path d="M86.38623,1049.3122c-.4957,5.0725,2.2699,9.9882,7.2639,12.7627,32.6644,18.1492,121.2415,82.3725,169.6144,85.6834,31.3673,2.147,89.4302-30.0508,92.352-72.1365,5.2811-41.8554-45.4501-84.6842-76.6398-88.6509-48.099-6.1166-147.4331,39.7441-182.9931,51.226C90.54673,1039.9525,86.88193,1044.2395,86.38623,1049.3122Z" class="f"/><path d="M342.77233,1079.386a5.1593,5.1593,0,0,1-1.4753.0643l-241.6062-23.6108a5.2034,5.2034,0,1,1,1.0138-10.3573l241.6066,23.6106a5.20456,5.20456,0,0,1,.4611,10.2932Z" class="b"/><path d="M205.07223,1574.5582c1.4585,4.8842,5.8766,8.389,11.5488,9.0706,37.1012,4.4562,143.3818,30.4364,189.4178,15.218,29.852-9.8682,71.4376-61.6231,58.2355-101.6912-10.9306-40.7464-74.0859-61.2235-104.4613-53.1069-46.8426,12.5168-121.4744,92.5204-150.0568,116.5912C205.38623,1564.32,203.61373,1569.6739,205.07223,1574.5582Z" class="f"/><path d="M219.328,1575.6997a5.20473,5.20473,0,0,1-2.4482-10.1028l232.6094-69.4587a5.20586,5.20586,0,0,1,2.9768,9.9771l-232.6091,69.4589C219.68163,1575.6243,219.50453,1575.6666,219.328,1575.6997Z" class="b"/><path d="M686.36392,793.8308c-4.0316-3.1189-9.66509-3.3921-14.67129-.6399-32.7458,18.0015-134.25133,58.8327-162.7905,98.0299-18.5063,25.4175-22.1352,91.7103,11.945,116.5758,32.63,26.7395,95.8849,6.5712,115.8372-17.7277,30.7696-37.4722,44.7877-145.98,53.98509-182.1987C692.07532,802.3332,690.39532,796.9493,686.36392,793.8308Z" class="f"/><path d="M530.30523,1001.9314a5.203,5.203,0,0,1-5.0817-8.2959l148.5349-192.0117a5.20337,5.20337,0,1,1,8.23189,6.3668l-148.535,192.0115A5.186,5.186,0,0,1,530.30523,1001.9314Z" class="b"/><path d="M.27563,756.1353c-1.1315,6.75,1.2666,15.1017,6.35,21.47,27.4954,47.5326,146.8183,152.4998,209.1336,147.5991,38.9673,1.2728,87.6161-42.3144,78.2017-84.1688-7.1123-40.8589-60.2663-83.1889-91.0035-94.5647-47.843-12.7795-153.3267,4.1416-191.4494-.4302C5.75993,745.5184,1.405,749.3728.27563,756.1353Z" class="g"/><path d="M279.81513,846.3579a5.15818,5.15818,0,0,1-.9747.0911,505.4904,505.4904,0,0,1-267.2019-76.7846,5.203,5.203,0,1,1,5.5005-8.8334,495.08886,495.08886,0,0,0,261.7066,75.2085,5.20506,5.20506,0,0,1,.9695,10.3184Z" class="h"/><path d="M38.56743,1293.8019c-.6526,6.8124,2.3287,14.9745,7.8492,20.9684,30.7812,45.4733,157.2153,141.7569,219.0294,132.4701,38.9599-1.4802,84.4112-48.3922,72.0664-89.4785-9.9788-40.2546-65.9879-78.7272-97.4508-87.9055-48.6259-9.3712-152.6529,14.953-191.0027,13.0835C43.28823,1282.8244,39.21583,1286.9769,38.56743,1293.8019Z" class="g"/><path d="M323.418,1364.1516a4.99622,4.99622,0,0,1-.6084.077,505.45548,505.45548,0,0,1-271.9541-57.7334,5.20492,5.20492,0,0,1,4.8661-9.2025,495.06065,495.06065,0,0,0,266.3595,56.5549,5.2043,5.2043,0,0,1,1.3369,10.304Z" class="h"/><path d="M551.73988,1292.0697l74.99235-136.8961c55.7484-101.7666,151.27519-167.9506,266.56669-184.6858l158.2171-22.9661-67.5186,131.4432c-56.4985,109.9908-158.302,180.5641-281.5917,195.2086Z" class="f"/><path d="M612.15893,1310.245l-103.5457-116.8013c-76.975-86.8287-107.0282-199.0898-83.8628-313.2629l31.79-156.6827,100.9363,107.9255c84.4626,90.3113,116.5288,209.9621,88.6954,330.9581Z" class="e"/><path d="M614.56753,1275.7126l-147.5657,50.8792c-109.6985,37.8234-224.9058,22.5606-321.4848-42.5902l-132.538-89.408,138.3675-51.8704c115.7846-43.4048,238.5888-27.1694,339.6813,44.9077Z" class="e"/><path d="M616.58393,1275.1999l-62.6333,142.9734c-46.5612,106.2846-135.8823,180.6314-249.2496,207.4638L149.12413,1662.46l55.6695-136.883c46.5835-114.5426,141.7699-193.8148,263.2884-219.2699Z" class="a"/><path d="M612.86033,1313.6126l-135.8897-76.8001c-101.0187-57.0926-165.9308-153.4884-181.1361-268.9911l-20.8668-158.5077,130.5365,69.2547c109.2322,57.9518,178.4499,160.6818,191.4586,284.1547Z" class="a"/><path d="M562.53343,1272.2404l141.97479,13.8807c105.5426,10.3186,190.6429,69.6558,237.4717,165.5798l64.26471,131.6386-135.07391-9.3436c-113.0288-7.8188-203.75669-71.0391-250.95679-174.8696Z" class="f"/><path d="M588.36753,1247.4378l105.24279,115.2747c78.2364,85.6939,109.9276,197.5035,88.4345,312.003l-29.4956,157.1309-102.50349-106.438c-85.7745-89.0666-119.5867-208.2355-93.5259-329.6258Z" class="e"/><path d="M564.54543,1270.1051,708.12,1208.8627c106.73161-45.5268,222.73261-38.4941,323.6993,19.6252l138.55949,79.7582-134.32949,61.5769c-112.40569,51.5274-236.0533,44.0643-342.0144-20.6428Z" class="e"/><rect width="1145.022" height="1462.655" x="565.056" y="417.36" class="f"/><rect width="1145.022" height="110.242" x="565.056" y="417.36" class="i"/><path d="M679.51393,447.556h705.56438a24.92535,24.92535,0,0,1,0,49.8507H679.51393a24.92535,24.92535,0,0,1,0-49.8507Z" class="b"/><circle cx="1575.073" cy="472.481" r="25.22" class="f" transform="matrix(0.80668, -0.59098, 0.59098, 0.80668, 25.25979, 1022.18365)"/><circle cx="1496.492" cy="472.481" r="25.22" class="e" transform="translate(11.80813 980.85201) rotate(-36.42398)"/><circle cx="1653.655" cy="472.481" r="25.221" class="a" transform="translate(-30.72261 819.87965) rotate(-27.59936)"/><circle cx="856.777" cy="867.451" r="227.501" class="a" transform="translate(-362.4365 859.90319) rotate(-45)"/><g class="j"><rect width="66.552" height="98.748" x="823.5" y="944.826" class="k"/><path d="M890.05152,953.3581s-33.2748,22.3755-66.5518-.6841v-7.3125h66.5518Z" class="l"/><path d="M856.77532,736.0157c-32.3125,0-83.4116,18.3689-83.4116,104.4438a184.08621,184.08621,0,0,0,5.08991,41.9074c7.98439,33.9652,32.76909,61.792,65.89709,72.739.0483.0155.0966.0309.1436.0469a39.38691,39.38691,0,0,0,21.28631.8948c1.204-.2837,2.379-.5989,3.41919-.9417,33.1281-10.9483,57.9114-38.7732,65.8972-72.7363a184.02669,184.02669,0,0,0,5.09-41.9101C940.187,754.3846,889.08782,736.0157,856.77532,736.0157Z" class="k"/><path d="M943.98772,838.7721c6.6875,1.3863,10.4058,10.7143,8.3074,20.8363-2.0994,10.1194-9.2221,17.1998-15.9089,15.8122-6.6861-1.3876-10.4064-10.7156-8.3072-20.835C930.17822,844.4649,937.30232,837.3845,943.98772,838.7721Z" class="k"/><path d="M944.58732,846.6903c4.9712,1.0308,4.88731,11.24-2.5956,12.5144-8.1857,1.3943,2.37491,13.5445-2.5955,12.5143-4.9698-1.0308-7.8377-7.4694-6.4045-14.3815C934.42642,850.426,939.61772,845.6594,944.58732,846.6903Z" class="l"/><path d="M769.56292,838.7721c-6.6862,1.3863-10.4045,10.7143-8.3059,20.8363,2.0992,10.1194,9.222,17.1998,15.9075,15.8122,6.6874-1.3876,10.4057-10.7156,8.30711-20.835C783.37232,844.4649,776.24963,837.3845,769.56292,838.7721Z" class="k"/><path d="M768.96322,846.6903c-4.971,1.0308-4.8873,11.24,2.5956,12.5144,8.1871,1.3943-2.37419,13.5445,2.5956,12.5143,4.9711-1.0308,7.839-7.4694,6.4044-14.3815C779.12552,850.426,773.93442,845.6594,768.96322,846.6903Z" class="l"/><path d="M908.55052,982.967c-10.5124-4.5191-18.499-7.3151-18.499-7.3151a42.87655,42.87655,0,0,1-66.5518,0s-8.0013,2.8014-18.5312,7.3292a93.43344,93.43344,0,0,0-55.94889,74.4352c-3.27361,27.0482-4.35341,53.3406-4.35341,53.3406h224.2196s-1.0524-25.6593-4.2335-52.3554A94.08565,94.08565,0,0,0,908.55052,982.967Z" class="e"/><path d="M940.19232,1005.3292c-19.1535,29.6438-24.2755,66.3279-12.8793,99.7295l1.943,5.6982H853.57l36.4815-135.105C929.79122,989.3427,940.19232,1005.3292,940.19232,1005.3292Z" class="i"/><path d="M773.36372,1005.2319a115.327,115.327,0,0,1,12.2822,99.8268l-1.9429,5.6982h75.686l-35.8893-135.105C787.98472,987.2253,773.36372,1005.2319,773.36372,1005.2319Z" class="i"/><path d="M773.23352,838.8291c14.2448-15.1059,31.008-22.8665,50.2662-21.0369,84.4586,8.0201,35.8893-48.1232,80.00191-34.8745,26.87589,8.0724,11.839,33.1449,33.48279,54.3977l3.1958,1.5137,2.8968-12.3983a86.44551,86.44551,0,0,0-48.7511-96.0717,87.74881,87.74881,0,0,0-79.735,3.4802l-.1025.0577a86.44752,86.44752,0,0,0-43.391,83.7451Z" class="m"/></g><rect width="483.416" height="132.768" x="1156.55" y="639.95" class="i"/><rect width="379.562" height="27.969" x="1156.55" y="839.482" class="b"/><rect width="454.517" height="27.969" x="1156.55" y="897.445" class="b"/><rect width="298.728" height="27.969" x="1156.55" y="955.408" class="b"/><rect width="418.249" height="27.969" x="1156.55" y="1013.371" class="b"/><rect width="379.562" height="27.969" x="640.551" y="1165.599" class="b"/><rect width="454.517" height="27.969" x="640.551" y="1223.563" class="b"/><rect width="298.728" height="27.969" x="640.551" y="1281.526" class="b"/><rect width="418.248" height="27.969" x="640.551" y="1339.489" class="b"/><rect width="483.416" height="251.108" x="1156.55" y="1116.35" class="e"/><rect width="1010.906" height="251.108" x="640.551" y="1431.225" class="i"/><rect width="916.6" height="21.431" x="687.704" y="1506.234" class="b"/><rect width="698.334" height="21.431" x="687.704" y="1551.833" class="b"/><rect width="841.759" height="21.431" x="687.704" y="1597.432" class="b"/><rect width="18.684" height="37.367" x="662.321" y="1453.206" class="b"/><rect width="18.684" height="37.367" x="688.285" y="1453.206" class="b"/><rect width="18.684" height="37.367" x="1552.474" y="1626.904" class="b"/><rect width="18.684" height="37.367" x="1578.439" y="1626.904" class="b"/><rect width="471.827" height="111.278" x="640.551" y="1702.413" class="e"/><rect width="276.533" height="111.278" x="1129.761" y="1702.413" class="b"/><rect width="233.198" height="111.278" x="1418.259" y="1702.413" class="g"/><path d="M3479.539,1422.2804a10.55252,10.55252,0,0,1-5.7306-10.2261l12.4367-159.3729a242.31977,242.31977,0,0,1,109.0411-183.3292,220.18437,220.18437,0,0,0,99.7753-197.3027l-1.5426-26.1778a10.55005,10.55005,0,0,1,21.0635-1.2423l1.5428,26.1779a241.31606,241.31606,0,0,1-109.3542,216.2453,221.09991,221.09991,0,0,0-99.4901,167.2721l-12.4365,159.3727a10.55628,10.55628,0,0,1-15.3054,8.583Z" class="f"/><path d="M3690.99693,961.8984a150.17212,150.17212,0,0,1-75.1276-87.9779l-3.2635-10.0442a10.55011,10.55011,0,1,1,20.0676-6.52l3.2633,10.0442a129.20968,129.20968,0,0,0,64.6415,75.698,10.55033,10.55033,0,0,1-9.5813,18.7999Z" class="f"/><path d="M3678.75983,993.3282a10.55182,10.55182,0,0,1-.4417-18.5526l100.0925-57.3082a10.54975,10.54975,0,1,1,10.4826,18.3113l-100.0906,57.3094A10.54259,10.54259,0,0,1,3678.75983,993.3282Z" class="f"/><path d="M3642.86133,1047.5936a10.5521,10.5521,0,0,1,4.9917-19.9539l30.1578.5915a78.03683,78.03683,0,0,1,72.7747,54.1781,10.55106,10.55106,0,0,1-20.0935,6.446,56.92739,56.92739,0,0,0-53.0944-39.5284l-30.158-.5914A10.50483,10.50483,0,0,1,3642.86133,1047.5936Z" class="f"/><path d="M3626.83213,1063.7283l-69.5718-35.4574a10.55026,10.55026,0,0,1,9.5814-18.7997l69.5719,35.4575a10.55024,10.55024,0,1,1-9.5815,18.7996Z" class="f"/><path d="M3620.98923,1181.569a84.93139,84.93139,0,0,1-45.7035-84.7636l1.0979-9.7267a10.55043,10.55043,0,0,1,20.9678,2.3659l-1.0977,9.7267a63.63992,63.63992,0,0,0,42.9305,67.2031,10.55029,10.55029,0,0,1-6.665,20.0203A83.488,83.488,0,0,1,3620.98923,1181.569Z" class="f"/><path d="M3485.137,1214.1927a95.18784,95.18784,0,0,1-50.9887-71.4328l-1.5423-10.9957a10.5502,10.5502,0,1,1,20.8957-2.932l1.5424,10.9955a73.99056,73.99056,0,0,0,52.2395,60.5715,10.54958,10.54958,0,1,1-5.9688,20.2373A94.43454,94.43454,0,0,1,3485.137,1214.1927Z" class="n"/><path d="M3573.74893,1318.7666a10.51,10.51,0,0,1-4.0929-3.7223l-4.2115-6.5987a68.56238,68.56238,0,0,0-68.1456-30.8737,10.54958,10.54958,0,1,1-3.1986-20.8553,89.67845,89.67845,0,0,1,89.1323,40.3788l4.2114,6.5987a10.55224,10.55224,0,0,1-13.6951,15.0725Z" class="n"/><path d="M3688.85263,686.1755a8.179,8.179,0,0,0-6.9304,5.8314c-7.3617,21.8409-36.4279,82.7431-33.0341,112.4558,2.2007,19.2673,28.2156,50.8923,54.0707,47.9648,25.9787-1.4707,46.2938-37.0267,45.2167-56.3892-1.6609-29.8595-40.5728-84.994-51.5086-105.2824A8.17944,8.17944,0,0,0,3688.85263,686.1755Z" class="e"/><path d="M3700.77913,846.7603a3.20629,3.20629,0,0,1-1.7425-2.5907l-12.6587-149.1937a3.2096,3.2096,0,1,1,6.3963-.5418l12.6584,149.1937a3.21112,3.21112,0,0,1-4.6535,3.1325Z" class="b"/><path d="M3860.37483,796.8964c-3.0673-.9864-6.7258.5726-9.5535,3.9324-18.3724,26.0902-80.65,63.3828-98.5397,80.5265-10.6148,13.3627-20.1029,52.3395-7.2377,76.994,11.9333,26.2721,58.0213,20.4112,77.1798-.9842,32.4932-31.1454,45.119-123.6063,42.8798-151.5427C3865.31093,801.2947,3863.43813,797.877,3860.37483,796.8964Z" class="o"/><path d="M3751.04623,955.2031a3.21173,3.21173,0,0,1-.5873-5.3311c44.6147-36.9637,80.2142-86.6715,102.9551-143.7486a3.21,3.21,0,1,1,5.9635,2.3774c-23.1352,58.0725-59.3832,108.6673-104.8234,146.3146A3.20861,3.20861,0,0,1,3751.04623,955.2031Z" class="g"/><path d="M3748.98423,1274.8115c1.4371-2.8833.4474-6.735-2.4478-10.0369-23.0233-22.0947-50.5039-89.2816-64.7554-109.5505-11.6104-12.5074-48.7119-27.7618-75.0235-18.7593-27.7707,7.8375-28.9229,54.2821-10.6592,76.4466,25.8926,36.8162,115.3944,63.2328,143.3492,65.2295C3743.89223,1279.0286,3747.553,1277.6921,3748.98423,1274.8115Z" class="o"/><path d="M3737.83173,1272.1688c-.0574-.0292-.1142-.0596-.1698-.0922-53.92-31.6233-98.4749-75.082-128.8444-125.6783a3.20966,3.20966,0,0,1,5.504-3.3036c29.8191,49.6766,73.5913,92.3624,126.59,123.4452a3.20963,3.20963,0,0,1-3.0798,5.6289Z" class="g"/><path d="M3676.924,1356.4196a8.17908,8.17908,0,0,0-.5549-9.0405c-13.1572-18.9235-44.7588-78.5496-70.6455-93.5241-16.7864-9.7102-57.685-7.654-70.736,14.8563-14.2946,21.7425,2.1622,59.2403,18.3557,69.9097,24.9726,16.4539,92.4366,18.0441,115.2471,21.3464A8.17855,8.17855,0,0,0,3676.924,1356.4196Z" class="o"/><path d="M3668.18833,1354.7818c-.078-.0398-.155-.082-.2316-.1297L3540.581,1275.942a3.21006,3.21006,0,0,1,3.3757-5.461l127.3733,78.7091a3.20966,3.20966,0,0,1-3.1417,5.5917Z" class="g"/><path d="M3475.45623,927.153a8.1798,8.1798,0,0,0-1.2694,8.9683c9.0939,21.1779,28.0933,85.9311,50.4502,105.7937,14.4972,12.8799,54.9771,19.0696,72.2782-.3659,18.3654-18.4331,9.7644-58.4699-3.9597-72.1707-21.1648-21.1285-86.9387-36.2187-108.6229-44.0294A8.18,8.18,0,0,0,3475.45623,927.153Z" class="e"/><path d="M3589.22733,1038.541a3.18055,3.18055,0,0,1-.7442-.5251l-108.9965-102.659a3.20939,3.20939,0,1,1,4.4017-4.6718l108.9967,102.659a3.2101,3.2101,0,0,1-3.6577,5.1969Z" class="b"/><path d="M3335.24483,1228.2405a8.17944,8.17944,0,0,0,2.2142,8.7828c16.4244,16.1697,58.4887,68.9384,86.6946,78.8772,18.2902,6.445,58.1064-3.1246,66.7779-27.6576,10.036-24.0073-13.0592-57.8229-30.9439-65.3201-27.5806-11.5615-94.1791-.6722-117.2067.2926A8.17955,8.17955,0,0,0,3335.24483,1228.2405Z" class="o"/><path d="M3341.771,1234.1751a3.21026,3.21026,0,0,1,2.6162-5.8537l139.713,53.8478a3.21093,3.21093,0,0,1-2.3108,5.9917l-139.713-53.8475C3341.972,1234.2717,3341.86963,1234.2254,3341.771,1234.1751Z" class="g"/><path d="M3864.61363,1028.7986a8.17923,8.17923,0,0,0-6.9181-5.8464c-22.7702-3.5675-87.7065-21.9313-116.4193-13.5687-18.6188,5.4229-45.3961,36.4046-38.1447,61.3945,5.8368,25.3571,44.3126,39.3757,63.2151,35.0442,29.1505-6.6796,76.9218-54.3431,95.0723-68.5483A8.18019,8.18019,0,0,0,3864.61363,1028.7986Z" class="e"/><path d="M3709.95943,1071.4835a3.20931,3.20931,0,0,1,.6495-5.9655l144.9137-37.6713a3.20937,3.20937,0,0,1,1.6156,6.2121l-144.9138,37.6715A3.20006,3.20006,0,0,1,3709.95943,1071.4835Z" class="b"/><path d="M3544.02483,751.6019c-3.0982,2.8671-5.0783,7.8473-4.9999,12.8725-4.5123,33.5674,14.1216,129.801,46.3798,150.9158,18.536,15.3201,58.718,12.4006,69.9119-11.5754,11.9417-22.6219,1.97-63.3288-8.7385-80.4749-18.5266-24.2834-76.3849-55.8155-93.264-72.4272C3550.70593,748.4897,3547.127,748.7278,3544.02483,751.6019Z" class="o"/><path d="M3646.40573,901.0762a3.20286,3.20286,0,0,1-.5101-.3233,311.78267,311.78267,0,0,1-101.4291-138.2628,3.20912,3.20912,0,1,1,6.0163-2.2356,305.36819,305.36819,0,0,0,99.3421,135.4207,3.21044,3.21044,0,0,1-3.4192,5.401Z" class="g"/><path d="M3359.89623,1028.425c-2.8883,3.0783-4.5122,8.1859-4.0792,13.1932-2.1321,33.8019,23.2478,128.4804,56.916,147.2657,19.5706,13.9737,59.4463,8.2258,68.9203-16.4807,10.315-23.4083-2.5046-63.31-14.3964-79.6573-20.1942-22.9154-80.1342-50.2857-98.1435-65.6639C3366.34073,1024.8487,3362.78713,1025.339,3359.89623,1028.425Z" class="o"/><path d="M3472.36513,1170.2047a3.09638,3.09638,0,0,1-.3259-.1919,311.7612,311.7612,0,0,1-110.9346-130.7583,3.21032,3.21032,0,0,1,5.8459-2.6552,305.35128,305.35128,0,0,0,108.6491,128.0728,3.21,3.21,0,0,1-3.2345,5.5326Z" class="g"/><path d="M3512.79083,1517.3078l-71.4358-97.1965c-53.1044-72.2545-68.3043-160.7671-42.415-246.9933l35.5283-118.3303,70.0541,90.1818c58.6209,75.4633,74.8481,169.8048,44.8848,260.952Z" class="h"/><path d="M3545.23473,1480.9113l-115.6053,34.4326c-85.9395,25.5971-174.3877,10.0264-246.8132-43.45l-99.3916-73.3866,108.536-35.5005c90.822-29.7062,185.1037-13.1348,260.7861,45.8376Z" class="a"/><path d="M3521.82883,1467.958,3509.33,1587.9329c-9.2914,89.1879-57.5691,164.9162-134.718,211.319l-105.8734,63.6797,8.8038-113.8545c7.3669-95.2724,58.8043-176.0053,142.2778-223.3103Z" class="a"/><path d="M3522.12773,1466.3782l79.7252,90.5212c59.2667,67.2925,82.2095,154.1207,64.0215,242.2931l-24.9598,121.0013-77.7306-83.6559c-65.0444-70.0022-89.524-162.5461-67.7119-255.9794Z" class="h"/><path d="M3547.82273,1481.5185l-98.1346,70.1411c-72.9523,52.142-161.6588,66.1671-247.5338,39.1373l-117.8489-37.0937,91.1022-68.8526c76.2339-57.6154,170.7821-72.5905,261.5242-41.4217Z" class="a"/><path d="M3520.72593,1492.8055l56.0421-94.9308c41.661-70.5706,110.9927-110.8287,193.4688-112.3399l113.1843-2.074-50.6125,91.5767c-42.352,76.6305-116.2397,119.5641-204.3759,118.756Z" class="h"/><path d="M3493.47373,1477.0878l115.0895-36.1197c85.556-26.8507,174.2223-12.5749,247.4222,39.8364l100.454,71.9255-108.0052,37.0836c-90.3779,31.0314-184.8918,15.8402-261.4287-42.0188Z" class="a"/><path d="M3501.58133,1501.1713l3.9373-120.5598c2.9268-89.6229,45.6978-168.5921,119.3524-220.3625l101.0779-71.0462-.6867,114.1923c-.5743,95.5551-46.1415,179.7408-126.0405,232.8608Z" class="a"/><rect width="1145.022" height="1462.655" x="2328.741" y="417.36" class="f"/><rect width="1145.022" height="110.242" x="2328.741" y="417.36" class="e"/><path d="M2443.199,447.556h705.5643a24.92535,24.92535,0,0,1,0,49.8507H2443.199a24.92535,24.92535,0,0,1,0-49.8507Z" class="b"/><circle cx="3338.758" cy="472.481" r="25.22" class="f" transform="translate(366.21086 2064.495) rotate(-36.22694)"/><circle cx="3260.177" cy="472.481" r="25.221" class="e" transform="translate(152.08559 1564.1592) rotate(-27.59936)"/><circle cx="3417.34" cy="472.481" r="25.22" class="a" transform="translate(381.40201 2110.93541) rotate(-36.22694)"/><rect width="483.416" height="132.768" x="2920.235" y="639.95" class="i"/><rect width="379.562" height="27.969" x="2920.235" y="839.482" class="b"/><rect width="454.517" height="27.969" x="2920.235" y="897.445" class="b"/><rect width="298.728" height="27.969" x="2920.235" y="955.408" class="b"/><rect width="418.248" height="27.969" x="2920.235" y="1013.371" class="b"/><rect width="379.562" height="27.969" x="2404.236" y="1165.599" class="b"/><rect width="454.517" height="27.969" x="2404.236" y="1223.563" class="b"/><rect width="298.728" height="27.969" x="2404.236" y="1281.526" class="b"/><rect width="418.248" height="27.969" x="2404.236" y="1339.489" class="b"/><rect width="483.416" height="251.108" x="2920.235" y="1116.35" class="e"/><rect width="1010.906" height="251.108" x="2404.236" y="1431.225" class="a"/><rect width="916.6" height="21.431" x="2451.389" y="1506.234" class="b"/><rect width="698.335" height="21.431" x="2451.389" y="1551.833" class="b"/><rect width="841.759" height="21.431" x="2451.389" y="1597.432" class="b"/><rect width="18.684" height="37.367" x="2426.006" y="1453.206" class="b"/><rect width="18.684" height="37.367" x="2451.97" y="1453.206" class="b"/><rect width="18.684" height="37.367" x="3316.159" y="1626.904" class="b"/><rect width="18.684" height="37.367" x="3342.124" y="1626.904" class="b"/><rect width="471.827" height="111.278" x="2404.236" y="1702.413" class="e"/><rect width="276.534" height="111.278" x="2893.446" y="1702.413" class="b"/><rect width="233.198" height="111.278" x="3181.944" y="1702.413" class="g"/><circle cx="2620.462" cy="867.451" r="227.501" class="b" transform="translate(154.13494 2107.01696) rotate(-45)"/><g class="p"><path d="M2673.32213,1035.7156h-102.8515c-19.4541,0-35.2261-20.7537-35.2261-46.3565V801.7505h173.3037V989.3591C2708.54823,1014.9619,2692.77753,1035.7156,2673.32213,1035.7156Z" class="m"/><rect width="66.552" height="98.747" x="2587.186" y="944.827" class="q"/><path d="M2653.73793,953.3572s-33.2758,22.377-66.5523-.6827v-7.3124h66.5523Z" class="r"/><path d="M2620.46133,736.0151c-32.3139,0-83.4122,18.3689-83.4122,104.4442a184.09792,184.09792,0,0,0,5.0897,41.9079c7.9848,33.9648,32.7687,61.7922,65.8981,72.7374.0483.0157.0948.0327.1431.0483a39.38964,39.38964,0,0,0,21.2863.8952c1.2038-.284,2.3793-.5992,3.4193-.9435,33.1282-10.9466,57.9115-38.7713,65.8977-72.7347a184.12229,184.12229,0,0,0,5.0896-41.9106C2703.87293,754.384,2652.77343,736.0151,2620.46133,736.0151Z" class="q"/><path d="M2707.67393,838.7718c6.6868,1.3865,10.4061,10.715,8.3068,20.8353-2.0993,10.1207-9.2216,17.2001-15.9088,15.8135-6.6872-1.3861-10.4059-10.7159-8.3067-20.8366C2693.86443,844.4646,2700.98663,837.3844,2707.67393,838.7718Z" class="q"/><path d="M2708.27323,846.6904c4.9711,1.0306,4.888,11.2399-2.5956,12.5143-8.1856,1.3941,2.3756,13.5448-2.5956,12.5142-4.9707-1.0307-7.8378-7.4688-6.4042-14.3815C2698.11133,850.4262,2703.30343,845.6598,2708.27323,846.6904Z" class="r"/><path d="M2533.24823,838.7718c-6.6869,1.3865-10.4047,10.715-8.3055,20.8353,2.0993,10.1207,9.2216,17.2001,15.9075,15.8135,6.6872-1.3861,10.406-10.7159,8.3068-20.8366C2547.05763,844.4646,2539.93533,837.3844,2533.24823,838.7718Z" class="q"/><path d="M2532.649,846.6904c-4.9712,1.0306-4.8876,11.2399,2.5955,12.5143,8.1856,1.3941-2.3742,13.5448,2.5957,12.5142,4.971-1.0307,7.839-7.4688,6.4041-14.3815C2542.81123,850.4262,2537.62013,845.6598,2532.649,846.6904Z" class="r"/><path d="M2672.23693,982.9674c-10.5142-4.5192-18.499-7.3141-18.499-7.3141a42.87752,42.87752,0,0,1-66.5523,0s-8.0018,2.8004-18.5317,7.3284a93.43276,93.43276,0,0,0-55.9491,74.4351c-3.2734,27.0473-4.3533,53.3397-4.3533,53.3397h224.2208s-1.0544-25.658-4.2352-52.3555A94.07994,94.07994,0,0,0,2672.23693,982.9674Z" class="g"/><path d="M2536.919,838.829c14.2446-15.1057,86.1558-69.1604,130.2684-55.9116,26.8751,8.0726,11.8396,33.1453,33.4828,54.3977l3.1961,1.5139,2.8968-12.398a86.445,86.445,0,0,0-48.7516-96.072,87.748,87.748,0,0,0-79.7359,3.4804l-.1014.0572a86.44693,86.44693,0,0,0-43.3911,83.7453Z" class="m"/><path d="M2728.21993,1057.4168c3.2721,27.0473,4.3524,53.3397,4.3524,53.3397h-37.5248V996.9593A93.07736,93.07736,0,0,1,2728.21993,1057.4168Z" class="q"/><path d="M2512.70483,1057.4168c-3.2734,27.0473-4.3533,53.3397-4.3533,53.3397h37.5257V996.9593A93.07736,93.07736,0,0,0,2512.70483,1057.4168Z" class="q"/></g><rect width="1145.022" height="1462.655" x="1407.513" y="501.875" class="a"/><rect width="1145.022" height="110.242" x="1407.513" y="501.875" class="i"/><path d="M1521.9718,532.0706h705.56433a24.92535,24.92535,0,0,1,0,49.8507H1521.9718a24.92535,24.92535,0,1,1,0-49.8507Z" class="b"/><circle cx="2417.531" cy="556.996" r="25.22" class="f" transform="translate(138.17472 1536.40172) rotate(-36.22694)"/><circle cx="2338.95" cy="556.996" r="25.22" class="e"/><circle cx="2496.113" cy="556.996" r="25.22" class="a"/><rect width="483.416" height="132.768" x="1999.008" y="724.465" class="i"/><rect width="379.562" height="27.969" x="1999.008" y="923.996" class="b"/><rect width="454.517" height="27.969" x="1999.008" y="981.959" class="b"/><rect width="298.728" height="27.969" x="1999.008" y="1039.922" class="b"/><rect width="418.249" height="27.969" x="1999.008" y="1097.886" class="b"/><rect width="379.562" height="27.969" x="1483.009" y="1250.114" class="b"/><rect width="454.517" height="27.969" x="1483.009" y="1308.077" class="b"/><rect width="298.728" height="27.969" x="1483.009" y="1366.04" class="b"/><rect width="418.248" height="27.969" x="1483.009" y="1424.003" class="b"/><rect width="483.416" height="251.108" x="1999.008" y="1200.864" class="e"/><rect width="1010.906" height="251.108" x="1483.009" y="1515.739" class="f"/><rect width="916.6" height="21.431" x="1530.162" y="1590.749" class="b"/><rect width="698.335" height="21.431" x="1530.162" y="1636.348" class="b"/><rect width="841.759" height="21.431" x="1530.162" y="1681.947" class="b"/><rect width="18.684" height="37.367" x="1504.778" y="1537.72" class="b"/><rect width="18.684" height="37.367" x="1530.743" y="1537.72" class="b"/><rect width="18.684" height="37.367" x="2394.932" y="1711.418" class="b"/><rect width="18.684" height="37.367" x="2420.897" y="1711.418" class="b"/><rect width="471.827" height="111.278" x="1483.009" y="1786.928" class="e"/><rect width="276.534" height="111.278" x="1972.219" y="1786.928" class="b"/><rect width="233.198" height="111.278" x="2260.717" y="1786.928" class="g"/><circle cx="1699.234" cy="951.966" r="227.501" class="b" transform="translate(-175.44727 1480.36428) rotate(-45)"/><g class="s"><path d="M1770.10013,1154.5965h-146.2552c-43.1364,0-4.9789-108.0962-4.9789-151.2337V928.7762a48.13352,48.13352,0,0,1,48.1339-48.1335h59.9469a48.13446,48.13446,0,0,1,48.1338,48.1335v74.5866C1775.08063,1046.5003,1813.23813,1154.5965,1770.10013,1154.5965Z" class="m"/><polygon points="1732.511 1182.354 1665.957 1200.554 1665.957 1047.207 1732.511 1047.207 1732.511 1182.354" class="k"/><path d="M1732.51073,1055.7375s-33.2767,22.3758-66.5534-.6827v-7.3127h66.5534Z" class="l"/><path d="M1699.23283,838.3943c-32.3138.0016-83.4103,18.3692-83.4103,104.4454a184.09462,184.09462,0,0,0,5.0884,41.908c7.9849,33.9646,32.7694,61.792,65.8976,72.7374.0482.0155.0965.0327.1432.0467a39.37207,39.37207,0,0,0,21.2877.8953c1.2024-.2827,2.3777-.5981,3.419-.942,33.1267-10.947,57.9117-38.7717,65.8967-72.7363a184.04409,184.04409,0,0,0,5.0893-41.9091C1782.64443,856.7635,1731.54533,838.3959,1699.23283,838.3943Z" class="k"/><path d="M1786.44683,941.1512c6.686,1.3876,10.4044,10.7157,8.3054,20.8363-2.0993,10.1207-9.2216,17.1999-15.9086,15.8138-6.6871-1.3876-10.4044-10.7161-8.3057-20.8368C1772.63743,946.8439,1779.75953,939.7646,1786.44683,941.1512Z" class="k"/><path d="M1787.04493,949.0693c4.9709,1.0323,4.8876,11.2416-2.5959,12.5156-8.1851,1.3929,2.3754,13.5449-2.5951,12.5141-4.9713-1.0317-7.8382-7.4698-6.4044-14.381C1776.88263,952.8068,1782.07543,948.0385,1787.04493,949.0693Z" class="l"/><path d="M1612.02023,941.1512c-6.6861,1.3876-10.4049,10.7157-8.3056,20.8363s9.2216,17.1999,15.9088,15.8138c6.6854-1.3876,10.4043-10.7161,8.3055-20.8368C1625.82963,946.8439,1618.70723,939.7646,1612.02023,941.1512Z" class="k"/><path d="M1611.42053,949.0693c-4.9696,1.0323-4.8876,11.2416,2.5974,12.5156,8.1852,1.3929-2.3759,13.5449,2.5952,12.5141,4.971-1.0317,7.8376-7.4698,6.4043-14.381S1616.39163,948.0385,1611.42053,949.0693Z" class="l"/><path d="M1751.02043,1085.3513c-10.5196-4.5213-17.3202-12.1505-18.5097-7.3189-33.2767,135.104-33.2767,135.104-66.5534,0-1.1905-4.8368-8.0016,2.8012-18.5315,7.3282a93.43776,93.43776,0,0,0-55.9493,74.4362c-3.2733,27.0472-4.3533,53.3396-4.3533,53.3396h224.2216s-1.0541-25.6668-4.237-52.3685A94.06409,94.06409,0,0,0,1751.02043,1085.3513Z" class="g"/><path d="M1781.93573,916.9084c-.7625-46.419-20.2126-82.4492-43.0441-79.7128-.2034.0249-.4065.0482-.6109.0747-17.0385,2.0469-35.4778,25.3435-41.4401,57.3784-5.6346-35.0943-22.7132-59.7304-42.2401-57.4531-.2101.0249-.4188.0482-.6282.0747-20.2843,2.3711-36.6709,33.5957-38.6167,73.5839l-1.4876,30.6108c-.2568,3.4596,14.3893-63.6111,37.1828-39.7422,22.8251,23.9015,27.155-8.7434,35.9726,12.3149,6.3758,15.2287,26.2233.3807,48.4125,24.249,22.2207,23.9016,26.4371-8.7428,35.0202,12.3149,6.2078,15.2288,11.9969-7.4688,11.8863-9.0047Z" class="m"/><path d="M1782.33953,941.5969l-.8208-24.6885a82.51652,82.51652,0,0,0-87.2594-79.7128c-.4145.0249-.8274.0498-1.2409.0747a81.45,81.45,0,0,0-76.2098,73.5839l-2.9381,30.6108c-.5068,3.4596,28.3995-63.6111,73.3835-39.7422,45.0455,23.9015,53.5923-8.7434,70.9915,12.3165C1770.82853,929.2664,1782.565,943.1328,1782.33953,941.5969Z" class="m"/></g><path d="M3536.09613,1871.2537a4.43077,4.43077,0,0,1-7.0131-5.4082,32.224,32.224,0,0,0,5.2075-11.0293,4.43016,4.43016,0,1,1,8.5894,2.1743,41.49106,41.49106,0,0,1-6.5961,14.0195Q3536.19338,1871.13615,3536.09613,1871.2537Z" class="b"/><path d="M3656.33693,1870.6311a4.43063,4.43063,0,0,1-7.0036-5.4209,258.5621,258.5621,0,0,0,14.778-22.9158,4.43035,4.43035,0,1,1,7.6907,4.4006,267.62783,267.62783,0,0,1-15.2864,23.7047C3656.458,1870.479,3656.39873,1870.5564,3656.33693,1870.6311Zm-30.0939,34.7496a4.37975,4.37975,0,0,1-.3398.367,257.85736,257.85736,0,0,1-21.3325,18.4758,4.43062,4.43062,0,1,1-5.4224-7.0085,248.96541,248.96541,0,0,0,20.597-17.8384,4.43055,4.43055,0,0,1,6.4977,6.0041Zm64.309-99.8482a4.43118,4.43118,0,0,1-7.594-4.2978,240.18455,240.18455,0,0,0,7.6004-26.1479,4.43025,4.43025,0,1,1,8.6362,1.981,249.03922,249.03922,0,0,1-7.8813,27.117A4.42509,4.42509,0,0,1,3690.552,1805.5325Zm-124.1352,142.5673a4.41918,4.41918,0,0,1-1.4231,1.1329,230.60557,230.60557,0,0,1-25.9872,11.1435,4.43056,4.43056,0,1,1-2.9803-8.3449,221.60338,221.60338,0,0,0,24.9843-10.714,4.43127,4.43127,0,0,1,5.4063,6.7825Zm137.6659-214.794a4.43083,4.43083,0,0,1-7.8466-2.9289,213.3734,213.3734,0,0,0-.633-22.4921q-.1896-2.32065-.4308-4.6454a4.43037,4.43037,0,0,1,8.8129-.9196q.25275,2.4237.4491,4.8445a222.35187,222.35187,0,0,1,.6603,23.4301A4.41216,4.41216,0,0,1,3704.08273,1733.3058Zm-208.0364,234.5358a4.42414,4.42414,0,0,1-3.683,1.6026c-9.8619-.5913-17.8684-3.3758-23.7977-8.2761a29.21878,29.21878,0,0,1-4.0766-4.1127,4.43035,4.43035,0,0,1,6.8842-5.5785,20.35484,20.35484,0,0,0,2.8379,2.8619c4.4496,3.6773,10.7359,5.784,18.6831,6.2604a4.43069,4.43069,0,0,1,3.1521,7.2424Zm211.897-314.8033a183.61746,183.61746,0,0,1-12.8734,14.0362,58.16865,58.16865,0,0,1-10.7653-6.8861,88.18987,88.18987,0,0,0-9.6714-16.3565,69.36007,69.36007,0,0,0-4.6834-5.5723,4.43056,4.43056,0,0,1,6.476-6.0482,78.37614,78.37614,0,0,1,5.2827,6.2858,97.04844,97.04844,0,0,1,10.652,18.0011,4.44634,4.44634,0,0,1,.1975.5118,179.25541,179.25541,0,0,0,14.0792-16.6439,4.43026,4.43026,0,1,1,7.0963,5.3058C3711.85883,1648.1795,3709.91073,1650.6577,3707.94333,1653.0383Zm-208.4699,245.5233a4.4288,4.4288,0,0,1-1.1983,1.0121q-2.239,1.29495-4.4204,2.5965a71.46508,71.46508,0,0,0-16.277,13.4636,4.4305,4.4305,0,0,1-6.6286-5.8804,79.42086,79.42086,0,0,1,18.3489-15.1823q2.235-1.34055,4.5418-2.6685a4.43132,4.43132,0,0,1,5.6336,6.659Zm237.3595-292.355a4.43122,4.43122,0,0,1-7.4477-4.6588,255.59031,255.59031,0,0,0,9.9039-25.3983,4.43031,4.43031,0,0,1,8.4122,2.7831,264.64367,264.64367,0,0,1-10.2492,26.2822A4.446,4.446,0,0,1,3736.83293,1606.2066Zm-78.7756,87.0697a4.41217,4.41217,0,0,1-1.6266,1.2284,75.21478,75.21478,0,0,1-28.5074,6.7143,4.43034,4.43034,0,1,1-.2136-8.8581,66.42766,66.42766,0,0,0,25.1473-5.9644,4.431,4.431,0,0,1,5.2003,6.8798Zm99.8949-157.5715a4.431,4.431,0,0,1-7.7848-3.5699c1.3214-7.6901,2.4022-15.6179,3.2125-23.5628q.18435-1.8045.3525-3.6089a4.43056,4.43056,0,0,1,8.8228.8233q-.17235,1.84275-.3603,3.6854c-.8311,8.1449-1.9393,16.2746-3.2944,24.163A4.41092,4.41092,0,0,1,3757.95223,1535.7048Zm-167.2716,145.6724a4.43356,4.43356,0,0,1-6.9126-.0961,40.9776,40.9776,0,0,1-7.2903-14.4035,38.77807,38.77807,0,0,1-1.0852-14.8121,4.43042,4.43042,0,0,1,8.801,1.0281,29.96489,29.96489,0,0,0,.8299,11.442,32.175,32.175,0,0,0,5.7331,11.2982A4.4322,4.4322,0,0,1,3590.68063,1681.3772Zm46.2362-64.9087a4.427,4.427,0,0,1-4.0395,1.567,47.4669,47.4669,0,0,0-15.3712.2813,38.3589,38.3589,0,0,0-9.236,3.0023,4.43052,4.43052,0,0,1-3.7618-8.0229,47.25456,47.25456,0,0,1,11.3734-3.6902,56.28706,56.28706,0,0,1,18.2373-.3436,4.43159,4.43159,0,0,1,2.7978,7.2061Zm126.745-154.246a4.43024,4.43024,0,0,1-7.8471-2.8424c.0432-8.5985-.0739-17.6247-.3579-27.5958a4.4302,4.4302,0,1,1,8.8568-.2523c.2874,10.0709.4054,19.1946.3617,27.8925A4.41049,4.41049,0,0,1,3763.66183,1462.2225Zm-2.3609-73.7369a4.43044,4.43044,0,0,1-7.8406-2.5919l-.1966-3.7913c-.4079-7.8468-.8295-15.9608-1.2014-23.947a4.4304,4.4304,0,0,1,8.8512-.4123c.3711,7.9624.7918,16.0645,1.199,23.8997l.1971,3.7922A4.41571,4.41571,0,0,1,3761.30093,1388.4856Zm-2.7563-73.7313a4.43052,4.43052,0,0,1-7.847-2.7909c-.0616-9.2489.0235-18.6309.253-27.8861a4.43051,4.43051,0,1,1,8.8583.2196c-.227,9.1632-.3115,18.4511-.2508,27.6076A4.41068,4.41068,0,0,1,3758.54463,1314.7543Zm2.5811-73.7213a4.43074,4.43074,0,0,1-7.8354-3.1575c.7051-9.2182,1.5647-18.5605,2.5558-27.7673a4.43025,4.43025,0,1,1,8.8096.9483c-.9808,9.1165-1.8325,18.3669-2.5305,27.4947A4.41077,4.41077,0,0,1,3761.12573,1241.033Zm8.6295-73.2591a4.43081,4.43081,0,0,1-7.7933-3.5168c1.4544-9.1321,3.0715-18.3725,4.8055-27.4654a4.43037,4.43037,0,0,1,8.7039,1.6598c-1.7173,9.005-3.3182,18.1561-4.7594,27.1996A4.407,4.407,0,0,1,3769.75523,1167.7739Zm14.5415-72.3181a4.43145,4.43145,0,0,1-7.7228-3.8689c2.189-8.9922,4.5456-18.0724,7.0041-26.9877a4.43063,4.43063,0,0,1,8.5423,2.3561c-2.4353,8.8292-4.7686,17.8217-6.9368,26.7278A4.41483,4.41483,0,0,1,3784.29673,1095.4558Zm20.3176-70.9117a4.43118,4.43118,0,0,1-7.6229-4.2132c2.9055-8.7887,5.9851-17.6502,9.1528-26.3374a4.43037,4.43037,0,1,1,8.3246,3.0354c-3.1375,8.6038-6.1871,17.3797-9.0648,26.0833A4.42231,4.42231,0,0,1,3804.61433,1024.5441Zm25.9615-69.0456a4.43123,4.43123,0,0,1-7.4955-4.5505c3.6043-8.5221,7.3902-17.1055,11.252-25.5118a4.43041,4.43041,0,1,1,8.0518,3.699c-3.8245,8.3252-7.5735,16.8253-11.1426,25.2646A4.43515,4.43515,0,0,1,3830.57583,955.4985Zm31.472-66.7129a4.43083,4.43083,0,0,1-7.339-4.8789c4.2942-8.2138,8.7683-16.4597,13.3002-24.5088a4.43012,4.43012,0,1,1,7.7208,4.3466c-4.4861,7.9699-8.9171,16.1344-13.1686,24.2671A4.42934,4.42934,0,0,1,3862.04783,888.7856Z" class="b"/><path d="M3899.00113,824.7137a4.43074,4.43074,0,0,1-7.1543-5.1985c2.4734-3.9034,5.0259-7.8609,7.586-11.763a4.43026,4.43026,0,1,1,7.4082,4.8608c-2.5341,3.8629-5.061,7.7812-7.509,11.6449A4.48724,4.48724,0,0,1,3899.00113,824.7137Z" class="b"/><path d="M3894.05613,772.3453a38.04725,38.04725,0,1,0,30.8758-44.0665A38.04742,38.04742,0,0,0,3894.05613,772.3453Z" class="f"/><circle cx="1093.129" cy="685.481" r="42.18" class="e" transform="translate(-142.158 312.81327) rotate(-15.30329)"/><path d="M199.53073,673.1337a4.91218,4.91218,0,0,1,8.0703-5.4264,60.86784,60.86784,0,0,0,23.3202,16.0514,4.91155,4.91155,0,0,1-3.5657,9.1531,70.5926,70.5926,0,0,1-27.0475-18.6233A4.92147,4.92147,0,0,1,199.53073,673.1337Zm75.5825,19.9497a4.91421,4.91421,0,0,1,3.3314-6.9302,107.0893,107.0893,0,0,0,22.792-8.028c1.5926-.7699,3.183-1.5851,4.7261-2.4252a4.91193,4.91193,0,1,1,4.6945,8.6296c-1.6812.9145-3.4123,1.8033-5.1453,2.6407a116.88117,116.88117,0,0,1-24.8874,8.7609A4.91331,4.91331,0,0,1,275.11323,693.0834Zm66.4996-44.8321a4.90985,4.90985,0,0,1,.327-4.8555q.3972-.59865.7837-1.2063a134.82175,134.82175,0,0,0,12.5498-25.3119,4.91188,4.91188,0,0,1,9.2036,3.4351,144.696,144.696,0,0,1-13.4691,27.1564q-.433.6795-.88,1.3536a4.91265,4.91265,0,0,1-8.515-.5714ZM216.51593,276.4182a4.96769,4.96769,0,0,1-.2317-.5659,156.95976,156.95976,0,0,1-7.1775-30.9932,4.91164,4.91164,0,0,1,9.7487-1.2082,147.12146,147.12146,0,0,0,6.7325,29.0477,4.912,4.912,0,0,1-9.072,3.7196Zm23.1563,45.4915a4.91213,4.91213,0,0,1,8.4663-4.9248,207.70876,207.70876,0,0,0,18.9078,23.463,4.91165,4.91165,0,1,1-7.1854,6.6983,217.60841,217.60841,0,0,1-19.8036-24.5766A4.93407,4.93407,0,0,1,239.67223,321.9097Zm126.2062,248.8521a4.88933,4.88933,0,0,1-.4725-2.5016,267.90144,267.90144,0,0,0,.4515-30.296,4.91166,4.91166,0,1,1,9.8159-.3816,277.79621,277.79621,0,0,1-.4719,31.4144,4.91224,4.91224,0,0,1-9.323,1.7648Zm-67.8579-191.7743a4.91252,4.91252,0,0,1,7.1296-6.2397c3.0923,2.0446,6.2698,4.0221,9.4443,5.8775,5.4145,3.1633,11.0841,6.2129,16.8501,9.062a4.91173,4.91173,0,0,1-4.3527,8.8065c-5.9693-2.9504-11.8416-6.1081-17.4541-9.3873-3.3308-1.9467-6.663-4.0208-9.9047-6.1636A4.89194,4.89194,0,0,1,298.02053,378.9875Zm-84.8848-183.3481a4.89452,4.89452,0,0,1-.3081-3.4554c.3698-1.3263.7715-2.6788,1.1932-4.0214a4.91317,4.91317,0,0,1,2.5933-2.9703c9.5754-4.5093,19.6323-4.7493,29.8922-.7108a4.91153,4.91153,0,1,1-3.598,9.1404c-7.0457-2.7728-13.6637-2.901-20.1659-.3769q-.23205.789-.4527,1.5789a4.91143,4.91143,0,0,1-9.154.8155ZM360.99753,488.985a4.90087,4.90087,0,0,1-.4279-1.3691q-.42045-2.64585-.8603-5.2743c-1.3869-8.2942-2.9088-16.687-4.5233-24.9471a4.91172,4.91172,0,0,1,9.6409-1.8849c1.6317,8.3473,3.1698,16.8298,4.5717,25.2122q.4458,2.6676.8723,5.3531a4.91236,4.91236,0,0,1-9.2734,2.9101Zm-16.6146-80.3668a4.91849,4.91849,0,0,1-.3403-.9364c-2.5015-9.8835-5.2024-19.8572-8.0255-29.6429a4.91154,4.91154,0,1,1,9.4379-2.7238c2.8539,9.8901,5.5821,19.9677,8.1102,29.9555a4.91211,4.91211,0,0,1-9.1823,3.3476Zm-23.6022-78.6012a4.95345,4.95345,0,0,1-.2174-.5252c-3.3555-9.6215-6.9179-19.3199-10.5894-28.8278a4.91195,4.91195,0,0,1,9.1648-3.5377c3.709,9.607,7.3098,19.4083,10.6998,29.1303a4.9119,4.9119,0,0,1-9.0578,3.7604Zm-44.1828-103.8557a4.91191,4.91191,0,0,1,8.6121-4.7001,143.58529,143.58529,0,0,1,7.4063,13.7011c2.2521,4.7784,4.4949,9.6448,6.6659,14.4622a4.91193,4.91193,0,1,1-8.9566,4.0358c-2.1476-4.767-4.3672-9.5817-6.5962-14.3115a132.30092,132.30092,0,0,0-6.8932-12.7515Q276.70468,226.3825,276.59793,226.1613Zm95.79,186.9621a4.91176,4.91176,0,0,1,5.9005-6.8204c9.2422,2.9155,19.141,5.6512,29.4224,8.1315a4.91177,4.91177,0,1,1-2.3037,9.5496c-10.4995-2.5333-20.618-5.3299-30.0743-8.3132A4.89754,4.89754,0,0,1,372.38793,413.1234Zm79.9846,18.1475a4.91256,4.91256,0,0,1,5.2125-6.9825c9.068,1.4746,19.0192,2.9573,30.423,4.534a4.91157,4.91157,0,1,1-1.3452,9.7306c-11.4814-1.5869-21.5084-3.0817-30.6541-4.5674A4.908,4.908,0,0,1,452.37253,431.2709Zm81.31732,11.2527a4.9121,4.9121,0,0,1,5.07565-7.0008c11.39762,1.5233,21.43043,2.9687,30.67093,4.4173a4.91176,4.91176,0,0,1-1.5213,9.705c-9.1673-1.4373-19.12779-2.8721-30.45119-4.3856A4.90982,4.90982,0,0,1,533.68985,442.5236Zm80.89238,13.918a4.91224,4.91224,0,0,1,5.5196-6.9226c10.5435,2.4122,20.6956,5.0581,30.1738,7.8649a4.91179,4.91179,0,0,1-2.7885,9.4195c-9.282-2.7486-19.2329-5.3421-29.5765-7.7088A4.90164,4.90164,0,0,1,614.58223,456.4416Zm77.86029,25.6017a4.912,4.912,0,0,1,6.4757-6.6015,282.8194,282.8194,0,0,1,27.7626,14.6659,4.91176,4.91176,0,0,1-5.0784,8.409,272.6889,272.6889,0,0,0-26.7943-14.1523A4.89041,4.89041,0,0,1,692.44252,482.0433Zm68.001,45.2942a4.9127,4.9127,0,0,1,7.7886-5.7165c7.1908,6.7649,14.2818,14.1647,21.6782,22.6241a4.9115,4.9115,0,1,1-7.3951,6.4656c-7.1838-8.2162-14.0577-15.3911-21.014-21.9341A4.90728,4.90728,0,0,1,760.44352,527.3375Zm53.1976,62.3676a4.912,4.912,0,0,1,8.3604-5.0718q3.82785,5.1228,7.637,10.2672,5.38367,7.25235,10.79711,14.4831a4.91163,4.91163,0,1,1-7.85061,5.9046q-5.44709-7.24275-10.8342-14.5334-3.80625-5.127-7.6187-10.2423A4.92041,4.92041,0,0,1,813.64112,589.7051Zm50.6276,64.5945a4.9124,4.9124,0,0,1,8.079-5.4175c4.3584,4.8526,8.734,9.4562,13.0056,13.6816,2.6659,2.6367,5.4754,5.2432,8.3511,7.7485a4.91147,4.91147,0,1,1-6.4521,7.4068c-3.031-2.6393-5.99469-5.3893-8.8076-8.1721-4.40809-4.36-8.9186-9.1046-13.406-14.102A4.91073,4.91073,0,0,1,864.26872,654.2996Zm64.3571,50.1272a4.91225,4.91225,0,0,1,6.5836-6.5507,172.45035,172.45035,0,0,0,27.945,10.8714,4.91137,4.91137,0,1,1-2.7257,9.437,182.27788,182.27788,0,0,1-29.5434-11.4874A4.89412,4.89412,0,0,1,928.62582,704.4268Zm79.38581,16.1699a4.9161,4.9161,0,0,1,3.86559-7.018,89.05847,89.05847,0,0,0,28.0352-7.8374,4.91133,4.91133,0,1,1,4.1984,8.8802,98.88188,98.88188,0,0,1-31.1175,8.7176A4.915,4.915,0,0,1,1008.01163,720.5967Z" class="a"/><path d="M1466.13781,1476.2202l12.29989.1949a2.83843,2.83843,0,0,0,2.87293-2.5992l.68127-8.0671a2.83788,2.83788,0,0,0-1.8345-2.8975l-4.06977-1.5206a2.83906,2.83906,0,0,0-3.22982.9114l-3.5357,4.5254a3.518,3.518,0,0,1-2.0659,1.2802,3.51755,3.51755,0,0,0-2.679,2.4874l-.3804,1.3447Z" class="t"/><ellipse cx="1356.586" cy="1511.679" class="e" rx="62.303" ry="18.448" transform="translate(-345.42634 403.23271) rotate(-15.02064)"/><path d="M1376.95763,1507.2113a14.13611,14.13611,0,0,1,8.879-18.551c32.07328-10.3596,79.97588-21.326,79.97588-21.326l3.6786,9.4972s-49.3188,28.8062-73.475,38.1097C1388.42341,1517.8654,1379.89621,1514.7981,1376.95763,1507.2113Z" class="k"/><path d="M1293.91021,1454.8062s16.2725,30.3768,7.5522,51.7765l35.8887,5.5165,15.8706-22.513s-9.3558,7.4653-24.6069-46.6662Z" class="k"/><path d="M1331.33831,1465.3456c4.6254-1.2527,17.8918-6.1687,17.2654-10.8673-2.6225-19.6699-3.2654-32.4969-8.8678-49.0494a14.36009,14.36009,0,0,0-2.67-4.8055c-4.9347-5.7492-14.2159-8.4038-17.1-7.9831-11.9691,3.1398-14.8914,13.5311-26.8029,17.2657a5.23833,5.23833,0,0,0-2.704,1.4937,4.489,4.489,0,0,0-.61338,3.1644c.42508,5.0696,3.36658,9.7197,4.59678,14.6958a82.29226,82.29226,0,0,0,5.0288,14.9398c4.31242,9.2948,11.267,17.1682,21.38,20.4465A18.57656,18.57656,0,0,0,1331.33831,1465.3456Z" class="k"/><path d="M1337.67381,1395.8236l-17.0136,6.0893a18.98461,18.98461,0,0,0-12.307,21.1237l3.6196,20.8365a80.68634,80.68634,0,0,1-4.4885,43.5591c-1.0869,2.74-1.9161,4.6203-2.1672,4.6861-.9591.2517-7.1826-3.934-7.0793-5.4941s-17.3508-66.0059-17.3508-66.0059,6.4714-25.617,7.6663-26.2722,34.2086-8.9737,34.2086-8.9737l14.9273,10.336A.06539.06539,0,0,1,1337.67381,1395.8236Z" class="u"/><path d="M1333.13191,1675.1718a153.01059,153.01059,0,0,0,62.0144-15.4127l2.536-.6865a9.5448,9.5448,0,0,0,3.3275-14.4654s-19.5468-59.3767-19.1141-119.7839c.12292-17.1175-20.9883-26.9861-24.2653-31.9438l-2.3544-2.4546a26.14937,26.14937,0,0,0-18.80338-8.0903c-12.45152-.0188-31.60912,1.9284-40.46182,13.0832-3.1929,4.0234-8.8885,13.0849-8.4423,15.7115C1287.56851,1511.1293,1321.16951,1675.5697,1333.13191,1675.1718Z" class="f"/><ellipse cx="1358.645" cy="1555.974" class="e" rx="18.448" ry="62.303" transform="translate(-707.0163 1552.31563) rotate(-48.77172)"/><path d="M1475.0883,1577.1105l11.9489,2.9229a2.838,2.838,0,0,0,3.3787-1.8959l2.4569-7.714a2.83808,2.83808,0,0,0-1.14517-3.2326l-3.63-2.3869a2.83841,2.83841,0,0,0-3.35123.171l-4.4531,3.6265a3.51648,3.51648,0,0,1-2.2985.7891,3.51724,3.51724,0,0,0-3.1648,1.8303l-.6699,1.2264Z" class="k"/><path d="M1381.25131,1587.5119a14.1364,14.1364,0,0,1,12.7791-16.1145c33.5733-2.9742,82.88539-1.8602,82.88539-1.8602l1.21883,8.3185s-54.39912,17.724-80.01892,21.4274C1390.06331,1600.4473,1382.43081,1595.5622,1381.25131,1587.5119Z" class="k"/><path d="M1339.37631,1390.1266a6.19354,6.19354,0,0,0-4.5678-7.834l-10.709-2.4115a42.1211,42.1211,0,0,0-40.10188,12.4116l-2.61752,2.8153a79.34866,79.34866,0,0,0-21.00748,48.0093l-2.84932,37.4485-7.9805,34.2646a35.31881,35.31881,0,0,0,49.3075,40.0293,34.4587,34.4587,0,0,0,19.0796-23.7075l11.8229-52.7952-5.4645-57.9633a24.10633,24.10633,0,0,1,8.8626-21.0235A18.908,18.908,0,0,0,1339.37631,1390.1266Z" class="m"/><path d="M1334.81081,1382.302l-7.74-1.743a18.89784,18.89784,0,0,1-3.5337,9.7426,24.106,24.106,0,0,0-3.04748,22.6108l4.13378,11.0161-.3326-3.5255a24.10685,24.10685,0,0,1,8.8624-21.0235,18.90359,18.90359,0,0,0,6.2253-9.2436A6.193,6.193,0,0,0,1334.81081,1382.302Z" class="m"/><path d="M1294.23063,1554.7121a35.3195,35.3195,0,0,1-21.14612-31.084l-1.2714-35.1589-7.0573-36.8875a79.31372,79.31372,0,0,1-.2479-28.3609,79.32052,79.32052,0,0,0-4.1328,19.9058l-2.8493,37.4484-7.9805,34.2647a35.30962,35.30962,0,0,0,47.2924,40.8823C1297.401,1550.5276,1300.43421,1536.939,1294.23063,1554.7121Z" class="m"/><path d="M1269.49871,1935.2723l-2.7394,10.8669a1.04883,1.04883,0,0,0,.8885,1.2974l23.3169,2.884a.74663.74663,0,0,0,.4795-1.3789l-9.4753-5.7639a7.50032,7.50032,0,0,1-3.5465-5.493l-.1633-1.3291Z" class="e"/><path d="M1321.95111,1751.3991l-28.884,44.157a124.993,124.993,0,0,0-20.278,63.1332l-3.2766,77.4003,8.7143,3.3511,2.0497-6.1801q11.74818-28.66275,22.08212-57.8799c13.63688-38.6099,26.30468-70.5252,43.10968-111.941l.1494-.431a13.28062,13.28062,0,0,0-23.6666-11.6096Z" class="k"/><path d="M1380.59663,1952.4857l-.86772,11.1733a1.049,1.049,0,0,0,1.0945,1.1291l23.46922-1.0893a.74662.74662,0,0,0,.24028-1.44l-10.3117-4.0835a7.50084,7.50084,0,0,1-4.422-4.8165l-.3849-1.2823Z" class="e"/><path d="M1367.43991,1762.9641l-12.2326,51.3271a124.9883,124.9883,0,0,0,2.28832,66.2704l23.115,73.9408,9.33418.2037-.1631-6.5091q1.35288-30.9474,1.1875-61.9377c-.23658-40.947.8808-75.2662,2.67542-119.9255l-.00512-.4561a13.28078,13.28078,0,0,0-26.1996-2.9136Z" class="k"/><path d="M1411.01151,1798.5593c-1.3205-23.6239-6.1154-145.4147-9.5181-153.9789-1.8234-4.5906-11.4169-9.1747-14.3406-10.7335l-3.7695-2.0102c-21.2145-11.311-35.2209-22.1887-57.8664,1.7566-10.8237,11.4443-10.0082,48.4081-7.8245,63.5142q.26115,1.80525.4631,3.6395a98.5467,98.5467,0,0,1-18.3973,68.3806c-3.2133,4.447-5.6928,8.1904-5.6309,9.0759.33232,4.7609,15.0545,12.186,18.2365,14.1265a11.29476,11.29476,0,0,0,2.9722,1.2722s16.3544,6.3393,31.45,11.5014a71.10184,71.10184,0,0,0,42.5869,1.059C1400.06071,1803.1015,1411.07381,1799.6731,1411.01151,1798.5593Z" class="f"/><path d="M427.36913,1977.9472l-42.2679.1294-.0309-10.0847,12.686.8074,24.6027,3.4127a5.80792,5.80792,0,0,1,5.0101,5.7352Z" class="i"/><path d="M455.74973,1552.323c-8.7482-13.3404,8.8936-40.3745,39.4041-60.3819s62.336-25.412,71.0842-12.0713c8.7482,13.3409-8.8935,40.3748-39.404,60.3822S464.49793,1565.6639,455.74973,1552.323Z" class="f"/><path d="M468.27693,1639.1112c3.0809-.7716,7.1482.2576,11.1726,1.9502,9.1025,3.8288,16.2876,13.6543,18.3816,24.7854,4.83,25.6789,14.2055,75.6277,17.6627,94.7725a24.88445,24.88445,0,0,1-1.5791,14.7905l-5.2185,11.2686c-3.3576,7.25-10.3046,10.7093-17.7803,8.8535-6.1875-1.5362-11.8832-6.5125-15.2846-13.3543l-9.0536-18.2114a97.46664,97.46664,0,0,0-28.2539-34.6156c-10.4023-7.8004-16.5166-22.0689-15.1138-35.2697,2.9352-27.6196,18.7384-48.3758,41.0946-53.9751Z" class="g"/><path d="M396.33733,1645.8007c-3.1713.1787-6.7492,2.3702-10.0885,5.1825-7.5536,6.3606-11.4941,17.8777-10.1855,29.128,3.0192,25.9543,8.9106,76.4329,11.2987,95.7401a24.88753,24.88753,0,0,0,5.9029,13.6528l8.3318,9.2089c5.36,5.9247,13.0215,7.1631,19.6082,3.1694,5.4513-3.3052,9.4107-9.7497,10.6248-17.2928l3.233-20.0794a97.47017,97.47017,0,0,1,16.6909-41.448c7.6139-10.5392,9.2119-25.9802,3.9498-38.1674-11.0103-25.4999-32.2677-40.622-55.2779-39.3247Z" class="g"/><path d="M401.14033,1486.7133l-47.2787,21.2271a14.76924,14.76924,0,0,0-8.462,16.2214l4.0963,21.6326a127.06939,127.06939,0,0,0,18.7192,46.2363l6.2391,9.4767a54.608,54.608,0,0,1,4.5351,51.6516l-2,4.6379a8.27053,8.27053,0,0,0,2.4191,9.7257l.3501.2807c30.2009,19.946,65.0217,21.3206,93.3765,12.6576,5.8262-1.78,10.7235-4.6194,14.7212-6.4278a12.8987,12.8987,0,0,0,7.3182-14.3542l-5.3009-25.8384a140.14493,140.14493,0,0,1,.6435-59.3059l2.2789-10.0001a177.95677,177.95677,0,0,0,4.4486-39.5414v-13.8518a12.83007,12.83007,0,0,0-8.1297-11.9379l-34.8892-13.7359A68.41529,68.41529,0,0,0,401.14033,1486.7133Z" class="f"/><path d="M420.06063,1450.397l-23.7749,39.0953,8.1699,6.4758a45.88577,45.88577,0,0,0,38.2607,8.8769,21.2968,21.2968,0,0,0,16.7096-22.3831l-1.8779-17.7142Z" class="k"/><path d="M452.30993,1484.5877c5.362-2.1279,9.0891-7.1563,11.3271-12.4728,8.3355-19.7993-.8293-42.2162-9.9415-61.6704-.9664-2.0636-2.0155-4.2256-3.8963-5.5121-2.8962-1.9814-18.2552-8.3999-21.6508-7.5126-13.8906,5.3824-15.8877,18.4316-29.6228,24.5318a6.2023,6.2023,0,0,0-3.0244,2.1722,5.56052,5.56052,0,0,0-.2767,3.9378c1.2433,6.126,5.4423,11.4134,7.6376,17.3207a103.307,103.307,0,0,0,8.1911,17.5621c6.515,10.7723,15.9906,19.469,28.5862,22.1526C443.83473,1485.991,448.32333,1486.17,452.30993,1484.5877Z" class="l"/><path d="M452.59013,1480.8141c5.362-2.1279,9.0889-7.1562,11.3269-12.4727,8.3356-19.7992-.8289-42.2163-9.9414-61.6704-.9664-2.0635-2.0153-4.2256-3.8963-5.5121-2.8963-1.9815-18.2554-8.3999-21.6507-7.5127-13.8907,5.3826-15.8878,18.4318-29.6229,24.532a6.201,6.201,0,0,0-3.0245,2.1722,5.56127,5.56127,0,0,0-.2766,3.9377c1.2433,6.1259,5.4424,11.4135,7.6378,17.3207a103.2886,103.2886,0,0,0,8.1909,17.5623c6.5151,10.7722,15.9908,19.4688,28.5862,22.1524C444.11483,1482.2175,448.60343,1482.3964,452.59013,1480.8141Z" class="k"/><path d="M407.13883,1467.5047s-22.4865-19.0767-25.6653-35.7836c-3.1789-16.7067-.0941-26.2837,8.5039-28.757s30.1305,1.8569,30.1305,1.8569-10.4309,40.5361-9.9971,46.0805C411.05323,1462.9444,407.13883,1467.5047,407.13883,1467.5047Z" class="m"/><path d="M396.65293,1405.8363c1.198-.3498,27.0369-25.4976,29.9699-26.1333,2.0493-.5214,4.6201-.1166,7.369.329,4.9732.8667,10.6686,4.4882,23.5167,7.195.0653.0137.1292.0272.1928.0413a53.0359,53.0359,0,0,0,11.7981,1.0481c6.0639.0104,16.5123-.9756,17.8819-.8068,2.9604-.1828,12.5114,10.3726-5.5108,17.0005-8.5478,3.161-28.0477,4.4563-42.1674,4.8851-15.2533.9396-25.1263,1.0122-40.6175,13.5303-16.4242,12.7249-19.0688,9.0189-15.256,1.4741C387.24863,1416.9654,397.12513,1405.6925,396.65293,1405.8363Z" class="m"/><path d="M402.77943,1435.8996c-1.9348,3.5209-.7977,9.1314,2.54,12.5314,3.3379,3.4,7.6123,3.3019,9.5472-.2189,1.935-3.521.7977-9.1314-2.54-12.5315C408.98893,1432.2807,404.71463,1432.3787,402.77943,1435.8996Z" class="k"/><path d="M556.80453,1509.904c-11.51585,7.4209-25.6427,3.3951-31.5526-8.9916-5.9102-12.3866-1.3661-28.4436,10.14975-35.8643s25.64285-3.3952,31.55285,8.9913C572.86483,1486.4261,568.32033,1502.483,556.80453,1509.904Z" class="i"/><path d="M564.09533,1389.6814l6.5413,1.047s5.6992,60.8011,2.3841,91.4012c-1.2998,12.001-11.3488,21.0148-23.268,19.1071-11.9195-1.9079-18.70805-13.6199-16.1418-25.4151C539.22858,1449.9979,564.09533,1389.6814,564.09533,1389.6814Z" class="k"/><path d="M568.36743,1394.2957l-2.6093-2.0072c-2.6606-2.0469-4.4051-5.0001-4.5311-7.6705l-.1977-4.1947a13.98,13.98,0,0,0-4.2508-8.7086l-3.6347-3.713c-1.19975-1.2253-.452-2.6735,1.0438-2.0208.194.0845.4052.1846.6306.2973a29.46614,29.46614,0,0,1,11.9309,11.3489l.0413.0714a25.42708,25.42708,0,0,1,3.2691,9.0305l.7031,4.8726Z" class="k"/><path d="M566.70883,1390.8557a1.28241,1.28241,0,0,1-1.7392-.178l-.2902-.3315a5.471,5.471,0,0,1-1.4649-4.1759l.3097-2.0628a6.945,6.945,0,0,0-1.2277-4.6545l-1.4115-2.161c-.4658-.7131.0387-1.3463.7042-.8835.0863.06.1797.1292.2785.206a14.63862,14.63862,0,0,1,4.7142,6.6844,12.697,12.697,0,0,1,.7314,4.7551l-.0978,1.8469a1.28151,1.28151,0,0,1-.5067.9548Z" class="l"/><ellipse cx="345.301" cy="1565.46" class="f" rx="66.063" ry="28.886" transform="translate(-1228.58307 1260.85172) rotate(-66.60762)"/><path d="M305.94193,1605.851c-.5591-13.6884,10.0724-23.8248,23.7456-22.64,13.6731,1.1846,25.2105,13.2413,25.7692,26.9297.559,13.6884-10.0722,23.8248-23.7452,22.6402C318.03813,1631.5963,306.501,1619.5393,305.94193,1605.851Z" class="i"/><path d="M423.79473,1606.4134l-.0054,6.6245s-59.1485,15.1891-89.8891,16.7271c-12.0562.6034-22.5381-7.9031-22.5284-19.974.01-12.0713,10.5087-20.617,22.5607-19.9375C360.31833,1591.3407,423.79473,1606.4134,423.79473,1606.4134Z" class="k"/><path d="M419.90963,1611.3579l1.572-2.8925c1.6029-2.9493,4.245-5.1365,6.8625-5.6809l4.1114-.8549a13.97948,13.97948,0,0,0,7.9317-5.5671l3.0954-4.1735c1.0214-1.3774,2.5691-.8667,2.1599.713-.0533.205-.1188.4293-.1946.6695a29.46589,29.46589,0,0,1-9.3316,13.5671l-.064.052a25.428,25.428,0,0,1-8.4042,4.6485l-4.7013,1.4606Z" class="k"/><path d="M423.04583,1609.1791a1.283,1.283,0,0,1-.0978-1.7457l.2819-.3387a5.47133,5.47133,0,0,1,3.8937-2.1033l2.0859-.0185a6.94439,6.94439,0,0,0,4.4034-1.9444l1.9122-1.7338c.631-.5721,1.3357-.1734.9833.5566-.0458.0947-.0995.1976-.1596.3074a14.63749,14.63749,0,0,1-5.8601,5.7066,12.69926,12.69926,0,0,1-4.5809,1.4701l-1.8393.194a1.28283,1.28283,0,0,1-1.0227-.3503Z" class="l"/><path d="M390.037,1761.1447a19.41742,19.41742,0,0,0-2.9865,6.1076l-12.592,43.9915a140.248,140.248,0,0,0-3.6209,60.9194l14.2327,95.8287,13.4462.9003,23.9993-124.7886,11.5743-72.9508a10.1534,10.1534,0,0,0-6.3245-10.9959l-14.259-5.6808A19.92881,19.92881,0,0,0,390.037,1761.1447Z" class="g"/><path d="M470.56713,1763.783a19.43059,19.43059,0,0,0-2.3073,6.3953l-7.7511,45.0964a140.25056,140.25056,0,0,0,3.0002,60.9533l25.3266,92.1269,12.6698,1.0338,10.3377-126.654,3.6023-73.7752a10.15319,10.15319,0,0,0-7.4785-10.2466l-14.7906-4.1019A19.92849,19.92849,0,0,0,470.56713,1763.783Z" class="g"/><path d="M530.69263,1977.8708l-42.2677.2058-.0491-10.0847,12.8687.5881,24.4328,3.5278a5.85171,5.85171,0,0,1,5.0153,5.763Z" class="i"/><path d="M2113.54733,489.6966l1.0218,11.0443a1.03812,1.03812,0,0,1-1.0664,1.1334l-23.2412-.7353a.739.739,0,0,1-.2588-1.4215l10.1447-4.1916a7.42368,7.42368,0,0,0,4.3059-4.8309l.3622-1.2747Z" class="e"/><path d="M2090.29273,301.8906l21.512,47.5852a123.707,123.707,0,0,1,10.2029,64.8294l-8.5982,76.1886-9.0327,1.9483-1.0621-6.3561q-7.1178-29.82045-12.768-59.9673c-7.4481-39.8358-14.9692-72.977-25.0871-116.0396l-.0805-.4443a13.144,13.144,0,0,1,24.9137-7.7442Z" class="f"/><path d="M2002.28113,489.5887l-.8553,11.0585a1.03821,1.03821,0,0,1-1.2425.9373l-22.784-4.6439a.73894.73894,0,0,1-.0156-1.4448l10.7064-2.4208a7.42294,7.42294,0,0,0,5.0586-4.0358l.572-1.1952Z" class="e"/><path d="M2044.046,306.2636l4.1357,52.0576a123.7044,123.7044,0,0,1-12.343,64.4561l-33.8788,68.7815-9.159-1.2242,1.1521-6.3404q3.39615-30.4695,8.2833-60.7493c6.4751-40.0055,10.6158-73.7364,15.6705-117.6819l.0749-.4452a13.1439,13.1439,0,0,1,26.0643,1.1458Z" class="f"/><path d="M2028.79733,185.3048c2.4829-4.2112,12.5634-7.231,15.66-8.3095l3.9927-1.3909c22.4703-7.826,37.8257-16.3275,56.3194,10.5415,8.8391,12.8416,2.4052,48.8639-2.0337,63.3029q-.53055,1.72575-1.0078,3.4885c-6.3116,23.3154-7.1339,61.1917,3.8278,82.7157,2.4643,4.8387-8.7216,6.3132-12.1292,7.7256a11.17863,11.17863,0,0,1-3.1005.7907s-14.5864,11.1188-16.5799,1.619c-27.3115-130.1545-26.4211,1.6525-26.4211,1.6525-13.463.4561-26.1545.1109-31.3142-2.2782C2006.02623,340.5394,2024.164,193.1608,2028.79733,185.3048Z" class="f"/><path d="M1946.828,80.7262c9.9842,1.4124,14.2107,29.8923,9.4404,63.6116-4.7706,33.7194-16.7314,59.9092-26.7153,58.4967-9.9843-1.4124-14.2108-29.8923-9.4402-63.6117C1924.88323,105.5034,1936.844,79.3136,1946.828,80.7262Z" class="e"/><path d="M1940.61923,185.8249a13.99056,13.99056,0,0,0-18.2009-9.1128c-31.3607,11.3686-75.1302,32.9882-75.1302,32.9882l2.3837,7.9684s56.2095-6.8442,80.7406-14.2333C1938.12243,201.113,1942.92713,193.5396,1940.61923,185.8249Z" class="k"/><path d="M1932.33383,43.04717s17.1683,29.46973,39.7298,33.216l-13.9605,33.1139-27.208,1.704s11.1449-4.0154-26.5776-44.9428Z" class="k"/><path d="M1921.809,80.0634c-3.4546,3.2496-14.4781,11.8835-18.1142,8.9189-15.2213-12.411-25.7006-19.6046-36.7487-32.9111a14.20717,14.20717,0,0,1-2.6663-4.74273c-2.2873-7.1412.2878-16.34151,2.1381-18.5546,8.8535-8.46147,19.1286-5.53607,28.4536-13.64057a5.18481,5.18481,0,0,1,2.6614-1.5049,4.44223,4.44223,0,0,1,2.9855,1.124c4.0533,2.9873,6.4477,7.8783,10.0045,11.4958a81.42389,81.42389,0,0,1,9.986,11.98637c5.5991,8.4553,8.6297,18.40073,6.1489,28.62583A18.3857,18.3857,0,0,1,1921.809,80.0634Z" class="k"/><path d="M1859.91863,49.352l13.9558-11.18419a18.7891,18.7891,0,0,1,24.1888.5796l15.6875,13.8564a79.859,79.859,0,0,0,39.0468,18.80493c2.8734.5045,4.8884.7807,5.0743.6032.7094-.678.4083-8.0948-.9604-8.8169-1.3688-.7219-46.6436-48.8551-46.6436-48.8551s-24.9503-7.8289-26.1224-7.1614c-1.1719.6676-25.3041,24.1834-25.3041,24.1834l.9722,17.94327A.0647.0647,0,0,0,1859.91863,49.352Z" class="u"/><path d="M2102.30633,184.2604c-7.2788,10.9952-32.0288,26.9333-49.6462,37.3829a25.49111,25.49111,0,0,1-31.8671-4.7447c-15.1477-16.6471-42.2046-43.4825-75.0635-63.3732-14.4932-8.7732-11.8646-31.6868-14.3445-37.0201l-.8482-3.2576a25.95707,25.95707,0,0,1,2.9803-20.1264c6.4509-10.5027,18.0036-25.5698,31.9618-27.2434,5.0474-.6052,15.6396-.7073,17.6226,1.0307C1983.10153,66.9086,2108.845,174.3828,2102.30633,184.2604Z" class="e"/><ellipse cx="1969.938" cy="156.136" class="e" rx="61.662" ry="18.258" transform="translate(1568.47278 2091.04175) rotate(-82.81002)"/><path d="M1968.13363,192.9324a13.99094,13.99094,0,0,0-19.2592,6.588c-13.8829,30.3317-29.1603,76.6967-29.1603,76.6967l7.356,3.8891s34.5317-44.8766,46.4631-67.5483C1977.28353,205.432,1975.25233,196.6963,1968.13363,192.9324Z" class="k"/><path d="M1854.23343,47.83277a6.12964,6.12964,0,0,1-4.2353-7.9131l3.5206-10.27777a41.68706,41.68706,0,0,1,31.2582-27.3685l3.7307-.7466a78.53179,78.53179,0,0,1,51.3645,7.1875l33.0455,17.0178,33.0226,11.04127a34.95551,34.95551,0,0,1,8.1744,62.323,34.104,34.104,0,0,1-29.879,3.7894l-50.636-17.4116-46.0279-34.66453a23.85843,23.85843,0,0,0-22.3181-3.4313A18.71153,18.71153,0,0,1,1854.23343,47.83277Z" class="m"/><path d="M1850.005,39.92667l2.5445-7.42867a18.69963,18.69963,0,0,0,10.0451,2.07347,23.85811,23.85811,0,0,1,20.6404,9.1564l7.1427,9.19733-2.7995-2.10853a23.85837,23.85837,0,0,0-22.318-3.4314,18.71017,18.71017,0,0,1-11.0203.4543A6.12911,6.12911,0,0,1,1850.005,39.92667Z" class="m"/><path d="M2016.38583,95.1254a34.956,34.956,0,0,0-15.2374-33.9447l-28.9785-19.30423-27.4356-25.07787a78.50634,78.50634,0,0,0-23.7788-14.9163,78.51025,78.51025,0,0,1,18.9231,6.8389l33.0455,17.0177,33.0227,11.04127a34.94638,34.94638,0,0,1,9.9382,61.06673C2011.21413,95.6282,1998.18663,91.1383,2016.38583,95.1254Z" class="m"/><path d="M1926.21053,273.4225l-3.9346,1.656c-4.0121,1.6884-7.1744,4.8159-8.2142,8.1232l-1.6323,5.1949c-1.1309,3.5976-4.1401,7.0881-8.2052,9.5176l-5.7839,3.4563c-1.9088,1.1405-1.4491,3.2035.6419,2.8788.2713-.0421.5693-.0978.889-.1646a38.2113,38.2113,0,0,0,18.7078-10.2936l.0753-.0758a32.97233,32.97233,0,0,0,7.0805-10.2454l2.49-5.8783Z" class="k"/><path d="M1922.99523,277.1887a1.66311,1.66311,0,0,0-2.2398-.3508l-.4733.32a7.0941,7.0941,0,0,0-3.2156,4.753l-.2925,2.6892a9.00414,9.00414,0,0,1-3.076,5.4314l-2.4833,2.244c-.8196.7406-.3959,1.7012.5914,1.3405.1282-.0468.2679-.1027.4172-.1663a18.98072,18.98072,0,0,0,8.1181-6.8264,16.46671,16.46671,0,0,0,2.4869-5.7215l.4872-2.3483a1.66322,1.66322,0,0,0-.3203-1.3648Z" class="l"/><path d="M1853.93693,215.4017l-1.8631-3.8409c-1.8993-3.9165-5.1909-6.908-8.5489-7.7701l-5.2744-1.3537c-3.6528-.9377-7.2982-3.7568-9.9408-7.6868l-3.7593-5.5917c-1.2405-1.8454-3.2761-1.2766-2.8406.7942.0566.2687.128.5633.2117.879a38.2107,38.2107,0,0,0,11.2749,18.1333l.0796.0712a32.97407,32.97407,0,0,0,10.6077,6.5252l6.0025,2.1736Z" class="k"/><path d="M1850.005,212.3915a1.66336,1.66336,0,0,0,.231-2.2553l-.3448-.4558a7.0942,7.0942,0,0,0-4.9173-2.9579l-2.701-.149a9.00476,9.00476,0,0,1-5.5875-2.7826l-2.3729-2.3603c-.7832-.7789-1.7199-.3048-1.3072.662.0536.1254.1168.262.1882.4077a18.98161,18.98161,0,0,0,7.249,7.7433,16.46674,16.46674,0,0,0,5.8456,2.1789l2.371.3614a1.664,1.664,0,0,0,1.3459-.3924Z" class="l"/><path d="M3444.642,626.7661l-1.0325,11.1592a1.04914,1.04914,0,0,0,1.0778,1.1452l23.4827-.743a.74661.74661,0,0,0,.2615-1.4363l-10.2503-4.2352a7.50037,7.50037,0,0,1-4.3504-4.8811l-.3661-1.2879Z" class="b"/><path d="M3468.13853,437.0071,3446.403,485.087a124.98867,124.98867,0,0,0-10.309,65.5036l8.6874,76.981,9.1266,1.9685,1.0732-6.4221q7.1916-30.13065,12.9008-60.5909c7.5255-40.2501,15.1247-73.7361,25.3482-117.2465l.0811-.4489a13.28064,13.28064,0,0,0-25.1728-7.8246Z" class="k"/><path d="M3612.77533,506.7481l8.0191,7.8288a1.04906,1.04906,0,0,0,1.5682-.1162l14.2093-18.7105a.74659.74659,0,0,0-.951-1.1076l-9.7446,5.2963a7.50006,7.50006,0,0,1-6.5312.306l-1.2311-.5265Z" class="b"/><path d="M3458.88623,395.3491l31.5508,42.2926a124.98787,124.98787,0,0,0,52.3284,40.7278l71.5666,29.6609,6.1403-7.0334-5.1002-4.0477q-22.88445-20.8776-46.7749-40.6177c-31.5777-26.0682-57.201-48.9268-90.3256-78.9339l-.3536-.2883a13.28066,13.28066,0,0,0-19.0318,18.2397Z" class="k"/><ellipse cx="3397.706" cy="230.991" class="b" rx="18.448" ry="62.303" transform="translate(758.38383 2383.13899) rotate(-43.08361)"/><path d="M3502.74873,292.9732l9.1556,8.2157a2.83841,2.83841,0,0,0,3.8737-.0774l5.806-5.6419a2.838,2.838,0,0,0,.516-3.3903l-2.0743-3.8173a2.83826,2.83826,0,0,0-3.0355-1.4307l-5.6372,1.0962a3.51732,3.51732,0,0,1-2.399-.389,3.517,3.517,0,0,0-3.6539.1202l-1.1693.7653Z" class="k"/><path d="M3415.108,257.8638a14.13606,14.13606,0,0,1,18.8708-8.1772c31.0038,13.2203,73.9548,37.4721,73.9548,37.4721l-2.8506,7.909s-56.3253-10.0432-80.6609-18.8675C3416.77313,273.4267,3412.349,265.518,3415.108,257.8638Z" class="k"/><path d="M3392.73233,96.2743a6.11926,6.11926,0,0,0-6.1952-6.6588l-10.9771.0344a42.121,42.121,0,0,0-36.3298,21.0321l-1.9246,3.3276a79.34975,79.34975,0,0,0-9.786,51.4831l5.5635,37.1417-.1451,34.5423a35.93547,35.93547,0,0,0,16.5241,30.6945,34.96711,34.96711,0,0,0,53.7749-30.0353l-.0939-21.7092a200.27517,200.27517,0,0,0-10.0781-61.8712l-8.297-25.1529a24.37593,24.37593,0,0,1,4.0452-22.5821A18.90539,18.90539,0,0,0,3392.73233,96.2743Z" class="m"/><path d="M3340.6,150.4827s8.8147,33.3143-4.6133,52.1205l33.6434,13.6582,20.6422-18.2377s-10.8272,5.1021-13.1608-51.0884Z" class="k"/><path d="M3374.58083,169.3833c4.7897-.1502,18.833-1.8685,19.3089-6.5846,1.9925-19.7437,4.3303-32.3722,2.7031-49.7714a14.35538,14.35538,0,0,0-1.4876-5.2922c-3.4731-6.7336-11.89-11.4605-14.7931-11.7174-12.3708.2898-17.6145,9.725-30.0666,10.6067a5.23773,5.23773,0,0,0-2.9759.8286,4.48813,4.48813,0,0,0-1.3276,2.9371c-.7578,5.0307,1.03,10.2345,1.0774,15.3601a82.273,82.273,0,0,0,1.4413,15.6975c2.0485,10.0396,6.996,19.3066,16.0783,24.8326A18.57525,18.57525,0,0,0,3374.58083,169.3833Z" class="k"/><path d="M3392.44723,103.6896l-13.6017,1.5103a18.9846,18.9846,0,0,0-16.8541,17.709l-1.2918,21.1091a80.688,80.688,0,0,1-14.4298,41.3439c-1.6907,2.4149-2.9316,4.0527-3.1911,4.0588-.9913.0232-6.0796-5.4869-5.6187-6.981.3622-1.1743-.8538-42.6476-1.391-60.3495a28.0966,28.0966,0,0,1,3.6627-14.7462l.7291-1.2821a31.78147,31.78147,0,0,1,26.8828-16.0627l17.3677-.407,9.2047,10.2432A2.31861,2.31861,0,0,1,3392.44723,103.6896Z" class="m"/><path d="M3327.85283,373.9481a153.008,153.008,0,0,0,63.8974-.6694l2.6262-.0821a9.54486,9.54486,0,0,0,6.5792-13.3054s-5.3013-62.2863,9.0749-120.9594c4.0738-16.6261-14.1864-31.1047-16.2295-36.6855l-1.7237-2.932a26.14977,26.14977,0,0,0-16.4259-12.2154c-12.1103-2.8948-31.1996-5.4259-42.3894,3.3821-4.0362,3.177-11.671,10.6776-11.8439,13.3362C3321.41813,203.8172,3316.12213,371.5719,3327.85283,373.9481Z" class="a"/><ellipse cx="3371.447" cy="258.973" class="b" rx="18.447" ry="62.303" transform="translate(64.58006 964.91451) rotate(-16.44294)"/><path d="M3413.99443,228.8695l7.9562-9.3821a2.83807,2.83807,0,0,0-.1856-3.8697l-5.802-5.6459a2.838,2.838,0,0,0-3.4037-.4209l-3.7578,2.18a2.83889,2.83889,0,0,0-1.3452,3.0744l1.2535,5.6044a3.51723,3.51723,0,0,1-.3217,2.4089,3.51728,3.51728,0,0,0,.2225,3.6491l.7977,1.1475Z" class="k"/><path d="M3381.35083,317.4582a14.1361,14.1361,0,0,1-8.702-18.6347c12.3477-31.3615,35.3882-74.9743,35.3882-74.9743l7.9858,2.6284s-8.4634,56.5842-16.6034,81.1571C3396.861,315.3582,3389.07913,320.0019,3381.35083,317.4582Z" class="k"/><path d="M3509.06913,366.8402c-23.2809-4.2232-142.8337-27.9527-151.9551-26.6404-4.8894.7027-11.5836,8.9634-13.781,11.443l-2.8335,3.1971c-15.945,17.9931-29.7883,29.0776-11.7821,56.6816,8.6057,13.1932,44.7412,21.0175,59.9402,22.4154q1.81635.1671,3.6471.3983a98.54707,98.54707,0,0,1,62.2077,33.8315c3.5753,4.1616,6.6376,7.4453,7.5132,7.5917,4.7071.7867,15.3598-11.7989,17.9887-14.4409a11.29691,11.29691,0,0,0,1.9299-2.5937s9.9772-14.4258,18.5163-27.9021a71.10384,71.10384,0,0,0,10.958-41.1666C3510.93323,378.5481,3510.16663,367.0393,3509.06913,366.8402Z" class="a"/><path d="M3390.27233,103.9311a73.57532,73.57532,0,0,1,30.3514,32.5858l2.0003,4.222-1.8855-25.9246a27.18662,27.18662,0,0,0-27.098-25.2146l-12.068-.0075Z" class="m"/><path d="M2590.67,1955.0682l1.0329,11.1637a1.04946,1.04946,0,0,1-1.0782,1.1456l-23.4923-.7432a.747.747,0,0,1-.2616-1.4369l10.2545-4.2369a7.50307,7.50307,0,0,0,4.3522-4.8831l.3663-1.2885Z" class="i"/><path d="M2553.66033,1502.1298c7.85,6.501-3.5853,33.2633-25.5415,59.7751s-46.1189,42.7338-53.9688,36.2327,3.5853-33.2633,25.5416-59.775C2521.64783,1511.8506,2545.81043,1495.6287,2553.66033,1502.1298Z" class="b"/><path d="M2403.83123,1595.2778l-10.9703,5.5767a2.83927,2.83927,0,0,1-3.7237-1.0747l-4.1552-6.952a2.83911,2.83911,0,0,1,.3767-3.4101l2.9902-3.1541a2.83988,2.83988,0,0,1,3.3033-.599l5.1654,2.5149a3.51954,3.51954,0,0,0,2.4192.2434,3.5184,3.5184,0,0,1,3.5004,1.0595l.9325,1.0416Z" class="k"/><path d="M2497.60173,1583.9709a14.14186,14.14186,0,0,0-16.1278-12.7755c-33.3789,4.7732-81.1526,17.1272-81.1526,17.1272l.7131,8.3769s57.0321,4.8349,82.831,2.5891C2491.97423,1598.5827,2498.292,1592.0809,2497.60173,1583.9709Z" class="k"/><path d="M2564.61943,1453.1979s-8.8184,33.3278,4.6151,52.1416l-33.657,13.6636-20.6505-18.245s10.8316,5.1041,13.1661-51.109Z" class="k"/><path d="M2530.62473,1472.1062c-4.7916-.1503-18.8404-1.8692-19.3166-6.5873-1.9933-19.7517-4.332-32.3853-2.7042-49.7914a14.35982,14.35982,0,0,1,1.4882-5.2944c3.4745-6.7364,11.8948-11.4651,14.7991-11.7222,12.3757.2899,17.6215,9.7289,30.0786,10.611a5.24117,5.24117,0,0,1,2.9772.8289,4.49074,4.49074,0,0,1,1.3283,2.9384c.7579,5.0327-1.0306,10.2386-1.0779,15.3663a82.32031,82.32031,0,0,1-1.442,15.7037c-2.0493,10.0437-6.9989,19.3145-16.0847,24.8427A18.58465,18.58465,0,0,1,2530.62473,1472.1062Z" class="k"/><path d="M2508.391,1405.9018l17.9673,1.995a18.99232,18.99232,0,0,1,16.861,17.7163l1.2923,21.1175a80.7201,80.7201,0,0,0,14.4357,41.3607c1.6912,2.4157,2.9327,4.0542,3.1923,4.0603.9918.0233,6.082-5.4891,5.6209-6.9838s1.634-68.2562,1.634-68.2562-12.2193-23.4386-13.5339-23.8001-35.3704-.8287-35.3704-.8287l-12.1406,13.5104A.06537.06537,0,0,0,2508.391,1405.9018Z" class="u"/><path d="M2567.16413,1765.2326l21.7444,48.0994a125.04041,125.04041,0,0,1,10.313,65.53l-8.6909,77.012-9.1304,1.9694-1.0735-6.4249q-7.1946-30.14265-12.9059-60.6153c-7.5286-40.2663-15.131-73.7657-25.3585-117.2936l-.0812-.4491a13.286,13.286,0,0,1,25.183-7.8279Z" class="k"/><path d="M2478.20123,1954.9592l-.8644,11.178a1.04949,1.04949,0,0,1-1.2559.9474l-23.0304-4.6941a.74691.74691,0,0,1-.0156-1.4604l10.8221-2.447a7.50351,7.50351,0,0,0,5.1132-4.0793l.5783-1.2083Z" class="i"/><path d="M2520.41753,1769.6528l4.1803,52.6202a125.03857,125.03857,0,0,1-12.4762,65.1527l-34.2449,69.5248-9.2579-1.2374,1.1645-6.4089q3.43275-30.79875,8.3728-61.4059c6.545-40.4379,10.7304-74.5332,15.8398-118.9536l.0756-.45a13.286,13.286,0,0,1,26.346,1.1581Z" class="k"/><path d="M2577.37163,1676.7535a153.07209,153.07209,0,0,1-63.9232-.6698l-2.6271-.0821a9.54863,9.54863,0,0,1-6.5819-13.3108s5.3033-62.3113-9.0785-121.0082c-4.0754-16.6327,14.1921-31.1172,16.2359-36.7001l1.7244-2.9333a26.16029,26.16029,0,0,1,16.4326-12.2202c12.1151-2.896,31.2122-5.4282,42.4066,3.3833,4.0377,3.1783,11.6756,10.6819,11.8486,13.3416C2583.809,1506.5539,2589.107,1674.3762,2577.37163,1676.7535Z" class="i"/><ellipse cx="2521.313" cy="1565.442" class="b" rx="62.329" ry="18.455" transform="translate(126.63832 3318.48513) rotate(-68.0418)"/><path d="M2505.41743,1400.7501a6.19581,6.19581,0,0,1,2.6355-8.6808l9.8661-4.8222a42.13829,42.13829,0,0,1,41.9013,2.8129l3.1984,2.1353a79.38094,79.38094,0,0,1,31.5429,41.8745l11.4279,35.7916,15.6866,31.5069a35.333,35.333,0,0,1-38.742,50.3576,34.47228,34.47228,0,0,1-24.0498-18.6661l-23.7091-48.6554-8.0771-57.681a24.11628,24.11628,0,0,0-13.485-18.4149A18.91487,18.91487,0,0,1,2505.41743,1400.7501Z" class="m"/><path d="M2508.05283,1392.079l7.1311-3.4854a18.90154,18.90154,0,0,0,5.691,8.6663,24.11642,24.11642,0,0,1,8.1917,21.3037l-1.4776,11.6777-.4913-3.5083a24.11583,24.11583,0,0,0-13.4848-18.4148,18.91166,18.91166,0,0,1-8.1956-7.5586A6.19554,6.19554,0,0,1,2508.05283,1392.079Z" class="m"/><path d="M2587.39673,1550.5145a35.33371,35.33371,0,0,0,13.3986-35.1424l-6.888-34.5154-1.6558-37.5351a79.35507,79.35507,0,0,0-6.3131-27.6622,79.35305,79.35305,0,0,1,8.6229,18.42l11.428,35.7916,15.6867,31.5069a35.32408,35.32408,0,0,1-36.5836,50.7222C2583.34363,1547.1744,2577.25093,1534.6489,2587.39673,1550.5145Z" class="m"/><path d="M2471.86263,1798.1215c4.9465-23.1478,28.4582-142.7937,33.1415-150.7346,2.5098-4.2568,12.6991-7.3092,15.8293-8.3994l4.0358-1.4059c22.7131-7.9106,38.2344-16.5039,56.928,10.6554,8.9347,12.9804,2.4313,49.392-2.0557,63.9871q-.53625,1.7442-1.0186,3.5261a98.58743,98.58743,0,0,0,7.6452,70.427c2.4908,4.891,4.3647,8.9733,4.1671,9.8391-1.0623,4.6547-16.7591,9.7249-20.2034,11.1526a11.29931,11.29931,0,0,1-3.134.7993s-17.1426,3.7454-32.8598,6.5213a71.13172,71.13172,0,0,1-42.2586-5.5172C2481.98683,1804.2991,2471.62943,1799.2127,2471.86263,1798.1215Z" class="i"/><rect width="98.719" height="9.136" x="2366.644" y="1582.356" class="m"/><polygon points="2366.843 1591.492 2335.281 1495.55 2344.673 1495.528 2376.236 1591.469 2366.843 1591.492" class="m"/><path d="M2438.17513,1563.002l-11.7361-3.7022a2.83894,2.83894,0,0,1-1.9054-3.375l1.9027-7.8724a2.8391,2.8391,0,0,1,2.657-2.1704l4.3434-.1572a2.83977,2.83977,0,0,1,2.7774,1.8859l1.926,5.4126a3.51866,3.51866,0,0,0,1.5563,1.868,3.51873,3.51873,0,0,1,1.7566,3.2078l-.0637,1.3965Z" class="k"/><path d="M2513.02843,1620.602a14.14212,14.14212,0,0,0-2.5651-20.4143c-27.1691-19.9692-69.9204-44.6112-69.9204-44.6112l-5.3598,6.4817s37.3241,43.3929,57.3126,59.8576C2498.77823,1627.0909,2507.84133,1626.8746,2513.02843,1620.602Z" class="k"/><polygon points="3221.624 1540.929 3189.528 1540.929 3207.181 1483.157 3239.277 1483.157 3221.624 1540.929" class="i"/><path d="M3221.07123,1490.218a5.06463,5.06463,0,0,0-4.5046,3.4503,2.46529,2.46529,0,0,0,2.396,3.4503,5.06477,5.06477,0,0,0,4.5046-3.4503A2.46523,2.46523,0,0,0,3221.07123,1490.218Z" class="a"/><ellipse cx="3114.384" cy="1557.636" class="k" rx="18.865" ry="63.713" transform="matrix(0.95782, -0.28735, 0.28735, 0.95782, -316.24192, 960.623)"/><path d="M3121.35383,1614.2141a14.45611,14.45611,0,0,1,1.8622-20.9491c27.0125-21.4083,68.9701-49.0665,68.9701-49.0665l6.9247,7.78s-36.9258,45.2534-56.7332,62.8152C3136.152,1620.3136,3126.88563,1620.4291,3121.35383,1614.2141Z" class="k"/><path d="M3192.18613,1544.1985l11.1234-11.6196a27.43306,27.43306,0,0,1,14.1345-9.1496l.6412-.1722a1.13907,1.13907,0,0,1,1.4283.9793c.0428.4039,1.4106,4.6332,1.7104,5.5616.3023.9346-.1124,5.2605.0854,6.1307.1869.8219-3.2081,6.7265-3.2081,6.7265a.95476.95476,0,0,1-.6381.5318l-6.0995,1.5242a21.18936,21.18936,0,0,0-8.2792,3.6341c-2.2505,1.6361-1.2129,3.2848-3.9736,3.6332l-4.3556-.5209Z" class="k"/><path d="M3111.52483,1426.5439l-33.7955-9.8881-21.8349,53.3451-35.4962,18.1328-1.5409-10.8699a115.58965,115.58965,0,0,1,21.7626-85.2956,32.24736,32.24736,0,0,1,39.4173-9.988l15.8259,6.5635a40.42671,40.42671,0,0,1,24.2013,45.0346,16.07683,16.07683,0,0,1-.7642,2.6763l-10.1103,26.4708a44.85712,44.85712,0,0,0-.8969,29.4279,24.42764,24.42764,0,0,1-18.5119,31.2622l-24.7684,4.9598-3.5736-39.5425,31.2405-40.9361Z" class="m"/><path d="M3052.10543,1412.827a32.2471,32.2471,0,0,1,39.4172-9.9879l15.826,6.5634a40.3237,40.3237,0,0,1,12.3836,8.0652,40.41693,40.41693,0,0,0-23.9787-28.6049l-15.8261-6.5635a32.24751,32.24751,0,0,0-39.4172,9.9878,115.59019,115.59019,0,0,0-21.7627,85.2957l1.541,10.8699,8.9277-4.5605A115.59039,115.59039,0,0,1,3052.10543,1412.827Z" class="m"/><path d="M3039.02913,1447.048s-3.6166,37.6032-24.5782,51.8266l29.389,26.845,28.1619-10.8934s-13.0727,1.1246,5.9127-57.5297Z" class="k"/><path d="M3066.76993,1479.4109c4.9812,1.6684,20.0722,5.2464,22.3563.5791,9.5622-19.5391,16.7716-31.6321,21.7204-50.1385a15.73706,15.73706,0,0,0,.4849-6.0068c-1.0079-8.2441-7.8621-16.3069-10.7488-17.6759-12.828-4.41-21.8095,3.2942-34.9464-.5383a5.74159,5.74159,0,0,0-3.3747-.2807,4.92127,4.92127,0,0,0-2.4828,2.5143c-2.6933,4.8834-2.8359,10.9135-4.7378,16.201a90.19269,90.19269,0,0,0-4.4923,16.6861c-1.7147,11.1008-.1552,22.5107,7.0786,31.648C3060.03683,1475.4427,3063.06643,1478.1707,3066.76993,1479.4109Z" class="k"/><path d="M3113.07893,1419.406l-17.4983-4.3556a20.81106,20.81106,0,0,0-24.0663,11.7916l-9.3617,21.2093a88.45206,88.45206,0,0,1-30.5687,37.0119c-2.6572,1.8392-4.5562,3.0507-4.8253,2.9582-1.0279-.3534-4.1618-7.9544-3.1194-9.315s24.2867-70.7639,24.2867-70.7639,21.4735-19.4375,22.9618-19.3091c1.0594.0915,19.1831,6.4375,29.5438,10.0886a24.902,24.902,0,0,1,11.6437,8.5438l7.657,10.2019c1.009,1.6261-2.2369,4.9868-3.6055,3.6492A6.6421,6.6421,0,0,0,3113.07893,1419.406Z" class="m"/><path d="M3043.73433,1657.0079l6.04-2.5856,1.4522-.6247,9.3052-3.997,1.1982-.5292,28.3316-12.1476,1.1752-.5204,8.468-3.6296c12.148,15.7055,13.6703,34.5597,12.5728,48.3359-.0885,1.167-.195,2.2874-.3327,3.3938-.331,2.9028-.7599,5.5118-1.1949,7.7325a56.608,56.608,0,0,0-.536,18.5735l3.8564,28.1388c5.4893,26.7023,3.8854,44.3456,1.2571,58.5285-.9026,4.8706-1.7777,9.7516-2.3124,14.6763a20.05252,20.05252,0,0,1-39.9255-.6425c-.0062-.0793-14.0695-38.4904-18.3996-53.2658l-6.5291-11.714C3023.06753,1696.8517,3043.73433,1657.0079,3043.73433,1657.0079Z" class="k"/><path d="M3024.86313,1646.6017l6.5448-.5765,1.5745-.1415,10.0873-.9009,1.3034-.1299,30.7055-2.7223,1.2789-.1287,9.1771-.8126c6.654,18.7072,2.2302,37.0982-3.102,49.8481-.4476,1.0812-.8975,2.1127-1.3727,3.1214-1.2185,2.6553-2.4384,5.0011-3.5433,6.976a56.60311,56.60311,0,0,0-6.2923,17.4833l-5.0967,27.9408c-3.0976,27.0841-10.1153,43.3511-17.029,56.0106-2.3743,4.3475-4.7255,8.7134-6.7669,13.2269a20.05258,20.05258,0,0,1-37.7409-13.0419c.0189-.0773-1.3857-40.9577-.9-56.3469l-2.5574-13.1648C2992.81793,1678.0301,3024.86313,1646.6017,3024.86313,1646.6017Z" class="k"/><g class="v"><rect width="210.677" height="148.303" x="2971.476" y="1600.373" class="m" transform="translate(6013.40708 3584.29969) rotate(-175.51934)"/></g><path d="M3100.99683,1504.9909a26.11235,26.11235,0,0,0-28.9418-8.7951,104.57053,104.57053,0,0,1-23.877,4.8937c-23.9098,2.0729-34.9072-10.5942-48.867,2.6455-20.955,19.8747,2.0764,65.2831,14.2409,88.8467,4.5357,8.7852,11.9139,32.4469,11.3112,54.02,0,0,48.6969,17.5248,85.4862,7.3058l-2.5584-65.4877S3135.90563,1550.5693,3100.99683,1504.9909Z" class="e"/><ellipse cx="3001.095" cy="1564.713" class="k" rx="63.713" ry="18.865" transform="translate(1206.71513 4434.39863) rotate(-85.51941)"/><path d="M2985.97043,1615.3208a14.456,14.456,0,0,1,14.1751-15.537c34.461-.6629,84.5979,2.7583,84.5979,2.7583l.7945,10.3849s-56.7957,13.6251-83.194,15.5938C2994.04663,1629.1396,2986.60513,1623.6167,2985.97043,1615.3208Z" class="k"/><path d="M3074.35863,1805.8931a13.964,13.964,0,0,1,12.1044-7.8623,35.39561,35.39561,0,0,1,21.3027,6.3115l.0976.0677a11.40523,11.40523,0,0,1,2.8616,15.5822,63.884,63.884,0,0,0-7.4281,14.8696c-2.398,7.2186-5.1902,19.3227-8.0326,33.4374-8.5966,42.6888-17.6527,103.776-17.6527,103.776l-13.144-.6406c-7.3383-50.2592-6.8735-87.504-3.574-114.2486C3064.20123,1830.3746,3070.35663,1814.1199,3074.35863,1805.8931Z" class="k"/><path d="M3110.22543,1980.4854l-46.1608.1291-.0308-11.0136,9.8495.4648,26.6749,3.908c7.3344.6652,9.6584,3.3468,9.6672,6.5117Z" class="e"/><path d="M3006.52743,1805.2074a13.96467,13.96467,0,0,1,12.5161-7.1893,35.39746,35.39746,0,0,1,20.9259,7.4665l.0938.073a11.40551,11.40551,0,0,1,2.0058,15.7153,63.87082,63.87082,0,0,0-8.2298,14.4413c-2.789,7.0767-6.2384,19.0103-9.848,32.9484-10.9167,42.1553-23.298,102.6561-23.298,102.6561l-13.0894-1.358c-4.5804-50.585-2.081-87.7488,2.6753-114.273C2995.04723,1829.0971,3002.08193,1813.2031,3006.52743,1805.2074Z" class="k"/><path d="M3031.89473,1980.1338l-46.1606-.1635,1.6652-10.9255,12.4217.6723,26.6497,4.0771a6.39016,6.39016,0,0,1,5.424,6.3396Z" class="e"/><path d="M3084.74343,1602.5421l12.7585-7.6961a27.4334,27.4334,0,0,1,15.6795-6.136l.6628-.0404a1.13876,1.13876,0,0,1,.5445,2.1717l-8.8782,3.4255c-.3182.1461-.0028,1.1957.343,1.142l7.7905-1.2066a1.71452,1.71452,0,1,1,.3628,3.4059l-5.5313.324c-1.4963.0877-4.5152,1.1841-4.4484,1.6973.1529,1.1758,8.79.518,8.79.518a1.61887,1.61887,0,0,1,.1996,3.2287l-7.5389.7857a.57.57,0,0,0-.1391,1.1013s5.5505-.0292,5.5561,1.1516c.0014.2738-.9168,1.2639-.9168,1.2639a.95466.95466,0,0,1-.7316.3931l-6.2812.2729a21.19107,21.19107,0,0,0-8.8389,1.9037c-2.5324,1.1528-1.8459,2.9756-4.6205,2.7646l-3.9679-.0859Z" class="k"/><path d="M3739.475,1423.7491c-2.9715-9.2012-10.9343-16.6807-18.8279-20.1478a31.29689,31.29689,0,0,0-20.8377-1.9997c-14.2456,4.8318-31.8935,18.4067-47.8128,22.5025-18.0613,5.4372-25.482,3.6672-28.5867,3.0261-3.1026-1.0502-1.8893-.9715-2.6334-1.2862.3265-1.9863-1.841,2.7352,21.0813,38.0784,20.6551,28.4463,47.5709,56.021,82.0229,70.3574,34.357,12.4853,44.5191,14.0053,31.4798-27.9964-3.399-11.5473-10.9131-23.2293-12.3866-32.9909C3740.77713,1458.1159,3744.53143,1439.6462,3739.475,1423.7491Z" class="m"/><path d="M3781.09633,1619.8998s-65.7877-54.1568-76.8279-74.7698c-5.0494-9.4335-1.2642-20.0318,10.0948-22.7035,14.3497-3.3804,26.6936,17.2134,32.7203,24.7629,15.3219,19.1986,48.2172,58.8331,48.2172,58.8331Z" class="f"/><path d="M3644.309,1780.1111c-5.9912,22.4178-16.0563,45.639-19.6194,69.8347-3.5632,24.1961,9.6544,77.7566,10.6753,120.4291l7.7221-.0661c8.2695-75.1221,18.0892-82.0821,23.693-107.3414,5.6037-25.259,2.3408-52.1016,6.1251-87.3409,1.3964-13.0031,3.6188-26.8036-7.7802-28.3808C3647.90443,1744.8627,3648.55453,1768.7664,3644.309,1780.1111Z" class="q"/><path d="M3700.38133,1780.1111c5.9914,22.4178,16.0564,45.639,19.6195,69.8347,3.5632,24.1961-9.6545,77.7566-10.6753,120.4291l-7.7221-.0661c-8.2694-75.1221-18.0892-82.0821-23.693-107.3414-5.6037-25.259-2.3408-52.1016-6.125-87.3409-1.3965-13.0031-3.6189-26.8036,7.78-28.3808C3696.78613,1744.8627,3696.13593,1768.7664,3700.38133,1780.1111Z" class="q"/><path d="M3717.10713,1408.9602a15.16133,15.16133,0,1,0-2.2597,21.3219A15.16142,15.16142,0,0,0,3717.10713,1408.9602Z" class="w"/><path d="M3661.94023,1422.9656a15.16133,15.16133,0,1,0-2.2596,21.322A15.16134,15.16134,0,0,0,3661.94023,1422.9656Z" class="x"/><path d="M3665.16753,1414.6305a15.1614,15.1614,0,1,0-2.2598,21.3219A15.16141,15.16141,0,0,0,3665.16753,1414.6305Z" class="x"/><path d="M3670.20913,1407.8038a15.16136,15.16136,0,1,0-2.2597,21.322A15.1614,15.1614,0,0,0,3670.20913,1407.8038Z" class="x"/><path d="M3680.32933,1401.7078a15.1614,15.1614,0,1,0-2.2597,21.322A15.16158,15.16158,0,0,0,3680.32933,1401.7078Z" class="m"/><path d="M3694.161,1398.2369a15.1614,15.1614,0,1,0-2.2597,21.322A15.16149,15.16149,0,0,0,3694.161,1398.2369Z" class="m"/><path d="M3709.32283,1402.9558a15.16136,15.16136,0,1,0-2.2597,21.3219A15.16125,15.16125,0,0,0,3709.32283,1402.9558Z" class="m"/><path d="M3618.87563,1423.7491c2.9716-9.2012,10.9343-16.6807,18.8278-20.1478a31.29693,31.29693,0,0,1,20.8377-1.9997c14.2456,4.8318,31.8936,18.4067,47.8129,22.5025,18.0614,5.4372,25.482,3.6672,28.5868,3.0261,3.1025-1.0502,1.8892-.9715,2.6333-1.2862-.3265-1.9863,1.841,2.7352-21.0813,38.0784-20.6551,28.4463-47.5708,56.021-82.0229,70.3574-34.357,12.4853-44.5191,14.0053-31.4798-27.9964,3.3991-11.5473,10.9131-23.2293,12.3866-32.9909C3617.57353,1458.1159,3613.81933,1439.6462,3618.87563,1423.7491Z" class="m"/><path d="M3694.05713,1537.0868a22.59767,22.59767,0,0,1-16.1813,6.6473,20.3688,20.3688,0,0,1-15.5592-6.6473s3.4101-23.6575,0-41.5546c-3.4224-17.8972,34.5735-26.8997,31.7405,0C3691.22643,1522.4274,3694.05713,1537.0868,3694.05713,1537.0868Z" class="q"/><path d="M3679.50863,1507.3787c5.4123-.0439,10.3774-3.1795,14.1377-7.0717,14.0042-14.4954,13.586-37.2137,12.2091-57.3219-.1459-2.1329-.3308-4.3801-1.54-6.1431-1.8621-2.7152-13.1228-13.5373-16.3942-13.9121-13.9767,0-20.1476,10.7389-34.2317,11.4194a5.81917,5.81917,0,0,0-3.3823.875,5.22051,5.22051,0,0,0-1.5769,3.3513c-.9887,5.7805.8922,11.8298.8102,17.7419a96.91175,96.91175,0,0,0,1.2123,18.1409c2.0477,11.6326,7.3892,22.4529,17.4985,29.0706C3671.61863,1505.7332,3675.48453,1507.4115,3679.50863,1507.3787Z" class="q"/><path d="M3643.66073,1458.8084c.8264,2.0141,1.6046,4.0498,2.3901,6.0802a2.54485,2.54485,0,0,0,4.9117-.7763c.0706-1.0733.159-2.143.2511-3.2038,1.5581-17.9549,4.9366-20.9403,9.639-21.2434a19.29157,19.29157,0,0,0,16.4537-11.029l.4894-1.063a.58648.58648,0,0,1,1.1146.1677c1.5248,12.2244,21.8981,7.8387,22.35,22.2471.1333,4.2489.827,17.0289,1.2995,23.8661.0852,1.2335,4.0912,2.0726,4.6524.9709C3762.02183,1367.2167,3610.69683,1378.4676,3643.66073,1458.8084Z" class="m"/><path d="M3711.02953,1614.6122c-6.9464-7.6453.9883-26.822.9883-26.822a24.47436,24.47436,0,0,0,7.3769-15.3658c.3077-3.3536.0344-49.446-2.8629-49.4632-6.6243-.0318-14.6561-3.318-19.8375-5.831a9.674,9.674,0,0,0-8.9173.2835c-1.9725,1.0916-4.8763,10.5869-8.9895,10.5869-4.1541,0-7.1135-9.4809-9.1309-10.5483a9.63751,9.63751,0,0,0-8.7844-.1409c-4.4185,2.1821-11.1634,4.9391-18.1202,5.6238-2.8092.2755-5.0025,45.563-4.6431,49.4892a24.47582,24.47582,0,0,0,7.3768,15.3658s9.7634,21.3753.9863,26.822c-42.367,26.2919-27.8854,200.2054-27.8854,200.2054s23.6193,2.4991,56.5997,2.5079c32.9786-.0088,57.47-5.353,57.47-5.353S3752.30753,1660.0427,3711.02953,1614.6122Z" class="f"/><path d="M3701.166,1519.1036a84.362,84.362,0,0,1-9.8073-4.7961s-3.7478,5.1577-12.61,5.1577c-8.8603,0-12.5566-5.1577-12.5566-5.1577a64.43286,64.43286,0,0,1-9.676,4.9553c-3.9395,1.6233,5.0351,24.4713,22.2326,24.4713C3695.94813,1543.7341,3705.10783,1520.7309,3701.166,1519.1036Z" class="q"/><g class="y"><path d="M3704.18623,1585.89c-9.9548.756-20.4827-3.5596-29.4536-1.0986-6.0958,1.6164-11.0243,3.1569-17.8649,3.0151-4.5465-.089-10.175-1.8593-12.6477-5.588.8407,5.2443,7.095,9.0344,11.8433,9.127,7.0748.2068,12.1734-1.3164,18.5003-2.9157,9.3369-2.4406,20.2612,1.5661,30.5388.9764a9.8448,9.8448,0,0,0,9.1286-6.7447C3712.13533,1585.8646,3707.49673,1585.689,3704.18623,1585.89Z" class="z"/></g><path d="M3603.95773,1634.8755s46.6101-71.3336,50.9899-94.303c2.0016-10.5111-4.7762-19.4951-16.4148-18.6524-14.7043,1.0598-20.3341,24.4002-23.8308,33.4052-8.8886,22.8985-28.4449,70.5488-28.4449,70.5488Z" class="f"/><path d="M3692.01583,1631.4782l7.5273.318a21.17657,21.17657,0,0,0,4.4601-.2837,23.92275,23.92275,0,0,1,9.1973.1831c8.3172,1.8356,23.1116,5.6651,24.0293,9.8484l1.6193,4.4059a2.37942,2.37942,0,0,1-1.2644,2.6402c-1.0069.5008-24.2733-1.0499-24.2733-1.0499a15.29218,15.29218,0,0,1-7.7053-1.77l-1.8628-.987c-3.0439-1.6129-5.9086-2.8488-9.3193-2.3665l-3.4974-.7133Z" class="q"/><path d="M3586.37483,1625.7584c-.9952,8.1521,4.5182,9.9639,9.1172,10.7515,2.4737.4239,29.4092,1.8978,54.3414,3.2405,21.3801,1.1513,41.2875,2.2061,43.0297,2.4193,4.0488-6.7646,2.1023-11.0496,2.0754-11.0895,0,0-22.8419-3.3986-46.3135-6.8795-23.0838-3.4232-46.7768-6.9259-49.9507-7.3531C3592.269,1615.9818,3587.36593,1617.6103,3586.37483,1625.7584Z" class="q"/><path d="M3702.67293,1965.6094h3.8465a8.6748,8.6748,0,0,1,8.6748,8.6748v.8562a0,0,0,0,1,0,0H3693.998a0,0,0,0,1,0,0v-.8561A8.6749,8.6749,0,0,1,3702.67293,1965.6094Z" class="f"/><path d="M3636.88963,1965.6094h3.8464a8.6748,8.6748,0,0,1,8.6748,8.6748v.8562a0,0,0,0,1,0,0h-21.1961a0,0,0,0,1,0,0v-.8561A8.6749,8.6749,0,0,1,3636.88963,1965.6094Z" class="f"/><rect width="29.572" height="58.453" x="3652.035" y="1576.423" class="i"/><path d="M3666.82113,1583.2503a3.23405,3.23405,0,1,0,3.234,3.2341A3.23409,3.23409,0,0,0,3666.82113,1583.2503Z" class="a"/><path d="M3693.02763,1626.1948l-7.4691.987a21.16272,21.16272,0,0,0-4.344,1.0499,23.92371,23.92371,0,0,1-9.0907,1.4083c-8.5093-.3713-23.7428-1.5877-25.3693-5.5496l-2.3561-4.06a2.37953,2.37953,0,0,1,.7894-2.819c.9052-.6671,24.0897-3.1587,24.0897-3.1587a15.29268,15.29268,0,0,1,7.8953.4124l2.0053.6505c3.2766,1.0628,6.3118,1.7852,9.588.721l3.568.0985Z" class="q"/><path d="M3785.83843,1603.0393c-6.4149.7525-96.4926,12.5926-96.4926,12.5926-.0275.0394-2.0466,4.2907,1.8865,11.1231,3.7813-.3972,92.8456-3.2931,97.4534-4.0022,4.6118-.7093,10.1552-2.4269,9.2988-10.5949C3797.13233,1603.9941,3792.25753,1602.2824,3785.83843,1603.0393Z" class="q"/></g></svg>