<svg xmlns="http://www.w3.org/2000/svg" viewBox="0 0 676.158 366.569"><defs><style>.a{fill:#f9dea6}.b{fill:#e2b17f}.c{fill:#fff}.d{fill:#fff7e0}.e{fill:#40405a}.f{fill:#e8575d}.g{fill:#8bc540}.h{fill:#8683be}.i{fill:#171826}.j{fill:#37b34a}.k{fill:#2f2d44}.l{fill:#f09087}.m{fill:#d3333b}.n{fill:#f7ab9d}.o{fill:#4c5d46}.p{fill:#384936}.q{fill:#ef515f}.r{fill:#9f4835}.s{fill:#843528}.t{fill:#af5647}.u{fill:#cbebfb}.v{fill:#1967a5}.w{fill:#3985c3}.x{fill:#b6e4f9}.y{fill:#f48f9c}.z{fill:#f68e1e}.aa{fill:#fcb912}.ab{fill:#1a7db9}.ac{fill:#1a68a4}.ad{fill:#047a86}.ae{fill:#02b8a6}.af{fill:#008ea6}.ag{fill:#00818d}</style></defs><title>2860931</title><path d="M643.03878,374.37829a34.76909,34.76909,0,0,0-6.0013-.7748c-4.6079-.0158-9.21609,0-13.8239,0H19.44439c-5.5576,0-5.8871-18.1766-6.6704-21.7476-2.265-10.3258-.2216-20.7736,3.4407-30.5401,4.6312-12.3503,11.3406-24.1703,12.917-37.2657,1.4528-12.0686-1.5874-24.156-3.7445-36.1187s-3.3553-24.7449,1.4909-35.8927c5.6202-12.9285,18.6625-21.9295,22.6154-35.4612,2.291-7.8428,1.2062-16.2207,1.72-24.3751.5678-9.0126,5.2825-21.3238,13.6898-25.909,11.6108-6.3323,26.03-.5048,38.3122-4.3485,9.7668-3.0565,16.8515-11.4699,22.3528-20.0994,5.501-8.6291,10.1217-18.0283,17.5252-25.0931,15.7183-14.9991,45.3478-8.5469,58.8473,6.8107,12.9046,14.6791,40.6316,19.876,55.8458,7.7227,10.96109-8.7565,16.11739-23.001,25.10929-33.8509,18.9256-22.8426,60.7709-31.2031,79.048-3.4032,7.6863,11.6888,10.8306,25.7921,16.2073,38.7588s14.2981,25.8499,27.6415,29.3666c13.4226,3.536,27.1962-3.3134,41.0126-4.4606a51.268,51.268,0,0,1,41.0128,15.8883,53.76321,53.76321,0,0,1,13.86131,42.5303c-1.31631,10.9632,2.027,22.3631,12.43159,25.3469s21.4021-.2761,31.9201-2.8061c10.52031-2.5321,22.28831-4.1567,31.5478,1.5368,13.8013,8.4889,15.03,28.202,13.7608,44.6126-.87729,11.3429-1.9831,23.4452,1.6415,34.4467,1.56221,4.7416,4.4799,10.5274,8.5121,13.6766,5.1378,4.0126,14.3896,5.4747,20.564,7.6278,15.4498,5.3877,31.7599,11.3715,41.88749,24.2228,7.2644,9.2181,10.4919,22.0634,6.4401,33.0783-3.3694,9.1598-12.45609,16.4928-22.33589,16.9761A22.25456,22.25456,0,0,1,643.03878,374.37829Z" class="a" transform="translate(-1.79949 -8.80506)"/><path d="M603.53368,373.60349H63.76349A36.217,36.217,0,0,1,69.701,356.844c8.1122-11.98,21.5263-19.1076,34.57-25.3683,13.0459-6.2586,26.7061-12.4466,36.1861-23.3778,9.816-11.3207,13.9341-26.31,19.3002-40.2977,5.366-13.9898,13.1914-28.3778,26.8002-34.6407,18.4676-8.4996,39.8547.9268,57.7358,10.593,17.8833,9.6662,38.45489,20.0279,57.59669,13.185,18.1637-6.4941,27.5987-25.8306,37.5195-42.374,9.9188-16.5455,26.13891-33.549,45.1331-30.1842,17.70981,3.1357,27.3545,22.1726,32.9132,39.2767s11.2523,36.5371,27.1492,44.9447c26.3122,13.917,63.3801-11.6653,86.7107,6.8194,17.3204,13.7222,13.7822,42.4553,28.83371,58.6326,8.34549,8.9684,21.02749,12.5087,30.49029,20.2912A41.56307,41.56307,0,0,1,603.53368,373.60349Z" class="b" transform="translate(-1.79949 -8.80506)"/><polygon points="378.395 118.319 378.395 138.309 372.585 144.295 353.179 144.295 353.179 118.319 378.395 118.319" class="b"/><polygon points="375.812 116.1 375.812 136.091 370.002 142.077 350.595 142.077 350.595 116.1 375.812 116.1" class="c"/><polygon points="375.812 136.091 370.002 142.077 370.002 136.091 375.812 136.091" class="d"/><rect width="4.262" height="5.479" x="361.048" y="113.408" class="d"/><polygon points="407.828 118.319 407.828 138.309 402.018 144.295 382.612 144.295 382.612 118.319 407.828 118.319" class="b"/><polygon points="405.244 116.1 405.244 136.091 399.435 142.077 380.028 142.077 380.028 116.1 405.244 116.1" class="c"/><polygon points="405.244 136.091 399.435 142.077 399.435 136.091 405.244 136.091" class="d"/><rect width="4.262" height="5.479" x="390.481" y="113.408" class="d"/><polygon points="437.261 118.319 437.261 138.309 431.451 144.295 412.045 144.295 412.045 118.319 437.261 118.319" class="b"/><polygon points="434.678 116.1 434.678 136.091 428.868 142.077 409.461 142.077 409.461 116.1 434.678 116.1" class="c"/><polygon points="434.678 136.091 428.868 142.077 428.868 136.091 434.678 136.091" class="d"/><rect width="4.262" height="5.479" x="419.914" y="113.408" class="d"/><polygon points="466.694 118.319 466.694 138.309 460.884 144.295 441.478 144.295 441.478 118.319 466.694 118.319" class="b"/><polygon points="464.111 116.1 464.111 136.091 458.301 142.077 438.894 142.077 438.894 116.1 464.111 116.1" class="c"/><rect width="4.262" height="5.479" x="449.347" y="113.408" class="d"/><polygon points="464.111 136.091 458.301 142.077 458.301 136.091 464.111 136.091" class="d"/><path d="M274.30918,8.80506h107.762A14.47776,14.47776,0,0,1,396.328,23.4943V90.60209a14.47775,14.47775,0,0,1-14.2568,14.68923H270.535l-10.48259,11.88076V23.4943A14.47775,14.47775,0,0,1,274.30918,8.80506Z" class="e" transform="translate(-1.79949 -8.80506)"/><path d="M289.46248,23.405h79.90191a1.77431,1.77431,0,0,0,1.74709-1.80009h0a1.77434,1.77434,0,0,0-1.74709-1.8002H289.46248a1.7744,1.7744,0,0,0-1.74709,1.8002h0A1.77437,1.77437,0,0,0,289.46248,23.405Z" class="f" transform="translate(-1.79949 -8.80506)"/><path d="M341.67448,94.14138h27.68991a1.77428,1.77428,0,0,0,1.74709-1.8002h0a1.77411,1.77411,0,0,0-1.74709-1.79978H341.67448a1.77392,1.77392,0,0,0-1.7468,1.79978h0A1.77409,1.77409,0,0,0,341.67448,94.14138Z" class="f" transform="translate(-1.79949 -8.80506)"/><path d="M280.37728,63.84746h79.902a1.77422,1.77422,0,0,0,1.74711-1.8002h0a1.77439,1.77439,0,0,0-1.74711-1.80009h-79.902a1.77427,1.77427,0,0,0-1.74689,1.80009h0A1.7741,1.7741,0,0,0,280.37728,63.84746Z" class="f" transform="translate(-1.79949 -8.80506)"/><path d="M336.98439,72.24806h23.29489a1.77414,1.77414,0,0,0,1.74711-1.79988h0a1.77422,1.77422,0,0,0-1.74711-1.8002H336.98439a1.77424,1.77424,0,0,0-1.74721,1.8002h0A1.77416,1.77416,0,0,0,336.98439,72.24806Z" class="f" transform="translate(-1.79949 -8.80506)"/><path d="M299.01348,30.60545h50.5501a1.77449,1.77449,0,0,0,1.7472-1.8002h0a1.77446,1.77446,0,0,0-1.7472-1.80009h-50.5501a1.77427,1.77427,0,0,0-1.7472,1.80009h0A1.7743,1.7743,0,0,0,299.01348,30.60545Z" class="g" transform="translate(-1.79949 -8.80506)"/><path d="M299.01348,37.80582h50.5501a1.77433,1.77433,0,0,0,1.7472-1.8001h0a1.77437,1.77437,0,0,0-1.7472-1.8h-50.5501a1.77417,1.77417,0,0,0-1.7472,1.8h0A1.77414,1.77414,0,0,0,299.01348,37.80582Z" class="g" transform="translate(-1.79949 -8.80506)"/><path d="M299.01348,45.48622h50.5501a1.77426,1.77426,0,0,0,1.7472-1.79978h0a1.77443,1.77443,0,0,0-1.7472-1.8002h-50.5501a1.77423,1.77423,0,0,0-1.7472,1.8002h0A1.77406,1.77406,0,0,0,299.01348,45.48622Z" class="g" transform="translate(-1.79949 -8.80506)"/><path d="M299.01348,78.98973h50.5501a1.77426,1.77426,0,0,0,1.7472-1.79978h0a1.77443,1.77443,0,0,0-1.7472-1.8002h-50.5501a1.77423,1.77423,0,0,0-1.7472,1.8002h0A1.77406,1.77406,0,0,0,299.01348,78.98973Z" class="g" transform="translate(-1.79949 -8.80506)"/><path d="M299.01348,86.67034h50.5501a1.77433,1.77433,0,0,0,1.7472-1.80009h0a1.7744,1.7744,0,0,0-1.7472-1.8001h-50.5501a1.77421,1.77421,0,0,0-1.7472,1.8001h0A1.77414,1.77414,0,0,0,299.01348,86.67034Z" class="g" transform="translate(-1.79949 -8.80506)"/><path d="M309.49608,54.36706h50.5501a1.77427,1.77427,0,0,0,1.74721-1.80009h0a1.77423,1.77423,0,0,0-1.74721-1.80019h-50.5501a1.77435,1.77435,0,0,0-1.7472,1.80019h0A1.77439,1.77439,0,0,0,309.49608,54.36706Z" class="h" transform="translate(-1.79949 -8.80506)"/><path d="M442.14928,96.65941h65.7985a8.84,8.84,0,0,1,8.7051,8.96914v40.97538a8.84,8.84,0,0,1-8.7051,8.96914h-68.103l-6.4006,7.25426V105.62855A8.84,8.84,0,0,1,442.14928,96.65941Z" class="e" transform="translate(-1.79949 -8.80506)"/><path d="M451.40168,105.57394h48.7874a1.08338,1.08338,0,0,0,1.0668-1.09915h0a1.08338,1.08338,0,0,0-1.0668-1.09916h-48.7874a1.08342,1.08342,0,0,0-1.0667,1.09916h0A1.08342,1.08342,0,0,0,451.40168,105.57394Z" class="f" transform="translate(-1.79949 -8.80506)"/><path d="M483.28188,148.76494h16.9072a1.08322,1.08322,0,0,0,1.0668-1.09905h0a1.08329,1.08329,0,0,0-1.0668-1.09906h-16.9072a1.08325,1.08325,0,0,0-1.0666,1.09906h0A1.08318,1.08318,0,0,0,483.28188,148.76494Z" class="f" transform="translate(-1.79949 -8.80506)"/><path d="M445.85439,130.26781h48.78749a1.0833,1.0833,0,0,0,1.0667-1.09916h0a1.08336,1.08336,0,0,0-1.0667-1.09916H445.85439a1.08336,1.08336,0,0,0-1.06671,1.09916h0A1.0833,1.0833,0,0,0,445.85439,130.26781Z" class="f" transform="translate(-1.79949 -8.80506)"/><path d="M480.41818,135.39711h14.2237a1.08325,1.08325,0,0,0,1.0667-1.099h0a1.08329,1.08329,0,0,0-1.0667-1.09916h-14.2237a1.0833,1.0833,0,0,0-1.06679,1.09916h0A1.08326,1.08326,0,0,0,480.41818,135.39711Z" class="f" transform="translate(-1.79949 -8.80506)"/><path d="M457.23348,109.97047h30.8654a1.08352,1.08352,0,0,0,1.0669-1.09915h0a1.08353,1.08353,0,0,0-1.0669-1.09916h-30.8654a1.08338,1.08338,0,0,0-1.0668,1.09916h0A1.08338,1.08338,0,0,0,457.23348,109.97047Z" class="g" transform="translate(-1.79949 -8.80506)"/><path d="M457.23348,114.367h30.8654a1.08346,1.08346,0,0,0,1.0669-1.09916h0a1.08344,1.08344,0,0,0-1.0669-1.09905h-30.8654a1.08329,1.08329,0,0,0-1.0668,1.09905h0A1.08331,1.08331,0,0,0,457.23348,114.367Z" class="g" transform="translate(-1.79949 -8.80506)"/><path d="M457.23348,119.05656h30.8654a1.08334,1.08334,0,0,0,1.0669-1.099h0a1.08346,1.08346,0,0,0-1.0669-1.09916h-30.8654a1.08331,1.08331,0,0,0-1.0668,1.09916h0A1.0832,1.0832,0,0,0,457.23348,119.05656Z" class="g" transform="translate(-1.79949 -8.80506)"/><path d="M457.23348,139.51359h30.8654a1.08343,1.08343,0,0,0,1.0669-1.09905h0a1.08346,1.08346,0,0,0-1.0669-1.09916h-30.8654a1.08331,1.08331,0,0,0-1.0668,1.09916h0A1.08328,1.08328,0,0,0,457.23348,139.51359Z" class="g" transform="translate(-1.79949 -8.80506)"/><path d="M457.23348,144.20325h30.8654a1.08346,1.08346,0,0,0,1.0669-1.09916h0a1.08344,1.08344,0,0,0-1.0669-1.09905h-30.8654a1.08329,1.08329,0,0,0-1.0668,1.09905h0A1.08331,1.08331,0,0,0,457.23348,144.20325Z" class="g" transform="translate(-1.79949 -8.80506)"/><path d="M463.63408,124.47909h30.8654a1.08324,1.08324,0,0,0,1.0668-1.09916h0a1.08324,1.08324,0,0,0-1.0668-1.09915h-30.8654a1.08337,1.08337,0,0,0-1.0668,1.09915h0A1.08337,1.08337,0,0,0,463.63408,124.47909Z" class="h" transform="translate(-1.79949 -8.80506)"/><path d="M163.60769,14.6861h-58.5443a7.86537,7.86537,0,0,0-7.7454,7.98023v36.458a7.86546,7.86546,0,0,0,7.7454,7.98034h60.5947l5.695,6.45441V22.66633A7.86537,7.86537,0,0,0,163.60769,14.6861Z" class="e" transform="translate(-1.79949 -8.80506)"/><path d="M126.71389,39.92263l-7.9045,2.61427,6.8798,2.61415-.7806,4.04715-11.5398-4.65041.8782-4.47442,13.3454-4.6504Z" class="f" transform="translate(-1.79949 -8.80506)"/><path d="M136.91329,29.94305h5.0258l-12.4915,23.67939h-5.0257Z" class="f" transform="translate(-1.79949 -8.80506)"/><path d="M152.55279,40.07337l-.8782,4.47442-13.3454,4.65041.8782-4.49956,7.9048-2.61416L140.23209,39.47l.7808-4.047Z" class="f" transform="translate(-1.79949 -8.80506)"/><path d="M501.07189,195.837H592.1034a6.23489,6.23489,0,0,1,6.23489,6.23489v.37825a6.235,6.235,0,0,1-6.235,6.235h-91.0314a6.2348,6.2348,0,0,1-6.2348-6.2348v-.37854A6.2348,6.2348,0,0,1,501.07189,195.837Z" class="e"/><path d="M503.59568,207.52127h89.7762a3.49381,3.49381,0,0,1,3.44051,3.54476v.0003a3.49381,3.49381,0,0,1-3.44051,3.54476h-89.7762" class="i" transform="translate(-1.79949 -8.80506)"/><path d="M557.26828,211.06757a3.59382,3.59382,0,0,1-1.0054,2.50412,3.37641,3.37641,0,0,1-2.43349,1.039H503.59618a3.32788,3.32788,0,0,1-.8456-.10963,3.52306,3.52306,0,0,1-2.5966-3.43348,3.59132,3.59132,0,0,1,1.0086-2.50721,3.38253,3.38253,0,0,1,2.4336-1.03909h50.23321a.8985.8985,0,0,1,.09409.0033A3.49225,3.49225,0,0,1,557.26828,211.06757Z" class="g" transform="translate(-1.79949 -8.80506)"/><path d="M508.72,207.52127l-1.46559,7.08941h-3.65821a3.32788,3.32788,0,0,1-.8456-.10963l1.44381-6.97978Z" class="j" transform="translate(-1.79949 -8.80506)"/><polygon points="515.962 198.716 514.497 205.806 509.968 205.806 511.434 198.716 515.962 198.716" class="j"/><polygon points="525.001 198.716 523.536 205.806 519.01 205.806 520.475 198.716 525.001 198.716" class="j"/><polygon points="534.043 198.716 532.577 205.806 528.052 205.806 529.517 198.716 534.043 198.716" class="j"/><polygon points="543.085 198.716 541.619 205.806 537.091 205.806 538.556 198.716 543.085 198.716" class="j"/><path d="M553.92348,207.52457l-1.4659,7.08611H547.932l1.4657-7.08941h4.43171A.8985.8985,0,0,1,553.92348,207.52457Z" class="j" transform="translate(-1.79949 -8.80506)"/><path d="M184.91129,95.853s5.137-16.1725-8.9898-18.2309c-9.9886-1.91127-18.8357.29406-22.5458,7.7923s-.2484,30.63774,10.7021,42.19559c11.701,12.35,26.8267,22.34749,44.3782,16.31953s23.2593-16.31953,24.8289-23.22955-3.4247-16.76072-15.9819-17.05478-19.8346,2.20543-26.3985.29406A7.86683,7.86683,0,0,1,184.91129,95.853Z" class="k" transform="translate(-1.79949 -8.80506)"/><path d="M160.336,92.3009s2.6003-4.31369,3.0284-4.82824c-2.8539,1.24969-5.9932,5.29282-5.8505,9.18891a10.67358,10.67358,0,0,0,2.9252,6.54261Z" class="i" transform="translate(-1.79949 -8.80506)"/><path d="M158.22729,99.08749s2.8539,31.904,25.6851,36.75575c18.9184,4.02036,33.9614,0,37.3861-9.55643,3.0568-8.53-2.1404-14.70232-6.2786-16.46666s-15.5537,3.52858-26.9693-.735-7.5629-11.90889-7.5629-11.90889Z" class="i" transform="translate(-1.79949 -8.80506)"/><path d="M101.23869,140.23184s19.2236,6.31264,22.8845,11.04887c2.392,3.09449,2.9966,7.20418-.1427,10.14454-3.1392,2.94057-8.8362-.94049-10.8448-2.49938l-13.677-10.08437S96.74839,141.246,101.23869,140.23184Z" class="l" transform="translate(-1.79949 -8.80506)"/><path d="M115.09779,161.1313s17.0176,14.16871,26.9693,11.4678c10.4905-5.63612,17.8617-22.19469,19.253-28.81066s-2.1519-22.3614-9.3-21.69178c-2.3545.22049-15.5181,31.20566-15.5181,31.20566l-16.4812-5.95449S114.13459,154.405,115.09779,161.1313Z" class="m" transform="translate(-1.79949 -8.80506)"/><path d="M96.00279,138.22413a28.76343,28.76343,0,0,1-4.7601,3.11006c-1.816.83168-8.3591,3.469-8.4752,5.26335-.1881,2.90656,4.2956-.957,7.7786-1.6747s3.9474,3.22978,6.3855,2.512,3.7151-2.03357,3.0186-4.426S96.00279,138.22413,96.00279,138.22413Z" class="l" transform="translate(-1.79949 -8.80506)"/><path d="M101.979,143.64976s0-5.90854-.978-7.191-8.0907-1.46575-8.0907-1.46575-1.956-2.56491-2.8451-2.29012-.6223,2.47331.8002,4.12226,4.89.54968,4.89.54968.3556,4.03056,1.3336,5.03822S101.979,143.64976,101.979,143.64976Z" class="n" transform="translate(-1.79949 -8.80506)"/><path d="M103.31259,147.26818c.0889,1.83214-4.1787,3.93906-5.5123,3.93906-.0747,0-.1547,0-.2383-.00185-1.3798-.0238-3.6986-.27489-4.1182-1.83028a2.32557,2.32557,0,0,1-2.4006-2.01533c-.978-.54968-1.8671-1.09926-1.3336-2.47342a3.13247,3.13247,0,0,1,3.8231-1.46564c1.4225.45808.9922,1.55734.9922,1.55734s1.4083-.45437,1.4083,1.528v.02927c.978-2.19853,5.6902-3.57258,5.6902-3.57258A11.32016,11.32016,0,0,1,103.31259,147.26818Z" class="n" transform="translate(-1.79949 -8.80506)"/><path d="M103.31259,147.26818c.0889,1.83214-4.1787,3.93906-5.5123,3.93906-.0747,0-.1547,0-.2383-.00185a3.19439,3.19439,0,0,1-1.5399-2.24252,3.36124,3.36124,0,0,0,1.1558.36639c.8002.13744,1.9116-.77863,1.3781-1.74044s-2.6228-1.05351-2.6228-1.05351c.978-2.19853,5.6902-3.57258,5.6902-3.57258A11.32016,11.32016,0,0,1,103.31259,147.26818Z" class="l" transform="translate(-1.79949 -8.80506)"/><path d="M220.40879,211.21913c-.5458,5.17371-3.8742,16.57763-8.0309,29.37961v.00227c-4.3558,13.41069-9.6169,28.35638-13.5403,39.27285-3.1036,8.6383-4.4328,19.99586-6.6803,32.56416-2.2474,12.57046-19.9059,61.527-19.9059,61.527l-8.566-6.55435-2.5535-1.95393-10.0686-7.70111,18.9406-64.502,15.897-87.35381,2.4037-13.20566,26.325-12.23963S222.01409,196.00226,220.40879,211.21913Z" class="o" transform="translate(-1.79949 -8.80506)"/><path d="M210.88179,214.50074s-16.552,49.54753-20.8328,64.10282-7.1361,27.93292-10.5608,42.04713c-2.6263,10.81941-11.7082,35.72439-15.8028,46.76l-2.5535-1.95393c8.9406-16.88415,21.1945-63.01118,22.7805-72.00464,1.7124-9.70346,25.4004-80.86344,25.4004-80.86344Z" class="p" transform="translate(-1.79949 -8.80506)"/><path d="M220.40879,211.21913c-.5458,5.17371-3.8742,16.57763-8.0309,29.37961-1.7016-6.96886-2.9581-18.95491-8.9683-33.66455-4.5955.2955-11.8131-.36175-17.5087-1.03435l2.4037-13.20566,26.325-12.23963S222.01409,196.00226,220.40879,211.21913Z" class="p" transform="translate(-1.79949 -8.80506)"/><path d="M172.25139,373.50631l-43.7695-1.19529a12.85852,12.85852,0,0,1,1.4041-4.86945,6.98648,6.98648,0,0,1,3.0907-3.06988c4.1739-1.98483,18.0866-6.61607,18.0866-6.61607s5.1007-1.77526,16.0939,9.68595A63.12369,63.12369,0,0,1,172.25139,373.50631Z" class="m" transform="translate(-1.79949 -8.80506)"/><path d="M172.25139,373.50631l-43.7695-1.19529a12.85852,12.85852,0,0,1,1.4041-4.86945h37.2712A63.12369,63.12369,0,0,1,172.25139,373.50631Z" class="c" transform="translate(-1.79949 -8.80506)"/><path d="M250.69519,296.098c-.4299,7.27414-7.7099,77.40884-7.7099,77.40884l-6.4301-4.22436-2.4799-1.62793-15.59-10.23119s5.8799-48.52864,5.6699-73.236c-1.72-31.59-9.6999-61.91264-14.84-78.63493-2.5699-8.3663-4.43-13.32219-4.43-13.32219l13.4499-6.31594,10.9601-5.15166,1.98-.9376s2.32,1.88551,5.29,4.76014c4.73,4.585,11.1,11.69426,12.4201,17.78352,2.1399,9.9221-1.9301,70.57774-1.9301,70.57774S251.12519,288.82384,250.69519,296.098Z" class="o" transform="translate(-1.79949 -8.80506)"/><path d="M236.56689,184.58516c-3.1507,4.11741-7.423,9.05074-11.3443,12.0522-4.2937,3.286-10.9804,6.64688-15.9033,8.91629-2.5728-8.36939-4.4307-13.32694-4.4307-13.32694L231.28,179.82822S233.59809,181.70713,236.56689,184.58516Z" class="p" transform="translate(-1.79949 -8.80506)"/><path d="M243.20529,315.7258c-.5801,12.00337-5.5801,46.31343-6.6501,53.55666l-2.4799-1.62793c1.2598-7.26384,6.2099-36.42223,6.7699-47.96195.6201-12.67308,1.43-29.00384-.7601-41.79026a20.34511,20.34511,0,0,1-.2999-3.38979c-.11-11.82821-2.75-57.98708-5.5699-72.14385-11.24-.9479-14.8001-9.81906-15.8802-16.4544l10.9601-5.15166c2.4301,5.35773,6.7101,15.06346,7.9101,19.40115,1.55,5.5741,3.79,52.84573,4.06,71.55656a60.096,60.096,0,0,0,.75,8.58266C243.35519,288.85475,243.75529,304.16548,243.20529,315.7258Z" class="p" transform="translate(-1.79949 -8.80506)"/><path d="M227.36309,280.88163c.2862-.63191,9.6318-.88207,10.488.66168s-2.7825,16.76061-5.351,14.99627S225.86469,284.18971,227.36309,280.88163Z" class="p" transform="translate(-1.79949 -8.80506)"/><path d="M242.98809,373.50631l-43.7695-1.19529a12.85852,12.85852,0,0,1,1.4041-4.86945,6.98621,6.98621,0,0,1,3.0908-3.06988c4.1738-1.98483,14.7689-6.94681,14.7689-6.94681s8.4183-1.44452,19.4115,10.01669A63.10915,63.10915,0,0,1,242.98809,373.50631Z" class="q" transform="translate(-1.79949 -8.80506)"/><path d="M242.98809,373.50631l-43.7695-1.19529a12.85852,12.85852,0,0,1,1.4041-4.86945h37.2712A63.10915,63.10915,0,0,1,242.98809,373.50631Z" class="c" transform="translate(-1.79949 -8.80506)"/><path d="M231.28,179.82822c-3.8848,5.40306-19.6191,14.209-24.2809,15.411-4.6619,1.19972-12.9689,2.15906-25.0131.95707-.1198-2.45672-3.1421-12.38963-5.8647-20.342a84.87184,84.87184,0,0,0-3.9812-10.31229c-1.7487-2.803-11.7595-5.928-13.5082-9.72994-1.7488-3.80429-.6186-16.29315-.6186-16.29315s-7.9367-15.2213-5.9932-17.42219,12.1576-7.19172,12.1576-7.19172,8.2449-1.923,12.0549-1.58558c3.8121.3396,27.2711.26243,30.9612,9.06836s15.3447,47.43268,15.3447,47.43268S223.31549,171.82274,231.28,179.82822Z" class="q" transform="translate(-1.79949 -8.80506)"/><path d="M211.30979,173.48116c-1.3077,1.01014-23.322,3.30582-35.1885,2.37307a84.87184,84.87184,0,0,0-3.9812-10.31229s10.9162,4.41075,19.4778,5.29282S213.02219,172.158,211.30979,173.48116Z" class="m" transform="translate(-1.79949 -8.80506)"/><path d="M185.76749,205.82638c-17.3941,23.3739-18.3364,22.12689-18.3364,22.12689-5.2119-.40791-7.1297-5.66106-7.1297-5.66106l13.9078-24.99327A27.0182,27.0182,0,0,1,185.76749,205.82638Z" class="n" transform="translate(-1.79949 -8.80506)"/><path d="M208.16989,153.63306c-1.1216,11.27152-1.8922,25.99228-12.2711,41.01947-2.6091,3.77781-5.8947,8.054-9.3494,12.33678-3.5338-4.42177-10.5501-7.41-14.2338-8.74649l12.8811-24.6138s4.0839-49.00949,6.3271-52.76742,7.8361-4.52975,12.3417-.57781C208.02859,123.93363,209.29359,142.36153,208.16989,153.63306Z" class="m" transform="translate(-1.79949 -8.80506)"/><path d="M153.38859,219.573a27.51868,27.51868,0,0,0-3.6837.66168c-.5894.27561-5.7466,5.51331-6.3359,6.06464s-3.2908,1.32325-3.5855,1.87458,1.1297,2.26045,3.6837,1.4335S152.45539,221.39242,153.38859,219.573Z" class="q" transform="translate(-1.79949 -8.80506)"/><path d="M167.53389,227.95327c-1.5717.77192-8.4243.77615-8.4243.77615s-6.1139,1.20868-8.5697,1.31893c-.9411.0442-2.1277.11694-3.2613.14342-.6798.01545-1.3399.01319-1.9155-.022-.9725-.06182-1.7053-.22059-1.8959-.56236-.4912-.88217,8.1807-10.0344,9.9214-10.0344,2.7505,0,11.2966.88217,11.2966.88217C169.79329,221.99888,169.10569,227.18145,167.53389,227.95327Z" class="n" transform="translate(-1.79949 -8.80506)"/><path d="M147.27859,230.19177c-.6798.01545-1.3399.01319-1.9155-.022,2.2299-2.8229,7.0785-7.41005,7.2397-6.95794C152.73829,223.59115,149.38269,227.67982,147.27859,230.19177Z" class="q" transform="translate(-1.79949 -8.80506)"/><path d="M176.62209,111.91893c-1.5026,3.64769-7.8318,6.41094-12.4444,2.986a23.80158,23.80158,0,0,0-.839-4.82082c-1.3828-5.56637-3.9877-13.08439-3.9877-13.08439,5.1478-3.09625,15.1243,7.07261,15.1243,8.62068a8.74537,8.74537,0,0,0,1.4812,5.21575C176.15119,111.17349,176.37169,111.533,176.62209,111.91893Z" class="l" transform="translate(-1.79949 -8.80506)"/><path d="M175.95649,110.83616a31.87993,31.87993,0,0,1-6.3164.80706,11.2358,11.2358,0,0,1-6.3014-1.5591c-1.3828-5.56637-3.9877-13.08439-3.9877-13.08439,5.1478-3.09625,15.1243,7.07261,15.1243,8.62068A8.74537,8.74537,0,0,0,175.95649,110.83616Z" class="q" transform="translate(-1.79949 -8.80506)"/><path d="M176.58349,110.91086s-3.4915,2.38965-5.316,3.34167a78.01036,78.01036,0,0,1-7.673-1.88942s-.0675,1.90189.0538,3.85468c1.0969,2.847,5.9266,5.08561,5.9266,5.08561s1.4281-2.3407,2.2278-3.96358c.8569,1.17973,1.8232,2.454,2.5238,3.21628,1.9863-.97345,4.3715-6.47615,4.3436-7.277A7.91043,7.91043,0,0,0,176.58349,110.91086Z" class="m" transform="translate(-1.79949 -8.80506)"/><path d="M154.82769,94.02361c-1.5286.74236-1.4332,2.25324-1.0368,3.81038s3.3364,4.64587,5.596,4.91777a6.62613,6.62613,0,0,0,3.1842-.23007S158.574,92.20425,154.82769,94.02361Z" class="l" transform="translate(-1.79949 -8.80506)"/><path d="M155.71489,95.22117c1.1598-.31343,3.1656,1.0735,4.4722,3.25461-1.2229.06563-1.7564.62593-1.2942,1.40877a4.22093,4.22093,0,0,0,3.1666,1.22455,4.43048,4.43048,0,0,0,.3921.60728c-.3253.01752-4.8573.18649-5.2402-1.94475-.2297-1.64,1.8637-1.8275,1.8637-1.8275s-1.5859-1.803-2.7538-1.374c-1.0955.40255-1.0184,1.90169-1.0184,1.90169S153.80119,95.73829,155.71489,95.22117Z" class="q" transform="translate(-1.79949 -8.80506)"/><path d="M183.86129,93.4151c1.6577.33815,1.9209,1.82781,1.903,3.4375s-2.1429,5.34093-4.271,6.16952a6.62977,6.62977,0,0,1-3.1433.57256S179.79849,92.58651,183.86129,93.4151Z" class="l" transform="translate(-1.79949 -8.80506)"/><path d="M183.28249,94.79863c-1.1989-.01422-2.8182,1.83265-3.5722,4.27516,1.2017-.24193,1.8512.16825,1.5871,1.04331a4.29291,4.29291,0,0,1-2.7836,1.97937,4.53559,4.53559,0,0,1-.2374.68723c.3196-.06439,4.7561-1.03321,4.6257-3.1965-.1633-1.64843-2.2383-1.30708-2.2383-1.30708s1.1141-2.14556,2.3481-2.0212c1.1576.11674,1.4357,1.59032,1.4357,1.59032S185.26089,94.822,183.28249,94.79863Z" class="q" transform="translate(-1.79949 -8.80506)"/><path d="M181.54719,91.32538s-.092.61531-.2525,1.61875c-.6528,4.09094-2.4508,14.63031-3.8185,16.03949-1.706,1.75764-11.2694-1.17107-13.5425-2.53616-2.271-1.36509-5.2076-10.83044-5.2076-10.83044s1.3249-2.92655,1.6096-3.31684A13.09515,13.09515,0,0,1,165.828,89.764c3.125-.78069,7.0077-3.31685,8.6173-5.853C175.20309,89.27667,181.54719,91.32538,181.54719,91.32538Z" class="n" transform="translate(-1.79949 -8.80506)"/><path d="M181.54719,91.32538s-.092.61531-.2525,1.61875c-3.0908-.77408-5.9889-3.405-7.5493-5.3061-2.0869,2.64641-8.8293,4.521-10.8091,5.0172s-4.2102,2.96179-4.2102,2.96179,1.3249-2.92655,1.6096-3.31684A13.09515,13.09515,0,0,1,165.828,89.764c3.125-.78069,7.0077-3.31685,8.6173-5.853C175.20309,89.27667,181.54719,91.32538,181.54719,91.32538Z" class="l" transform="translate(-1.79949 -8.80506)"/><path d="M177.94859,95.25991a1.42772,1.42772,0,1,0-1.2857,1.60206A1.47107,1.47107,0,0,0,177.94859,95.25991Z" class="k" transform="translate(-1.79949 -8.80506)"/><path d="M180.00739,92.96454a5.67616,5.67616,0,0,0-2.4918-.83251,6.813,6.813,0,0,0-2.4604.77831,3.71267,3.71267,0,0,1,2.4165-2.0585C179.34569,90.563,180.00739,92.96454,180.00739,92.96454Z" class="k" transform="translate(-1.79949 -8.80506)"/><path d="M170.70469,95.25991A1.42772,1.42772,0,1,0,169.419,96.862,1.47107,1.47107,0,0,0,170.70469,95.25991Z" class="k" transform="translate(-1.79949 -8.80506)"/><path d="M166.19469,92.81813a6.64786,6.64786,0,0,1,2.7522-.81613,8.185,8.185,0,0,1,2.7277.79521,4.03987,4.03987,0,0,0-2.6872-2.0755C166.91169,90.42013,166.19469,92.81813,166.19469,92.81813Z" class="k" transform="translate(-1.79949 -8.80506)"/><path d="M173.33239,92.65461s-.8877,3.622-.3196,4.71964,2.9118,1.60979,2.9118,1.60979a9.21845,9.21845,0,0,1-1.882-2.15854A19.60656,19.60656,0,0,1,173.33239,92.65461Z" class="q" transform="translate(-1.79949 -8.80506)"/><path d="M174.68179,99.38649c-.1066-.25614-2.2597-.20277-2.2016.256C172.58669,100.4841,174.80839,99.69106,174.68179,99.38649Z" class="l" transform="translate(-1.79949 -8.80506)"/><path d="M168.52679,101.52062a4.08393,4.08393,0,0,0,3.0301,2.53668,3.94,3.94,0,0,0,4.3085-1.7561A9.07131,9.07131,0,0,1,168.52679,101.52062Z" class="q" transform="translate(-1.79949 -8.80506)"/><path d="M256.67569,277.23374V289.1451H374.72848V277.23374a11.08519,11.08519,0,0,0-10.916-11.24711h-96.2208A11.08525,11.08525,0,0,0,256.67569,277.23374Z" class="a" transform="translate(-1.79949 -8.80506)"/><path d="M305.01128,244.58911s-47.81859,11.80441-55.77269,16.78019-27.338,97.27065-27.338,97.27065,18.7489,6.73188,24.4304,14.63453c9.3745-42.14748,22.79279-86.73386,22.79279-86.73386s37.7819-10.82951,45.4519-13.75637,19.8852-12.00038,23.01-23.708S307.94608,242.73606,305.01128,244.58911Z" class="k" transform="translate(-1.79949 -8.80506)"/><path d="M246.331,373.27448h-12.7355l-3.414.01319h-30.4753a34.08238,34.08238,0,0,1,2.4058-2.8669c1.5368-1.63637,3.598-3.4955,5.5608-4.17037,3.7928-1.3011,9.5463-5.27077,11.6011-7.19605,2.0548-1.923,10.1478-6.4815,13.3092-5.70072,2.6027.64169,10.6272,9.02416,13.0609,15.82992.1498.419.2782.83364.3831,1.23722A8.525,8.525,0,0,1,246.331,373.27448Z" class="r" transform="translate(-1.79949 -8.80506)"/><path d="M246.331,373.27448h-12.7355l-3.414.01319h-30.4753a50.26221,50.26221,0,0,1,4.3814-2.8669h41.9395A8.525,8.525,0,0,1,246.331,373.27448Z" class="s" transform="translate(-1.79949 -8.80506)"/><path d="M215.00689,363.45078c-3.4565,2.4322-9.0206,4.08248-9.9479,5.21173l-.9273,1.12914,20.1487-.26057S220.40239,363.10335,215.00689,363.45078Z" class="t" transform="translate(-1.79949 -8.80506)"/><path d="M238.27489,359.15121s-6.4493,4.495-10.1797,5.8631-7.0184,2.34524-7.6506,5.798l-.7588.13033s-.7587-1.8241,2.6556-4.36479,5.4376-2.01956,8.6623-4.03911,6.7654-4.36479,6.7654-4.36479Z" class="s" transform="translate(-1.79949 -8.80506)"/><path d="M316.98578,373.27448h-12.7355l-3.414.01319h-30.4754a34.08238,34.08238,0,0,1,2.4058-2.8669c1.5369-1.63637,3.5981-3.4955,5.5609-4.17037,3.79281-1.3011,9.5463-5.27077,11.6011-7.19605,2.0548-1.923,10.14771-6.4815,13.3092-5.70072,2.6027.64169,10.6272,9.02416,13.0608,15.82992.1499.419.2783.83364.3831,1.23722A8.52265,8.52265,0,0,1,316.98578,373.27448Z" class="r" transform="translate(-1.79949 -8.80506)"/><path d="M316.98578,373.27448h-12.7355l-3.414.01319h-30.4754a50.28143,50.28143,0,0,1,4.3814-2.8669h41.9395A8.52265,8.52265,0,0,1,316.98578,373.27448Z" class="s" transform="translate(-1.79949 -8.80506)"/><path d="M285.66168,363.45078c-3.4565,2.4322-9.0206,4.08248-9.9479,5.21173l-.92739,1.12914,20.14879-.26057S291.05718,363.10335,285.66168,363.45078Z" class="t" transform="translate(-1.79949 -8.80506)"/><path d="M308.92968,359.1511s-6.44929,4.49513-10.1797,5.86321-7.0184,2.34524-7.6507,5.798l-.7587.13023s-.7587-1.824,2.6556-4.36469,5.4376-2.01956,8.66221-4.03911,6.76549-4.36479,6.76549-4.36479Z" class="s" transform="translate(-1.79949 -8.80506)"/><path d="M367.272,262.10177c-1.9179,5.048-38.1381,23.92575-38.1381,23.92575l-12.1481,87.247s-2.1361-1.31656-5.2227-3.08749c-.5072-.29107-1.0402-.59543-1.5925-.90639-6.2735-3.53743-16.8443-9.99432-20.6457-10.12878,3.6216-20.63548,8.5043-64.7814,10.42-78.17231,1.9178-13.39092,26.2073-27.8778,26.2073-27.8778l5.1135-8.78172,19.4736,4.83854,10.3575,2.57367,6.387,1.58784A12.10368,12.10368,0,0,1,367.272,262.10177Z" class="e" transform="translate(-1.79949 -8.80506)"/><path d="M361.09678,251.7322c-1.83,4.74808-4.5655,8.8523-5.899,9.93065-1.3678,1.10709-15.1585,9.61753-23.6431,14.82658a16.516,16.516,0,0,0-7.6584,11.91774L311.76308,370.187c-.5072-.29107-1.0402-.59543-1.5925-.90639l12.3087-82.02245a16.5107,16.5107,0,0,1,7.5022-11.79205c4.8887-3.07863,12.2175-7.7143,20.8135-13.21885a17.5141,17.5141,0,0,1-.0557-13.08872Z" class="k" transform="translate(-1.79949 -8.80506)"/><path d="M251.04209,212.88178s27.84269,18.328,45.76,8.76555c7.3474-9.828,14.1791-23.37483,14.0502-23.77326s-15.9837-7.039-15.9837-7.039l-10.57,15.80457-30.034.13281S248.593,209.03019,251.04209,212.88178Z" class="n" transform="translate(-1.79949 -8.80506)"/><path d="M240.14829,208.09949l8.5222,4.39045s6.6757.58534,6.7704-2.14649-8.1434-11.171-9.3271-11.41494-6.0602,1.56106-6.4863,2.09765-1.5624,6.53674-1.5624,6.53674Z" class="q" transform="translate(-1.79949 -8.80506)"/><path d="M240.66909,209.19711c.0993,1.228-.6629,1.97566-1.6578,1.43844-.6614,1.56137-1.9457.93946-3.3134-.68146-1.5625-1.8547-1.7894-3.1625-1.6567-4.14822.2355-1.75548.9931-2.09734.9931-2.09734a16.115,16.115,0,0,1,1.0574-2.29352,3.24276,3.24276,0,0,1,.5522-.73c.7578-.68363,7.4103.95264,7.4103.95264l-4.5806.57143.61,3.9915C240.40859,207.70931,240.62169,208.61177,240.66909,209.19711Z" class="l" transform="translate(-1.79949 -8.80506)"/><path d="M239.01129,210.63555a12.76947,12.76947,0,0,1-3.977-6.927,16.115,16.115,0,0,1,1.0574-2.29352A18.99648,18.99648,0,0,0,239.01129,210.63555Z" class="q" transform="translate(-1.79949 -8.80506)"/><path d="M244.97749,198.29444s-5.1133-1.122-6.5337.34145-3.693,10.34165-2.2726,11.51242,4.4032-8.049,4.4032-8.049l4.3084-.04874Z" class="n" transform="translate(-1.79949 -8.80506)"/><path d="M245.54569,195.1236c-2.462.48776-2.5567,4.78063-2.462,6.73188s.3788,7.90264,1.4203,8.09779c.7839.14682,1.4069-5.6183,1.6672-8.48056a.60468.60468,0,0,1,1.0849-.32888c.8841,1.16087,1.7596,2.32989,2.6008,3.52435.8452,1.20013,1.7432,2.27312,1.4048,3.86735-.6706,3.15817-4.3176,2.60406-5.8108,4.8814-1.1835,1.80494-.6876,4.18985.7103,3.5121.8048-.39019,2.2725-2.00008,3.5036-2.19523a27.06668,27.06668,0,0,0,5.6387-1.28668,4.06462,4.06462,0,0,0,2.4553-1.92528c1.5316-3.28078-1.5715-6.54528-3.4853-8.84746a39.8555,39.8555,0,0,0-6.4362-6.44C247.27909,195.81371,246.31129,194.97193,245.54569,195.1236Z" class="n" transform="translate(-1.79949 -8.80506)"/><path d="M304.01768,169.07454c-4.921,1.90477-17.28129,30.24426-17.28129,30.24426s16.05019,6.29285,20.45339,11.41494c5.2553-13.171,10.08461-22.09814,9.8005-29.26905S312.20848,165.90421,304.01768,169.07454Z" class="u" transform="translate(-1.79949 -8.80506)"/><path d="M369.78048,256.44277l-64.7692-11.85366,6.1087-20.63549-.8497-6.75279-2.55989-20.32s-4.97011-25.46517-3.69231-27.80732c1.2778-2.33989,14.2039-9.80495,14.2039-9.80495,1.7037-1.46214,11.2201-2.63322,13.9192-2.04882,2.699.58668,22.4423,6.58743,25.9933,9.95281s13.3498,41.85527,13.77791,56.04892C372.33839,237.41728,369.78048,256.44277,369.78048,256.44277Z" class="c" transform="translate(-1.79949 -8.80506)"/><path d="M349.37578,228.51428c-.4281,1.976-38.2558-4.56066-38.2558-4.56066l-.8497-6.75279C319.55758,218.62773,349.74188,226.81619,349.37578,228.51428Z" class="u" transform="translate(-1.79949 -8.80506)"/><path d="M379.41978,218.051c.2081-.45365.1142-8.29283-4.9991-19.6102-5.8709.19514-15.056,5.2684-15.056,5.2684l2.8408,11.12222s1.8938,6.3417,3.2195,7.31732S374.85508,228.00242,379.41978,218.051Z" class="l" transform="translate(-1.79949 -8.80506)"/><path d="M356.33458,165.952c.9602-1.151,12.3099,9.26856,16.0029,17.95179,3.5548,8.35836,5.3027,14.04909,5.3027,14.04909a24.60114,24.60114,0,0,1-11.2683,6.63431c-7.5753,2.24406-10.7001,1.46348-10.7001,1.46348S346.48668,177.75725,356.33458,165.952Z" class="u" transform="translate(-1.79949 -8.80506)"/><path d="M336.85058,227.47932s13.6453,1.591,19.1812,1.85645c5.5359.26521,13.7157.56019,18.6202-4.8983s4.9625-8.20618,3.3397-11.04815-7.4661-3.45244-12.00229-1.82029-11.40951,5.31085-15.08161,6.20106a83.01318,83.01318,0,0,1-10.0362,1.38322Z" class="n" transform="translate(-1.79949 -8.80506)"/><path d="M342.79268,219.61737a8.66941,8.66941,0,0,1,1.155,6.59031c-.8198,3.93546-7.75329,1.06361-9.2157-3.42142C336.85218,218.26207,342.79268,219.61737,342.79268,219.61737Z" class="l" transform="translate(-1.79949 -8.80506)"/><path d="M326.05208,221.39747c-.4012.05368-4.4122-.91215-4.8426-.51485s-.0286,2.69833,3.6566,3.38536,4.5498-1.40929,4.5498-1.40929a12.57,12.57,0,0,0,2.9579,1.96464,4.896,4.896,0,0,0,3.2181.17381s3.8076,2.72029,4.7392,2.04284,1.6319-3.76493-.0638-6.578-4.7614-4.30256-6.4121-4.09886S326.45318,221.34379,326.05208,221.39747Z" class="q" transform="translate(-1.79949 -8.80506)"/><path d="M342.79268,219.61737c-.2041-1.25175-1.8089-.38545-1.8089-.38545a2.10054,2.10054,0,0,0-.7245-2.37873c-.482-.32661-1.7262.53619-1.7262.53619s.5969-1.88479-.0761-2.34813c-.671-.46272-2.2098-.00659-2.2098-.00659s-.45479-.28169-1.1083-.618a4.8405,4.8405,0,0,0-3.0184.37659c-2.5194,1.24681-4.3379,4.11638-5.07309,5.64251l-.00531.01082a.95435.95435,0,0,0,.5622,1.33572l.1309.03885a.90824.90824,0,0,0,.9379-.27191c1.4908-1.66594,4.3565-3.98306,4.7779-3.82933l1.10041.4009-.003.00381c-.09711.17588-3.74941,6.82915-3.171,7.66145.58679.84333.99749.85373,1.87049-.101a62.98611,62.98611,0,0,0,4.0089-6.09823s-2.3777,6.84223-1.933,7.44971c.4463.61027.7243.87651,1.5214.36639.7966-.508,2.9868-6.0939,2.9868-6.0939s-1.2747,6.90693-.0762,7.19553S342.99468,220.8686,342.79268,219.61737Z" class="n" transform="translate(-1.79949 -8.80506)"/><path d="M336.24718,215.03466s-.4566.19123-1.69579,3.08615l-1.10041-.4009,1.6879-3.30325C335.79239,214.753,336.24718,215.03466,336.24718,215.03466Z" class="l" transform="translate(-1.79949 -8.80506)"/><path d="M334.05468,141.03921a67.00079,67.00079,0,0,1-3.7137,8.90072l-.8925-1.4643-2.6605-4.36006-16.6718-.30209-1.5732-.02865s-3.8763-4.32687-4.0369-6.4065c-.1605-2.04881,2.1084-7.08147,2.1768-7.23138-.1049.09922-2.9858,2.88678-3.065,1.82379-.0814-1.08061,3.3904-4.32461,3.3904-4.32461s-2.8254-3.40947-2.0998-4.07548c.7278-.66611,4.28091,1.99575,4.28091,1.99575a6.60442,6.60442,0,0,1,3.95549-3.32787c2.9859-.99674,14.694.24924,18.5682,4.82536C335.58939,131.6399,335.83128,135.79925,334.05468,141.03921Z" class="k" transform="translate(-1.79949 -8.80506)"/><path d="M333.18348,138.97494a73.5022,73.5022,0,0,1-3.735,9.50069l-2.6605-4.36006-16.6718-.30209-2.973-3.61894a8.81052,8.81052,0,0,1-1.23079-4.43939c.14129-2.1943,4.59119-6.43741,4.59119-6.43741s-.3317-2.09951.0471-2.73244c.3789-.6351,1.3742-1.36509,5.4452-1.41578,4.0711-.04853,12.2154,1.31872,14.86751,3.90341C333.51318,131.65762,334.03539,135.561,333.18348,138.97494Z" class="i" transform="translate(-1.79949 -8.80506)"/><path d="M320.68348,166.58587s-1.37309,13.02052-.12109,13.45047,2.78229-3.44,2.78229-4.01335.1391-9.60331.1391-9.60331Z" class="v" transform="translate(-1.79949 -8.80506)"/><path d="M318.55278,155.75667s-4.1191,1.7562-4.5452,4.5855c-.1948,1.29347-.9469,4.14646-.5208,5.70742s3.78761,7.31731,3.78761,7.31731-.42611-2.92686.33139-4.43918,3.0777-2.34185,3.0777-2.34185,2.5091,1.65894,3.6454,6.53715c6.0603-2.9757,10.5581-5.07335,11.5997-8.9271s.6629-5.51238.3314-6.68305c-.3314-1.17087-3.2668-3.41483-4.4505-3.95142S322.05628,153.56145,318.55278,155.75667Z" class="w" transform="translate(-1.79949 -8.80506)"/><path d="M315.80758,162.14648a3.27425,3.27425,0,0,1,.4252-3.36537c1.2783-1.80494,6.439-4.48792,8.8063-4.68307s6.8178.439,6.9125,2.488S323.47848,166.43885,315.80758,162.14648Z" class="v" transform="translate(-1.79949 -8.80506)"/><path d="M331.66808,160.43964c-1.6566,2.04871-7.90669,5.70742-10.9846,6.14623-2.3203-.78068-5.1606-4.39086-4.8759-4.43939.2825-.04842,2.8403-2.58458,3.1229-4.00047a10.55246,10.55246,0,0,0-.2698-1.23722,15.40736,15.40736,0,0,0-1.5282-3.54177c-1.0895-5.317,10.274-10.73338,11.173-9.075.2248.41677.6442,1.35622,1.1494,2.53832,1.509,3.53074,3.7886,9.21838,3.9641,9.51161C333.65648,156.7324,333.32478,158.39082,331.66808,160.43964Z" class="l" transform="translate(-1.79949 -8.80506)"/><path d="M329.45488,146.83039a11.6418,11.6418,0,0,1-4.3686,6.46389,28.04566,28.04566,0,0,1-6.4256,3.61451,15.40736,15.40736,0,0,0-1.5282-3.54177c-1.0895-5.317,10.274-10.73338,11.173-9.075C328.53028,144.70884,328.94968,145.64829,329.45488,146.83039Z" class="q" transform="translate(-1.79949 -8.80506)"/><path d="M317.62948,162.29341c-.6657.47488,2.6277,2.19522,3.764,2.19522s8.7353-3.5123,8.4512-4.09773-8.59329,2.927-8.59329,2.927S318.55278,161.63492,317.62948,162.29341Z" class="q" transform="translate(-1.79949 -8.80506)"/><path d="M303.77928,141.10329c0,1.36746,1.7689,4.55737,3.5686,5.28231a5.61165,5.61165,0,0,0,2.6633.51692s-.0327-.27541-.1054-.72865c-.02539-.15919-.0563-.3428-.0927-.54505-.4508-2.53616-1.73069-7.93644-4.385-7.42694C304.01558,138.47347,303.77928,139.73594,303.77928,141.10329Z" class="l" transform="translate(-1.79949 -8.80506)"/><path d="M334.07028,139.34163c0,1.46874-1.9,4.895-3.8331,5.67352a6.02814,6.02814,0,0,1-2.8606.55535s.0351-.29581.1132-.78264c.0274-.171.0605-.36814.09961-.58554.48419-2.72409,1.859-8.52434,4.70989-7.97713C333.81648,136.517,334.07028,137.873,334.07028,139.34163Z" class="l" transform="translate(-1.79949 -8.80506)"/><path d="M332.87918,140.26512s-.2675-1.342-1.3259-1.43649c-1.1267-.0986-2.1206,1.869-2.1206,1.869s1.8902-.33393,2.0562,1.16891c.1269,1.7765-3.1379,2.708-3.9991,2.9213.0274-.171.0605-.36814.09961-.58554a4.0517,4.0517,0,0,0,2.44079-1.83481c.2305-.80077-.3651-1.16891-1.4586-.93554.662-2.2352,2.1206-3.93731,3.2141-3.93731C333.59188,137.49466,332.87918,140.26512,332.87918,140.26512Z" class="q" transform="translate(-1.79949 -8.80506)"/><path d="M328.68439,136.97475s-.02571.91514-.09421,2.37729c-.05779,1.3012-.152,3.03237-.2847,4.94-.26109,3.73145-2.4615,5.65889-5.01709,7.26878-2.32451,1.46215-8.33481,4.43939-11.26941,2.73244-2.4743-1.44009-4.0069-11.76556-4.4585-16.22031-.0813-.827-.1284-1.45112-.1348-1.77969-.0471-2.09734,3.598-5.70742,3.598-5.70742a8.33107,8.33107,0,0,0,5.2569,4.34007C320.067,135.9029,328.68439,136.97475,328.68439,136.97475Z" class="n" transform="translate(-1.79949 -8.80506)"/><path d="M328.68439,136.97475s-.02571.91514-.09421,2.37729c-3.4247-.40358-12.0206-1.50625-14.20379-2.66846-2.74621-1.46431-3.40971-3.12273-3.40971-3.12273l-3.4162,4.51213c-.0813-.827-.1284-1.45112-.1348-1.77969-.0471-2.09734,3.598-5.70742,3.598-5.70742a8.33107,8.33107,0,0,0,5.2569,4.34007C320.067,135.9029,328.68439,136.97475,328.68439,136.97475Z" class="l" transform="translate(-1.79949 -8.80506)"/><path d="M313.13439,147.94078a4.38917,4.38917,0,0,0,4.11.70568,5.42787,5.42787,0,0,0,4.007-4.20716S318.095,148.45584,313.13439,147.94078Z" class="q" transform="translate(-1.79949 -8.80506)"/><path d="M314.197,139.60993s1.2309,2.04881.8995,3.60977a4.756,4.756,0,0,1-1.9412,2.58551S314.57568,143.7564,314.197,139.60993Z" class="q" transform="translate(-1.79949 -8.80506)"/><path d="M316.06708,145.3905c-.17-.59563-2.1661.14641-1.8465.36587S316.24468,146.01252,316.06708,145.3905Z" class="l" transform="translate(-1.79949 -8.80506)"/><path d="M319.60858,140.94946a1.34145,1.34145,0,0,0-.4445-.87743l-.2775-.18484a1.24923,1.24923,0,0,0-.6671-.12117,1.26909,1.26909,0,0,0-.8517.45788,1.36844,1.36844,0,0,0-.297.97336,1.3412,1.3412,0,0,0,.4445.87743l.2775.18484a1.25114,1.25114,0,0,0,.6671.12117,1.2692,1.2692,0,0,0,.8516-.458A1.36757,1.36757,0,0,0,319.60858,140.94946Z" class="k" transform="translate(-1.79949 -8.80506)"/><path d="M316.38668,138.58547a6.8064,6.8064,0,0,1,2.3436-.439,18.7634,18.7634,0,0,1,2.37911.40244,2.8173,2.8173,0,0,0-2.59221-1.46348C317.30958,137.1089,316.38668,138.58547,316.38668,138.58547Z" class="k" transform="translate(-1.79949 -8.80506)"/><path d="M312.29368,140.94946a1.3414,1.3414,0,0,0-.4445-.87743l-.2775-.18484a1.24925,1.24925,0,0,0-.6671-.12117,1.26911,1.26911,0,0,0-.8517.45788,1.36839,1.36839,0,0,0-.297.97336,1.34117,1.34117,0,0,0,.44451.87743l.27739.18484a1.25167,1.25167,0,0,0,.6672.12117,1.2692,1.2692,0,0,0,.8516-.458A1.36761,1.36761,0,0,0,312.29368,140.94946Z" class="k" transform="translate(-1.79949 -8.80506)"/><path d="M308.53908,138.84161a6.80447,6.80447,0,0,1,2.3436-.439,18.76244,18.76244,0,0,1,2.3792.40244,2.81727,2.81727,0,0,0-2.5922-1.46348C309.46208,137.365,308.53908,138.84161,308.53908,138.84161Z" class="k" transform="translate(-1.79949 -8.80506)"/><rect width="112.919" height="79.465" x="189.672" y="119.388" class="u" rx="6.599"/><rect width="112.919" height="79.465" x="186.704" y="119.388" class="c" rx="6.599"/><path d="M256.71219,167.83041h-23.5781a.86536.86536,0,0,1-.8522-.87805h0a.86536.86536,0,0,1,.8522-.87805h23.5781a.86536.86536,0,0,1,.8522.87805h0A.86536.86536,0,0,1,256.71219,167.83041Z" class="x" transform="translate(-1.79949 -8.80506)"/><path d="M256.71219,172.82824h-23.5781a.86544.86544,0,0,1-.8522-.87815h0a.86543.86543,0,0,1,.8522-.87805h23.5781a.86543.86543,0,0,1,.8522.87805h0A.86544.86544,0,0,1,256.71219,172.82824Z" class="x" transform="translate(-1.79949 -8.80506)"/><path d="M256.71219,157.58623h-23.5781a.86536.86536,0,0,1-.8522-.87805h0a.86536.86536,0,0,1,.8522-.878h23.5781a.86536.86536,0,0,1,.8522.878h0A.86536.86536,0,0,1,256.71219,157.58623Z" class="x" transform="translate(-1.79949 -8.80506)"/><path d="M256.71219,162.58406h-23.5781a.86544.86544,0,0,1-.8522-.87815h0a.86543.86543,0,0,1,.8522-.87805h23.5781a.86543.86543,0,0,1,.8522.87805h0A.86544.86544,0,0,1,256.71219,162.58406Z" class="x" transform="translate(-1.79949 -8.80506)"/><path d="M230.816,185.77962h0a2.66843,2.66843,0,0,1,2.6277-2.7074h19.7431a2.66836,2.66836,0,0,1,2.6277,2.7074h0a2.66843,2.66843,0,0,1-2.6277,2.7074h-19.7431A2.66849,2.66849,0,0,1,230.816,185.77962Z" class="x" transform="translate(-1.79949 -8.80506)"/><path d="M252.74159,222.74525s-3.7243-15.48816.0621-36.23162h-19.1632c-2.1426,6.85418-7.9281,25.3439-6.8237,38.64651h40.54169v-2.41489Zm-13.0287-9.494c-2.4573,0-4.45-3.17343-4.45-7.0858,0-3.91444,1.9927-7.0858,4.45-7.0858,2.4571,0,4.4499,3.17136,4.4499,7.0858C244.16279,210.07783,242.17,213.25126,239.71289,213.25126Z" class="u" transform="translate(-1.79949 -8.80506)"/><path d="M267.35848,222.74525v2.41489H251.03989c-5.1926-11.52292-1.6695-32.99638-.6099-38.64651h2.3737c-3.7864,20.74346-.0621,36.23162-.0621,36.23162Z" class="x" transform="translate(-1.79949 -8.80506)"/><rect width="112.919" height="79.465" x="73.713" y="119.388" class="u" rx="6.599"/><path d="M77.3432,119.38765h99.7217a6.5989,6.5989,0,0,1,6.5989,6.5989v66.26768a6.5989,6.5989,0,0,1-6.5989,6.5989H77.34319a6.59889,6.59889,0,0,1-6.59889-6.59889V125.98655A6.5989,6.5989,0,0,1,77.3432,119.38765Z" class="c"/><path d="M140.75279,167.83041h-23.5781a.86536.86536,0,0,1-.8522-.87805h0a.86536.86536,0,0,1,.8522-.87805h23.5781a.86536.86536,0,0,1,.8522.87805h0A.86536.86536,0,0,1,140.75279,167.83041Z" class="x" transform="translate(-1.79949 -8.80506)"/><path d="M140.75279,172.82824h-23.5781a.86544.86544,0,0,1-.8522-.87815h0a.86543.86543,0,0,1,.8522-.87805h23.5781a.86543.86543,0,0,1,.8522.87805h0A.86544.86544,0,0,1,140.75279,172.82824Z" class="x" transform="translate(-1.79949 -8.80506)"/><path d="M140.75279,157.58623h-23.5781a.86536.86536,0,0,1-.8522-.87805h0a.86536.86536,0,0,1,.8522-.878h23.5781a.86536.86536,0,0,1,.8522.878h0A.86536.86536,0,0,1,140.75279,157.58623Z" class="x" transform="translate(-1.79949 -8.80506)"/><path d="M140.75279,162.58406h-23.5781a.86544.86544,0,0,1-.8522-.87815h0a.86543.86543,0,0,1,.8522-.87805h23.5781a.86543.86543,0,0,1,.8522.87805h0A.86544.86544,0,0,1,140.75279,162.58406Z" class="x" transform="translate(-1.79949 -8.80506)"/><path d="M114.85659,185.77962h0a2.66843,2.66843,0,0,1,2.6277-2.7074h19.7431a2.66845,2.66845,0,0,1,2.6278,2.7074h0a2.66851,2.66851,0,0,1-2.6278,2.7074h-19.7431A2.66849,2.66849,0,0,1,114.85659,185.77962Z" class="x" transform="translate(-1.79949 -8.80506)"/><path d="M136.78219,222.74525s-3.7243-15.48816.0621-36.23162h-19.1632c-2.1426,6.85418-7.9281,25.3439-6.8237,38.64651h40.5418v-2.41489Zm-13.0287-9.494c-2.4573,0-4.45-3.17343-4.45-7.0858,0-3.91444,1.9927-7.0858,4.45-7.0858,2.4571,0,4.4499,3.17136,4.4499,7.0858C128.20339,210.07783,126.21059,213.25126,123.75349,213.25126Z" class="u" transform="translate(-1.79949 -8.80506)"/><path d="M151.39919,222.74525v2.41489h-16.3187c-5.1926-11.52292-1.6694-32.99638-.6099-38.64651h2.3737c-3.7864,20.74346-.0621,36.23162-.0621,36.23162Z" class="x" transform="translate(-1.79949 -8.80506)"/><rect width="8.562" height="148.402" x="36.539" y="216.343" class="r"/><rect width="8.562" height="148.402" x="126.657" y="216.343" class="r"/><polygon points="415.515 216.343 415.515 364.745 406.953 364.745 406.953 225.165 331.61 225.165 331.61 364.745 323.049 364.745 323.049 225.165 36.539 225.165 36.539 216.343 415.515 216.343" class="s"/><path d="M332.12568,233.96969v58.22117H289.87239a8.98453,8.98453,0,0,1-8.84731-9.11566v-.0001c0-11.53-9.0718-20.877-20.26239-20.877h-148.748A21.45312,21.45312,0,0,0,91.74579,277.193l-.0009.00278a21.45321,21.45321,0,0,1-20.269,14.995H38.33849V233.96969Z" class="c" transform="translate(-1.79949 -8.80506)"/><rect width="85.189" height="58.221" x="330.326" y="225.165" class="a"/><path d="M523.98508,331.207c-5.396,23.70969-20.1693,41.85539-35.7923,41.85539H382.80048c-41.475-9.0729-37.49809-80.78194-23.2942-90.14807a34.86124,34.86124,0,0,1,8.6344-4.15492,31.33744,31.33744,0,0,1,18.9213-.236s.43241-31.14168,12.2155-41.85527c22.3546-20.32444,66.13691-16.31078,94.15091-.97037q3.36794,1.84254,6.41049,3.89682C527.11,258.03577,529.38318,307.49953,523.98508,331.207Z" class="q" transform="translate(-1.79949 -8.80506)"/><path d="M487.05628,325.93846c-17.6136,14.928-54.5423,23.70968-86.3576,12.87914-31.8174-10.83043-37.2155-31.90247-36.079-46.24614.5629-7.11887,2.1083-11.35312,3.521-13.81211a31.33744,31.33744,0,0,1,18.9213-.236s.43241-31.14168,12.2155-41.85527c17.1776-15.61767,47.0075-16.86448,72.613-9.64412,16.4436,4.63681,27.7398,20.19945,27.38691,37.76115l-.00571.27459c-.2847,13.46365-5.9654,13.757-5.9654,13.757s3.6923,2.33988,8.52111,10.24387C506.65828,296.96233,504.66988,311.01265,487.05628,325.93846Z" class="m" transform="translate(-1.79949 -8.80506)"/><path d="M474.55688,352.8668s-.4261,15.36627,12.3573,13.61007c13.6799-1.87933,33.2367-27.22024,31.9583-56.19668-2.5566-6.14644-7.3468-1.351-13.2094,9.21982C493.732,341.01283,481.37468,339.69565,474.55688,352.8668Z" class="y" transform="translate(-1.79949 -8.80506)"/><path d="M406.23708,250.27747s-3.622,8.927-4.2611,11.854-1.3494,6.2197-.2131,8.26852c8.2382-2.34154,13.35151-4.09763,13.35151-4.09763l6.17859-11.854Z" class="l" transform="translate(-1.79949 -8.80506)"/><path d="M402.59148,273.69269s-3.693-6.14644,1.6097-10.53679c6.0043-4.97125,12.6887,1.7561,11.5524,6.34159S407.32608,279.05876,402.59148,273.69269Z" class="l" transform="translate(-1.79949 -8.80506)"/><path d="M416.22748,222.17888c-3.2375,1.23887-11.5704,24.92084-13.4485,32.23105,8.5557,2.58015,17.3201,6.23526,17.3201,6.23526s7.3037-11.82533,7.3037-23.00567S424.04178,219.18854,416.22748,222.17888Z" class="z" transform="translate(-1.79949 -8.80506)"/><path d="M409.788,267.39984l3.4799,3.58555a18.6781,18.6781,0,0,1,2.9118-2.95138,4.76307,4.76307,0,0,1,3.7403.04883c.7575.48776.8286,1.46338-.0947,1.7561a6.507,6.507,0,0,0-2.604,1.6099c-.1874.23172-2.746,3.34146-4.0954,3.70734a27.80646,27.80646,0,0,1-5.3264.1463S404.39058,269.156,409.788,267.39984Z" class="q" transform="translate(-1.79949 -8.80506)"/><path d="M410.35628,277.6434c-1.1366.36607-1.4212-1.24382-1.4212-1.24382a1.6012,1.6012,0,0,1-.9653.53145,2.29778,2.29778,0,0,1-1.3785-.23811,2.68,2.68,0,0,1-.64.95923c-.7577.65509-1.8257.161-3.5488-2.05757a11.18985,11.18985,0,0,0,.7812,4.75694,1.2284,1.2284,0,0,1-.0578,1.27473.657.657,0,0,1-.794.11467c-2.2282-.88217-2.7697-6.6579-2.7697-7.31731,0-.32208.5458-.60872,1.1023-.82045a9.77246,9.77246,0,0,1,1.1665-.3462l.0022-.00226-.0022-.00217a1.54258,1.54258,0,0,1,.6421-1.60773c.9225-.73215,1.4919-.36607,1.4919-.36607a4.83439,4.83439,0,0,1,.4966-2.26931c.4966-.5844,2.2025-.5844,2.2025-.5844.2832-.87877.6368-1.83008,1.6321-2.12125.9931-.29323,1.4918,1.09607,1.4918,1.09607s.3543,2.19625.5683,4.09721C410.56818,273.40028,411.49288,277.27732,410.35628,277.6434Z" class="n" transform="translate(-1.79949 -8.80506)"/><path d="M403.12588,281.62625a7.18721,7.18721,0,0,1-1.1964-1.83482,16.67313,16.67313,0,0,1-1.265-6.18827,9.77246,9.77246,0,0,1,1.1665-.3462c-.0128.02865-.0878.29993.5715,2.33762a11.18985,11.18985,0,0,0,.7812,4.75694A1.2284,1.2284,0,0,1,403.12588,281.62625Z" class="l" transform="translate(-1.79949 -8.80506)"/><path d="M406.59128,276.69292a2.68,2.68,0,0,1-.64.95923c-.7834-.70124-1.7166-2.24282-1.79789-5.617A9.676,9.676,0,0,0,406.59128,276.69292Z" class="l" transform="translate(-1.79949 -8.80506)"/><path d="M408.93508,276.39958a1.6012,1.6012,0,0,1-.9653.53145,13.78371,13.78371,0,0,1-1.1173-7.28641C407.23128,271.4,408.93508,276.39958,408.93508,276.39958Z" class="l" transform="translate(-1.79949 -8.80506)"/><path d="M417.10288,318.40127l-1.4227,1.22156a1.75407,1.75407,0,0,0-.5917,1.54014,62.02552,62.02552,0,0,1-.0029,6.83028c-.071,2.19522-2.3996,7.329-2.6837,10.03625-.2841,2.70751,1.0078,6.23166,2.2861,9.01221a12.43741,12.43741,0,0,0,4.5455,4.65309s2.4856.14641,3.1248-.73175C420.72488,342.18236,419.44658,320.08421,417.10288,318.40127Z" class="c" transform="translate(-1.79949 -8.80506)"/><path d="M430.66748,328.7186c-1.1366,2.12156-2.41509,10.024-3.0529,13.83035-.64,3.8043-4.191,10.02338-6.6761,8.34064-1.1579-.78511-2.547-2.96622-3.7242-5.36123-.3254-.66374-.6336-1.343-.9183-2.01564a20.28879,20.28879,0,0,1-1.6075-5.28179c-.214-2.85371,2.6285-9,2.6991-11.85376s-.9246-7.31731-.2847-7.97673c.64-.65725,6.7467-5.12085,6.7467-5.12085s1.6502,3.11614,3.4375,6.83c.2162.44768.4324.90422.6507,1.36509C430.091,326.05519,431.25388,327.62253,430.66748,328.7186Z" class="e" transform="translate(-1.79949 -8.80506)"/><path d="M427.93778,321.47465c-1.8622,2.43034-3.8785,5.42078-4.5142,7.68349-1.2778,4.53634-1.42119,6.87839-2.6991,10.68269a16.79957,16.79957,0,0,1-3.5102,5.68753c-.3254-.66374-.6336-1.343-.9183-2.01564a15.079,15.079,0,0,0,3.00941-3.81748c.99319-2.34205,1.56259-6.58732,2.55569-11.12377.5094-2.31784,3.0544-5.70526,5.426-8.46191C427.50328,320.55724,427.71948,321.01378,427.93778,321.47465Z" class="k" transform="translate(-1.79949 -8.80506)"/><path d="M424.093,326.92881l6.7808,5.212a1.58045,1.58045,0,0,0,2.4343-.68239h0a1.09047,1.09047,0,0,0-.4031-1.32295l-7.633-4.9732a1.03416,1.03416,0,0,0-1.5773.69629h0A1.08929,1.08929,0,0,0,424.093,326.92881Z" class="c" transform="translate(-1.79949 -8.80506)"/><path d="M420.116,336.29494l3.2658,2.5102q1.1547.88773,2.30961,1.77536a7.48226,7.48226,0,0,0,1.36689,1.02178,1.35342,1.35342,0,0,0,1.6468-.5335c1.051-1.74982-2.5568-3.33972-3.6024-4.02922q-1.9038-1.25556-3.8077-2.51112a1.03426,1.03426,0,0,0-1.5774.69629A1.08943,1.08943,0,0,0,420.116,336.29494Z" class="c" transform="translate(-1.79949 -8.80506)"/><path d="M421.63108,331.75818q1.7001,1.30688,3.4002,2.61365,1.166.89622,2.3318,1.79236c.5698.438,1.248,1.20044,2.0089,1.013a1.20861,1.20861,0,0,0,.5185-.26963,1.48772,1.48772,0,0,0,.3794-1.53355c-.2593-.79233-1.2824-1.35746-1.9374-1.78423q-1.218-.79346-2.4358-1.58691-1.54335-1.00566-3.0867-2.01111a1.03414,1.03414,0,0,0-1.5773.6962A1.08907,1.08907,0,0,0,421.63108,331.75818Z" class="c" transform="translate(-1.79949 -8.80506)"/><path d="M408.19668,373.69517h-43.0911a1.52006,1.52006,0,0,1-1.4148-1.98927c.0835-.269.1777-.55359.2847-.84023a5.79416,5.79416,0,0,1,2.2538-3.21979,52.78828,52.78828,0,0,0,9.5656-5.75595,56.62705,56.62705,0,0,0,5.1113-4.39086c1.706-1.37179,5.5887-2.04655,9.5805-2.08189.5523-.00443,1.1088.00227,1.6589.02205,4.5334.15877,8.83781,1.13357,9.8781,2.84052,1.4383,2.35967,3.83771,8.81913,5.1798,12.58592C407.80488,372.55057,408.19668,373.69517,408.19668,373.69517Z" class="e" transform="translate(-1.79949 -8.80506)"/><path d="M392.14558,355.43923c-2.8404,3.39845-6.3956,7.29083-9.0604,8.98676-4.6319,2.953-7.1683,3.43162-9.6704,9.26918h-1.5176a16.47454,16.47454,0,0,1,3.3284-5.17165c2.4614-2.24283,9.1845-6.34036,12.5942-10.04749.8561-.9307,1.7744-1.99369,2.6669-3.05885C391.039,355.41275,391.59548,355.41945,392.14558,355.43923Z" class="k" transform="translate(-1.79949 -8.80506)"/><path d="M374.84688,363.603l3.9437,2.77345a1.09018,1.09018,0,0,0,1.3437-.06636h0a1.17215,1.17215,0,0,0-.023-1.786l-3.6622-2.9789a1.08979,1.08979,0,0,0-1.3366-.03575l-.2816.20545A1.17,1.17,0,0,0,374.84688,363.603Z" class="c" transform="translate(-1.79949 -8.80506)"/><path d="M378.44508,360.87114l3.9438,2.77345a1.09,1.09,0,0,0,1.3436-.06636h0a1.172,1.172,0,0,0-.0229-1.78587l-3.66219-2.979a1.08994,1.08994,0,0,0-1.33661-.03575l-.2816.20545A1.17006,1.17006,0,0,0,378.44508,360.87114Z" class="c" transform="translate(-1.79949 -8.80506)"/><path d="M408.19668,373.69517h-43.0911a1.52006,1.52006,0,0,1-1.4148-1.98927c.0835-.269.1777-.55359.2847-.84023h43.228C407.80488,372.55057,408.19668,373.69517,408.19668,373.69517Z" class="c" transform="translate(-1.79949 -8.80506)"/><path d="M381.95358,357.80631l3.87481,2.72492a1.0711,1.0711,0,0,0,1.32009-.06522h0a1.15152,1.15152,0,0,0-.0226-1.75465l-3.598-2.92676a1.07072,1.07072,0,0,0-1.3133-.03514l-.2766.20184A1.14953,1.14953,0,0,0,381.95358,357.80631Z" class="c" transform="translate(-1.79949 -8.80506)"/><path d="M477.68118,254.37479c-.0941,10.83044-.7577,32.68326-1.9884,34.14757s-53.7846,1.8547-55.3-.097,7.2924-18.34187,7.2924-18.34187a8.20585,8.20585,0,0,1-1.8001-.977c-.5672-.48735.6635-2.53616.6635-2.53616a6.73085,6.73085,0,0,1-2.0826-.87774c-.2847-.39029,1.98841-3.41391,1.98841-3.41391s-7.00771-24.78144-8.05011-27.80721c-1.0402-3.02351-3.4075-10.82817-2.1768-12.29258.8604-1.02323,5.6743-3.41164,8.4868-4.75478,1.2072-.57554,2.0463-.95924,2.0463-.95924s24.1225-4.92014,25.0022-4.95981a26.95739,26.95739,0,0,1,3.2727.935c5.777,1.84584,17.1684,5.82652,17.81691,6.422C473.70428,219.64271,477.77539,243.54652,477.68118,254.37479Z" class="aa" transform="translate(-1.79949 -8.80506)"/><path d="M455.03548,212.44008c-1.8793,4.18139-5.9375,10.11373-14.0347,11.08626a17.903,17.903,0,0,1-16.2865-6.10224c1.2072-.57554,2.0463-.95924,2.0463-.95924s24.1225-4.92014,25.0022-4.95981A26.95739,26.95739,0,0,1,455.03548,212.44008Z" class="z" transform="translate(-1.79949 -8.80506)"/><path d="M429.38918,258.18012l.0027-.0304C429.38078,258.15951,429.37888,258.16961,429.38918,258.18012Z" class="c" transform="translate(-1.79949 -8.80506)"/><path d="M462.90018,253.36723c1.2309-1.36591-.1776-13.57328-2.7342-15.03666-1.2784-.73175-9.2937,2.43446-15.7209,2.77592s-15.6266-.54969-16.2895.66982c-1.3257,2.4391,1.0399,11.6276,1.7947,12.63362S461.66918,254.733,462.90018,253.36723Z" class="z" transform="translate(-1.79949 -8.80506)"/><path d="M474.462,303.63342c-2.9687,6.32273-13.1443,6.53-23.66659,6.44184q-1.33891-.0099-2.682-.02432c-3.32831-.0308-6.631-.04193-9.69611.15218-13.5853.85786-40.4798-5.42737-39.6471-4.56952.8305.85579,5.2676,43.99456,9.4265,67.41977-1.203-1.815-4.0968-3.81532-7.6071-5.74276q-.5844-.31759-1.188-.6351a172.60381,172.60381,0,0,0-19.8203-8.39576l1.7209-6.65357s-7.0227-54.99912-7.0227-56.71267c0-1.71581-1.706-15.2214,8.3798-16.39237,13.0929-1.51954,51.32311,6.83,51.32311,6.83s6.95849-.26469,15.11989-.43006c.8776-.01762,1.7723-.03534,2.6713-.05069,10.1199-.16763,21.096-.13013,22.6884.76523C477.51218,287.34912,478.62088,294.77668,474.462,303.63342Z" class="ab" transform="translate(-1.79949 -8.80506)"/><path d="M398.76928,305.63309c-.2022-.53506-3.327-6.44216-2.90089-7.56244s2.69869,3.361,2.69869,3.361,1.4204-5.09231,2.8408-3.87014S398.76928,305.63309,398.76928,305.63309Z" class="ac" transform="translate(-1.79949 -8.80506)"/><path d="M449.81928,299.31313c-4.81589.07274-9.634-.31322-14.4414-.61531s-9.62549-.39689-14.435-.666q-6.46305-.36057-12.9282-.72329-3.17535-.17866-6.3485-.408a61.59929,61.59929,0,0,0-6.4641-.40358c-1.8364.06614-3.39469.61747-3.7864,2.63981a16.09274,16.09274,0,0,0,.3939,5.41192c.6763,4.3445,1.3013,8.69786,1.937,13.04895,1.295,8.84571,2.5985,17.687,3.8421,26.54145,1.0831,7.712,1.9692,15.45509,3.0009,23.17155q-.5844-.31759-1.188-.6351c-.6485-3.83067-1.3484-7.65474-1.9799-11.48985-.8454-5.1363-1.6395-10.28137-2.4379-15.42644-1.4298-9.19633-2.7697-18.408-4.1482-27.6132q-.504-3.37089-.9846-6.74394a26.95916,26.95916,0,0,1-.5008-5.69639,5.04125,5.04125,0,0,1,2.1404-3.97626c1.4341-.9307,3.1186-.81818,4.7389-.7542,8.9191.36165,17.8362.70784,26.7532,1.1313,4.512.2139,9.0133.59327,13.5275.77852,4.4606.18083,8.9341.3021,13.37121.83138C450.75678,297.82008,450.69688,299.29984,449.81928,299.31313Z" class="ac" transform="translate(-1.79949 -8.80506)"/><path d="M451.77358,284.87035c-.045.65272-.0878,1.30553-.1263,1.95392-.22689,3.85932-.4624,7.712-.6101,11.57362-.1476,3.84612-.1926,7.69009-.2397,11.53621,0,.04626-.00209.09479-.00209.14116q-1.33891-.0099-2.682-.02432c-.045-3.86591.045-7.73851.17769-11.60009.1348-3.89466.34031-7.79374.6571-11.67737.04921-.613.1006-1.23269.1541-1.85244C449.97988,284.90342,450.87458,284.8857,451.77358,284.87035Z" class="ac" transform="translate(-1.79949 -8.80506)"/><path d="M384.22128,287.88819c.9943,1.31718-2.5566,9.80516-4.5452,9.36613s-3.6929-7.1709-3.12469-8.927S383.22708,286.57112,384.22128,287.88819Z" class="ac" transform="translate(-1.79949 -8.80506)"/><path d="M487.19758,304.13179c-3.6923,5.41635-19.5999,12.1471-31.674,16.97678-12.072,4.82968-21.7318,13.90247-21.7318,13.90247s-4.2615-.73215-8.2385-6.14624c-2.0141-2.74346-2.6798-6.79905-2.8467-10.13362-.03-.59759-.0428-1.16881-.045-1.70685a36.19227,36.19227,0,0,1,.19481-4.11082c11.50479-6.58516,47.72289-26.34291,51.60559-27.27793a22.84406,22.84406,0,0,1,4.0412-.63953,14.30485,14.30485,0,0,1,2.3159.05069,9.96669,9.96669,0,0,1,6.8044,3.57268C491.45918,293.15577,490.89188,298.7177,487.19758,304.13179Z" class="w" transform="translate(-1.79949 -8.80506)"/><path d="M480.81908,285.04674c-13.9299,7.39006-41.002,24.21693-44.1869,26.11129-2.60279,1.54818-9.8674,5.423-13.9256,7.57315-.03-.59759-.0428-1.16881-.045-1.70685a134.29,134.29,0,0,0,14.114-7.185c6.7209-3.91454,31.186-19.34314,41.7276-24.84326A14.30485,14.30485,0,0,1,480.81908,285.04674Z" class="ac" transform="translate(-1.79949 -8.80506)"/><path d="M491.60039,264.91189c-.28251,2.92646-1.56041,5.41409-8.94691,10.39162-7.3867,4.97527-27.4146,7.024-27.4146,7.024l-3.55949-6.76372,23.30279-11.52962-.6507-3.4954-1.3378-7.18728,14.0626-5.123S491.88508,261.98544,491.60039,264.91189Z" class="l" transform="translate(-1.79949 -8.80506)"/><path d="M486.061,263.15641c-5.5394-1.75764-11.0788.87774-11.0788.87774l-.6507-3.4954C477.39868,260.11745,482.70268,260.2719,486.061,263.15641Z" class="q" transform="translate(-1.79949 -8.80506)"/><path d="M472.85239,218.862c-4.181-1.54642-7.53341,10.103-6.43021,18.20174s5.9297,20.31784,5.7918,19.89159,18.8923-7.53039,18.8923-7.53039S480.11,221.54646,472.85239,218.862Z" class="z" transform="translate(-1.79949 -8.80506)"/><path d="M453.95288,274.14872a8.56515,8.56515,0,0,1,2.5803,6.14644c.071,4.02448-7.3149,2.85382-9.7295-1.17076C447.86888,274.22187,453.95288,274.14872,453.95288,274.14872Z" class="l" transform="translate(-1.79949 -8.80506)"/><path d="M438.04468,279.8074c-.3788.14631-4.4978.14631-4.8292.63407s.5681,2.63425,4.3084,2.43921,4.1191-2.43921,4.1191-2.43921a12.36126,12.36126,0,0,0,3.3142,1.2196,4.918,4.918,0,0,0,3.17221-.58543s4.30839,1.7562,5.066.87815.75749-4.04889-1.51511-6.39043-5.5868-3.07327-7.1492-2.48784S438.42348,279.661,438.04468,279.8074Z" class="q" transform="translate(-1.79949 -8.80506)"/><path d="M453.95288,274.14872c-.4752-1.17108-1.84649.04873-1.84649.04873a2.07734,2.07734,0,0,0-1.231-2.14639c-.54151-.20513-1.56241.92689-1.56241.92689s.1649-1.97535-.5928-2.26869c-.7556-.29333-2.1533.51167-2.1533.51167s-.5051-.16764-1.2157-.34187a4.8847,4.8847,0,0,0-2.856,1.07443c-2.1779,1.80494-3.3149,5.02555-3.69379,6.684l-.00271.01185a.94162.94162,0,0,0,.8425,1.16881l.136.00721a.92031.92031,0,0,0,.85321-.48467c1.08379-1.97185,3.36249-4.90005,3.80679-4.84925l1.1601.13239-.0021.00433c-.0557.19411-2.1426,7.52915-1.3956,8.20392.7577.68372,1.1599.59748,1.7992-.53681a64.03654,64.03654,0,0,0,2.5567-6.87818s-.804,7.22005-.2368,7.7075c.5694.48951.8989.68362,1.5624,0,.6635-.68146,1.5624-6.63441,1.5624-6.63441s.2844,7.0247,1.5151,7.0247S454.42588,275.31969,453.95288,274.14872Z" class="n" transform="translate(-1.79949 -8.80506)"/><path d="M446.56688,271.22093s-.4024.29333-.9696,3.40287l-1.1601-.13239.914-3.61235C446.06178,271.05329,446.56688,271.22093,446.56688,271.22093Z" class="l" transform="translate(-1.79949 -8.80506)"/><polygon points="367.295 240.741 369.07 238.985 423.471 239.424 435.26 276.01 433.981 277.839 367.295 240.741" class="e"/><polygon points="367.295 240.741 422.263 240.96 433.981 277.839 379.297 276.156 367.295 240.741" class="e"/><polygon points="433.981 277.839 468.023 277.839 468.023 274.742 434.313 274.742 433.981 277.839" class="k"/><path d="M407.17078,272.36851h-10.897a3.124,3.124,0,0,1-2.9017-2.03068h0a3.20692,3.20692,0,0,1,2.9017-4.40168h10.897a3.12415,3.12415,0,0,1,2.9017,2.03078h0A3.20687,3.20687,0,0,1,407.17078,272.36851Z" class="k" transform="translate(-1.79949 -8.80506)"/><path d="M451.76278,211.50505s-3.40539,9.71665-13.3819,9.55571a16.84661,16.84661,0,0,1-11.6203-4.5959s4.2252-1.9363,4.8116-3.74917a14.05021,14.05021,0,0,0-.1156-4.3379c-.3446-2.80075-.9396-5.8221-.9396-5.8221l11.2758-6.133s.291,2.02007.8604,4.41724v.00226c.6849,2.86917,1.7701,6.27864,3.2406,7.39892A26.83868,26.83868,0,0,0,451.76278,211.50505Z" class="l" transform="translate(-1.79949 -8.80506)"/><path d="M442.65318,200.83988v.00226a14.5057,14.5057,0,0,1-4.3836,4.90912,12.84884,12.84884,0,0,1-6.813,2.62653c-.3446-2.80075-.9396-5.8221-.9396-5.8221l11.2758-6.133S442.08378,198.44271,442.65318,200.83988Z" class="q" transform="translate(-1.79949 -8.80506)"/><path d="M418.59428,194.07348c0,1.21332,1.5696,4.044,3.1667,4.68719a4.98071,4.98071,0,0,0,2.3632.4587s-.029-.24439-.0935-.64663c-.0226-.14116-.05-.30416-.08229-.48364-.4-2.25045-1.53571-7.04232-3.89091-6.59021C418.804,191.73988,418.59428,192.86016,418.59428,194.07348Z" class="l" transform="translate(-1.79949 -8.80506)"/><path d="M414.04908,186.56844s11.4577,9.61,35.9828,6.73188C441.60428,185.1538,427.82668,177.739,414.04908,186.56844Z" class="k" transform="translate(-1.79949 -8.80506)"/><path d="M423.04478,194.81254a10.83469,10.83469,0,0,1-2.4146-2.48784c-.7102-1.2195.0947-6.00014.0947-6.00014s-2.2253,2.63415-2.32,1.7561,2.7461-5.07325,2.7461-5.07325-1.04159-3.21958-.5208-3.65861,1.4204,1.46338,1.4204,1.46338,1.7044-4.14647,5.4921-4.53665,15.5294,2.48784,17.6599,7.60993.142,10.97592.0947,11.12222S431.51968,198.56882,423.04478,194.81254Z" class="r" transform="translate(-1.79949 -8.80506)"/><path d="M442.07739,192.90952s-.05141.69022-.15621,1.95618c-.0364.44758-.0792.9681-.1284,1.55694a8.09774,8.09774,0,0,1-3.977,6.63369c-3.0286,1.95176-6.1537,3.51312-10.1306,3.41606-3.1614-.07944-4.9487-10.70473-5.5459-15.05376-.1562-1.12245-.2311-1.826-.2311-1.826a14.342,14.342,0,0,0,3.3155-4.00047c2.9345,3.21979,12.2133,1.8546,12.2133,1.8546a4.33779,4.33779,0,0,0,.3788,1.95176c.4752,1.17107,2.3674,1.07185,2.3674,1.07185l.2846,1.8547Z" class="n" transform="translate(-1.79949 -8.80506)"/><path d="M442.07739,192.90952s-.05141.69022-.15621,1.95618a5.75277,5.75277,0,0,1-.8605-.31981c-1.3741-.63963-1.5497-1.23279-1.5946-3.15148-.9761.22719-2.393.18309-3.0138-2.37512-5.4537,1.68923-8.1571.09036-10.8176-1.82822a11.4523,11.4523,0,0,1-3.4954,4.22756c-.1562-1.12245-.2311-1.826-.2311-1.826a14.342,14.342,0,0,0,3.3155-4.00047c2.9345,3.21979,12.2133,1.8546,12.2133,1.8546a4.33779,4.33779,0,0,0,.3788,1.95176c.4752,1.17107,2.3674,1.07185,2.3674,1.07185l.2846,1.8547Z" class="l" transform="translate(-1.79949 -8.80506)"/><path d="M433.59278,193.96128a1.3414,1.3414,0,0,0-.4445-.87743l-.2775-.18484a1.24906,1.24906,0,0,0-.6671-.12117,1.26928,1.26928,0,0,0-.8517.45788,1.36837,1.36837,0,0,0-.297.97335,1.34163,1.34163,0,0,0,.4445.87743l.2775.18485a1.25113,1.25113,0,0,0,.6671.12116,1.26914,1.26914,0,0,0,.8516-.458A1.36759,1.36759,0,0,0,433.59278,193.96128Z" class="k" transform="translate(-1.79949 -8.80506)"/><path d="M426.27788,193.96128a1.34143,1.34143,0,0,0-.44449-.87743l-.27741-.18484a1.24958,1.24958,0,0,0-.6672-.12117,1.26907,1.26907,0,0,0-.8517.45788,1.36837,1.36837,0,0,0-.297.97335,1.34167,1.34167,0,0,0,.4445.87743l.2775.18485a1.25113,1.25113,0,0,0,.6671.12116,1.2696,1.2696,0,0,0,.8517-.458A1.368,1.368,0,0,0,426.27788,193.96128Z" class="k" transform="translate(-1.79949 -8.80506)"/><path d="M428.18118,192.62174s1.2309,2.04882.8995,3.60977a4.75556,4.75556,0,0,1-1.9411,2.58541S428.55988,196.76821,428.18118,192.62174Z" class="q" transform="translate(-1.79949 -8.80506)"/><path d="M427.11858,200.9526a4.38918,4.38918,0,0,0,4.11.70567,5.428,5.428,0,0,0,4.0071-4.20715S432.07918,201.46766,427.11858,200.9526Z" class="q" transform="translate(-1.79949 -8.80506)"/><path d="M430.05128,198.40232c-.17-.59564-2.1661.14631-1.8465.36587S430.22888,199.02433,430.05128,198.40232Z" class="l" transform="translate(-1.79949 -8.80506)"/><path d="M430.48928,190.9387a6.80657,6.80657,0,0,1,2.3436-.439,18.78394,18.78394,0,0,1,2.3791.40245,2.81727,2.81727,0,0,0-2.5922-1.46348C431.41218,189.46213,430.48928,190.9387,430.48928,190.9387Z" class="k" transform="translate(-1.79949 -8.80506)"/><path d="M422.59439,191.19484a6.80393,6.80393,0,0,1,2.34359-.439,18.76428,18.76428,0,0,1,2.3791.40245,2.81727,2.81727,0,0,0-2.5922-1.46348C423.51728,189.71827,422.59439,191.19484,422.59439,191.19484Z" class="k" transform="translate(-1.79949 -8.80506)"/><path d="M432.08618,197.78412q-.23,0-.4687-.01309a3.10154,3.10154,0,0,1-2.4033-1.7734,3.39682,3.39682,0,0,1-.1094-3.21835,2.59024,2.59024,0,0,1,1.6865-1.15964,7.3069,7.3069,0,0,1,4.751.404,2.09294,2.09294,0,0,1,.9834,1.379,3.697,3.697,0,0,1-.6612,2.71472A4.25948,4.25948,0,0,1,432.08618,197.78412Zm.4766-5.608a6.026,6.026,0,0,0-1.5762.18968,1.98118,1.98118,0,0,0-1.2275.79181h0a2.61336,2.61336,0,0,0,.11231,2.46713,2.39175,2.39175,0,0,0,1.78509,1.37446c1.1866.0644,2.7832-.10962,3.58991-1.31954a2.94928,2.94928,0,0,0,.54689-2.11,1.32156,1.32156,0,0,0-.63189-.8799A5.75291,5.75291,0,0,0,432.56278,192.17613Z" class="k" transform="translate(-1.79949 -8.80506)"/><path d="M425.387,197.78412a4.26467,4.26467,0,0,1-3.7803-1.66677,3.7039,3.7039,0,0,1-.6601-2.7142,2.09363,2.09363,0,0,1,.9834-1.37951,7.3039,7.3039,0,0,1,4.751-.404,2.5905,2.5905,0,0,1,1.6865,1.15964h0a3.3968,3.3968,0,0,1-.1094,3.21835,3.1001,3.1001,0,0,1-2.4023,1.7734Q425.617,197.78387,425.387,197.78412Zm-.4775-5.608a5.75333,5.75333,0,0,0-2.5987.51362,1.32089,1.32089,0,0,0-.6318.88041,2.95492,2.95492,0,0,0,.5459,2.10951c.8066,1.20992,2.39451,1.38445,3.5918,1.31954a2.39111,2.39111,0,0,0,1.7842-1.374,2.615,2.615,0,0,0,.1123-2.46764h0a1.98137,1.98137,0,0,0-1.2276-.79181A6.0252,6.0252,0,0,0,424.90948,192.17613Z" class="k" transform="translate(-1.79949 -8.80506)"/><path d="M436.03739,193.64662a.36687.36687,0,0,1-.34381-.26861.40265.40265,0,0,1,.253-.493c.0439-.01514.1777-.06089,6.8437-.895a.37909.37909,0,0,1,.417.33661.38358.38358,0,0,1-.3271.43017c-2.5694.322-6.4815.819-6.7285.87032A.33683.33683,0,0,1,436.03739,193.64662Z" class="k" transform="translate(-1.79949 -8.80506)"/><path d="M450.03128,193.29981s-5.5866-5.95-17.7056-7.99878c-11.9758-2.0245-18.1295,1.18869-18.275,1.26587,1.23071-2.82724,5.5844-4.876,5.5844-4.876s.44731-1.773,1.0616-3.62553a16.9192,16.9192,0,0,1,1.4962-3.49767c1.2307-1.85254,10.9847-3.80419,15.2441-2.63322,4.2616,1.17108,9.6597,7.31731,10.3232,8.58545.3468.66374.122,2.31557-.1691,3.74031-.2654,1.29667-.5886,2.40593-.5886,2.40593Z" class="e" transform="translate(-1.79949 -8.80506)"/><path d="M447.59108,184.26019c-.2654,1.29667-.5886,2.40593-.5886,2.40593a96.45028,96.45028,0,0,0-12.97309-4.58488,30.37021,30.37021,0,0,0-14.39431-.39039s.44731-1.773,1.0616-3.62553a25.0082,25.0082,0,0,1,9.5441-.57122C436.95108,178.43356,445.54278,183.10457,447.59108,184.26019Z" class="k" transform="translate(-1.79949 -8.80506)"/><path d="M436.491,172.47051c.5681.439-1.5624,2.04882-2.3199,2.14639s-5.066-.439-5.2081-.92689S435.92288,172.03149,436.491,172.47051Z" class="k" transform="translate(-1.79949 -8.80506)"/><path d="M447.47939,192.6339c0,1.46874-1.89991,4.895-3.833,5.67363a6.0292,6.0292,0,0,1-2.86071.55524s.0352-.2958.1132-.78264c.0274-.171.0606-.36824.0996-.58543.4843-2.7242,1.859-8.52445,4.70991-7.97724C447.22558,189.80925,447.47939,191.16527,447.47939,192.6339Z" class="n" transform="translate(-1.79949 -8.80506)"/><path d="M446.28828,193.55739s-.2675-1.34191-1.3258-1.43649c-1.1267-.0986-2.1207,1.869-2.1207,1.869s1.8903-.33393,2.0562,1.16891c.127,1.7765-3.1379,2.708-3.9991,2.9213.0274-.171.0606-.36824.0996-.58543a4.05256,4.05256,0,0,0,2.44091-1.83492c.23039-.80067-.36521-1.16891-1.45871-.93554.662-2.2351,2.1206-3.93721,3.2141-3.93721C447.001,190.787,446.28828,193.55739,446.28828,193.55739Z" class="q" transform="translate(-1.79949 -8.80506)"/><path d="M542.02928,274.303l9.8669,23.35968,9.7253-8.78172,6.4471,1.91394s-3.7153,14.29854-11.3644,21.61668-16.7556-2.14464-20.871-10.69578C529.27688,288.09282,535.222,273.0102,542.02928,274.303Z" class="ad" transform="translate(-1.79949 -8.80506)"/><path d="M564.09508,282.20262s-2.7265,3.95441-3.1545,6.0127l-.4281,2.0584a9.45755,9.45755,0,0,0,3.7066,1.08463,3.90377,3.90377,0,0,0,2.1404-.58811,9.87877,9.87877,0,0,0,2.7112.22059c.35671-.22059,1.0702-3.23452,1.0702-3.23452Z" class="q" transform="translate(-1.79949 -8.80506)"/><path d="M569.19539,287.07176s.98769-.87857,1.72849-.74339,3.7656,3.78441,3.3952,4.18985-2.2841-.81087-3.5804-2.568c-.8025.20277-1.4198.33795-1.4198.33795Z" class="q" transform="translate(-1.79949 -8.80506)"/><path d="M571.26339,292.03878c-.83341-.10138-2.59271-3.75061-2.59271-3.75061s.0926,4.76425-.6482,4.35882-1.9445-6.08205-1.9445-6.08205.463,6.58887-.463,5.98066-1.7593-6.48759-1.7593-6.48759-.1249-1.18385-.2641-2.59272a1.402,1.402,0,0,1,.5035-1.26267.37138.37138,0,0,1,.3162-.098c1.0185.30416,1.2963.70959,1.57411,1.72333,1.57419,0,1.66669.60821,2.03709,1.926,1.1112-.20277,1.2038.20267,1.7594,1.115S572.09678,292.14017,571.26339,292.03878Z" class="n" transform="translate(-1.79949 -8.80506)"/><path d="M562.27418,290.31555a2.17068,2.17068,0,0,1-1.7617-.04183c-.827-.373-1.15409-1.26113-1.5732-2.66444-.3004-1.006.42811-3.6756.42811-3.96956s.07139-2.42591.64209-2.72,1.2843,1.76424,1.2843,3.01393a3.17754,3.17754,0,0,1-.0182.3262,4.01127,4.01127,0,0,0,1.34581,3.53167,1.85879,1.85879,0,0,1,.45609.55287A1.365,1.365,0,0,1,562.27418,290.31555Z" class="n" transform="translate(-1.79949 -8.80506)"/><polygon points="635.746 339.895 627.672 350.664 620.256 345.85 611.604 340.235 603.92 335.246 614.61 323.011 619.933 327.263 627.221 333.085 635.746 339.895" class="l"/><path d="M621.73218,336.06806c-2.13179,3.34559-5.3039,8.27676-8.3283,12.97188l-7.6841-4.98846,10.6893-12.23529Z" class="q" transform="translate(-1.79949 -8.80506)"/><path d="M637.54568,348.70034l-8.0737,10.76872-7.41659-4.81422c2.81689-5.13631,5.68929-10.41367,6.965-12.76458Z" class="c" transform="translate(-1.79949 -8.80506)"/><path d="M669.54747,347.50681s-2.8333,2.45332-7.0269,6.07875q-.46034.39951-.94279.81777c-1.801,1.55807-3.8107,3.2984-5.9311,5.13167-4.9632,4.29639-10.521,9.10587-15.35729,13.28861a8.48641,8.48641,0,0,1-2.07821-1.97639c-1.9274-2.40448-3.6933-5.91369-5.272-7.21448-2.1303-1.75579-7.5721-2.089-7.5721-2.089s1.834-4.45856,3.6944-9.18623q.207-.52532.4148-1.05867c1.029-2.63394,2.0253-5.25634,2.6776-7.146,2.2824,1.76959,12.51551,4.72314,14.5576,4.82741,1.402.07275,3.70091-.69825,7.0366-1.64132,1.5179-.42872,3.2522-.8934,5.2151-1.32912a15.19688,15.19688,0,0,1,7.97009.326A11.29,11.29,0,0,1,669.54747,347.50681Z" class="k" transform="translate(-1.79949 -8.80506)"/><path d="M662.52057,353.58556q-.46034.39951-.94279.81777a14.27376,14.27376,0,0,0-4.1377-2.0621c-2.1992-.44253-11.7854,3.09769-13.4843,3.40184-2.1311.37844-12.0686-2.53585-14.8943-3.38556q.207-.52532.4148-1.05867c3.1817.87063,11.9632,3.2236,14.3272,3.29232,2.90291.08294,12.1828-4.46216,15.04591-3.12984A27.80679,27.80679,0,0,1,662.52057,353.58556Z" class="k" transform="translate(-1.79949 -8.80506)"/><path d="M669.54747,347.50681s-16.964,14.67934-29.25808,25.3168a8.48641,8.48641,0,0,1-2.07821-1.97639l28.72209-24.51139A11.29,11.29,0,0,1,669.54747,347.50681Z" class="c" transform="translate(-1.79949 -8.80506)"/><path d="M669.54747,347.50681s-6.2428,5.40306-13.90079,12.02819a14.87769,14.87769,0,0,1-1.8986-12.196c1.5179-.42872,3.2522-.8934,5.2151-1.32912a15.19688,15.19688,0,0,1,7.97009.326A11.29,11.29,0,0,1,669.54747,347.50681Z" class="c" transform="translate(-1.79949 -8.80506)"/><path d="M523.30518,372.43826s21.6133,3.67077,30.8761-.2447,37.5263-32.54674,37.5263-32.54674l15.6755,9.29905,11.4005-18.1087s-24.2259-20.80055-27.076-22.26888S524.96778,364.118,523.30518,372.43826Z" class="k" transform="translate(-1.79949 -8.80506)"/><path d="M502.36078,341.05219l2.7119-15.58521c-6.5647-25.14093-8.5617-39.25514-4.709-48.81095,3.6516-9.05734,5.1371-12.49772,8.1336-13.52537a26.07072,26.07072,0,0,1,5.0943-.81376c3.82281-.344,8.0865-.43665,8.0865-.43665s6.5112,2.13258,7.0806,2.71914c.3488.35949,5.1733,3.189,8.9062,5.77141,2.3759,1.64523,4.3088,3.189,4.3644,3.93216.1434,1.912,2.1404,13.82087,2.2838,15.29188.1434,1.46873,2.5685,7.35038,3.4247,11.32005s-5.5159,15.33381-5.8006,15.77479a51.71247,51.71247,0,0,0,2.19821,6.33819c2.73119,7.22036,7.02709,18.02432,7.02709,18.02432Z" class="ae" transform="translate(-1.79949 -8.80506)"/><polygon points="548.972 297.816 550.127 300.371 590.496 288.553 597.498 243.185 594.501 243.626 587.642 285.613 548.972 297.816" class="k"/><polygon points="619.47 343.317 610.45 352.377 598.335 340.335 591.546 333.587 584.972 327.055 595.386 312.591 603.333 323.698 609.185 330.813 619.47 343.317" class="n"/><polygon points="603.333 323.698 591.546 333.587 584.972 327.055 595.386 312.591 603.333 323.698" class="q"/><path d="M621.26908,352.12218l-9.01969,9.0595L600.13458,349.1405c2.3481-2.10837,8.125-7.14968,10.84981-9.52274Z" class="c" transform="translate(-1.79949 -8.80506)"/><path d="M603.06048,327.4619s-4.5548,4.1306-10.2612,9.18747q-.7287.6485-1.4811,1.31c-.8562.75863-1.7316,1.53056-2.6135,2.30464-3.8656-3.12942-10.9239-12.70193-10.9239-12.70193s-.4345.6793-1.2201,1.868c-4.7816,7.249-22.6178,33.475-34.9509,40.80558-14.358,8.53465-31.7533,5.12075-37.2755-4.83638-3.0137-5.43613-3.3263-12.19336-2.98589-17.20829a45.72039,45.72039,0,0,1,1.01239-7.13876l24.06261.16537s44.76839-42.87263,50.56689-40.59673C582.78858,302.89673,603.06048,327.4619,603.06048,327.4619Z" class="e" transform="translate(-1.79949 -8.80506)"/><path d="M592.79928,336.64937q-.7287.6485-1.4811,1.31c-4.0647-3.82408-17.8953-18.70475-19.5006-20.17359-5.137,2.31567-9.6319,7.71873-23.5447,24.69994-9.131,11.14366-16.0489,16.066-20.7536,17.94715a8.67865,8.67865,0,0,1-10.1285-2.73471,5.52392,5.52392,0,0,1-.5822-.87764s-4.3878-7.38789-4.7089-15.65806c9.6319.11035,14.32371.05513,14.32371.05513s2.37159,9.47864-5.259,14.34139a1.74918,1.74918,0,0,0-.03421,2.91553c1.0616.69908,1.3506.55133,1.3506.55133s5.244.88207,13.27061-6.72631S558.487,326.52121,561.22248,323.63c4.1738-4.41075,9.0968-7.71874,11.4512-8.49066C577.77439,319.93378,589.57368,333.43845,592.79928,336.64937Z" class="k" transform="translate(-1.79949 -8.80506)"/><path d="M577.78078,327.56205s-.4345.6793-1.2201,1.868l-3.5659-6.02064Z" class="k" transform="translate(-1.79949 -8.80506)"/><path d="M577.91718,303.0351c-2.38279-.49095-4.984,1.59073-4.8413,3.061s9.442,4.90489,10.0128,3.28768S580.05768,303.47619,577.91718,303.0351Z" class="k" transform="translate(-1.79949 -8.80506)"/><path d="M648.71448,363.7673s-3.5938.91081-8.9106,2.25385q-.5844.14883-1.19649.30436c-2.28381.57781-4.83311,1.22393-7.52151,1.90323-6.2949,1.59444-13.3434,3.37856-19.4757,4.9289a8.79885,8.79885,0,0,1-1.0167-2.71915c-.6978-3.03463-.777-6.98658-1.6353-8.87219-1.158-2.54492-5.89679-5.32145-5.89679-5.32145s3.55729-3.16467,7.25379-6.55869q.411-.3771.8263-.7609c2.0526-1.89436,4.071-3.79316,5.4666-5.19132,1.2885,2.62652,9.2017,9.93508,10.9889,10.9584,1.2265.70351,3.6195,1.05856,7.0163,1.73116,1.5454.30653,3.3006.6792,5.2483,1.1821a15.51738,15.51738,0,0,1,7.0099,3.921A11.72889,11.72889,0,0,1,648.71448,363.7673Z" class="e" transform="translate(-1.79949 -8.80506)"/><path d="M639.80388,366.02115q-.5844.14883-1.19649.30436a14.83507,14.83507,0,0,0-2.82751-3.73361c-1.783-1.39827-11.9008-2.587-13.5553-3.0875-2.0741-.63077-9.739-7.76952-11.9094-9.81824q.411-.3771.8263-.7609c2.4807,2.22964,9.3493,8.33848,11.4405,9.47638,2.5685,1.396,12.8426,1.54375,14.8396,4.0424A28.94524,28.94524,0,0,1,639.80388,366.02115Z" class="k" transform="translate(-1.79949 -8.80506)"/><path d="M648.71448,363.7673s-21.5134,5.445-37.1043,9.39034a8.79885,8.79885,0,0,1-1.0167-2.71915l36.278-8.91185A11.72889,11.72889,0,0,1,648.71448,363.7673Z" class="c" transform="translate(-1.79949 -8.80506)"/><path d="M648.71448,363.7673s-7.9175,2.00472-17.6286,4.46144a14.7773,14.7773,0,0,1,3.5274-11.80524c1.5454.30653,3.3006.6792,5.2483,1.1821a15.51738,15.51738,0,0,1,7.0099,3.921A11.72889,11.72889,0,0,1,648.71448,363.7673Z" class="c" transform="translate(-1.79949 -8.80506)"/><path d="M547.16628,310.4707l-.01289.00433a16.34828,16.34828,0,0,0-3.10781,1.3519c-21.094,12.35213-39.7563,11.99934-42.3697,9.30657-2.7869-2.87133-7.1448-15.59624-6.9671-31.3733.2504-22.102,11.6674-28.63859,14.206-25.27765,3.5317,4.67977,3.705,34.50489,3.705,34.50489a14.78085,14.78085,0,0,0,2.3888,1.43567c.9952.41017.2483,2.15463.2483,2.15463s19.5698-2.05541,25.0964-4.049l.0022-.00227c2.3288-.8424,4.9936,1.58125,5.21191,1.58125l3.22769,4.39746S551.03188,309.17609,547.16628,310.4707Z" class="af" transform="translate(-1.79949 -8.80506)"/><path d="M547.16628,310.4707c-1.56889.14775-3.566.14775-6.4213-4.55633-2.7975-4.61352-.4858-7.282-.3917-7.38563l.0022-.00227c2.3288-.8424,4.9936,1.58125,5.21191,1.58125l3.22769,4.39746S551.03188,309.17609,547.16628,310.4707Z" class="ag" transform="translate(-1.79949 -8.80506)"/><path d="M512.53908,302.57681s-7.612,3.36125-6.887,5.22863,5.4371-2.05407,5.4371-2.05407-2.8654,6.80843-.9447,5.82848C514.48988,310.03034,512.53908,302.57681,512.53908,302.57681Z" class="ag" transform="translate(-1.79949 -8.80506)"/><path d="M562.357,300.23219c-.3841,1.08113-7.6334-3.34013-7.6334-3.34013s3.3506,2.79642,4.3006,6.284a1.89131,1.89131,0,0,1,.0957.71948,1.43877,1.43877,0,0,1-.5116.91195s.5959,1.74868-.3593,1.5796c-.6473-.11478-3.1394-2.37079-4.6791-3.81511a1.16048,1.16048,0,0,0-1.8674.40471c-.8448,1.96742-2.4734,5.03122-4.3643,4.84009-2.7713-.28035-4.8062-2.17256-3.19479-5.94,0,0,3.95269-9.03642,5.92659-9.79907S562.74108,299.15116,562.357,300.23219Z" class="n" transform="translate(-1.79949 -8.80506)"/><path d="M550.07,292.07773a3.969,3.969,0,0,1,2.7153-.60676c1.9796.06625,9.3949.68661,9.4413,1.73889s-7.517,1.14068-9.3141.69908S549.532,293.03893,550.07,292.07773Z" class="n" transform="translate(-1.79949 -8.80506)"/><path d="M558.60828,304.80748s-3.3722-3.79688-4.782-5.37452A9.672,9.672,0,0,1,558.60828,304.80748Z" class="q" transform="translate(-1.79949 -8.80506)"/><path d="M557.21768,251.22177c-.5671.91967-1.4597,9.02643-3.4867,14.70964-2.027,5.681-7.5429,8.35609-7.5429,8.35609l-1.357-2.53173-8.9449-16.69-5.1091,12.286a75.922,75.922,0,0,1-9.343-9.71016c-.92469-1.13573-1.875-2.3575-2.8232-3.66087,7.4379-8.42008,8.84-19.30564,19.8717-19.47327,11.0296-.16754,19.953,9.52717,20.2762,11.28254C559.08418,247.54544,557.21768,251.22177,557.21768,251.22177Z" class="k" transform="translate(-1.79949 -8.80506)"/><path d="M553.44628,259.23384c-.9996,2.64641-1.4983,5.36555-3.14,7.93922-1.0681,1.676-3.7415,3.50653-5.4752,4.58271l-8.9449-16.69-5.1091,12.286a75.922,75.922,0,0,1-9.343-9.71016l7.1832-8.55237,10.2377,2.75665s12.09341,1.06526,17.01641-1.48852C556.22878,253.83067,554.44378,256.58743,553.44628,259.23384Z" class="i" transform="translate(-1.79949 -8.80506)"/><path d="M557.55148,249.05076c-1.6347,4.06971-.5482,8.59915-.9086,12.8436a11.20445,11.20445,0,0,1-1.8994,5.78727,6.37071,6.37071,0,0,1-2.3589,1.98947,15.56919,15.56919,0,0,1-2.7353.71474.16562.16562,0,0,0-.0172.298c1.5178.7267,3.393-.22172,4.60931-1.20291a9.084,9.084,0,0,0,2.917-4.92571,22.44587,22.44587,0,0,0,.38489-6.67366,33.56439,33.56439,0,0,1,.25211-8.74165C557.82528,248.99512,557.60948,248.90661,557.55148,249.05076Z" class="k" transform="translate(-1.79949 -8.80506)"/><path d="M538.03518,273.42079c0,3.96966-5.137,15.14413-8.7051,12.35-3.568-2.792-15.2676-17.05395-16.1238-19.84811a5.04168,5.04168,0,0,1,.3853-3.60575c3.82281-.344,8.0865-.43665,8.0865-.43665s6.5112,2.13258,7.0806,2.71914c.3488.35949,5.1733,3.189,8.9062,5.77141A14.568,14.568,0,0,1,538.03518,273.42079Z" class="af" transform="translate(-1.79949 -8.80506)"/><path d="M540.13928,261.71477s-1.4448,1.37838-2.622,2.3708c-.04289.03534-.0856.07274-.1306.11467-1.2115,1.10267-3.3968,4.10639-3.2941,4.95765a5.39535,5.39535,0,0,0,.4801,2.318,4.0711,4.0711,0,0,1,.4178,2.80755c-.6685,3.37074-2.2922,6.05547-5.1252,6.28709-2.4793.20267-9.3843-9.611-12.8662-14.8206a2.008,2.008,0,0,1,1.3478-3.10913,21.90293,21.90293,0,0,0,3.3312-.76059c3.1507-.95935,8.43331-4.53419,11.584-6.79473,1.5582-1.12028,2.59631-1.91642,2.59631-1.91642s2.56859-1.32326,3.37119-.11025S540.13928,261.71477,540.13928,261.71477Z" class="l" transform="translate(-1.79949 -8.80506)"/><path d="M540.13928,261.71477s-1.4448,1.37838-2.622,2.3708c-.04289.03534-.0856.07274-.1306.11467a23.5536,23.5536,0,0,1-4.1246-9.11472c1.5582-1.12028,2.59631-1.91642,2.59631-1.91642s2.56859-1.32326,3.37119-.11025S540.13928,261.71477,540.13928,261.71477Z" class="q" transform="translate(-1.79949 -8.80506)"/><path d="M523.01548,271.42019c0,1.08412,10.0708,3.56207,10.2211,2.32309S523.01548,270.33618,523.01548,271.42019Z" class="q" transform="translate(-1.79949 -8.80506)"/><path d="M551.44718,258.46191a4.62312,4.62312,0,0,0,.1861,2.58912.818.818,0,0,1-.42589.96151,2.67648,2.67648,0,0,1-.97391.27129,2.29306,2.29306,0,0,0-1.9306,1.02106c-1.21149,1.49078-3.0116,3.34765-3.8828,3.46459-2.7825.36608-6.4576-4.3379-7.09969-5.71628s.107-9.097,1.17719-8.98676,15.4646-1.15779,17.0164-1.48863a7.45956,7.45956,0,0,1-.2783,1.66286C554.36018,255.32373,551.76818,257.23582,551.44718,258.46191Z" class="n" transform="translate(-1.79949 -8.80506)"/><path d="M535.00228,250.02648c-.21989.9815-.5448,3.45028.42811,4.521a4.87591,4.87591,0,0,0,2.29239,1.2908s.0631-.19381.1545-.51878c.03211-.11426.0682-.24635.1064-.39276.482-1.83317,1.29571-5.84126-.6255-6.37116A1.74418,1.74418,0,0,0,535.00228,250.02648Z" class="n" transform="translate(-1.79949 -8.80506)"/><path d="M535.86328,250.66663a.14848.14848,0,0,1-.253-.14775c.2246-.694.6373-1.391,1.3718-1.154,1.5385.4962.9097,3.80419,1.39131,4.35552-1.12371-.49621-1.92641-.05512-1.71231.7167a.80042.80042,0,0,1-.1606-1.2634,1.28708,1.28708,0,0,1,1.10591-.28035c-.09361-1.28967-.317-2.32474-.86911-2.52524A.75257.75257,0,0,0,535.86328,250.66663Z" class="q" transform="translate(-1.79949 -8.80506)"/><path d="M535.55808,252.50134a2.15643,2.15643,0,0,0,1.103,1.93579c-.1211-.72093-.1606-1.2634-.1606-1.2634s-.4647.26408-.73609-.69362A.10478.10478,0,0,0,535.55808,252.50134Z" class="q" transform="translate(-1.79949 -8.80506)"/><path d="M543.35118,259.41919a4.09419,4.09419,0,0,0,1.034,2.91667,3.66126,3.66126,0,0,0,2.81121.53041A6.82263,6.82263,0,0,1,543.35118,259.41919Z" class="q" transform="translate(-1.79949 -8.80506)"/><path d="M543.42128,263.75473c.1427-.51455,1.6409-.441,1.8907.44108S543.27858,264.26938,543.42128,263.75473Z" class="l" transform="translate(-1.79949 -8.80506)"/><path d="M550.32639,255.67342a1.07833,1.07833,0,0,0-.73821-.33558,1.10317,1.10317,0,0,0-.7754.30993,1.12671,1.12671,0,0,0-.0249,1.55951,1.07809,1.07809,0,0,0,.7382.33558,1.10317,1.10317,0,0,0,.7754-.30993,1.12672,1.12672,0,0,0,.02491-1.55951Z" class="k" transform="translate(-1.79949 -8.80506)"/><path d="M548.34418,253.794a7.83393,7.83393,0,0,1,2.3189.55133,3.34667,3.34667,0,0,1,1.1415,1.32316,2.05281,2.05281,0,0,0-.7135-1.98483A2.58607,2.58607,0,0,0,548.34418,253.794Z" class="k" transform="translate(-1.79949 -8.80506)"/><path d="M550.77008,261.18189c.0956-.06162-1.67669-.6249-1.78369-.22049C548.87928,261.36559,550.48458,261.36559,550.77008,261.18189Z" class="l" transform="translate(-1.79949 -8.80506)"/><rect width="676.158" height="2.812" y="363.757" class="b"/></svg>