<svg xmlns="http://www.w3.org/2000/svg" viewBox="0 0 1076.99118 936.92916"><defs><style>.a{fill:#f5f5fe;}</style></defs><title>Asset 4</title><path class="a" d="M49.51192,459.015C7.1533,422.47247-6.997,360.56573,3.137,305.54834S44.3417,201.51811,80.10951,158.5033c20.694-24.88687,43.39453-48.48733,70.27187-66.52084,26.04885-17.47763,55.4321-29.33835,85.07418-39.60272a954.677,954.677,0,0,1,363.6652-50.9578c33.17825,1.824,67.804,5.924,95.30508,24.57379C766.50322,74.875,751.2805,190.0338,807.76147,256.32276c29.37684,34.47816,74.07126,50.88169,112.75441,74.4477C1025.632,394.80787,1088.457,522.20608,1075.24715,644.5813S973.45994,878.0207,857.0822,918.10083c-73.68176,25.37577-154.97465,23.47682-230.42928,3.9953-60.04773-15.50363-120.19925-44.377-154.264-96.20062-13.049-19.85179-23.04954-43.68315-43.95465-54.9679-22.44632-12.11671-49.89225-5.73173-74.73143.07058C298.28027,783.94463,240.19814,792.483,184.684,779.935S76.41,730.02254,59.15906,675.78527C36.7515,605.33559,76.55248,522.24242,41.124,457.3573"/></svg>