<svg xmlns="http://www.w3.org/2000/svg" viewBox="0 0 1261.70814 157.45596"><defs><style>.a,.c{fill:#dbcdfe;}.b{fill:#fff;}.c{opacity:0.55;}.d{opacity:0.63;}.e{fill:none;stroke:#fff;stroke-miterlimit:10;stroke-width:4px;}.f{fill:#ffc73c;}.g{fill:#8070f2;}.h{fill:#0b2d4e;}</style></defs><title>Asset 5</title><path class="a" d="M717.01682,28.1511H695.64829a16.56636,16.56636,0,0,0-16.51781,16.51776v0a16.5298,16.5298,0,0,0,7.16083,13.58831V69.88269l11.88965-8.696h18.83586A16.56637,16.56637,0,0,0,733.5346,44.66891v0A16.56633,16.56633,0,0,0,717.01682,28.1511Z"/><circle class="b" cx="694.36417" cy="44.66891" r="2.50659"/><circle class="b" cx="706.33256" cy="44.66891" r="2.50658"/><circle class="b" cx="718.30095" cy="44.66891" r="2.50659"/><path class="a" d="M1076.72948,135.40908c-.057-6.52964-5.8667-13.11959-17.51149-8.96215-2.306-12.14775-10.9297-13.8245-16.59068-10.56985-13.94891,8.01957,2.02217,36.00594,2.02217,36.00594S1076.87,151.49839,1076.72948,135.40908Z"/><path class="c" d="M659.98761,128.94041c-2.81857-5.89026-10.87331-9.39749-19.65925-.69732-7.23629-10.026-15.758-7.89056-19.50645-2.54374-9.2364,13.17477,17.089,31.75661,17.089,31.75661S666.93271,143.45424,659.98761,128.94041Z"/><g class="d"><rect class="a" x="1052.78658" y="3.88334" width="49.25064" height="32.86072" rx="12" transform="translate(47.70887 -297.39799) rotate(16.06731)"/><path class="e" d="M1060.29172,1.01,1074.044,24.51588a3.06751,3.06751,0,0,0,3.98459,1.14763l24.14854-12.58983"/><line class="e" x1="1052.64782" y1="27.54971" x2="1071.57574" y2="20.29697"/><line class="e" x1="1094.53323" y1="39.61343" x2="1082.36286" y2="23.40385"/></g><g class="d"><rect class="a" x="147.2514" y="97.99389" width="49.25064" height="32.86072" rx="12" transform="matrix(0.98219, -0.18788, 0.18788, 0.98219, -18.43747, 34.33041)"/><path class="e" d="M147.87588,104.95354l22.89827,14.74189a3.06753,3.06753,0,0,0,4.07272-.77907l15.84085-22.15227"/><line class="e" x1="153.06494" y1="132.0803" x2="166.66433" y2="117.0495"/><line class="e" x1="195.87679" y1="123.89085" x2="177.69003" y2="114.9404"/></g><circle class="f" cx="1239.48691" cy="49.0169" r="22.21677" transform="translate(177.09211 689.36661) rotate(-33.34377)"/><path class="b" d="M1254.52915,52.72994a15.48221,15.48221,0,0,1-30.32586-6.256"/><path class="g" d="M1238.63249,34.4389c-.73881-2.18949-3.41878-3.7653-6.87653-1.08382-2.11427-3.831-5.19907-3.44438-6.744-1.726-3.80691,4.23415,4.64826,11.88527,4.64826,11.88527S1240.453,39.83394,1238.63249,34.4389Z"/><path class="g" d="M1259.66136,38.777c-.73882-2.18948-3.41879-3.76529-6.87653-1.08381-2.11427-3.83095-5.19907-3.44438-6.744-1.726-3.80691,4.23415,4.64825,11.88527,4.64825,11.88527S1261.48182,44.17206,1259.66136,38.777Z"/><circle class="f" cx="254.45159" cy="31.84938" r="22.21681" transform="translate(52.00624 189.25291) rotate(-45)"/><path class="h" d="M259.9919,19.514a3.49259,3.49259,0,0,1,2.0184-1.03718,4.16972,4.16972,0,0,1,2.10567.21919,4.03864,4.03864,0,0,1,1.76286,1.26643,3.00554,3.00554,0,0,1,.68074,2.21588c-.87675-.06242-1.47311-.13761-2.02576-.23037a7.9083,7.9083,0,0,1-1.48852-.3966,7.82746,7.82746,0,0,1-1.427-.717A8.87986,8.87986,0,0,1,259.9919,19.514Z"/><path class="h" d="M248.19381,19.55021a8.88074,8.88074,0,0,1-1.6337,1.31132,7.6583,7.6583,0,0,1-2.92168,1.09731c-.55311.08972-1.14993.16155-2.027.21909a3.00546,3.00546,0,0,1,.693-2.212,4.03829,4.03829,0,0,1,1.76988-1.25662,4.1697,4.1697,0,0,1,2.10689-.20745A3.49243,3.49243,0,0,1,248.19381,19.55021Z"/><path class="h" d="M242.72813,36.723a11.79928,11.79928,0,0,0,23.4469,0Z"/><path class="g" d="M246.35363,43.96409a11.78828,11.78828,0,0,0,15.91947.25483l-.10843-.25361C254.292,40.12637,246.46063,43.912,246.35363,43.96409Z"/><ellipse class="h" cx="262.02865" cy="26.88291" rx="2.03674" ry="2.53317"/><path class="h" d="M248.19381,26.88291a2.08537,2.08537,0,1,1-4.07344,0,2.08537,2.08537,0,1,1,4.07344,0Z"/><circle class="f" cx="854.43224" cy="44.66893" r="22.21677" transform="translate(89.40597 427.79367) rotate(-29.59433)"/><path class="h" d="M860.64252,40.86567a2.73356,2.73356,0,0,1,1.45491-2.37945,3.78746,3.78746,0,0,1,2.99118-.28818,3.8832,3.8832,0,0,1,2.28471,1.87831,2.70117,2.70117,0,0,1-.05192,2.78927,6.51735,6.51735,0,0,0-1.77163-1.23177,11.09316,11.09316,0,0,0-1.37848-.52761,8.678,8.678,0,0,0-1.37694-.334A6.56144,6.56144,0,0,0,860.64252,40.86567Z"/><path class="h" d="M851.382,38.09265a6.5611,6.5611,0,0,0-1.74637-1.26067,8.67718,8.67718,0,0,0-1.33387-.47779,11.093,11.093,0,0,0-1.44159-.31685,6.51746,6.51746,0,0,0-2.157.05535,2.70117,2.70117,0,0,1,1.48962-2.35876,3.88323,3.88323,0,0,1,2.941-.31349,3.78751,3.78751,0,0,1,2.34052,1.88473A2.73357,2.73357,0,0,1,851.382,38.09265Z"/><path class="h" d="M840.44475,45.64018a14.987,14.987,0,0,0,4.804,5.46021,20.79652,20.79652,0,0,0,6.35122,2.98092,21.1805,21.1805,0,0,0,6.97956.78885,17.75363,17.75363,0,0,0,7.0729-1.93086,11.37157,11.37157,0,0,1-6.6988,4.29968,16.61149,16.61149,0,0,1-15.26784-4.33056,12.2204,12.2204,0,0,1-2.36519-3.36331A8.87811,8.87811,0,0,1,840.44475,45.64018Z"/><ellipse class="g" cx="868.42512" cy="48.85957" rx="3.33418" ry="4.51232" transform="translate(572.50253 866.7711) rotate(-73.32994)"/><ellipse class="g" cx="839.92423" cy="40.32512" rx="3.33418" ry="4.51232" transform="translate(560.35318 833.38177) rotate(-73.32994)"/><rect class="a" x="370.97288" y="75.75779" width="56.89178" height="39.51592" rx="12"/><polygon class="a" points="399.419 127.76 409.394 114.306 389.444 114.306 399.419 127.76"/><path class="b" d="M402.07521,89.51643c-1.61529-2.764-5.69259-4.15192-9.63361.45419-3.941-4.60611-8.01827-3.21818-9.63362-.45419-3.98016,6.81055,9.63362,14.82516,9.63362,14.82516S406.05537,96.327,402.07521,89.51643Z"/><path class="b" d="M414.38646,100.59683h-2.46114V93.85862l.02389-1.10707.03985-1.21067q-.61343.61341-.85225.80447L409.7987,93.4206,408.612,91.93914l3.75142-2.98679h2.02307Z"/><rect class="a" x="1.31802" y="64.82255" width="56.89178" height="39.51592" rx="12" transform="translate(-18.10195 8.76091) rotate(-12.87774)"/><polygon class="a" points="36.95 116.013 43.676 100.675 24.227 105.121 36.95 116.013"/><path class="b" d="M31.01645,78.14005c-2.19068-2.33448-6.47475-2.77878-9.29008,2.58982-4.86841-3.61193-8.53383-1.3502-9.49253,1.70429C9.87167,89.96047,24.92925,94.73938,24.92925,94.73938S36.41438,83.89223,31.01645,78.14005Z"/><path class="b" d="M45.48755,86.19793l-2.39924.54851-1.50175-6.56873-.22345-1.08455-.231-1.1891q-.46128.73468-.65152.97418l-1.06481,1.34643L37.92876,79.045l2.99138-3.74775,1.97219-.45088Z"/></svg>