<svg xmlns="http://www.w3.org/2000/svg" xmlns:xlink="http://www.w3.org/1999/xlink" viewBox="0 0 954.59941 779.23599"><defs><style>.a{fill:#f1ebff;}.b{fill:#fabf77;}.c{fill:#26a8d1;}.d{fill:#3dc8e8;}.e{fill:#dbcdfe;}.f{fill:#e87a56;}.g{fill:#1b2a4d;}.h{fill:#0b2d4e;}.i{fill:#35255a;}.j{fill:#260909;}.k{fill:#f8a17a;}.l{fill:#e5785c;}.m{fill:#e7490b;}.n{fill:url(#a);}</style><linearGradient id="a" x1="580.19342" y1="355.63958" x2="866.31497" y2="355.63958" gradientUnits="userSpaceOnUse"><stop offset="0" stop-color="#f6911e"/><stop offset="0.98574" stop-color="#f0d357"/></linearGradient></defs><title>Asset 2</title><path class="a" d="M173.43251,328.70557c-30.33346-26.1685-40.46666-70.50059-33.20961-109.89913s29.50716-74.49716,55.12088-105.30053c14.81921-17.82175,31.07529-34.72229,50.32244-47.63628,18.65386-12.51592,39.69552-21.00951,60.92253-28.35994A683.65439,683.65439,0,0,1,567.0133,1.01827c23.7593,1.30621,48.5552,4.24222,68.249,17.59755,51.61538,35.00294,40.71423,117.46943,81.16086,164.93966,21.03707,24.69018,53.04322,36.43692,80.74464,53.3128,75.2748,45.85787,120.26441,137.0891,110.80473,224.7233S835.0816,628.76,751.74226,657.46185c-52.7643,18.17186-110.979,16.812-165.01289,2.86108-43.00082-11.10232-86.076-31.77885-110.47007-68.89029-9.34451-14.21608-16.506-31.282-31.47639-39.36311-16.074-8.6769-35.72837-4.10455-53.516.05054-39.68873,9.27109-81.282,15.38549-121.03628,6.39975s-77.53612-35.74285-89.88972-74.58274c-16.04629-50.44977,12.45562-109.95368-12.91509-156.41861"/><path class="b" d="M695.53834,634.87478c-13.51416-.51623-25.02539,9.08527-35.65039,16.08069-7.31591,4.81641-31.356,16.97571-18.5122-1.22278,8.96923-12.70782,26.16064-16.93078,34.99951-30.1651-7.188-8.993-32.06348-25.4638-44.08252-22.78222-14.38916,3.21081-18.77637,31.4295-27.85889,41.18341-10.1831-17.31415,9.38233-34.56409,16.14942-48.74164-18.94776-13.666-57.36036-30.46295-82.07862-23.81568-36.0415,9.692-2.47363,56.35315,4.34571,64.09845,5.02294,5.70435,12.95459,16.02808-.53663,11.54456-11.83007-3.93176-27.07519-30.10053-31.98925-41.35284-2.39942-5.49671-2.812-21.167-7.86133-24.59815-5.75733-3.91174-101.605,38.7511-112.40967,70.4635-10.51025,30.84827,35.667,65.32709,64.55615,73.028H712.763c1.46192-2.6344,2.63575-4.83478,3.458-6.42731,11.05371-21.41065,23.80371-24.54956,46.06348-25.44989C746.4651,665.92617,723.41627,635.94052,695.53834,634.87478Z"/><path class="c" d="M887.91356,579.4556c-38.0026-14.83814-6.07194-26.0659,16.55037-29.75387,18.29875-2.98244,64.49736-6.53418,42.90188-35.12466-22.62039-29.94831-38.3987,3.533-53.88235,6.21343-34.60369,5.99079-1.28948-28.69455,6.56225-38.02623,10.75766-12.78406,33.46591-38.84516,1.69325-46.0407-25.69647-5.81983-49.105,21.96693-58.20353,36.02259-6.4867,10.02075-20.1974,58.29117-40.42049,45.7231-15.30993-9.51529-5.012-58.12164-36.29513-25.29991-12.72136,13.34544-8.24353,36.79-13.02741,52.83967-7.00665,23.50881-9.977,33.24644-35.99344,24.97926-13.48413-4.28423-15.23662-18.32251-30.60224-10.17051-7.91132,4.19783-8.26867,26.41129-7.46,34.19993,7.4283,71.54943,45.7254,122.14038,62.23592,129.59185,22.35289,10.08808,61.274,1.23085,78.86-6.25731,8.74351-3.72274,24.76486-9.749,22.51644-21.1451-2.52367-12.78844-25.47637-12.82146-27.0402-20.33844-4.43514-21.32015,43.372,2.54443,55.79647.55191,16.08693-2.57911,40.99138-25.28976,22.47557-39.84715-1.9017-1.4951-74.05319-11.64947-34.84958-27.69565,21.70506-8.884,48.88619,22.77913,68.8055,3.44662C957.20376,585.50272,902.16342,585.01962,887.91356,579.4556Z"/><path class="d" d="M882.86218,590.21279c-16.38123-6.93687-33.24311-13.36253-50.61459-15.99062,10.92027-11.86712,22.43341-23.5653,30.31824-37.08133,2.22291-3.81171-5.80036-7.212-8.00889-3.42612-.96177,1.6482-2.05514,3.236-3.11181,4.84018-1.74393-4.46534-.76576-10.84492-.61235-14.28286.39589-8.878,3.6237-16.62512,7.01286-24.5244,1.7365-4.04613-6.26911-7.47885-8.00832-3.42633-4.39861,10.24886-7.69936,20.11136-7.54758,31.70915.07552,5.70143.2614,11.889,4.64534,16.95337-11.49426,15.3499-26.31682,29.14672-38.41661,43.96263-6.55588-8.273-11.59586-16.741-14.43994-26.14488-3.09768-10.2411-2.6154-20.36029-4.80883-30.596-.98824-4.61052-9.26382-4.40223-8.27392.2163,2.63757,12.30684,2.08554,24.14377,6.84329,36.45309,3.58556,9.27687,9.23494,17.676,16.04286,25.898-13.82639,17.89177-26.38265,36.638-36.26217,56.70364-3.28112,6.66467-6.20766,13.49161-9.0152,20.37262-8.79541-10.57162-16.28606-21.46416-21.89258-33.25366-3.11759-6.55484-6.54643-13.51219-8.18352-20.24563-1.23971-5.10185-1.06218-9.81013-3.85809-14.77761-2.48119-4.408-10.05072-2.38943-7.5665,2.02515,3.42594,6.08655,3.17893,13.64419,5.593,20.0515a194.982,194.982,0,0,0,8.11,18.42378c6.20623,12.39833,14.70011,23.8779,24.29454,34.96139a4.89178,4.89178,0,0,0,.457.37452c-4.71037,11.89859-9.28146,23.85925-14.67754,35.43671a2.66553,2.66553,0,0,0-1.15791,1.3348c-.50222,1.30754-1.56471,3.08173-1.82033,4.696-9.32549,24.05415-3.94426,9.02565-12.88055,33.23314-1.52114,4.12167,28.25813,1.31391,29.78656-2.829,8.90458-24.12379-18.28762-2.75706-8.99333-26.72823.06258-.10056.15578-.15693.21126-.269,3.12129-6.22389,5.92192-12.59766,8.5962-19.03016,15.63229,4.5281,32.303,2.1042,46.13176-1.60989,4.87335-1.30811,1.11519-8.1802-3.75984-6.8707-12.024,3.22952-26.09473,5.3601-39.73253,2.04122,5.91587-14.72854,11.38845-29.66462,18.36644-43.9108,2.77664-5.66947,5.79832-11.21344,8.98485-16.66964a5.17226,5.17226,0,0,0,.906.553c21.56968,8.85547,44.38234,13.539,66.46,12.35975,5.27435-.282,3.58816-7.44472-1.7185-7.16127-20.68913,1.10519-41.82188-3.184-62.05016-11.48867-.04157-.01708-.07561-.01167-.11677-.02744a418.84024,418.84024,0,0,1,33.42957-46.06071c2.06333-2.50925,4.22638-4.97742,6.42308-7.433a4.34443,4.34443,0,0,0,3.32274,2.13473c16.848,2.47491,33.02628,8.67145,48.90163,15.39345C885.331,598.68746,888.033,592.40169,882.86218,590.21279Z"/><path class="c" d="M170.94572,578.911c-3.85638,38.89212-28.16148,11.35775-40.42122-9.07607-9.91586-16.52867-30.32595-59.12192-55.95145-32.645-26.84277,27.73371,17.63945,35.27595,26.21216,49.22778,19.1592,31.18024-32.90268,7.43932-46.51776,2.095-18.65254-7.32253-56.95109-22.9803-54.11857,8.40506,2.29041,25.3833,42.8418,41.32376,62.38787,46.81294,13.93505,3.91345,74.88081,6.30453,67.39754,28.01517-5.66592,16.4362-65.79948,17.32141-16.61981,39.56042,19.99717,9.04388,45.67316-.24852,66.01667.75783,29.798,1.47353,42.16473,2.14784,41.72287,28.36274-.22833,13.58687-15.93007,18.27924-1.03834,30.93254,7.668,6.51469,33.6169,2.02806,42.3861-.42177,80.55761-22.50437,125.87247-69.43407,128.71612-86.5492,3.84973-23.1714-20.1632-57.78188-35.06575-72.66347-7.409-7.399-20.06065-21.12921-32.51616-16.5449-13.977,5.14494-5.92648,26.69662-14.11376,29.79628-23.22144,8.79117-12.32721-41.26337-19.0221-52.49308-8.66753-14.54011-43.8452-32.98665-54.24271-12.44673-1.06784,2.10958,12.55531,72.03877-19.91428,38.72363-17.97684-18.4449,9.25212-50.8318-20.24165-65.33237C153.55631,512.55916,172.39193,564.32755,170.94572,578.911Z"/><path class="d" d="M185.231,581.31732c-2.291,16.88206-3.81833,34.1043-.75144,50.98051-17.64389-7.6742-35.30036-15.94157-53.79136-20.40863-5.21447-1.25909-6.33974,7.01007-1.16035,8.26127,2.255.545,4.48606,1.2266,6.72332,1.8702-4.57632,2.60627-12.33724,3.073-16.38787,3.67527-10.46011,1.55562-20.60359.20757-30.98082-1.2589-5.31556-.75164-6.48475,7.508-1.1608,8.26077,13.46435,1.904,26.09264,2.86127,39.52146.20117,6.60124-1.30853,13.72869-2.82619,18.071-8.04053,21.89489,7.45694,43.15728,18.37513,64.64481,26.51637-7.30683,7.94954-15.37468,14.51855-25.30426,19.2295-10.81349,5.13075-22.74691,6.87472-33.8728,11.15552-5.0114,1.92846-1.85281,9.6511,3.16733,7.71935,13.377-5.1473,27.3319-7.19867,39.96464-14.33661,9.52065-5.37938,17.29366-12.50543,24.45237-20.68049,25.67167,9.09422,51.889,16.81074,78.69684,21.72833,8.90394,1.63306,17.87155,2.89807,26.86008,4.03965a155.28063,155.28063,0,0,1-30.94169,27.76808c-6.52124,4.34923-13.40071,9.078-20.65132,12.07633-5.49395,2.27115-11.02984,3.12657-15.81916,6.82928-4.24982,3.28584.76437,9.95279,5.0208,6.66266,5.86818-4.537,14.74091-5.94574,21.33857-9.6026A214.81172,214.81172,0,0,0,301.42976,712.352c12.22574-8.51686,22.57722-18.98159,32.08041-30.39338a3.94864,3.94864,0,0,0,.27432-.51028c15.492,1.83846,31.00708,3.53272,46.36743,6.08453a3.87381,3.87381,0,0,0,1.95977.79711,38.5164,38.5164,0,0,0,6.10059.68925c31.24917,3.53173,62.50363,7.14716,93.7939,10.2803,5.32748.53309,6.51523-7.72567,1.16043-8.261-31.1818-3.12151-62.328-6.724-93.46975-10.24448-.139-.03691-.23734-.11216-.38716-.1399-8.33521-1.57873-16.73165-2.82393-25.15183-3.93779-.24523-15.65618-8.938-30.77792-18.12914-42.952-3.23813-4.29041-9.90242.729-6.66209,5.02063,7.99174,10.58521,15.42732,23.33023,16.37536,36.85179-19.20663-2.35569-38.49831-4.25022-57.51852-7.70757-7.56923-1.37557-15.07894-3.0084-22.54471-4.815a3.97226,3.97226,0,0,0,.3236-.97044c2.69285-22.16868.09777-44.59843-9.05364-65.06564-2.18657-4.88955-9.91894-1.75194-7.71927,3.16762,8.576,19.17992,11.03741,39.94723,8.51214,60.73723-.0052.04273.01309.07351.00926.11556a631.62714,631.62714,0,0,1-65.3263-21.37985c-3.64412-1.392-7.27564-2.8866-10.90435-4.41549a3.468,3.468,0,0,0,1.31061-3.58228c-3.06048-16.35161-1.55859-32.88245.66091-49.243C194.21271,577.16032,185.95332,575.98859,185.231,581.31732Z"/><path class="e" d="M29.58668,775.10934H925.93775c22.28418-11.73059,35.26563-29.39258,25.21191-55.913-3.56494-9.40442-12.8789-17.42829-22.80615-16.02033-12.39306,1.75769-21.54,16.91876-33.78222,14.30469-12.105-2.58453-14.46583-19.86749-25.00684-26.37549-19.38037-11.965-40.06445,20.73834-62.67627,18.19379-19.44531-2.18842-29.15088-29.21082-48.67041-30.58649-21.0835-1.48608-34.08154,27.93951-55.21729,27.8924-18.56494-.04157-31.40429-22.563-43.69775-33.67084-16.59473-14.99439-33.19287-32.2796-57.187-32.79651-15.79736-.34039-31.00684,7.46374-42.26709,18.58917-6.13086,6.05683-11.68164,13.372-19.80664,16.20819-11.30567,3.94684-23.69043-2.1806-32.80615-9.967-9.11573-7.78613-16.86133-17.52215-27.56739-22.89593a41.236,41.236,0,0,0-35.99316-.215c-11.561,5.63159-19.70557,16.27814-28.7041,25.48541s-20.54492,17.68518-33.36524,16.796c-17.96142-1.24591-30.647-20.12323-48.50244-22.444-17.22607-2.23877-35.354,12.768-47.5083,23.44782-11.957,10.50683-17.58545,29.45556-36.37793,29.87878-14.44629.32544-26.23779-13.48474-40.687-13.59393-18.75244-.14142-32.1001,22.45679-50.83789,21.70142-4.68506-.189-9.28955-1.83973-13.812-3.94507-11.731-5.46186-22.90821-13.984-33.50244-7.98664-4.91651,2.78315-7.87354,8.14557-12.53565,11.3393-12,8.22009-27.689-.91284-41.94385-3.73285a46.89635,46.89635,0,0,0-21.55615.81518C20.991,723.32327,8.85132,734.69986,8.449,748.58615,8.08863,761.01559,17.73463,769.308,29.58668,775.10934Z"/><path class="f" d="M228.55149,173.32164l4.42192,2.22476,10.34671-20.706-4.42191-2.22475a11.52415,11.52415,0,0,0-15.49139,5.16209h0A11.59979,11.59979,0,0,0,228.55149,173.32164Z"/><polygon class="g" points="295.843 207.175 304.637 211.6 314.984 190.894 306.19 186.469 295.843 207.175"/><polygon class="g" points="247.668 189.88 295.441 213.914 311.331 182.116 263.558 158.081 247.668 189.88"/><polygon class="g" points="213.999 193.215 252.79 192.834 268.831 160.734 245.93 129.316 213.999 193.215"/><polygon class="g" points="249.05 219.765 268.503 229.552 280.159 206.225 260.706 196.439 249.05 219.765"/><path class="h" d="M377.22935,154.7608c-5.1114-3.08874-10.61129-6.28315-16.573-6.0366-7.44915.30806-13.78941,6.14305-16.85751,12.96084s-3.46917,14.504-3.63761,21.98262-.1763,15.112-2.55727,22.20078c-2.84439,8.469-8.89178,15.57987-11.64138,24.08041a33.94987,33.94987,0,0,0,3.90459,28.70341,18.66744,18.66744,0,0,0,7.14947,6.77442,22.826,22.826,0,0,0,6.67715,1.76135,102.46939,102.46939,0,0,0,20.35545.92734c4.37167-.23709,8.9044-.8151,12.58811-3.18889,3.18493-2.05233,5.448-5.27565,7.20448-8.64038,5.1114-9.79062,6.48565-21.11022,6.69964-32.16067.334-17.25633-1.98983-34.66037-7.90179-50.86845Z"/><path class="f" d="M287.59276,315.6819c-9.77433-23.45063-23.84195-68.10427-18.82984-90.40257,2.18451-9.71832-10.22883-22.90416-4.6865-21.38568,11.91037,3.26275,20.07992,25.48955,21.19745,39.33724.76414,9.46784,3.35206,24.0431,2.59552,32.40644C286.62035,289.44507,292.59335,304.48136,287.59276,315.6819Z"/><path class="i" d="M370.04242,278.0813c-34.97638,61.865-62.70013,6.36595-74.146-19.23374-10.22333-22.86474-22.787-47.99261-28.84831-19.69977-20.187,94.23149,92.4705,159.1771,125.44917,76.77672C425.476,233.52439,346.95859,318.91153,370.04242,278.0813Z"/><path class="j" d="M260.33823,764.07738l76.54661,9.37663,4.41275-36.26638-19.78127-2.42294-13.76768,16.71722c-11.06423,1.426-31.84856-2.26314-39.92983,5.45307Z"/><path class="k" d="M321.51632,734.76469l19.78127,2.42294c10.55288-100.32249,1.17071-163.59322,76.50078-278.18739-13.04624-10.29239-26.05684-20.63157-39.13006-30.88927C299.80254,553.1329,313.48246,588.93981,321.51632,734.76469Z"/><path class="j" d="M542.27984,751.2803c16.55784-20.33034,33.11646-40.60391,49.51371-61.042-9.454-8.30945-19.8913-15.37958-29.86918-23.03165-4.50679,4.93106-8.82078,10.039-13.30819,14.98794,2.70947,7.15134,6.79368,13.72468,9.018,21.02348-6.64047,12.20462-16.78521,23.04216-16.85621,37.63187C540.76177,744.226,542.11612,747.86011,542.27984,751.2803Z"/><path class="l" d="M548.61592,682.19456c4.48793-4.94893,8.80087-10.05767,13.30845-14.98794C449.77948,559.53538,453.14909,542.60815,468.69916,427.7238c-22.76371,1.524-45.55782,2.56383-68.151,5.90675C392.42079,549.77027,431.56447,599.857,548.61592,682.19456Z"/><path class="l" d="M392.98637,193.05716l7.12013,62.83256-24.52908,21.19249s-6.57577-47.28844-12.70778-49.238C356.73842,225.89467,392.98637,193.05716,392.98637,193.05716Z"/><path class="c" d="M398.43151,241.11s-23.51349,30.13121-26.70126,13.15666c-1.78427-9.49648-20.22269,35.8198-20.59336,49.84649-.31593,11.91023,8.01289,34.15123,8.01289,34.15123L300.40715,570.40867s212.9141,11.44972,221.90883-28.21425c13.58142-59.88917-85.07741-179.30452-87.96-266.7474C433.93916,262.81186,415.71524,242.54223,398.43151,241.11Z"/><path class="k" d="M346.05639,199.78163c3.03195,18.7246,4.97466,41.00214,19.9175,38.565,14.94389-2.43635,37.22817-28.6632,34.19626-47.3878-3.033-18.72512-17.60515-31.92778-32.54825-29.49143C352.67879,163.90428,343.02314,181.05809,346.05639,199.78163Z"/><path class="f" d="M485.80554,338.49275c21.17518,7.8868,62.59422,19.90138,84.64439,16.38524,3.98863-.63609,16.46117,10.38965,13.73646,4.01424-5.854-13.70076-27.26051-17.67452-46.75127-17.94473-13.326-.18478-20.78067-.71942-31.267-2.52309C488.85452,335.44764,484.65343,333.60428,485.80554,338.49275Z"/><path class="i" d="M432.45933,266.9541s86.30811,64.12972,109.73406,68.43335c20.92317,3.8447,29.69995,26.998,14.99131,29.115-48.98769,7.0512-135.59705-37.72834-149.31732-69.07917C394.14738,264.07327,411.33419,270.05388,432.45933,266.9541Z"/><path class="h" d="M360.54,164.18552c2.37286-4.45161,5.14782-8.79493,9.00517-12.0356,3.85769-3.24067,8.95285-5.27907,13.9304-4.54519,4.331.63872,8.14252,3.27773,11.19573,6.42508,6.47256,6.67244,10.03786,15.55806,14.51793,23.71217,4.48008,8.15437,10.63566,16.216,19.52037,18.90439,6.64362,2.01027,14.62953,1.002,19.70347,5.7514,2.22223,2.07993,3.49034,4.976,4.48453,7.85736,2.40743,6.97891,3.378,15.23974-.80134,21.31866a28.5487,28.5487,0,0,1-6.63733,6.26475q-11.46372,8.65155-23.35706,16.70907c-4.89293,3.31479-10.49053,6.6995-16.30269,5.65993-3.69838-.66132-6.85764-3.05378-9.52886-5.70435-8.19863-8.136-13.10649-19.31233-14.52161-30.79491-.57343-4.65322-.629-9.47939-2.475-13.78671-2.79382-6.51866-9.1058-10.647-14.47-15.27128s-10.36474-11.2079-8.97713-18.166A65.35992,65.35992,0,0,1,360.54,164.18552Z"/><path class="g" d="M365.84082,165.03611a136.40156,136.40156,0,0,1-16.78548,30.47028c-1.94167,2.65425-4.14843,5.3637-7.24194,6.46189a61.44409,61.44409,0,0,1,2.7668-27.35026,34.42585,34.42585,0,0,1,6.23185-11.61663,18.38974,18.38974,0,0,1,11.229-6.45506,8.72182,8.72182,0,0,1,5.60489.90184,4.89332,4.89332,0,0,1,2.45646,4.86114Z"/><path class="m" d="M670.60587,756.70551c13.27362,9.75723,28.58792,10.61149,43.71361,7.86787,3.18624-4.18351,6.20981-8.03162,9.32585-12.09081,1.98829,3.94327,3.942,7.89547,6.01281,11.79143q3.33255-.039,6.66484-.081c.20773-13.57433.67822-27.12316,1.19559-40.69486-6.72011.20633-13.21392.14246-20.07755.41977,1.145,6.89874-5.403,16.63521-10.479,18.37028C699.19248,744.94432,662.70952,750.90154,670.60587,756.70551Z"/><path class="g" d="M705.09475,718.89752c12.98388,14.33134,22.85514,14.11869,38.75885,3.93171-32.51345-127.50638-22.20338-165.45657,33.82952-273.67138q-17.7461-18.13266-35.505-36.25271C674.54657,518.72145,666.34323,597.23271,705.09475,718.89752Z"/><path class="m" d="M879.8842,779.00066c15.88459-5.66914,24.2865-17.91319,30.71924-32.08287-1.67918-4.89373-3.04557-9.49543-4.60372-14.27587q6.526.72546,13.03785,1.43515l3.70466-5.55926q-16.17391-11.22655-32.3468-22.44891c-3.64,5.599-7.40646,10.86146-10.96734,16.6728,6.22608,2.57881,10.44393,13.15955,8.77471,18.13976C885.64789,748.50435,870.4347,782.37328,879.8842,779.00066Z"/><path class="g" d="M881.32027,727.90774q14.11767-6.57412,28.23453-13.15009c-44.37925-101.12235-82.397-194.88623-116.571-299.8517q-25.69338,22.515-51.419,44.9935C782.734,554.27183,830.7299,638.46116,881.32027,727.90774Z"/><path class="l" d="M716.35623,211.78044l22.74617,44.16789L713.132,283.251s-15.11832-40.09451-21.13559-42.23437C685.97833,238.87653,716.35623,211.78044,716.35623,211.78044Z"/><path class="k" d="M650.95663,371.05348c-22.21281,4.10912-44.60114-10.10025-69.1148-10.98737-4.036-.1464-24.97909,4.46608-21.20081-1.34316,8.11843-12.48429,30.21549-7.76693,49.46128-4.66478,13.15835,2.12119,20.26538-2.04865,30.90475-2.01317C658.57291,352.1052,652.93047,366.43706,650.95663,371.05348Z"/><path class="k" d="M821.06482,303.375c17.40318,16.636,25.21279,35.38609,39.80775,57.15107,2.40271,3.58369,19.43863,18.80556,12.13251,19.18564-15.701.818-25.52506-21.26215-34.93736-39.86111-6.43509-12.71665-14.43149-16.24566-21.063-25.47273C806.057,299.14316,815.90285,304.56679,821.06482,303.375Z"/><path class="n" d="M865.62233,351.13107c-16.34912-50.3819-83.53418-90.63757-121.5752-105.63391l-.001-.00019a31.59361,31.59361,0,0,0-12.71924-4.647s-23.06055,16.72669-25.72119,46.82739c-.07325.83136-.12012,1.70923-.15235,2.61127C701.593,335.804,628.94166,346.61593,605.56813,346.803c-21.27051.17109-33.41748,17.48554-19.292,22.113,40.03759,13.11676,98.67627.49933,126.90674-21.124,2.86914,15.51373,5.57128,30.63867,6.16748,41.97662,1.04394,19.8407-9.22266,80.66058-9.22266,80.66058s107.30322-13.31408,124.76709-49.68823c6.91748-14.40759-48.561-36.09051-61.33106-121.97894-.08252-.5531-.17871-1.09082-.26757-1.63635,27.36279,12.02984,52.19384,38.63964,61.44043,51.20477C848.2,366.625,870.53151,366.258,865.62233,351.13107Z"/><path class="k" d="M672.71755,204.3702c-1.06854,18.43467-3.92341,40.01276,10.78913,40.872,14.71209.85846,41.41859-19.32732,42.48763-37.76147,1.06857-18.43467-9.99124-34.07552-24.70325-34.93372C686.5795,171.68777,673.78662,185.93578,672.71755,204.3702Z"/><path class="g" d="M672.41944,199.92357c-1.63805,3.21518-6.28447,4.04-9.38139,2.20084-3.09747-1.83916-4.65244-5.62708-4.66109-9.23837-.0089-3.61128,1.29776-7.09167,2.80745-10.36966a29.90246,29.90246,0,0,1,1.74467-18.55559c1.96733-4.48395,6.96268-8.93977,11.20542-6.51551,3.19961-3.79134,7.41271-7.01519,12.31012-7.74617s10.4481,1.63019,12.27135,6.24924a14.11859,14.11859,0,0,1,14.14831-1.60995c4.68729,2.13723,7.3572,6.63037,8.21225,11.5517,14.54832-2.567,8.08752,18.92069,2.9345,24.51333-8.12423,8.81676-19.18427,7.95461-27.20555-.21921-3.22475,4.11411-6.18492,8.99654-11.1973,11.2439C684.33164,202.00035,670.79737,203.10747,672.41944,199.92357Z"/><path class="g" d="M729.97721,199.62392a22.17659,22.17659,0,0,1,.26825,12.15994,7.011,7.011,0,0,1-1.28781,2.80881,5.33287,5.33287,0,0,1-5.31756,1.417,11.25542,11.25542,0,0,1-4.87512-3.02093,30.954,30.954,0,0,1-5.339-6.94053c-5.46872-9.50227-5.11979-26.30071,8.63217-28.07573C734.27417,176.3954,744.524,197.078,729.97721,199.62392Z"/><path class="e" d="M494.06517,68.08887c-.53982-3.266,3.783-9.85358,8.49993-9.748,1.87582.042,3.71106.52872,5.58333.43731,4.99128-.24369,7.57849-4.12971,9.50206-7.34738,1.9238-3.2176,5.7542-6.88631,10.61843-6.07009,7.00356,1.17539,10.53326,10.41633,18.49352,3.47849,5.21105-4.54148,5.60223-10.89182,11.50268-15.29576,4.05017-3.02273,10.63617-4.81339,16.06615-3.14322,7.08672,2.17974,9.72245,9.20576,17.26776,10.42834,8.3583,1.35452,14.36768-5.00438,17.03588-9.59007,3.23742-5.56412,4.43981-11.57952,7.21277-17.24229,2.56676-5.24137,7.72883-12.26283,16.97717-12.11063,7.82048.12874,11.26579,5.07906,15.1049,9.00936,4.99275,5.11092,15.36749,23.46443,27.002,21.25167,4.53708-.863,6.80254-4.46659,10.89591-6.07981,6.58152-2.59369,14.97006.97173,18.93507,5.45712s5.5365,9.89841,10.01742,14.14151a10.35818,10.35818,0,0,0,4.38689,2.63225c6.25862,1.71267,12.08471-3.55554,18.78542-3.94734a15.61178,15.61178,0,0,1,11.57373,4.5532c2.65787,2.65031,4.10795,5.78143,6.142,8.68754a6.49562,6.49562,0,0,0,2.23321,2.17682c2.93942,1.57582,7.07538.24723,10.67622-.37236,8.89727-1.531,19.00441,2.553,21.51394,8.69339Z"/></svg>