<svg xmlns="http://www.w3.org/2000/svg" viewBox="0 0 518.116 331.363"><defs><style>.a{isolation:isolate}.b{fill:#e6f8ff}.c{fill:#caedff}.d,.k{fill:#bae6f7;mix-blend-mode:multiply}.d{opacity:.44}.e{fill:#7bc7ff}.f{fill:#379cf7}.g{fill:#2481c6}.h{fill:#0a4d7a}.i{fill:#083954}.j{fill:#fff}.k{opacity:.85}.l{fill:#fbbe42}.m{fill:#b1d7dd}.n{fill:#ffa683}.o{fill:#004cba}.p,.t{fill:#ed7d5a}.q{fill:#006cbc}.r{fill:#57bfff}.s{fill:#30afef}.t{opacity:.58}.u{fill:#0a85e0}.v{fill:#e57c5c}.w{fill:#f9a643}.x{fill:#ff5a5a}</style></defs><title>multiverse</title><g class="a"><path d="M481.77413,314.62171c0-6.3284-95.4518-11.4586-213.19759-11.4586s-213.1977,5.1302-213.1977,11.4586,95.4518,11.4584,213.1977,11.4584S481.77413,320.95,481.77413,314.62171Z" class="b"/><path d="M81.89144,309.17611c-24.8476-.1165-44.9975-20.5445-44.3348-45.3835.3603-13.5023,5.41-26.5973,20.7526-33.7334,40.4212-18.8005-15.9805-141.004,55.4616-153.2244s68.6219-105.2831,152.2844-35.7211,98.7028-24.4406,153.22439,24.4408-35.721,110.9232,31.9609,142.8841c44.6298,21.0751,29.9927,58.9085,14.8448,82.2355a44.39361,44.39361,0,0,1-37.4673,20.126Z" class="c"/><path d="M428.61793,310.8a44.39366,44.39366,0,0,0,37.46751-20.1259c15.14779-23.3271,29.78479-61.1604-14.84491-82.2356-67.6819-31.9609,22.5607-94.0026-31.9609-142.884s-69.562,45.1212-153.22439-24.4408c-20.5849-17.1154-35.932-24.3811-48.4401-25.4329a46.75117,46.75117,0,0,1,11.8157,11.7309c30.3947,42.5527,48.6317,73.6229,112.1231,68.2195,63.49139-5.4036-28.3685,105.3687,21.614,118.2021,33.01769,8.4774,28.59659,59.3929,4.6625,96.682Z" class="d"/><path d="M207.81914,95.49781a46.18723,46.18723,0,0,1-14.4524-3.9593c-6.8713-3.1832-13.0382-9.2899-9.5507-15.3178,5.1537-8.2602-9.502-15.257-4.5192-19.8528,5.0729-4.0733,6.1365-.7,4.1844-9.8101-1.609-9.2991,4.7902-11.5319,8.3898-19.851,4.1131-8.3684,13.566-2.1073,11.2273,8.8137-1.8391,11.2685,2.5093-.3733,5.7081,4.7086,2.7264,4.1964-8.0101,22.2804-3.2596,20.6432,4.3895-1.9759,8.1721.7771,7.5859,5.8282C211.42354,78.33581,207.603,95.26721,207.81914,95.49781Z" class="e"/><path d="M211.31614,100.25361a.14923.14923,0,0,1-.129-.0604,79.15615,79.15615,0,0,1-15.9274-29.826l-.0263-.096-.0808-.0493a43.239,43.239,0,0,1-8.4524-7.1028c-.8562-.883-1.7027-1.7861-2.5507-2.6938a.11815.11815,0,0,1-.0281-.1523.1834.1834,0,0,1,.2211-.1047.19029.19029,0,0,1,.0595.0443c.828.8871,1.655,1.7705,2.4909,2.6347a45.14415,45.14415,0,0,0,7.7483,6.6661q.2331.1503.4665.2991-.074-.282-.1466-.5645a75.24211,75.24211,0,0,1-2.2974-16.6388l-.0042-.1579-.1335-.0606a.12481.12481,0,0,1-.0568-.0478,42.2799,42.2799,0,0,1-5.177-11.1836.15134.15134,0,0,1,.0337-.1676.17273.17273,0,0,1,.202-.0358.15654.15654,0,0,1,.0599.0926,42.11089,42.11089,0,0,0,4.6473,10.3386q.20415.3255.4103.6486-.0069-.39435-.0113-.7887a84.50418,84.50418,0,0,1,1.7246-17.795c.0151-.0746.0469-.0891.0587-.0943a.18222.18222,0,0,1,.2303.216,82.54547,82.54547,0,0,0-1.3917,23.8768q.0213.23295.043.4658.1596-.153.3198-.305a60.71009,60.71009,0,0,0,9.241-11.1758c.0299-.0469.0593-.0677.1197-.0361a.23127.23127,0,0,1,.1103.1384.16691.16691,0,0,1-.0235.1398,60.667,60.667,0,0,1-9.6162,11.5538l-.106.087.0141.1359a73.3565,73.3565,0,0,0,2.1142,11.5297l.0174.064.0452.0457a.15007.15007,0,0,1,.0367.1497l-.0157.0643.0177.0641a73.38166,73.38166,0,0,0,3.5239,9.9138q.124.2838.2496.5669.079-.2967.16-.5922a58.20341,58.20341,0,0,1,6.6007-15.2747.14143.14143,0,0,1,.175-.0657.18465.18465,0,0,1,.1188.0951.1076.1076,0,0,1-.0178.1024,58.29313,58.29313,0,0,0-6.8142,16.0985l-.0219.0845.0364.0806a80.97632,80.97632,0,0,0,11.87,18.648c.0497.059.0357.094.0291.1105a.20247.20247,0,0,1-.1672.1141Z" class="f"/><path d="M189.97714,123.95821a54.21335,54.21335,0,0,0-1.4532-16.2037c-1.9758-7.9065-6.9593-15.5087-13.5067-12.6863-9.0357,4.2717-13.4548-12.6244-18.8419-7.9662-4.8863,4.8367-1.735,6.5093-10.402,2.9849-8.9119-3.1838-12.2058,3.3701-21.0355,5.9565-8.9657,3.1326-4.3886,14.3028,6.7969,13.4816,11.4437-.2283-.7956,2.6481,3.6805,6.8896,3.6814,3.594,23.3705-5.1686,20.9454-.3003-2.6982,4.4264-.6221,8.9347,4.4671,9.0893C172.41164,125.17251,189.78614,123.68921,189.97714,123.95821Z" class="e"/><path d="M194.08024,128.47051a.16921.16921,0,0,0-.0377-.1486c-5.8044-7.4338-15.1411-16.331-26.7534-21.8233l-.0904-.0433-.0349-.0948a46.47216,46.47216,0,0,0-5.5787-10.2222c-.7267-1.0611-1.4747-2.1147-2.2272-3.1707a.11139.11139,0,0,0-.1455-.054.18451.18451,0,0,0-.1075.2932c.7355,1.0313,1.4675,2.0608,2.179,3.097a48.36838,48.36838,0,0,1,5.2669,9.3948q.109.275.2162.5497-.266-.1239-.5326-.2461a69.32484,69.32484,0,0,0-16.0451-5.0692q-.0777-.01485-.1553-.0293l-.0371-.1534a.13419.13419,0,0,0-.0376-.0688,40.73773,40.73773,0,0,0-10.1667-7.3252.14206.14206,0,0,0-.1712.0103.20092.20092,0,0,0-.0697.2121.15526.15526,0,0,0,.0812.079,40.48429,40.48429,0,0,1,9.4221,6.6225q.2868.27105.5709.5436-.3882-.06885-.7772-.1351a77.64914,77.64914,0,0,0-17.871-.9117c-.0764.0047-.096.0368-.1032.0487a.20281.20281,0,0,0,.0012.1807.16477.16477,0,0,0,.1729.1013,75.74118,75.74118,0,0,1,23.8222,2.2181q.2265.05895.4528.1189-.17835.1482-.3557.2973a62.22481,62.22481,0,0,1-12.6109,8.2257.08819.08819,0,0,0-.056.1235.23654.23654,0,0,0,.118.1406.15538.15538,0,0,0,.142-.0036,62.24473,62.24473,0,0,0,13.0482-8.5714l.104-.1009.1318.0363a67.83739,67.83739,0,0,1,11.0293,4.0762l.0604.0287.0375.0557a.14115.14115,0,0,0,.1415.063l.0662-.007.0603.0291a69.4002,69.4002,0,0,1,9.1935,5.3447q.25935.178.5176.3575-.30645.039-.6121.0803a55.78729,55.78729,0,0,0-16.2108,4.7397.161.161,0,0,0-.0947.1786.19837.19837,0,0,0,.0738.143.1.1,0,0,0,.1041-.0034,55.79575,55.79575,0,0,1,17.0608-4.8416l.0872-.0105.0734.0519a80.37323,80.37323,0,0,1,16.4018,15.7063c.0499.0628.0868.0532.1042.0486a.22158.22158,0,0,0,.1412-.1625Z" class="f"/><path d="M184.84124,107.69371c-.0921-.0063,5.4979-7.5023,7.7932-16.6651,2.4889-8.9578,1.6832-19.5825-6.728-21.1159-11.8242-1.7507-6.7098-21.022-14.9712-20.0178-7.8444,1.5041-5.5358,5.182-12.5027-3.8902-7.4164-8.9015-14.5947-4.6932-25.2378-7.9443-11.0976-2.8099-12.7616,11.0105-.6882,17.5104,12.001,7.2436-2.3451,2.0496-.137,9.0836,1.7557,5.8875,27.2077,10.2315,21.898,13.3719-5.3394,2.5332-5.7737,8.2605-.5837,11.7301C165.92444,97.413,184.79744,107.30821,184.84124,107.69371Z" class="f"/><path d="M186.507,114.747a.18372.18372,0,0,0,.0461-.1689,97.18167,97.18167,0,0,0-15.2235-38.6195l-.0688-.1009.0182-.1149a53.0948,53.0948,0,0,0,.0809-13.5542c-.1449-1.5032-.3159-3.0133-.4903-4.5283a.14493.14493,0,0,0-.1201-.1472.225.225,0,0,0-.2737.1233.22912.22912,0,0,0-.0059.091c.171,1.48.3393,2.956.4825,4.4253a55.4211,55.4211,0,0,1,.0707,12.5484q-.04485.33735-.0914.6741-.2046-.29355-.4112-.5861a92.36764,92.36764,0,0,0-13.733-15.3835q-.072-.065-.1443-.1296l.0496-.173a.15577.15577,0,0,0,.0006-.0913,51.90572,51.90572,0,0,0-6.3409-13.7371.18553.18553,0,0,0-.1835-.1018.21187.21187,0,0,0-.1941.1604.19145.19145,0,0,0,.039.1295,51.706,51.706,0,0,1,5.9717,12.5698q.14205.45015.2803.8997-.3633-.31995-.7287-.6379a103.76568,103.76568,0,0,0-18.0132-12.5421c-.082-.0451-.1207-.027-.135-.0199a.22358.22358,0,0,0,.0187.3871,101.33961,101.33961,0,0,1,23.4363,17.6911q.20115.2049.4013.4106-.27.0276-.5394.0564a74.52737,74.52737,0,0,1-17.8021-.2477c-.0677-.0093-.1105.0018-.1289.0833a.2848.2848,0,0,0,.0416.2133.20467.20467,0,0,0,.1494.0892,74.48927,74.48927,0,0,0,18.4539.1975l.1657-.03.1159.1212a90.05422,90.05422,0,0,1,9.1005,11.1484l.0461.0673.007.0785a.18374.18374,0,0,0,.1106.1533l.0728.0366.0457.0675a90.05377,90.05377,0,0,1,6.4681,11.1812q.1671.34185.3318.6844-.3405-.16185-.6811-.3214a71.45531,71.45531,0,0,0-19.535-5.9773.174.174,0,0,0-.2007.1115.22623.22623,0,0,0-.0055.1868.13161.13161,0,0,0,.1099.0647,71.56436,71.56436,0,0,1,20.4752,6.4328l.0964.0467.0464.0983a99.41473,99.41473,0,0,1,7.9976,25.9336c.0155.0936.0594.1084.0801.1152a.24879.24879,0,0,0,.2397-.0654Z" class="g"/><path d="M194.33854,79.39541h94.8443a16.6576,16.6576,0,0,1,16.6576,16.6576v198.0605a16.6576,16.6576,0,0,1-16.6576,16.6576h-94.8442a16.65771,16.65771,0,0,1-16.65771-16.65771V96.053A16.6576,16.6576,0,0,1,194.33854,79.39541Z" class="h"/><path d="M289.18274,79.39541h-94.8442a16.65759,16.65759,0,0,0-16.6576,16.6576v198.0604a16.61379,16.61379,0,0,0,6.4284,13.1281L304.471,89.44391A16.65665,16.65665,0,0,0,289.18274,79.39541Z" class="i"/><path d="M260.27824,87.51071h-35.1855a1.76447,1.76447,0,0,0-1.7593,1.7592h0a1.76456,1.76456,0,0,0,1.7593,1.7593h35.1855a1.76449,1.76449,0,0,0,1.7593-1.7593h0A1.76441,1.76441,0,0,0,260.27824,87.51071Z" class="j"/><path d="M289.18254,85.63671h-13.9169l-5.0071,9.4898a10.81365,10.81365,0,0,1-9.5639,5.7673h-37.868a10.81377,10.81377,0,0,1-9.5639-5.7673l-5.0071-9.4898h-13.9173a10.42795,10.42795,0,0,0-10.416,10.4164v198.0605a10.42793,10.42793,0,0,0,10.416,10.416h94.8442a10.42793,10.42793,0,0,0,10.4163-10.416V96.05311A10.42795,10.42795,0,0,0,289.18254,85.63671Z" class="c"/><path d="M299.59824,96.05531v2.198L187.18064,301.677a10.41287,10.41287,0,0,1-3.2586-7.5678V96.05531a10.432,10.432,0,0,1,10.4118-10.4214h13.9208l5.0034,9.496a10.82364,10.82364,0,0,0,9.5731,5.7649h37.8677a10.8199,10.8199,0,0,0,9.5634-5.7649l5.0033-9.496h13.9209A10.432,10.432,0,0,1,299.59824,96.05531Z" class="k"/><path d="M201.98234,115.45931h144.0668a7.2916,7.2916,0,0,1,7.2916,7.2916v35.6542a7.2916,7.2916,0,0,1-7.2916,7.2916H201.98244a7.2917,7.2917,0,0,1-7.2917-7.2917v-35.6541A7.2916,7.2916,0,0,1,201.98234,115.45931Z" class="j"/><path d="M264.77614,132.21751l.9773,3.0078a.50933.50933,0,0,0,.4845.352h3.1625a.50951.50951,0,0,1,.2995.9217l-2.5586,1.8588a.50971.50971,0,0,0-.185.5697l.9772,3.0077a.50944.50944,0,0,1-.784.5696l-2.5585-1.8588a.50939.50939,0,0,0-.599,0l-2.5584,1.8588a.50949.50949,0,0,1-.7841-.5696l.9772-3.0077a.50956.50956,0,0,0-.185-.5697l-2.5586-1.8588a.50951.50951,0,0,1,.2995-.9217h3.1625a.50955.50955,0,0,0,.4846-.352l.9772-3.0078A.50955.50955,0,0,1,264.77614,132.21751Z" class="l"/><path d="M282.32234,132.21751l.9772,3.0078a.50955.50955,0,0,0,.4846.352h3.1624a.5095.5095,0,0,1,.2995.9217l-2.5584,1.8588a.50951.50951,0,0,0-.1852.5697l.9773,3.0077a.50945.50945,0,0,1-.784.5696l-2.5586-1.8588a.50923.50923,0,0,0-.5989,0l-2.5585,1.8588a.50952.50952,0,0,1-.7841-.5696l.9773-3.0077a.50961.50961,0,0,0-.1851-.5697l-2.5585-1.8588a.5095.5095,0,0,1,.2995-.9217h3.1624a.50958.50958,0,0,0,.4847-.352l.9772-3.0078A.50955.50955,0,0,1,282.32234,132.21751Z" class="l"/><path d="M299.86844,132.21751l.9772,3.0078a.50964.50964,0,0,0,.4846.352h3.1626a.50948.50948,0,0,1,.2994.9217l-2.5585,1.8588a.50961.50961,0,0,0-.1851.5697l.9773,3.0077a.50952.50952,0,0,1-.7841.5696l-2.5585-1.8588a.50939.50939,0,0,0-.599,0l-2.5585,1.8588a.50945.50945,0,0,1-.784-.5696l.9773-3.0077a.50961.50961,0,0,0-.1851-.5697l-2.5585-1.8588a.50948.50948,0,0,1,.2995-.9217h3.1625a.50952.50952,0,0,0,.4845-.352l.9773-3.0078A.50948.50948,0,0,1,299.86844,132.21751Z" class="l"/><path d="M317.41454,132.21751l.9774,3.0078a.50924.50924,0,0,0,.4845.352h3.1625a.50948.50948,0,0,1,.2994.9217l-2.5585,1.8588a.50971.50971,0,0,0-.185.5697l.9772,3.0077a.50945.50945,0,0,1-.784.5696l-2.5585-1.8588a.50939.50939,0,0,0-.599,0l-2.5584,1.8588a.50949.50949,0,0,1-.7841-.5696l.9772-3.0077a.50946.50946,0,0,0-.1851-.5697l-2.5585-1.8588a.50951.50951,0,0,1,.2995-.9217h3.1625a.50955.50955,0,0,0,.4846-.352l.9772-3.0078A.50948.50948,0,0,1,317.41454,132.21751Z" class="l"/><path d="M334.96074,132.21751l.9773,3.0078a.50945.50945,0,0,0,.4846.352h3.1624a.5095.5095,0,0,1,.2995.9217l-2.5584,1.8588a.50951.50951,0,0,0-.1852.5697l.9773,3.0077a.50945.50945,0,0,1-.784.5696l-2.5586-1.8588a.50923.50923,0,0,0-.5989,0l-2.5585,1.8588a.50951.50951,0,0,1-.7841-.5696l.9773-3.0077a.50976.50976,0,0,0-.1851-.5697l-2.5585-1.8588a.5095.5095,0,0,1,.2995-.9217h3.1624a.50936.50936,0,0,0,.4846-.352l.9773-3.0078A.50948.50948,0,0,1,334.96074,132.21751Z" class="l"/><rect width="51.024" height="1.417" x="258.672" y="147.542" class="m"/><rect width="51.024" height="2.671" x="258.672" y="124.214" class="f"/><rect width="51.024" height="1.417" x="258.672" y="152.936" class="m"/><rect width="23.323" height="1.417" x="258.672" y="157.945" class="m"/><circle cx="227.144" cy="141.334" r="20.371" class="e" transform="translate(-26.22068 55.45028) rotate(-13.16552)"/><path d="M367.77753,173.789a1.99724,1.99724,0,0,1-1.7267-1.0657l-10.438-20.7771s-1.2489-4.9956-2.7182-4.9956l-.147,6.6119,7.06,25.5445c.409,1.5956,1.2417,2.9602,3.3723,3.0099a94.2651,94.2651,0,0,1,17.4425,2.8482,19.13,19.13,0,0,0,9.73959-.0328C390.69273,173.25131,372.22573,173.88731,367.77753,173.789Z" class="n"/><path d="M383.39683,171.177v5.9068h-8.9679v-3.3271s-5.8967-1.3923-5.6101-6.7156,2.78461-7.9033,4.1359-8.3128,7.8622,2.2112,7.9852,2.5388c.1228.3277.8189,5.9787.8189,5.9787Z" class="n"/><path d="M373.97853,163.10991s1.5895-2.2424,3.0704-1.1316c1.4811,1.1107.7406,3.3321-1.1107,4.4429,0,0,1.8513,6.2943,5.5538,5.9241a9.69178,9.69178,0,0,0,8.0472-10.382c-.4095-6.1014-8.37679-10.3966-12.7352-9.5412C372.42244,153.28211,368.12273,158.155,373.97853,163.10991Z" class="o"/><path d="M389.49823,158.11411s4.8321-6.1424,9.664-.8189c4.8321,5.3233,7.8623,11.3019,10.0736,12.4485s-1.8837,3.9311-7.2071,2.2113S389.82583,163.68321,389.49823,158.11411Z" class="o"/><path d="M374.42893,177.08381v-3.3271s3.6656.1441,5.2249-1.2755c0,0-1.0938,2.5366-3.4909,2.6064v1.9962Z" class="p"/><path d="M370.49,224.336s2.1126,33.0343,4.8015,39.9485,19.6966,38.3669,19.6966,38.3669l8.8108-1.9395L391.23244,263.132c-.096,2.3048-1.76481-8.5298,1.34449-19.494a27.35009,27.35009,0,0,0-1.6063-19.0648l-22.0171-.2372" class="q"/><path d="M390.80033,222.94361s-.8248,9.1779-11.3795,19.59c-10.6593,10.5153-14.83669,17.5735-14.83669,17.5735l-1.5844,45.5181H354.213s-5.1857-47.9669-5.0416-49.6954,14.6926-32.9862,16.4211-35.7231S390.80033,222.94361,390.80033,222.94361Z" class="f"/><path d="M384.31833,176.60911s9.4239.7041,5.9538,12.3879c-3.7931,12.772.5545,33.242,1.4188,35.3547l-2.8249,1.1256a35.17168,35.17168,0,0,1-26.15439-.5652h-.0001s7.49049-16.5171,2.1608-25.1597c-3.4279-5.5588-2.4169-11.1684,1.58439-16.1331,2.5928-3.2169,5.8622-6.5684,7.1542-6.6283Z" class="r"/><path d="M354.21524,305.62771h1.8572l-3.7612-49.3486c.6213-1.0287,2.7724-4.9702,9.2926-17.5228a67.898,67.898,0,0,0,4.997-12.459,33.47509,33.47509,0,0,1-3.50059-1.2226c-4.6563,9.5665-13.8152,29.4876-13.9287,30.8571C349.02454,257.65531,354.21524,305.62771,354.21524,305.62771Z" class="g"/><path d="M372.46233,196.64471c-4.4007,1.6299-1.13089,13.3239-5.8641,29.6493a35.13092,35.13092,0,0,1-3.88659-1.3819h-.0001s7.49049-16.5171,2.1608-25.1597a12.67475,12.67475,0,0,1-2.0027-8.1716l18.68059-4.2457S378.447,194.42811,372.46233,196.64471Z" class="s"/><path d="M332.195,167.38621s17.0997,28.4191,22.0916,30.0343c2.2188.7179,16.0468-4.6828,21.88219-5.6422a6.08974,6.08974,0,0,0,5.0778-6.5653h0c-.3346-3.6475-4.5183-6.7492-8.0959-5.9647l-19.19659,5.9811s-16.2547-16.8088-19.8751-20.6508c0,0-1.4996-4.7287-3.7312-4.7287C328.35294,159.84991,331.38214,165.76071,332.195,167.38621Z" class="n"/><path d="M345.83274,308.53571c2.4244-.7886,6.9596-1.7492,8.6016-2.9046h8.5334c-.0847,1.7099-.1298,3.3717-.153,4.4768a1.36092,1.36092,0,0,1-1.3634,1.3324h-16.9887a1.09824,1.09824,0,0,1-.5701-2.0369A8.9973,8.9973,0,0,1,345.83274,308.53571Z" class="o"/><path d="M387.44444,307.43181c2.18329-1.3163,6.38409-3.2771,7.72249-4.7737l8.3124-1.9288c.304,1.6847.6357,3.3137.863,4.3955a1.36087,1.36087,0,0,1-1.0271,1.6059l-16.549,3.8401a1.09823,1.09823,0,0,1-1.0157-1.8553A8.98937,8.98937,0,0,1,387.44444,307.43181Z" class="o"/><path d="M354.28974,187.71141c4.0197.098,22.00119-6.6468,26.77829-3.4242-.8815-3.2247-4.6478-5.7558-7.9173-5.0389l-19.19659,5.9811s-16.2547-16.8088-19.8751-20.6509C334.079,164.57851,349.91824,187.60481,354.28974,187.71141Z" class="t"/><path d="M389.36944,157.74991l-1.25481.226a9.03383,9.03383,0,0,1,1.2835,5.0961l1.6232-.302S390.85053,158.27891,389.36944,157.74991Z" class="j"/><path d="M132.637,177.33991h144.0668a7.2916,7.2916,0,0,1,7.2916,7.2916v35.6542a7.2916,7.2916,0,0,1-7.2916,7.2916H132.63705a7.29161,7.29161,0,0,1-7.29161-7.29161V184.63151a7.2916,7.2916,0,0,1,7.2916-7.2916Z" class="j"/><path d="M195.43084,194.09811l.9773,3.0077a.50938.50938,0,0,0,.4845.3521h3.1625a.5095.5095,0,0,1,.2995.9217l-2.5586,1.8588a.50971.50971,0,0,0-.185.5697l.9772,3.0077a.50945.50945,0,0,1-.784.5696l-2.5585-1.8588a.50923.50923,0,0,0-.5989,0l-2.5585,1.8588a.50951.50951,0,0,1-.7841-.5696l.9773-3.0077a.50976.50976,0,0,0-.1851-.5697l-2.5586-1.8588a.50951.50951,0,0,1,.2995-.9217h3.1625a.50942.50942,0,0,0,.4846-.3521l.9772-3.0077A.50955.50955,0,0,1,195.43084,194.09811Z" class="l"/><path d="M212.977,194.09811l.9772,3.0077a.50951.50951,0,0,0,.4846.3521h3.1624a.50954.50954,0,0,1,.2996.9217l-2.5585,1.8588a.50966.50966,0,0,0-.1852.5697l.9773,3.0077a.50947.50947,0,0,1-.784.5696l-2.5585-1.8588a.50939.50939,0,0,0-.599,0l-2.5585,1.8588a.50953.50953,0,0,1-.7841-.5696l.9773-3.0077a.50946.50946,0,0,0-.1851-.5697l-2.5584-1.8588a.50946.50946,0,0,1,.2994-.9217h3.1624a.50954.50954,0,0,0,.4847-.3521l.9773-3.0077A.50948.50948,0,0,1,212.977,194.09811Z" class="l"/><path d="M230.52314,194.09811l.9772,3.0077a.5096.5096,0,0,0,.4846.3521h3.1626a.50949.50949,0,0,1,.2994.9217l-2.5585,1.8588a.50941.50941,0,0,0-.185.5697l.9772,3.0077a.50952.50952,0,0,1-.7841.5696l-2.5584-1.8588a.50954.50954,0,0,0-.5991,0l-2.5585,1.8588a.50948.50948,0,0,1-.784-.5696l.9773-3.0077a.50961.50961,0,0,0-.1851-.5697l-2.5585-1.8588a.50951.50951,0,0,1,.2995-.9217h3.1625a.50938.50938,0,0,0,.4845-.3521l.9773-3.0077A.50948.50948,0,0,1,230.52314,194.09811Z" class="l"/><path d="M248.06934,194.09811l.9773,3.0077a.50938.50938,0,0,0,.4845.3521h3.1625a.5095.5095,0,0,1,.2995.9217l-2.5586,1.8588a.50971.50971,0,0,0-.185.5697l.9772,3.0077a.50947.50947,0,0,1-.784.5696l-2.5585-1.8588a.50923.50923,0,0,0-.5989,0l-2.5585,1.8588a.50951.50951,0,0,1-.7841-.5696l.9773-3.0077a.50966.50966,0,0,0-.1852-.5697l-2.5585-1.8588a.50951.50951,0,0,1,.2995-.9217h3.1625a.50951.50951,0,0,0,.4846-.3521l.9772-3.0077A.50955.50955,0,0,1,248.06934,194.09811Z" class="l"/><path d="M265.61554,194.09811l.9772,3.0077a.50942.50942,0,0,0,.4846.3521h3.1624a.5095.5095,0,0,1,.2995.9217l-2.5584,1.8588a.50966.50966,0,0,0-.1852.5697l.9773,3.0077a.50947.50947,0,0,1-.784.5696l-2.5586-1.8588a.50923.50923,0,0,0-.5989,0l-2.5585,1.8588a.50952.50952,0,0,1-.7841-.5696l.9773-3.0077a.50976.50976,0,0,0-.1851-.5697l-2.5584-1.8588a.50946.50946,0,0,1,.2994-.9217h3.1624a.50932.50932,0,0,0,.4846-.3521l.9773-3.0077A.50955.50955,0,0,1,265.61554,194.09811Z" class="m"/><rect width="51.024" height="1.417" x="189.327" y="209.422" class="m"/><rect width="51.024" height="2.671" x="189.327" y="186.094" class="h"/><rect width="51.024" height="1.417" x="189.327" y="214.817" class="m"/><rect width="23.323" height="1.417" x="189.327" y="219.825" class="m"/><circle cx="157.799" cy="203.214" r="20.371" class="e" transform="translate(-97.47611 171.10083) rotate(-45)"/><path d="M114.29824,281.03061s34.5457-28.948,40.6232-18.7122-2.8788,43.3421-2.8788,43.3421Z" class="u"/><path d="M132.427,292.86041l19.6156,12.8001s8.1865-30.2828,3.577-41.8717C157.72734,279.03031,141.56244,288.68211,132.427,292.86041Z" class="q"/><path d="M131.99754,277.93861s21.3943,17.1682,23.1372,23.3503c2.8255,10.0226-13.9278,8.903-21.1647,8.903-7.2367,0-53.3553-1.2764-53.3553-1.2764l.4173-7.0935,42.5424-2.0258s-23.5641-3.4927-22.6907-17.0929S131.99754,277.93861,131.99754,277.93861Z" class="f"/><path d="M153.97534,306.95941c-3.9044,3.8562-14.5956,3.2296-20.0039,3.2296-7.2401,0-53.3601-1.2726-53.3601-1.2726l.4242-7.0953,42.5434-2.0245s16.948,8.1558,30.059,7.2014C153.75374,306.98831,153.86934,306.97871,153.97534,306.95941Z" class="u"/><path d="M80.832,308.79251s-1.8792,4.2383-.4398,7.0371-4.798.7597-5.7976-4.7581-.5197-12.115,6.4374-9.1562Z" class="o"/><path d="M104.80884,235.39621s15.5306-44.879,15.9934-44.6749a36.78263,36.78263,0,0,0,5.0112,1.546l-6.3973,49.2597Z" class="h"/><path d="M120.85554,230.27831c-3.5328-1.6709-7.9434-3.6252-13.1146-3.3053-2.1318,6.1117-2.9321,8.4232-2.9321,8.4232l14.6073,6.1308Z" class="i"/><path d="M124.25294,223.52731c-1.1462,4.237-5.6932,3.4478-5.6932,3.4478v4.0303h-7.8445v-5.4489c.0094,0,.0282.0094.0376.0094,4.0773.9395,8.5021-2.0199,6.5481-3.476-1.9447-1.4468-2.3675-3.8518-1.3529-5.0261,1.024-1.1743,3.476-.3007,3.476-.3007a12.40627,12.40627,0,0,0,5.0073-.883A19.35473,19.35473,0,0,1,124.25294,223.52731Z" class="n"/><path d="M119.41944,216.76411s-2.4479-.8783-3.4669.2975c-1.0189,1.1756-.6005,3.5822,1.3507,5.0323,1.9494,1.4489-2.4778,4.4111-6.5535,3.4705s-6.3509-9.4476-2.8541-14.9841c3.2109-5.0839,14.4949-7.2921,16.7679-1.9622S127.07174,216.55611,119.41944,216.76411Z" class="o"/><path d="M118.55974,231.00541v-4.0303a15.99631,15.99631,0,0,1-3.6764-.8994,9.08266,9.08266,0,0,0,2.2988,2.0456v2.8841Z" class="v"/><path d="M120.65594,231.083s-12.9643-4.4897-16.6138,5.6169c-3.6497,10.1066,2.5526,34.3349-4.058,42.6515h0a41.70908,41.70908,0,0,0,32.4863,1.1804l1.4197-.5407s-4.5309-30.9013-4.748-29.8277c-.1833.9063,15.3042,5.8427,18.3924,4.1583s21.7809-22.7906,21.7809-22.7906l-6.2907-.9329-16.8463,11.0887S124.91724,231.36171,120.65594,231.083Z" class="h"/><path d="M169.31544,231.53111s6.4773-2.7988,6.8771-4.0783H166.86a3.03377,3.03377,0,0,0-2.4517,1.2469l-1.3836,1.8985Z" class="n"/><path d="M133.89014,279.99111s-3.9806-27.1483-4.6585-29.6677a1.8745,1.8745,0,0,0,.384.2695c-.2992-.2711-.4735-.4295-.4735-.4295s-9.886-2.399-13.4045-6.5572c0,0,3.3587,6.8771,7.6768,8.4764,3.8561,1.4281,2.4871,22.2295,5.4519,29.629,1.2131-.3397,2.4169-.7274,3.6041-1.1797Z" class="i"/><path d="M121.282,190.93461s1.6488-5.8889,4.1031-6.3031l.0019,7.6891Z" class="n"/><path d="M201.98244,238.85091h144.0667a7.2916,7.2916,0,0,1,7.2916,7.2916v35.6542a7.2916,7.2916,0,0,1-7.2916,7.2916H201.98244a7.2917,7.2917,0,0,1-7.2917-7.2917v-35.654a7.2917,7.2917,0,0,1,7.2917-7.2917Z" class="j"/><path d="M264.77614,255.60911l.9773,3.0077a.50929.50929,0,0,0,.4845.3521h3.1625a.50951.50951,0,0,1,.2995.9217l-2.5586,1.8588a.50971.50971,0,0,0-.185.5697l.9772,3.0077a.50944.50944,0,0,1-.784.5696l-2.5585-1.8588a.50939.50939,0,0,0-.599,0l-2.5584,1.8588a.50949.50949,0,0,1-.7841-.5696l.9772-3.0077a.50956.50956,0,0,0-.185-.5697l-2.5586-1.8588a.50951.50951,0,0,1,.2995-.9217h3.1625a.50951.50951,0,0,0,.4846-.3521l.9772-3.0077A.50955.50955,0,0,1,264.77614,255.60911Z" class="l"/><path d="M282.32234,255.60911l.9772,3.0077a.50951.50951,0,0,0,.4846.3521h3.1624a.5095.5095,0,0,1,.2995.9217l-2.5584,1.8588a.50951.50951,0,0,0-.1852.5697l.9773,3.0077a.50945.50945,0,0,1-.784.5696l-2.5586-1.8588a.50923.50923,0,0,0-.5989,0l-2.5585,1.8588a.50952.50952,0,0,1-.7841-.5696l.9773-3.0077a.50961.50961,0,0,0-.1851-.5697l-2.5585-1.8588a.5095.5095,0,0,1,.2995-.9217h3.1624a.50954.50954,0,0,0,.4847-.3521l.9772-3.0077A.50955.50955,0,0,1,282.32234,255.60911Z" class="l"/><path d="M299.86844,255.60911l.9772,3.0077a.5096.5096,0,0,0,.4846.3521h3.1626a.50948.50948,0,0,1,.2994.9217l-2.5585,1.8588a.50961.50961,0,0,0-.1851.5697l.9773,3.0077a.50952.50952,0,0,1-.7841.5696l-2.5585-1.8588a.50939.50939,0,0,0-.599,0l-2.5585,1.8588a.50945.50945,0,0,1-.784-.5696l.9773-3.0077a.50961.50961,0,0,0-.1851-.5697l-2.5585-1.8588a.50948.50948,0,0,1,.2995-.9217h3.1625a.50948.50948,0,0,0,.4845-.3521l.9773-3.0077A.50948.50948,0,0,1,299.86844,255.60911Z" class="m"/><path d="M299.302,255.28181a.4816.4816,0,0,0-.4028.3273l-.9772,3.0077a.50961.50961,0,0,1-.4845.3521H294.275a.50948.50948,0,0,0-.2995.9217l2.5584,1.8588a.50951.50951,0,0,1,.1852.5697l-.9774,3.0077a.50953.50953,0,0,0,.7841.5696l2.5585-1.8589a.49492.49492,0,0,1,.2177-.0707Z" class="l"/><path d="M317.41454,255.60911l.9774,3.0077a.5092.5092,0,0,0,.4845.3521h3.1625a.50948.50948,0,0,1,.2994.9217l-2.5585,1.8588a.50971.50971,0,0,0-.185.5697l.9772,3.0077a.50945.50945,0,0,1-.784.5696l-2.5585-1.8588a.50939.50939,0,0,0-.599,0l-2.5584,1.8588a.50949.50949,0,0,1-.7841-.5696l.9772-3.0077a.50946.50946,0,0,0-.1851-.5697l-2.5585-1.8588a.50951.50951,0,0,1,.2995-.9217h3.1625a.50951.50951,0,0,0,.4846-.3521l.9772-3.0077A.50948.50948,0,0,1,317.41454,255.60911Z" class="m"/><path d="M334.96074,255.60911l.9773,3.0077a.50942.50942,0,0,0,.4846.3521h3.1624a.5095.5095,0,0,1,.2995.9217l-2.5584,1.8588a.50951.50951,0,0,0-.1852.5697l.9773,3.0077a.50945.50945,0,0,1-.784.5696l-2.5586-1.8588a.50923.50923,0,0,0-.5989,0l-2.5585,1.8588a.50951.50951,0,0,1-.7841-.5696l.9773-3.0077a.50976.50976,0,0,0-.1851-.5697l-2.5585-1.8588a.5095.5095,0,0,1,.2995-.9217h3.1624a.50932.50932,0,0,0,.4846-.3521l.9773-3.0077A.50948.50948,0,0,1,334.96074,255.60911Z" class="m"/><rect width="51.024" height="1.417" x="258.672" y="270.933" class="m"/><rect width="51.024" height="2.671" x="258.672" y="247.605" class="q"/><rect width="51.024" height="1.417" x="258.672" y="276.328" class="m"/><rect width="23.323" height="1.417" x="258.672" y="281.336" class="m"/><circle cx="227.144" cy="264.163" r="20.371" class="e" transform="translate(-116.75743 319.91505) rotate(-58.51742)"/><circle cx="319.294" cy="32.28" r="29.854" class="l"/><path d="M319.29384,2.42591c-.1813,0-.3599.0104-.5402.0136a27.94516,27.94516,0,0,1-20.1073,51.3921,29.85085,29.85085,0,1,0,20.6475-51.4057Z" class="w"/><path d="M109.22824,126.72721c6.2504,0,6.5815-9.3055.3437-9.7032q-.08865-.0057-.1776-.0103c.0004-.0388.0029-.0772.0029-.1162a12.04478,12.04478,0,0,0-17.8276-10.564,12.506,12.506,0,0,0-23.5267,5.9104c0,.3706.0193.7367.0509,1.0992a14.56,14.56,0,0,0-16.1207,5.8779,4.84842,4.84842,0,0,0,4.072,7.5062Z" class="e"/><path d="M301.26764,50.71481c8.1899,0,8.6239-12.193.4505-12.7143-.0774-.005-.1551-.0093-.2329-.0135.0006-.0507.004-.101.004-.1521a15.78278,15.78278,0,0,0-23.3599-13.8422,16.38645,16.38645,0,0,0-30.8268,7.7444c0,.4857.0253.9653.0667,1.4404a19.07847,19.07847,0,0,0-21.1231,7.7019,6.35289,6.35289,0,0,0,5.3355,9.8354Z" class="e"/><path d="M399.82713,79.41641c-7.5259,0-7.9245-11.2044-.4139-11.6833.07121-.0047.1426-.0087.2139-.0124-.0004-.0467-.0035-.093-.0035-.1399a14.50295,14.50295,0,0,1,21.4657-12.7198,15.05792,15.05792,0,0,1,28.3275,7.1164c0,.4463-.0232.8871-.0613,1.3237a17.53165,17.53165,0,0,1,19.4103,7.0775,5.8376,5.8376,0,0,1-4.9027,9.0378Z" class="e"/><path d="M426.33953,289.12741l1.4814-.4944c.2138-2.5598-.8854-6.8691-6.6926-13.5187-10.7466-12.3056-19.9626-29.8408-17.6351-36.6792,0,0-10.5121,15.8254-3.4194,26.2698C406.73073,274.50761,424.42293,276.61191,426.33953,289.12741Z" class="f"/><path d="M426.94253,288.92621l.8792-.2936c.2144-2.5588-.8856-6.8681-6.6934-13.5183-10.7466-12.3056-19.9626-29.8408-17.6351-36.6792,0,0-5.567,14.5415,1.6536,24.2782C412.27523,272.32541,424.991,274.32461,426.94253,288.92621Z" class="q"/><path d="M430.64344,278.61a30.70592,30.70592,0,0,1-2.00371,6.1321l.6836.1188c3.1506-4.2462,8.3197-12.6514,9.4656-23.315,1.6746-15.5837,3.9377-35.0913,3.9377-35.0913s-15.8645,13.0889-12.3126,31.2781C432.18513,266.80211,431.72333,273.70921,430.64344,278.61Z" class="f"/><path d="M436.22444,250.29351c-.86721,13.0046-3.32011,27.3083-6.49951,32.9892.4624-.3554.9554-.7283,1.4592-1.1059a48.00763,48.00763,0,0,0,7.6048-20.6309c1.6746-15.5837,3.9377-35.0913,3.9377-35.0913S437.35293,233.36831,436.22444,250.29351Z" class="q"/><path d="M433.48673,284.65781a23.62812,23.62812,0,0,1-3.6191,3.3899l.4169.332a37.77965,37.77965,0,0,0,15.0046-12.2082c6.8939-9.8743,15.6362-22.1735,15.6362-22.1735s-15.5334,2.9656-19.8693,16.52A39.31551,39.31551,0,0,1,433.48673,284.65781Z" class="f"/><path d="M447.72393,267.65091c-5.3957,8.4357-12.3407,17.1614-16.5849,19.8142.4431-.0688.9133-.1382,1.3925-.2067a36.95752,36.95752,0,0,0,12.7576-11.0869c6.8939-9.8743,15.6362-22.1735,15.6362-22.1735S454.74623,256.67221,447.72393,267.65091Z" class="q"/><path d="M427.53813,284.17741c.9741,2.7752,1.68731,4.6813,2.1064,6.0013l.5612-.1282c-.91229-4.8735-2.4917-13.2906-3.9801-18.8162-2.1916-8.1364-.4846-12.086-2.2479-26.2482s-10.16029-32.8602-10.16029-32.8602-5.42331,19.7353,2.32909,38.556C423.89913,269.50281,423.24473,271.947,427.53813,284.17741Z" class="f"/><path d="M429.67993,290.17051l.1061-.0242.0638-1.9912c-.9345-4.9576-2.3146-12.059-3.6242-16.9208-2.1916-8.1364-.4846-12.086-2.2479-26.2482s-10.16029-32.8602-10.16029-32.8602,2.63739,28.1248,6.48539,40.4184C423.86344,263.919,428.94073,286.81131,429.67993,290.17051Z" class="q"/><path d="M413.633,287.32491l3.3992,20.1154a3.89691,3.89691,0,0,0,3.8424,3.2475h19.65081a3.897,3.897,0,0,0,3.84239-3.2475l3.3991-20.1154a2.98035,2.98035,0,0,0-2.9388-3.477h-28.2563A2.98046,2.98046,0,0,0,413.633,287.32491Z" class="j"/><path d="M447.74633,286.30821l-.001-.0059a2.90825,2.90825,0,0,0-.1541-.5489l-.0152-.0374a2.95425,2.95425,0,0,0-.2378-.4675c-.0177-.0286-.0377-.0551-.0563-.083a2.99133,2.99133,0,0,0-.2871-.3663c-.0406-.0439-.0858-.0821-.129-.1236a2.94451,2.94451,0,0,0-.3006-.259c-.0721-.0529-.1515-.0948-.2285-.1409a2.96147,2.96147,0,0,0-.2825-.1593,2.90672,2.90672,0,0,0-.3537-.1228c-.0773-.0239-.1498-.0563-.2299-.0738a2.96878,2.96878,0,0,0-.6425-.0721h-28.2563a2.9688,2.9688,0,0,0-2.9619,3.0619h25.2337a2.9287,2.9287,0,0,1-.0234.4153l-3.3991,20.1154a3.89691,3.89691,0,0,1-3.8424,3.2475h8.94671a3.89664,3.89664,0,0,0,3.84229-3.2475l3.3992-20.1154A2.94683,2.94683,0,0,0,447.74633,286.30821Z" class="c"/><path d="M154.12424,140.62231h-44.3708a5.76208,5.76208,0,0,0-5.762,5.762v34.8591l11.2841-10.2221a4.986,4.986,0,0,1,3.3477-1.2908h35.501a3.95631,3.95631,0,0,0,3.9563-3.9563v-21.1956A3.95631,3.95631,0,0,0,154.12424,140.62231Z" class="h"/><path d="M138.93084,149.56441a4.9151,4.9151,0,0,0-6.9494,0l-.6533.6533-.6535-.6533a4.91393,4.91393,0,1,0-6.9494,6.9493l.6534.6535,6.9495,6.9493,6.9493-6.9493.6534-.6535a4.91836,4.91836,0,0,0,0-6.9493Z" class="x"/><path d="M417.952,93.57851h-44.6297a5.79563,5.79563,0,0,0-5.7956,5.7956v35.0624l11.35-10.2817a5.0153,5.0153,0,0,1,3.3671-1.2983H417.952a3.97939,3.97939,0,0,0,3.9793-3.9794V97.55791A3.97933,3.97933,0,0,0,417.952,93.57851Z" class="h"/><path d="M407.39363,109.50181a1.54791,1.54791,0,0,0-.1227-3.091h-3.0258a2.97043,2.97043,0,0,0-.4639-.0328,8.12924,8.12924,0,0,1-2.35-.1253c-1.3182-.2835.2336-1.8858-.5885-4.8283-.82229-2.9425-3.6841-2.7674-3.54729-1.396s.29569,4.6449-.46611,5.6797a6.73934,6.73934,0,0,1-4.5243,2.554l-.0562,7.7913,3.0605.0222a7.45239,7.45239,0,0,0,4.2516,1.9465v.0275h3.4404l.1699.0012c.0234.0002.0464-.0008.0695-.0012h2.1489a1.41717,1.41717,0,0,0,.8857-2.5239,1.54718,1.54718,0,0,0,.37811-3.0158h.22669a1.54869,1.54869,0,0,0,1.5486-1.5486h0A1.5477,1.5477,0,0,0,407.39363,109.50181Z" class="f"/><polygon points="383.685 117.517 388.93 117.523 388.995 106.143 383.75 106.137 383.685 117.517" class="f"/><path d="M316.04224,220.84381a14.45081,14.45081,0,1,1,7.4524,6.3593,4.43287,4.43287,0,0,0-2.8495-.0982l-5.6234,1.6986,1.3736-4.5475A4.34684,4.34684,0,0,0,316.04224,220.84381Z" class="h"/><path d="M328.28174,205.873l-1.4879,4.5791a.625.625,0,0,1-.5945.432h-4.8147a.62512.62512,0,0,0-.3674,1.1309l3.8951,2.83a.62523.62523,0,0,1,.2271.699l-1.4878,4.579a.62517.62517,0,0,0,.962.699l3.8952-2.8301a.62543.62543,0,0,1,.7349,0l3.8952,2.8301a.62512.62512,0,0,0,.9619-.699l-1.4878-4.579a.62523.62523,0,0,1,.2271-.699l3.8952-2.83a.62512.62512,0,0,0-.3674-1.1309h-4.8148a.62512.62512,0,0,1-.5945-.432l-1.4879-4.5791A.62513.62513,0,0,0,328.28174,205.873Z" class="l"/><path d="M227.19575,154.28256H226.87c-.02784-.02207-.05265-.057-.084-.0644a10.82121,10.82121,0,0,1-7.178-5.739c-2.37859-4.37768-2.99051-9.15277-2.9929-14.04518a.69512.69512,0,0,1,.31913-.48729,36.74038,36.74038,0,0,1,9.08758-3.85735,3.15722,3.15722,0,0,1,1.42056-.123,35.12168,35.12168,0,0,1,9.7662,4.02767.70561.70561,0,0,1,.243.533,32.15441,32.15441,0,0,1-1.78848,11.28172,14.06522,14.06522,0,0,1-4.62905,6.67071A12.12584,12.12584,0,0,1,227.19575,154.28256Zm-.12486-1.51434c.22433-.06745.41014-.11793.59242-.17894a9.97,9.97,0,0,0,5.80139-5.37744,27.68761,27.68761,0,0,0,2.50794-11.92823.64145.64145,0,0,0-.31884-.46608c-1.5552-.759-3.09971-1.548-4.6948-2.2147-1.23721-.51715-2.542-.87267-3.88811-1.324Z" class="q"/><path d="M227.07089,152.76822V131.27887c1.34613.45129,2.6509.80681,3.88811,1.324,1.59509.66673,3.1396,1.45566,4.6948,2.2147a.64145.64145,0,0,1,.31884.46608,27.68761,27.68761,0,0,1-2.50794,11.92823,9.97,9.97,0,0,1-5.80139,5.37744C227.481,152.65029,227.29522,152.70077,227.07089,152.76822Z" class="f"/><path d="M169.45607,211.00811a.93152.93152,0,0,1-1.07064.49225,19.19208,19.19208,0,0,0-8.2918-.16559A6.79944,6.79944,0,0,1,163.382,209.64a15.25369,15.25369,0,0,1,2.539-.3082,2.063,2.063,0,0,0,2.15494-2.182c.00686-3.08043.00234-6.16089.00243-9.24134v-.54574a1.09844,1.09844,0,0,1,1.37773.47968Z" class="q"/><path d="M147.1832,197.84237a1.12542,1.12542,0,0,1,1.37773-.49138v.50873c0,3.048.04142,6.09673-.01739,9.14357a2.20812,2.20812,0,0,0,2.32392,2.33906,8.5402,8.5402,0,0,1,4.74715,1.27272c.20889.13011.40265.28493.60023.43256.07591.05672.14294.12533.22415.19753-1.00163-.09848-1.97114-.238-2.94485-.27979a19.40425,19.40425,0,0,0-5.04682.495,1.028,1.028,0,0,1-1.26412-.45227Z" class="q"/><path d="M158.953,210.64515v-.53c0-3.8769-.00776-7.75385.0137-11.63063a1.86637,1.86637,0,0,1,.3142-.9961,6.74812,6.74812,0,0,1,4.44075-2.70331,14.97288,14.97288,0,0,1,2.1089-.2238c.72811-.04088.99392.22779.99717.9539.00753,1.6827.00285,3.36547.00291,5.04821q.00012,3.19225-.00071,6.38452c-.00082.88266-.18738,1.0738-1.05441,1.11361a10.17084,10.17084,0,0,0-6.17642,2.03106C159.408,210.24687,159.22536,210.41171,158.953,210.64515Z" class="q"/><path d="M157.68623,210.67734a9.10729,9.10729,0,0,0-5.32516-2.4848c-.50458-.07075-1.01573-.10254-1.52506-.12969-.83353-.04443-1.02624-.23548-1.02661-1.08834q-.00244-5.68551,0-11.371a2.50966,2.50966,0,0,1,.01986-.39418.67636.67636,0,0,1,.6909-.64409,8.28063,8.28063,0,0,1,6.34749,2.30923,2.70256,2.70256,0,0,1,.84139,2.05779c-.05359,3.69069-.02283,7.38259-.02283,11.07405Z" class="q"/><path d="M217.96568,264.512a1.09774,1.09774,0,0,1,.35636,1.93852,22.68215,22.68215,0,0,1,.88616,5.87923.6893.6893,0,0,1-.275.609,1.92826,1.92826,0,0,1-1.16788.43179,2.22749,2.22749,0,0,1-1.5327-.34458c-.34513-.24978-.37537-.385-.219-.77611a18.97063,18.97063,0,0,0,1.30319-4.5015c.03-.22278.02977-.44945.05035-.67369a.65381.65381,0,0,0-.31589-.6935,1.02589,1.02589,0,0,1,.10359-1.7095.36987.36987,0,0,0,.20256-.37783c-.00707-.89242-.00926-1.785-.00005-2.67735.00257-.2488.04978-.49714.081-.78732-.31471-.10009-.67574-.217-1.03809-.32962-.4567-.142-.916-.27562-1.37115-.42251-.24083-.07773-.51017-.15019-.51151-.477-.00134-.324.25561-.40525.503-.482q4.05687-1.2593,8.11407-2.51752,1.77331-.55011,3.54655-1.10042a2.68359,2.68359,0,0,1,1.63349.0031q5.80329,1.80143,11.60853,3.59661c.03585.01111.0717.02232.10708.0348.22984.08108.4495.18029.4425.47337-.00662.27726-.217.374-.44041.44361q-1.96054.6112-3.92206,1.21928-3.8695,1.199-7.73865,2.3992a2.8319,2.8319,0,0,1-1.74106.005q-4.12193-1.287-8.248-2.56088c-.29647-.09193-.41253-.02353-.41447.27663C217.96154,262.43306,217.96568,263.47536,217.96568,264.512Z" class="q"/><path d="M220.74887,262.64289c.59614.18354,1.15024.35309,1.70368.52475,1.34311.41659,2.68518.83652,4.02913,1.25036a3.39946,3.39946,0,0,0,2.05082-.00811q2.713-.84167,5.42672-1.68084c.07905-.02446.15946-.04453.26366-.07341.00951.08861.02345.15843.02353.22826.00131,1.127.00581,2.25412-.00069,3.38112a1.87083,1.87083,0,0,1-1.54257,1.9112,28.10328,28.10328,0,0,1-10.41449.00141,1.79656,1.79656,0,0,1-1.528-1.71261C220.71423,265.20947,220.74887,263.95092,220.74887,262.64289Z" class="q"/></g></svg>