<svg xmlns="http://www.w3.org/2000/svg" viewBox="0 0 413.728 327.626"><defs><style>.a{isolation:isolate}.b{fill:#ccc}.c{fill:#9e9e9e}.d{fill:#b3b3b3}.e{fill:#fff}.f{fill:#dedede}.g{fill:#31bf2c}.h{fill:#ffe454}.i{fill:#fa2363}.j{fill:#bababa}.k{fill:#275996}.l,.n,.r{fill:#1c306b}.m{fill:#123466}.n{opacity:.6}.n,.r{mix-blend-mode:multiply}.o{fill:#f2660a}.p{fill:#ffb330}.q{fill:none;stroke:#123466;stroke-miterlimit:10}.s{fill:#9c1b41}.t{fill:#ffba82}.u{fill:#ed944c}.v{fill:#7a141d}.w{fill:#fc3063}</style></defs><title>Asset 2</title><g class="a"><path d="M5.5364,0H349.10549a5.5365,5.5365,0,0,1,5.5365,5.5365V230.2194a5.5364,5.5364,0,0,1-5.5364,5.5364H5.5364A5.5364,5.5364,0,0,1,0,230.2194V5.5364A5.5364,5.5364,0,0,1,5.5364,0Z" class="b"/><path d="M354.642,203.5158H0V4.8165A4.81647,4.81647,0,0,1,4.8165,0H349.82539a4.81658,4.81658,0,0,1,4.8166,4.8166Z" class="c"/><path d="M185.38119,222.1492H171.276a4.03,4.03,0,0,1-4.03009-4.0302h0a4.02987,4.02987,0,0,1,4.03009-4.0299h14.1052a4.02971,4.02971,0,0,1,4.0299,4.0299h0A4.02984,4.02984,0,0,1,185.38119,222.1492Z" class="c"/><path d="M201.85519,273.1895V235.7558h-48.2799v37.4337a19.166,19.166,0,0,1-19.166,19.1662h0v16.0714h87.83819V292.3557h-1.226A19.16622,19.16622,0,0,1,201.85519,273.1895Z" class="b"/><polygon points="201.855 241.179 153.575 246.603 153.575 235.756 201.855 235.756 201.855 241.179" class="d"/><rect width="327.433" height="173.766" x="13.102" y="12.968" class="e"/><rect width="330.843" height="176.63" x="12.907" y="11.253" class="f"/><rect width="330.843" height="22.937" x="12.907" y="11.253" class="e"/><rect width="267.663" height="10.12" x="22.087" y="17.493" class="f" rx="2.228"/><path d="M309.95019,22.5533a4.73785,4.73785,0,1,1-4.738-4.7377A4.738,4.738,0,0,1,309.95019,22.5533Z" class="g"/><path d="M323.08769,22.5533a4.73775,4.73775,0,1,1-4.7377-4.7377A4.738,4.738,0,0,1,323.08769,22.5533Z" class="h"/><path d="M336.22539,22.5533a4.738,4.738,0,1,1-4.738-4.7377A4.738,4.738,0,0,1,336.22539,22.5533Z" class="i"/><rect width="153.44" height="124.073" x="22.087" y="48.975" class="e"/><rect width="71.278" height="5.97" x="185.416" y="48.975" class="e"/><rect width="71.278" height="5.97" x="185.416" y="60.785" class="e"/><rect width="71.278" height="5.97" x="185.416" y="72.596" class="e"/><rect width="71.278" height="5.97" x="185.416" y="84.406" class="e"/><rect width="71.278" height="5.97" x="185.416" y="96.216" class="e"/><rect width="71.278" height="5.97" x="185.416" y="108.027" class="e"/><rect width="71.278" height="5.97" x="185.416" y="119.837" class="e"/><rect width="71.278" height="5.97" x="185.416" y="131.647" class="e"/><rect width="71.278" height="5.97" x="185.416" y="143.458" class="e"/><rect width="71.278" height="5.97" x="185.416" y="155.268" class="e"/><rect width="71.278" height="5.97" x="185.416" y="167.078" class="e"/><rect width="71.278" height="5.97" x="262.928" y="48.975" class="e"/><rect width="71.278" height="5.97" x="262.928" y="60.785" class="e"/><rect width="71.278" height="5.97" x="262.928" y="72.596" class="e"/><rect width="71.278" height="5.97" x="262.928" y="84.406" class="e"/><rect width="71.278" height="5.97" x="262.928" y="96.216" class="e"/><rect width="71.278" height="5.97" x="262.928" y="108.027" class="e"/><rect width="71.278" height="5.97" x="262.928" y="119.837" class="e"/><rect width="71.278" height="5.97" x="262.928" y="131.647" class="e"/><rect width="71.278" height="5.97" x="262.928" y="143.458" class="e"/><rect width="71.278" height="5.97" x="262.928" y="155.268" class="e"/><rect width="71.278" height="5.97" x="262.928" y="167.078" class="e"/><path d="M59.9098,60.0611H90.9532a2.08427,2.08427,0,0,1,2.0827,2.1656L91.5764,99.6161a2.08427,2.08427,0,0,1-2.0827,2.003H37.6648a2.08436,2.08436,0,0,1-2.0828-2.003L34.1225,62.2267a2.08433,2.08433,0,0,1,2.0827-2.1656H59.9098Z" class="j"/><path d="M88.9411,61.5251l-.7917-2.9279a2.08426,2.08426,0,0,0-2.012-1.5403H72.0644a2.08417,2.08417,0,0,0-2.012,1.5403l-.7917,2.9279a2.0844,2.0844,0,0,1-2.0121,1.5402H36.2052a2.08433,2.08433,0,0,0-2.0827,2.1656l1.4595,37.3894a2.08436,2.08436,0,0,0,2.0828,2.003H89.4937a2.08427,2.08427,0,0,0,2.0827-2.003l1.4595-37.3894a2.08427,2.08427,0,0,0-2.0827-2.1656h0A2.0844,2.0844,0,0,1,88.9411,61.5251Z" class="f"/><rect width="21.53" height="5.039" x="65.081" y="95.344" class="e" rx="1.696"/><path d="M59.9098,118.7454H90.9532a2.08427,2.08427,0,0,1,2.0827,2.1656l-1.4595,37.3894a2.08427,2.08427,0,0,1-2.0827,2.003H37.6648a2.08436,2.08436,0,0,1-2.0828-2.003L34.1225,120.911a2.08433,2.08433,0,0,1,2.0827-2.1656H59.9098Z" class="j"/><path d="M88.9411,120.2093l-.7917-2.9278a2.08426,2.08426,0,0,0-2.012-1.5403H72.0644a2.08417,2.08417,0,0,0-2.012,1.5403l-.7917,2.9278a2.08438,2.08438,0,0,1-2.0121,1.5403H36.2052a2.08433,2.08433,0,0,0-2.0827,2.1656l1.4595,37.3894a2.08436,2.08436,0,0,0,2.0828,2.003H89.4937a2.08427,2.08427,0,0,0,2.0827-2.003l1.4595-37.3894a2.08427,2.08427,0,0,0-2.0827-2.1656h0A2.08438,2.08438,0,0,1,88.9411,120.2093Z" class="f"/><rect width="21.53" height="5.039" x="65.081" y="154.029" class="e" rx="1.696"/><path d="M130.3654,60.0611h31.04339a2.08433,2.08433,0,0,1,2.0827,2.1656L162.032,99.6161a2.08436,2.08436,0,0,1-2.0828,2.003H108.1204a2.08429,2.08429,0,0,1-2.0828-2.003l-1.4595-37.3894a2.08427,2.08427,0,0,1,2.0827-2.1656h23.7046Z" class="j"/><path d="M159.39669,61.5251l-.7917-2.9279a2.08437,2.08437,0,0,0-2.01209-1.5403H142.52a2.08438,2.08438,0,0,0-2.0121,1.5403l-.7917,2.9279a2.08429,2.08429,0,0,1-2.012,1.5402H106.6608a2.08427,2.08427,0,0,0-2.0827,2.1656l1.4595,37.3894a2.08429,2.08429,0,0,0,2.0828,2.003h51.82879a2.08436,2.08436,0,0,0,2.0828-2.003l1.4595-37.3894a2.08433,2.08433,0,0,0-2.0827-2.1656h0A2.0844,2.0844,0,0,1,159.39669,61.5251Z" class="f"/><path d="M137.2329,95.3444H155.371a1.6959,1.6959,0,0,1,1.6959,1.6959v1.6471a1.696,1.696,0,0,1-1.696,1.696h-18.138a1.696,1.696,0,0,1-1.696-1.696v-1.647a1.696,1.696,0,0,1,1.696-1.696Z" class="e"/><path d="M130.3654,118.7454h31.04339a2.08433,2.08433,0,0,1,2.0827,2.1656l-1.4595,37.3894a2.08436,2.08436,0,0,1-2.0828,2.003H108.1204a2.08429,2.08429,0,0,1-2.0828-2.003l-1.4595-37.3894a2.08427,2.08427,0,0,1,2.0827-2.1656h23.7046Z" class="j"/><path d="M159.39669,120.2093l-.7917-2.9278a2.08437,2.08437,0,0,0-2.01209-1.5403H142.52a2.08438,2.08438,0,0,0-2.0121,1.5403l-.7917,2.9278a2.08426,2.08426,0,0,1-2.012,1.5403H106.6608a2.08427,2.08427,0,0,0-2.0827,2.1656l1.4595,37.3894a2.08429,2.08429,0,0,0,2.0828,2.003h51.82879a2.08436,2.08436,0,0,0,2.0828-2.003l1.4595-37.3894a2.08433,2.08433,0,0,0-2.0827-2.1656h0A2.08438,2.08438,0,0,1,159.39669,120.2093Z" class="f"/><path d="M137.2329,154.0287H155.371a1.6959,1.6959,0,0,1,1.6959,1.6959v1.6471a1.696,1.696,0,0,1-1.696,1.696H137.23281a1.69591,1.69591,0,0,1-1.69591-1.69591V155.7247A1.696,1.696,0,0,1,137.2329,154.0287Z" class="e"/><rect width="104.776" height="238.792" x="190.653" y="69.689" class="k"/><rect width="88.217" height="219.438" x="198.775" y="78.569" class="l"/><rect width="83.611" height="49.925" x="201.235" y="136.541" class="k"/><rect width="83.611" height="49.925" x="201.235" y="191.168" class="k"/><rect width="83.611" height="49.925" x="201.235" y="243.009" class="k"/><rect width="21.493" height="4.702" x="232.295" y="198.332" class="l"/><rect width="83.611" height="49.925" x="201.235" y="80.933" class="k"/><rect width="21.493" height="1.542" x="232.295" y="88.545" class="l"/><polygon points="201.399 136.541 189.612 147.959 296.47 147.959 284.683 136.541 201.399 136.541" class="m"/><polygon points="190.653 211.765 295.429 211.765 190.653 222.081 190.653 211.765" class="n"/><path d="M238.12259,133.2256h42.0801a2.82545,2.82545,0,0,1,2.82321,2.9356l-1.97851,50.6823a2.82533,2.82533,0,0,1-2.8232,2.7152h-70.2554a2.82539,2.82539,0,0,1-2.8232-2.7152l-1.9785-50.6823a2.82543,2.82543,0,0,1,2.8232-2.9356h32.1323Z" class="o"/><path d="M277.47529,135.2101l-1.0732-3.9689a2.82531,2.82531,0,0,0-2.7274-2.0878h-19.0763a2.82541,2.82541,0,0,0-2.7274,2.0878l-1.07309,3.9689a2.82546,2.82546,0,0,1-2.72751,2.0878h-42.0801a2.82543,2.82543,0,0,0-2.8232,2.9356l1.9785,50.6823a2.82539,2.82539,0,0,0,2.8232,2.7152h70.2554a2.82533,2.82533,0,0,0,2.8232-2.7152l1.97851-50.6823a2.82545,2.82545,0,0,0-2.82321-2.9356h0A2.82523,2.82523,0,0,1,277.47529,135.2101Z" class="p"/><path d="M246.82859,181.0531h25.7926a1.696,1.696,0,0,1,1.696,1.696v3.4385a1.696,1.696,0,0,1-1.696,1.696h-25.7927a1.6959,1.6959,0,0,1-1.6959-1.6959v-3.4386A1.696,1.696,0,0,1,246.82859,181.0531Z" class="e"/><line x1="256.154" x2="271.983" y1="133.858" y2="133.858" class="q"/><path d="M233.88549,138.7685H277.7189a2.9431,2.9431,0,0,1,2.94089,3.0578l-2.06089,52.7941a2.94313,2.94313,0,0,1-2.94091,2.8283h-73.1827a2.94311,2.94311,0,0,1-2.9409-2.8283l-2.0608-52.7941a2.943,2.943,0,0,1,2.9408-3.0578h33.4711Z" class="o"/><path d="M274.8779,140.8355,273.76,136.7014a2.94313,2.94313,0,0,0-2.84109-2.1749H251.04779a2.943,2.943,0,0,0-2.841,2.1749l-1.11789,4.1341a2.94316,2.94316,0,0,1-2.84111,2.1749h-43.8334a2.94305,2.94305,0,0,0-2.9408,3.0579l2.0608,52.7941a2.94318,2.94318,0,0,0,2.9409,2.8283H275.658a2.9432,2.9432,0,0,0,2.94091-2.8283l2.06089-52.7941a2.94312,2.94312,0,0,0-2.94089-3.0579h0A2.943,2.943,0,0,1,274.8779,140.8355Z" class="p"/><path d="M242.88359,188.5888h27.0086a1.696,1.696,0,0,1,1.696,1.696v3.7231a1.6959,1.6959,0,0,1-1.6959,1.6959h-27.0088a1.6959,1.6959,0,0,1-1.6959-1.6959v-3.7231A1.696,1.696,0,0,1,242.88359,188.5888Z" class="e"/><rect width="106.857" height="63.806" x="189.612" y="147.959" class="k"/><line x1="253.091" x2="268.92" y1="139.031" y2="139.031" class="q"/><polygon points="220.718 308.482 220.398 281.616 227.66 308.482 220.718 308.482" class="r"/><path d="M248.04939,273.0131l34.2497-7.5255a2.35454,2.35454,0,0,1,2.8229,1.8844l7.4536,41.6051a2.3545,2.3545,0,0,1-1.8123,2.7148l-57.1822,12.5643a2.35447,2.35447,0,0,1-2.7834-1.705l-10.6742-40.8974a2.35442,2.35442,0,0,1,1.7729-2.8942h0C222.93529,278.5313,247.01049,273.2414,248.04939,273.0131Z" class="o"/><path d="M280.43409,267.5905l-1.58319-3.0383a2.35446,2.35446,0,0,0-2.59331-1.2116l-15.5265,3.4115a2.35445,2.35445,0,0,0-1.8465,2.1871l-.16369,3.4222a2.35429,2.35429,0,0,1-1.84651,2.1871l-34.2497,7.5255a2.35443,2.35443,0,0,0-1.7729,2.8942l10.6742,40.8975a2.35442,2.35442,0,0,0,2.7834,1.705l57.1821-12.5643a2.35448,2.35448,0,0,0,1.8123-2.7148l-7.4536-41.6051a2.35439,2.35439,0,0,0-2.8228-1.8844h0A2.35438,2.35438,0,0,1,280.43409,267.5905Z" class="p"/><path d="M264.33166,308.01109h20.92864a1.696,1.696,0,0,1,1.696,1.696v2.30008a1.696,1.696,0,0,1-1.696,1.696H264.33181a1.696,1.696,0,0,1-1.696-1.696V309.707a1.69589,1.69589,0,0,1,1.69589-1.69589Z" class="e" transform="translate(-60.30916 66.2155) rotate(-12.39239)"/><line x1="260.897" x2="276.342" y1="269.706" y2="266.237" class="q"/><rect width="21.493" height="1.542" x="232.295" y="158.18" class="l"/><rect width="21.493" height="1.542" x="232.295" y="252.095" class="l"/><path d="M376.87939,72.96s3.78251,12.7766,11.6119,15.2033c9.2381,2.8634,5.026,15.8696-1.15239,16.0106,0,0,10.54979,12.6752-5.85581,16.0847-13.68,2.8431-21.1978-34.6837-21.1978-34.6837Z" class="l"/><path d="M342.41819,75.9975s3.95471,10.8259-.09629,15.5758,1.55349,11.229,5.63079,8.8776c0,0-3.0397,10.0842,7.17921,7.1153s3.07579-29.9192,3.07579-29.9192Z" class="l"/><polygon points="325.544 295.813 301.603 313.45 330.257 313.698 334.574 309.118 336.702 313.727 344.139 313.761 340.92 294.438 325.544 295.813" class="i"/><polygon points="312.701 305.275 313.743 310.842 332.868 310.928 330.257 313.698 301.603 313.45 312.701 305.275" class="s"/><polygon points="335.469 311.057 343.695 311.093 344.139 313.761 336.702 313.727 335.469 311.057" class="s"/><path d="M337.42679,295.8527s-6.1646,7.3548-17.8392,4.3487l8.29531-6.4294Z" class="t"/><polygon points="330.338 164.604 291.821 167.934 289.912 145.826 320.156 143.214 341.449 109.416 357.404 124.837 330.338 164.604" class="i"/><path d="M370.77819,170.3623s8.9441,28.1914-3.9567,34.4552c-14.0058,6.8005-23.1889,37.1529-23.1889,37.1529s-2.4875,25.848-2.2416,33.9832c.20491,6.7801-.2423,16.0354-.4707,18.4841-.1806,1.9362-15.2932,2.2315-15.3759,1.3755-.4619-4.779-1.337-20.0067-1.6994-23.4313-1.5498-14.6448-3.3819-27.0354-1.2872-39.0668,2.13511-12.2651,13.0325-56.0399,13.0325-56.0399Z" class="m"/><polygon points="388.327 287.523 378.034 315.421 402.101 299.868 403.187 293.668 407.499 296.347 413.728 292.284 400.412 277.917 388.327 287.523" class="i"/><polygon points="382.805 302.49 386.738 306.566 402.757 296.118 402.101 299.868 378.034 315.421 382.805 302.49" class="s"/><polygon points="405 294.795 411.89 290.301 413.728 292.284 407.499 296.347 405 294.795" class="s"/><path d="M377.85559,170.8976s11.9655,24.4315,2.6796,35.3603c-5.7449,6.7617-3.58329,25.1904-3.58329,25.1904s20.55629,43.3116,25.80549,48.9997l-14.89349,8.3315c-3.35121-3.6208-14.34531-19.2759-16.49391-21.967-2.1485-2.6909-14.1898-20.7018-17.1705-27.9903-6.4932-15.8777-12.31659-61.2702-12.31659-61.2702Z" class="k"/><path d="M354.77739,100.9492l22.2971,5.7794c11.7758,3.981,15.7239,11.9412,14.114,18.5192l-10.7182,37.0557,2.1655,21.9721-47.5076-5.219,3.7259-31.0175c-8.5419-16.7365,2.6891-38.5423,8.2925-44.5686,0,0,4.7339-1.7225,5.8787-2.1129C354.36479,100.9008,354.21509,100.8306,354.77739,100.9492Z" class="e"/><path d="M372.8769,85.5005l.43029,18.4449c-.19629,1.9872-5.3202,6.7593-10.6646,7.6294a4.6435,4.6435,0,0,1-5.284-5.3958l2.4395-14.044Z" class="t"/><path d="M357.92749,102.9297l1.1073-6.3279,11.4706-4.9265-.4693,2.5374S368.33549,98.4036,357.92749,102.9297Z" class="u"/><path d="M373.893,105.7319l-16.6048,89.9468,29.0836-.7647-3.4723-38.6817,9.4791-42.8734S388.22219,109.4389,373.893,105.7319Z" class="i"/><path d="M354.356,100.8983a19.1502,19.1502,0,0,0-16.4184,13.6763c-4.6445,15.2336.0898,40.3464.0898,40.3464l-8.6176,35.1583,2.8643.3503,2.8541-11.373s10.5415-30.6402,5.7452-42.2529C336.44779,126.0885,354.356,100.8983,354.356,100.8983Z" class="i"/><polygon points="373.994 106.016 373.249 101.442 359.649 111.029 361.726 116.849 373.994 106.016" class="i"/><polygon points="358.474 99.877 358.117 101.815 359.649 111.029 355.165 114.575 355.307 101.095 358.474 99.877" class="i"/><path d="M372.33659,94.3378,360.293,99.8982a7.41218,7.41218,0,0,1-7.1403-.2788,7.33313,7.33313,0,0,1-3.1935-4.5621l-5.0387-14.9065,21.1012-8.5342Z" class="t"/><path d="M344.15009,76.1785c-.183,1.0846,19.46,10.2835,22.746,6.9742,6.4439-6.4891,6.1097,7.874,6.1097,7.874s14.7306-23.3119-9.35389-27.0682C354.37049,62.5108,345.67859,67.1227,344.15009,76.1785Z" class="l"/><path d="M350.74419,85.8853a.69533.69533,0,1,1-.933-.3112A.69529.69529,0,0,1,350.74419,85.8853Z" class="m"/><path d="M353.63949,92.874a6.03292,6.03292,0,0,0,1.613-2.5736.16124.16124,0,0,0-.0995-.2041.15928.15928,0,0,0-.2039.0995c-1.3428,3.8681-4.356,3.5123-4.4835,3.4963a.16038.16038,0,0,0-.0434.3178A4.34223,4.34223,0,0,0,353.63949,92.874Z" class="m"/><path d="M346.61569,84.8342l-.6204,4.7585a1.24441,1.24441,0,0,0,.9051,1.361l1.9658.5387Z" class="t"/><path d="M399.72519,282.4682s-3.5118,12.5253-14.5689,13.65l2.70761-7.3387Z" class="t"/><rect width=".321" height="22.191" x="298.694" y="145.088" class="m" transform="translate(-13.06201 28.06091) rotate(-5.26102)"/><path d="M299.34049,130.8501l34.0412-7.4796a2.34008,2.34008,0,0,1,2.8057,1.8729l7.4082,41.3518a2.34013,2.34013,0,0,1-1.8012,2.6983l-56.8341,12.4878a2.34025,2.34025,0,0,1-2.7665-1.6947l-10.6092-40.6484a2.34018,2.34018,0,0,1,1.7621-2.8766h0C274.37929,136.3347,298.308,131.077,299.34049,130.8501Z" class="o"/><path d="M286.10729,132.4646l4.1965,3.0317a2.31686,2.31686,0,0,0,1.0949.5062c1.236.218,3.7965.5434,3.5379-.5552-.34-1.4431-5.1516-5.3722-5.1516-5.3722" class="t"/><path d="M282.86509,133.8683l4.1964,3.0318a2.31752,2.31752,0,0,0,1.0951.5062c1.2358.2181,3.7964.5435,3.5377-.5552-.3398-1.4431-5.15139-5.3723-5.15139-5.3723" class="t"/><path d="M279.6229,135.2721l4.19659,3.0318a2.31788,2.31788,0,0,0,1.0947.5061c1.236.2181,3.7966.5436,3.5379-.5551-.3399-1.4431-5.1515-5.3723-5.1515-5.3723" class="t"/><path d="M280.49349,134.9873s4.3765,3.2282,4.71641,4.6714c.25869,1.0985-2.30181.773-3.53781.5551a2.31651,2.31651,0,0,1-1.0949-.5063l-2.3478-1.6961a2.40942,2.40942,0,0,1-.5612-3.4194c1.3673-1.9082,5.6239-3.3726,9.2616-4.7329,5.9358-2.2196,9.4563,1.6496,9.4563,1.6496l-4.12519.9103Z" class="t"/><rect width="60.715" height="39.138" x="279.171" y="136.461" class="e" transform="translate(-26.27304 70.06129) rotate(-12.39229)"/><path d="M329.19539,132.5336l-1.5736-3.0199a2.3402,2.3402,0,0,0-2.5775-1.2042l-15.432,3.3908a2.3401,2.3401,0,0,0-1.8353,2.1738l-.1627,3.4013a2.34,2.34,0,0,1-1.8352,2.1738l-34.0413,7.4797a2.34011,2.34011,0,0,0-1.762,2.8766l12.9419,33.5755a2.34016,2.34016,0,0,0,2.7665,1.6946l56.834-12.4878a2.34028,2.34028,0,0,0,1.8013-2.6983l-9.741-34.2788a2.34,2.34,0,0,0-2.80559-1.8729h0A2.34023,2.34023,0,0,1,329.19539,132.5336Z" class="p"/><path d="M315.53414,165.6351h20.78042a1.696,1.696,0,0,1,1.696,1.696v2.26549a1.69594,1.69594,0,0,1-1.69594,1.69594H315.53406a1.696,1.696,0,0,1-1.696-1.696v-2.26541a1.696,1.696,0,0,1,1.696-1.696Z" class="e" transform="translate(-28.55938 73.86981) rotate(-12.39232)"/><path d="M333.92469,170.3101l-11.7334.1652a2.15061,2.15061,0,0,0-.95539.2214c-.81381.4223-2.40541,1.3585-1.44681,1.7835,1.2592.5585,13.988.5677,13.988.5677" class="t"/><path d="M336.97369,160.602l-2.686,1.6114a5.29783,5.29783,0,0,1-1.633.6239l-10.0162,1.5769s-2.5244,1.2019-1.2913,2.0009c1.233.7992,12.4618.7138,12.4618.7138l-13.5545.1907a1.77288,1.77288,0,0,0-.7718.1754c-.8631.4361-2.9501,1.5972-1.7961,2.109,1.436.6366,15.954.6475,15.954.6475" class="t"/><path d="M322.82069,173.6917a5.10935,5.10935,0,0,1,2.0914-.8639l7.9466.0483.4401-6.1628,3.6749-6.1113,6.3278-.4311s7.4835,5.1101-.1467,12.6157a4.287,4.287,0,0,1-2.1301,1.0683l-7.3383,1.5527a2.76015,2.76015,0,0,1-.4682.0018c-1.5861-.1274-9.8419-.2813-10.4157-.5356C322.47449,174.7283,322.51249,173.9927,322.82069,173.6917Z" class="t"/><path d="M334.73349,162.7608l.8415-1.937c.3273-.8972-.7648-1.4556-1.6796-2.2432l-3.2329-2.2099c-.4138-.283-.3718-.7561.0876-.8894a5.81357,5.81357,0,0,1,4.8647.4395l8.5353,4.4198Z" class="t"/><path d="M383.64869,179.502l-42.267-1.0518,1.5993-22.132,27.0044,1.5168,3.8418-12.4958,18.5514-31.9803,1.9855,1.8648a21.10227,21.10227,0,0,1,6.5845,18.5992,47.696,47.696,0,0,1-3.5174,11.2905Z" class="i"/><path d="M365.34019,83.8069s-21.798,2.5255-23.9585-7.2436S355.73829,65.3619,365.34019,83.8069Z" class="l"/><line x1="310.262" x2="325.67" y1="135.099" y2="131.474" class="q"/><path d="M373.71659,81.8346a4.422,4.422,0,1,1-5.9323-1.9789A4.422,4.422,0,0,1,373.71659,81.8346Z" class="t"/><rect width="3.087" height=".321" x="368.218" y="83.651" class="m" transform="matrix(0.31643, -0.94862, 0.94862, 0.31643, 173.25207, 408.05163)"/><polygon points="371.174 84.452 371.276 84.148 368.348 83.17 368.246 83.475 371.174 84.452" class="m"/><path d="M369.35129,87.6109a1.9246,1.9246,0,1,0,1.9247-1.9246A1.92462,1.92462,0,0,0,369.35129,87.6109Z" class="e"/><rect width="23.678" height="8.334" x="333.988" y="163.244" class="s" transform="translate(155.6707 501.27203) rotate(-86.16654)"/><path d="M347.72409,159.1487a1.44232,1.44232,0,1,1-1.4278-1.4567A1.44236,1.44236,0,0,1,347.72409,159.1487Z" class="e"/><path d="M109.6027,278.1802s14.5227-3.6406,33.4552,0C143.0579,278.1802,126.6329,284.1764,109.6027,278.1802Z" class="i"/><path d="M112.822,279.1776a55.13051,55.13051,0,0,0,26.7196.0178A88.73689,88.73689,0,0,0,112.822,279.1776Z" class="v"/><path d="M126.6321,290.2746l-1.1928-.2518a31.68183,31.68183,0,0,1,27.90239-25.102l.1241,1.2125a30.46269,30.46269,0,0,0-26.83369,24.1413Z" class="g"/><path d="M119.5302,292.6953l-1.007-.6877a30.45837,30.45837,0,0,0-1.0986-36.0769l.9616-.75a31.68044,31.68044,0,0,1,1.144,37.5146Z" class="g"/><path d="M123.3838,298.3748a112.45835,112.45835,0,0,1,7.4403-44.0887,109.83538,109.83538,0,0,1,6.9915-14.6813l1.0588.6031a108.65727,108.65727,0,0,0-6.9138,14.5191,111.23938,111.23938,0,0,0-7.3579,43.6142Z" class="g"/><path d="M114.3397,304.0793a112.45335,112.45335,0,0,1,21.269-39.329,109.82213,109.82213,0,0,1,11.35489-11.64l.8077.9124a108.69279,108.69279,0,0,0-11.22889,11.5114,111.24164,111.24164,0,0,0-21.0383,38.9069Z" class="g"/><path d="M131.2847,254.5139s-6.019-13.3442-2.1187-14.4046,2.9837,6.4705,3.9579,3.512-.99-13.3029,1.8613-13.3431,1.8909,6.1016,3.0146,5.2433.7984-9.9508,5.6701-12.0818,2.1218,6.4783-2.1452,13.3479,3.7637-4.9284,6.50289-3.9075-2.91529,9.447-8.19589,12.6356,5.9942-2.2493,5.4379.6475S138.2412,254.9746,131.2847,254.5139Z" class="g"/><path d="M120.847,259.7157s-10.1641-.4865-9.5892-3.2366,4.9491.1956,3.4247-1.3419-8.5505-3.5877-7.675-5.3661,4.3755.7558,4.1988-.2111-5.9099-3.6366-5.6912-7.3264,4.6817.7318,7.5884,5.5434-1.8635-3.887-.3663-5.2609,4.9295,4.7885,5.2365,9.0655.5-4.4223,2.1182-3.163S123.329,255.5533,120.847,259.7157Z" class="g"/><path d="M137.3451,263.1679s10.0698,1.4651,10.03109-1.3443-4.89529-.7539-3.10509-1.9717,9.07859-1.8873,8.55909-3.8003-4.4394-.0944-4.0811-1.0096,6.496-2.4401,6.9865-6.1037-4.7353-.1765-8.5079,3.9909,2.572-3.4592,1.365-5.0939-5.75389,3.7581-6.87259,7.8975.3544-4.4362-1.4747-3.5095S135.7044,258.6079,137.3451,263.1679Z" class="g"/><path d="M146.31309,266.9427s6.8329,7.5404,8.5915,5.3492-3.2951-3.6977-1.1393-3.4972,8.2027,4.324,9.0199,2.5181-3.3634-2.899-2.5045-3.3767,6.563,2.2537,9.2736-.2593-3.53939-3.1507-9.1018-2.3386,4.1856-1.0303,4.2955-3.0593-6.8297-.7649-10.3277,1.7152,3.0975-3.1955,1.097-3.6453S147.95079,262.3816,146.31309,266.9427Z" class="g"/><path d="M132.859,297.1147l1.2189-.0191a31.68186,31.68186,0,0,0-22.5905-29.9721l-.3536,1.1665a30.46256,30.46256,0,0,1,21.7252,28.8247Z" class="g"/><path d="M118,270.4515s-8.1481,6.0955-9.4555,3.6086,3.9411-2.9998,1.7867-3.215-8.8779,2.6766-9.3349.7478,3.8555-2.2027,3.1037-2.8359-6.8728.9579-9.0531-2.0268,4.0764-2.4161,9.381-.556-3.9115-1.8112-3.6316-3.8238,6.85.5545,9.8095,3.6574-2.4297-3.7286-.3801-3.7877S117.2642,265.6615,118,270.4515Z" class="g"/><path d="M139.3234,308.4234h0a66.40734,66.40734,0,0,1-24.8927.2006l-1.0935-.2006-3.7345-30.2432.685.2069a56.25377,56.25377,0,0,0,32.0851,0l.6851-.2069Z" class="i"/><polygon points="93.096 290.082 117.92 309.326 87.657 308.846 83.216 303.897 80.85 308.71 72.996 308.552 76.895 288.231 93.096 290.082" class="k"/><polygon points="106.413 300.406 105.169 306.257 84.971 305.853 87.657 308.846 117.92 309.326 106.413 300.406" class="m"/><polygon points="82.221 305.921 73.534 305.748 72.996 308.552 80.85 308.71 82.221 305.921" class="m"/><path d="M57.7124,170.7904s-5.5465,31.8109,6.5051,38.7123c7.4562,4.2699,11.0217,36.3668,11.0217,36.3668s-5.4039,44.558-5.7664,46.4606,28.2488.9473,29.4034-.2315c0,0,2.7485-43.502,3.0778-51.3159a494.042,494.042,0,0,0-4.0259-83.4545Z" class="s"/><polygon points="51.274 286.346 67.457 312.43 39.9 301.681 37.518 295.635 33.711 299.237 26.57 296.418 37.065 279.132 51.274 286.346" class="k"/><polygon points="59.956 300.339 56.822 305.276 38.459 298.025 39.9 301.681 67.457 312.43 59.956 300.339" class="m"/><polygon points="35.917 297.15 28.019 294.032 26.57 296.418 33.711 299.237 35.917 297.15" class="m"/><path d="M52.6397,164.2176s-14.307,28.9484-4.6959,38.9732c5.9463,6.2023-.2735,38.3463-.2735,38.3463s-15.3139,41.1907-16.1992,42.9134,23.8125,8.4838,25.2531,7.6792c0,0,19.1191-43.7729,21.2332-51.3026,8.3475-29.7314,13.8432-72.3775,13.8432-72.3775Z" class="i"/><polygon points="69.637 82.641 85.059 86.666 85.083 93.737 68.956 89.736 69.637 82.641" class="m"/><path d="M133.3764,81.1722s-.8553-1.2199,1.7035-3.1771c2.5586-1.957,5.3348-4.5336,6.7272-3.2625,1.3926,1.2711,1.9211,1.8975,3.2878,2.3087s.9052,2.1454,1.91079,3.5559c1.0056,1.4103.8929.9861,1.2728,2.6127.3799,1.6268,2.46741.9772,1.7997,2.7161-.6679,1.7391-1.7004,7.3934-8.655,9.7018,0,0-3.4579-.704-6.7881-4.7232C131.3047,86.8852,133.3764,81.1722,133.3764,81.1722Z" class="t"/><path d="M135.5509,86.2819s1.3209,1.5132,1.7921,1.353a2.23435,2.23435,0,0,0,.3763,1.7273c.5824.5752,1.7946,1.4597,2.4743,1.0881,0,0,.1793,1.4286.961,1.6271s2.0442-.2492,4.2897-1.4597a10.50017,10.50017,0,0,0,2.86129-1.9581s-1.8481,1.784-3.81539,3.459-3.1044,2.3249-4.4044,1.041-.9903-1.6039-3.0964-3.0583c-2.1059-1.4544-3.4142-1.2933-4.1638-3.5426A2.69935,2.69935,0,0,0,135.5509,86.2819Z" class="u"/><path d="M123.2058,76.8312a12.23088,12.23088,0,1,1,15.2356-8.1905A12.24442,12.24442,0,0,1,123.2058,76.8312Zm5.9032-19.6306a8.2681,8.2681,0,1,0,5.5375,10.299A8.27728,8.27728,0,0,0,129.109,57.2006Z" class="w"/><path d="M137.0415,89.194a1.97559,1.97559,0,0,1-1.2043-1.0168l-6.0785-12.2445a1.98139,1.98139,0,0,1,3.5498-1.7614l6.0785,12.2445a1.98154,1.98154,0,0,1-2.3455,2.7782Z" class="w"/><path d="M134.92,82.697s-2.107-2.4564-3.5081-1.9631a2.42989,2.42989,0,0,0-1.8666,2.745,12.09542,12.09542,0,0,0,1.8879,3.846,13.21989,13.21989,0,0,0,3.9296,4.4233s-2.4883-2.86-2.5372-5.1895c0,0,1.8408.9354,2.7253-.2768S136.2093,83.9087,134.92,82.697Z" class="t"/><path d="M148.27849,83.2099c-.3799-1.6266-.2672-1.2024-1.2728-2.6127-1.00559-1.4105-.5442-3.1447-1.91079-3.556-1.3667-.4111-1.8952-1.0375-3.2877-2.3086s-4.1687,1.3055-6.7273,3.2625c-2.5587,1.9572-1.7035,3.1771-1.7035,3.1771a12.9727,12.9727,0,0,0-.5445,5.3893,2.68864,2.68864,0,0,0,2.719-.2796s1.3209,1.5132,1.7922,1.353a2.23418,2.23418,0,0,0,.3762,1.7273c.5824.5752,1.7946,1.4597,2.4743,1.0882,0,0,.1793,1.4285.961,1.627s2.0442-.2492,4.2897-1.4597a14.5116,14.5116,0,0,0,2.53749-1.6492c.2062-.1955.3236-.3089.3236-.3089a3.01939,3.01939,0,0,1-.3236.3089c-.61389.582-2.01889,1.8963-3.49159,3.1501-1.9674,1.6751-3.1044,2.3249-4.4044,1.041s-.9903-1.6039-3.0964-3.0583c-2.0987-1.4494-3.4045-1.2973-4.1554-3.5222a8.30538,8.30538,0,0,0,1.8012,4.3255c3.3301,4.0192,6.788,4.7231,6.788,4.7231,6.95439-2.3083,7.98719-7.9626,8.655-9.7017S148.65839,84.8366,148.27849,83.2099Z" class="t"/><polygon points="110.094 135.025 144.92 97.905 128.689 82.68 107.862 104.883 91.94 92.581 82.472 113.452 110.094 135.025" class="m"/><path d="M81.141,90.61,56.3875,94.5674c-11.9247,3.6327-14.3485,11.5771-12.9346,18.2197l8.2668,31.2436-1.029,29.8067,23.7343,3.847c10.6343,1.7238,24.8252,1.2529,33.2064-5.5156l-.2449-6.0587-4.0582-43.8213c-.0549-8.2518-.8611-19.177-6.2946-25.3878a31.85752,31.85752,0,0,0-5.0938-4.3204C90.781,91.7613,83.6253,90.7952,81.141,90.61Z" class="k"/><path d="M65.0158,69.9157l.6038,20.7566c.1365,1.9979,5.6288,2.0805,10.9594,3.115,3.1277.6069,5.4095,2.7627,4.9595-.3914L79.5198,79.2444Z" class="t"/><path d="M80.609,86.8799l-.9244-6.3765L68.3365,75.2165l.3932,2.5577S70.3138,82.0268,80.609,86.8799Z" class="u"/><path d="M66.5142,79.4462l15.8289,5.0889a7.43281,7.43281,0,0,0,7.0448-1.312,7.35261,7.35261,0,0,0,2.5074-4.9901l.5666-19.5878L69.8147,54.1309Z" class="t"/><path d="M91.4556,64.9445l3.0921,6.6683c.4606.9932-.4243,1.9106-1.6502,1.7108l-2.5194-.4107Z" class="t"/><path d="M88.2756,67.8134a.69738.69738,0,1,0,.8805-.444A.6975.6975,0,0,0,88.2756,67.8134Z" class="m"/><path d="M86.4339,66.2691a.47917.47917,0,0,0,.2805-.0673l2.5402-1.5163a.48282.48282,0,1,0-.4962-.8284l-2.54,1.5163a.4826.4826,0,0,0,.2155.8957Z" class="o"/><path d="M56.1891,188.5358l4.7394,10.951a1.80187,1.80187,0,0,1,.1555.9583c-.1267.8911-.4963,2.6692-1.3695,1.915-1.1471-.9907-6.4974-12.8105-6.4974-12.8105" class="t"/><path d="M65.6679,182.5947l-.6587,3.011a4.321,4.321,0,0,0-.0064,1.7164l2.4545,9.8083s-.2728,2.7295-1.6754,1.8401c-1.4029-.8893-6.0189-11.346-6.0189-11.346l5.475,12.6507a1.48445,1.48445,0,0,1,.1293.773c-.121.9414-.5323,3.2517-1.5835,2.3437-1.3079-1.1299-7.4106-14.6111-7.4106-14.6111" class="t"/><path d="M57.1002,199.9323a4.17334,4.17334,0,0,0,.08-2.2192l-3.3875-7.3655,6.6447-2.3824,5.2305-5.3705-2.1768-6.0153s-8.8024-5.3144-13.9186,4.1763a3.51521,3.51521,0,0,0-.2902,2.3208l1.3579,7.3132a2.523,2.523,0,0,0,.1944.4353c.8067,1.4324,4.4407,9.0512,4.9632,9.5027C56.0966,200.5858,56.896,200.315,57.1002,199.9323Z" class="t"/><path d="M64.2156,185.3669l1.7933-1.402c.8571-.5914,1.9338.2443,3.1904.8417l3.8053,2.295c.4872.2938.9939.1031.9488-.3661a5.49577,5.49577,0,0,0-2.5278-4.3776l-8.4786-6.5124Z" class="t"/><path d="M30.7725,153.1951l17.2598,34.7165,19.9257-9.9081L54.4033,150.7452l10.755-41.3015a9.37335,9.37335,0,0,0-6.7081-11.4328l-3.3922-.8835a9.37347,9.37347,0,0,0-11.4335,6.7089Z" class="m"/><path d="M85.2322,74.7281a5.63788,5.63788,0,0,1-1.7226-2.2554.15032.15032,0,0,1,.0749-.1984.14874.14874,0,0,1,.1982.0749c1.583,3.4831,4.3559,2.8923,4.4731,2.8664a.1498.1498,0,0,1,.0679.2918A4.05644,4.05644,0,0,1,85.2322,74.7281Z" class="m"/><polygon points="63.932 86.826 79.353 90.85 79.378 97.922 63.25 93.921 63.932 86.826" class="m"/><path d="M68.7129,67.1835l6.9512-6.0675s15.731,5.4016,18.953-.4739S97.46,51.7342,97.46,51.7342,68.2566,41.3945,66.238,58.3678,68.7129,67.1835,68.7129,67.1835Z" class="o"/><path d="M63.4781,66.8229a4.81585,4.81585,0,1,0,6.081-3.067A4.81568,4.81568,0,0,0,63.4781,66.8229Z" class="t"/><polygon points="68.664 69.903 68.953 69.759 67.439 66.757 67.15 66.901 68.664 69.903" class="m"/><polygon points="66.624 69.231 69.625 67.716 69.479 67.429 66.478 68.943 66.624 69.231" class="m"/></g></svg>